<svg width="50" height="50" viewBox="0 0 50 50" fill="none" xmlns="http://www.w3.org/2000/svg">
<g id="free-icon-books-2702069 (1) 1" clipPath="url(#clip0_828_1122)">
<path id="Vector" d="M43.755 37.4776C45.4449 37.4851 47.1351 37.5099 48.8247 37.4897C49.3471 37.4834 49.7697 37.5727 50.0703 38.0191C50.0976 38.1557 50.0976 38.3231 50.0703 38.5016C49.7705 38.9874 49.3531 39.1079 48.8286 39.071C48.3127 39.0346 47.792 39.0675 47.2406 39.0459C45.9223 39.0258 44.6369 39.0297 43.3081 39.021C43.1837 39.0028 43.1026 38.9925 43.0216 38.9925C32.0564 38.9916 21.0913 38.9895 10.1262 38.9948C9.08855 38.9953 8.10646 39.2197 7.21087 39.7908C5.41212 40.9377 4.31583 43.6129 5.45708 45.8082C6.40211 47.6261 7.85182 48.6294 9.92592 48.6303C20.9561 48.6352 31.9863 48.6327 43.0165 48.632C43.1301 48.632 43.2438 48.6221 43.403 48.6225C44.7214 48.6253 45.9942 48.6225 47.3123 48.6255C47.6667 48.6318 47.976 48.6271 48.2849 48.6339C48.9248 48.6481 49.6287 48.4507 50.0652 49.1577C50.076 49.1455 50.0868 49.1333 50.0976 49.1211C50.0976 49.2567 50.0976 49.3924 50.07 49.5378C49.9306 49.731 49.8188 49.9143 49.707 50.0977C35.9028 50.0977 22.0987 50.0977 8.28036 50.0681C8.1878 49.9925 8.11487 49.9284 8.03034 49.9032C6.61829 49.4825 5.47461 48.6606 4.65219 47.4589C2.84232 44.8145 3.17001 41.4434 5.48496 39.2008C6.30269 38.4086 7.31334 37.9336 8.44404 37.6078C9.53019 37.5941 10.5709 37.5799 11.6117 37.5797C21.8252 37.578 32.0387 37.5801 42.2522 37.5744C42.7531 37.5741 43.254 37.5113 43.755 37.4776Z" fill="#6E9EFF"/>
<path id="Vector_2" d="M43.7708 37.4475C43.2541 37.5113 42.7532 37.5741 42.2523 37.5744C32.0388 37.5801 21.8253 37.578 11.6118 37.5797C10.571 37.5799 9.53027 37.5941 8.39866 37.6011C7.07364 37.5994 5.83898 37.5755 4.60544 37.6028C2.49836 37.6494 0.562719 36.0007 0.284379 34.0526C0.275393 33.9897 0.162247 33.9417 0.0976564 33.8867C0.0976563 33.4937 0.0976563 33.1007 0.0976562 32.6624C0.162244 32.5626 0.272333 32.5168 0.284806 32.4521C0.653647 30.5402 1.82727 29.3702 3.68325 28.9473C4.37816 28.7889 5.13674 28.9099 5.95699 28.9031C16.039 28.9037 26.0303 28.9048 36.0215 28.9053C36.1027 28.9053 36.1839 28.8971 36.3079 28.8964C38.7785 28.9056 41.2062 28.9111 43.6494 28.9382C43.694 28.9796 43.7232 28.9994 43.7523 29.0192C44.0047 29.3188 44.1171 29.648 43.926 30.019C43.752 30.3568 43.4454 30.3865 43.1013 30.3768C42.437 30.358 41.7717 30.3726 41.016 30.3736C39.6527 30.3785 38.3804 30.3831 37.0628 30.3813C26.2322 30.3737 15.4469 30.3718 4.66155 30.3756C4.38993 30.3757 4.11224 30.4128 3.84772 30.4759C2.2053 30.868 1.14493 32.8018 1.9495 34.378C2.56089 35.5757 3.51805 36.0821 4.85407 36.0801C15.4279 36.0643 26.0018 36.0714 36.5756 36.0703C36.7539 36.0702 36.9322 36.0546 37.1555 36.0551C38.4747 36.0522 39.7489 36.0402 41.0232 36.0283C41.6674 36.0306 42.3117 36.0341 42.9559 36.0349C43.9813 36.0361 44.2496 36.4819 43.7708 37.4475Z" fill="#74D84B"/>
<path id="Vector_3" d="M13.086 1.5784C12.3425 1.5731 11.5989 1.57285 10.8555 1.56022C10.5166 1.55447 10.1374 1.65286 9.94598 1.21893C9.76951 0.818925 9.85611 0.476392 10.0902 0.127116C21.2586 0.0976568 32.4586 0.0976568 43.7043 0.0976562C43.813 0.163054 43.8637 0.258996 43.9404 0.289363C45.6492 0.965658 46.7444 2.21049 47.0368 4.00334C47.2664 5.41194 46.985 6.76505 45.97 7.90126C44.9357 9.05904 43.6739 9.60523 42.1341 9.57361C41.2721 9.5559 40.4095 9.57153 39.4566 9.56902C38.0053 9.56876 36.6445 9.57163 35.236 9.5688C33.711 9.5621 32.2337 9.55838 30.7565 9.56072C28.2893 9.56462 25.8221 9.57239 23.3085 9.57313C19.1813 9.56622 15.1005 9.56685 11.0198 9.55865C10.7316 9.55807 10.4436 9.49249 10.1555 9.45714C9.82734 9.18906 9.75705 8.8022 9.89488 8.4638C10.0405 8.10637 10.4024 7.98657 10.8131 8.0007C11.5372 8.02562 12.2627 8.00706 13.0658 8.02788C13.2896 8.05791 13.4352 8.0745 13.5807 8.07452C22.5462 8.0757 31.5117 8.07574 40.4772 8.07389C40.6549 8.07386 40.8325 8.05021 41.0542 8.05165C41.4884 8.0689 41.8793 8.08947 42.2685 8.07175C43.1465 8.0318 43.9257 7.7698 44.5853 7.13883C45.3248 6.43135 45.556 5.58713 45.5166 4.59738C45.469 3.40463 44.9115 2.54059 43.9001 1.98222C42.9403 1.45231 41.871 1.54526 40.777 1.57214C31.5973 1.56464 22.463 1.56363 13.3288 1.56336C13.2479 1.56336 13.1669 1.57317 13.086 1.5784Z" fill="#FC435F"/>
<path id="Vector_4" d="M35.2837 9.5745C36.6445 9.57163 38.0052 9.56876 39.4113 9.57423C39.4556 13.0306 39.4547 16.4786 39.4102 19.9756C38.3922 20.0285 37.4178 20.0325 36.4117 20.0303C36.338 20.0261 36.2959 20.0281 36.2091 20.0257C35.8726 20.0153 35.5808 20.0094 35.2884 19.9587C35.2865 16.4675 35.2851 13.021 35.2837 9.5745Z" fill="#FAC800"/>
<path id="Vector_5" d="M45.4917 20.0364C46.7743 20.0364 48.057 20.0364 49.3687 20.0364C49.3845 20.1512 49.4121 20.2583 49.4122 20.3655C49.4145 23.1625 49.414 25.9595 49.4128 28.7564C49.4128 28.8207 49.3985 28.885 49.3213 28.9456C48.0035 28.9258 46.7552 28.9097 45.5072 28.8491C45.4993 27.5826 45.4912 26.3605 45.5081 25.1176C45.9686 24.6752 45.9605 24.242 45.5088 23.7627C45.5056 22.5123 45.5026 21.3064 45.4975 20.0844C45.4956 20.0684 45.4917 20.0364 45.4917 20.0364Z" fill="#AD5F2C"/>
<path id="Vector_6" d="M41.0008 32.6162C41.0056 33.0753 41.0104 33.5345 40.9627 34.0385C39.6416 34.0868 38.3732 34.0901 37.0595 34.0908C36.64 34.0872 36.2657 34.0856 35.8915 34.0855C34.1829 34.0851 32.4744 34.0889 30.7659 34.0828C30.207 34.0808 29.9617 33.8312 29.9799 33.3231C29.9961 32.8742 30.3202 32.623 30.9095 32.6217C32.976 32.6174 35.0425 32.6177 37.1548 32.6172C38.4673 32.6174 39.734 32.6168 41.0008 32.6162Z" fill="#C5D7E6"/>
<path id="Vector_7" d="M41.0077 32.571C39.7341 32.6168 38.4674 32.6174 37.1549 32.5715C37.1088 31.8126 37.1085 31.1002 37.1082 30.3878C38.3805 30.3831 39.6528 30.3785 40.9707 30.3794C41.0156 31.0985 41.0151 31.8121 41.0077 32.571Z" fill="#E4ECF2"/>
<path id="Vector_8" d="M37.1047 34.0935C38.3732 34.0901 39.6417 34.0868 40.9549 34.0836C41.0053 34.7019 41.0109 35.3201 41.0199 35.9833C39.749 36.0402 38.4748 36.0522 37.1552 36.0085C37.1082 35.3332 37.1064 34.7133 37.1047 34.0935Z" fill="#E3ECF2"/>
<path id="Vector_9" d="M45.6432 20.0306C45.6871 20.0364 45.6909 20.0684 45.6481 20.0874C42.7086 20.1075 39.8119 20.1097 36.9153 20.1064C36.7579 20.1063 36.6007 20.0609 36.4434 20.0365C37.4178 20.0325 38.3922 20.0285 39.4127 20.0212C41.5056 20.0202 43.5525 20.0225 45.6432 20.0306Z" fill="#AA7766"/>
<path id="Vector_10" d="M45.7023 28.8937C46.9505 28.9097 48.1988 28.9258 49.4804 28.9649C47.6237 28.9951 45.7337 29.0021 43.798 29.0142C43.7231 28.9994 43.694 28.9796 43.6967 28.9336C44.3865 28.9028 45.0444 28.8983 45.7023 28.8937Z" fill="#808064"/>
<path id="Vector_11" d="M35.289 20.0034C35.5808 20.0094 35.8726 20.0153 36.213 20.0702C36.2627 23.0437 36.2639 25.9682 36.2651 28.8927C36.1839 28.8971 36.1027 28.9053 36.0216 28.9053C26.0303 28.9048 16.039 28.9037 6.00235 28.8964C5.95637 25.9961 5.95576 23.102 5.97325 20.1277C6.16916 20.0382 6.34695 20.0209 6.52475 20.0209C10.5082 20.0193 14.4916 20.0212 18.475 20.019C20.1006 20.0181 21.7262 20.0093 23.3961 20.0099C27.3899 20.0117 31.3395 20.0076 35.289 20.0034ZM13.1348 25.9532C14.8736 25.9532 16.6124 25.9534 18.3512 25.9532C19.1962 25.9531 20.0417 25.9712 20.8861 25.9476C21.9594 25.9176 22.5687 25.1428 22.3734 24.098C22.2501 23.4384 21.6734 23.0209 20.8495 23.0199C17.6156 23.016 14.3818 23.0179 11.148 23.0192C11.0021 23.0192 10.8541 23.021 10.7106 23.0443C9.75086 23.2002 9.22369 24.3362 9.71477 25.1646C10.0377 25.7093 10.5286 25.9391 11.1359 25.9498C11.7695 25.9609 12.4034 25.9529 13.1348 25.9532Z" fill="#6E9EFF"/>
<path id="Vector_12" d="M23.3517 20.0041C21.7261 20.0093 20.1005 20.0181 18.4749 20.019C14.4915 20.0212 10.5081 20.0193 6.52466 20.0209C6.34686 20.0209 6.16907 20.0382 5.96614 20.0824C4.53011 20.1174 3.1192 20.1174 1.68433 20.1174C1.68433 16.5627 1.68433 13.0433 1.68433 9.47095C4.48293 9.47095 7.27363 9.47095 10.1098 9.46405C10.4434 9.49249 10.7314 9.55807 11.0196 9.55865C15.1004 9.56684 19.1811 9.56622 23.3072 9.61835C23.3523 13.114 23.352 16.559 23.3517 20.0041Z" fill="#FFDA45"/>
<path id="Vector_13" d="M41.0101 8.03758C40.8325 8.05021 40.6548 8.07386 40.4772 8.07389C31.5117 8.07574 22.5462 8.0757 13.5807 8.07453C13.4351 8.07451 13.2896 8.05791 13.111 8.02485C13.081 7.22001 13.0841 6.43937 13.139 5.61243C18.6056 5.56562 24.0203 5.56519 29.4349 5.56415C29.5974 5.56412 29.8003 5.61782 29.9139 5.54154C30.1516 5.38184 30.4599 5.1804 30.5172 4.94261C30.5683 4.73033 30.3679 4.40201 30.1879 4.20984C30.0765 4.09099 29.7957 4.10376 29.5909 4.10356C24.0949 4.09822 18.599 4.09887 13.103 4.0985C13.0973 3.28816 13.0916 2.47782 13.0859 1.62294C13.1669 1.57317 13.2478 1.56336 13.3288 1.56336C22.463 1.56363 31.5972 1.56464 40.7938 1.59877C40.9681 1.74886 41.071 1.87637 41.1934 1.9811C42.7697 3.33011 42.8271 6.11079 41.25 7.63503C41.1416 7.73979 41.0888 7.90206 41.0101 8.03758Z" fill="#F0F5FA"/>
<path id="Vector_14" d="M13.0952 4.14368C18.5989 4.09887 24.0948 4.09822 29.5908 4.10356C29.7956 4.10376 30.0764 4.09099 30.1878 4.20984C30.3678 4.40201 30.5682 4.73033 30.5171 4.94261C30.4598 5.1804 30.1515 5.38184 29.9138 5.54154C29.8002 5.61782 29.5973 5.56412 29.4348 5.56415C24.0202 5.56519 18.6055 5.56562 13.1461 5.56729C13.0967 5.10858 13.0921 4.64871 13.0952 4.14368Z" fill="#C6D7E6"/>
<path id="Vector_15" d="M43.3574 48.6169C43.2438 48.6221 43.1301 48.632 43.0165 48.632C31.9863 48.6327 20.9561 48.6352 9.92592 48.6303C7.85181 48.6294 6.40211 47.6261 5.45707 45.8082C4.31583 43.6129 5.41212 40.9377 7.21086 39.7908C8.10646 39.2198 9.08855 38.9953 10.1262 38.9948C21.0913 38.9895 32.0564 38.9916 43.0216 38.9925C43.1026 38.9925 43.1837 39.0028 43.3106 39.0608C43.3573 39.812 43.358 40.5109 43.313 41.211C34.7077 41.2127 26.148 41.2132 17.5884 41.2137C17.4257 41.2137 17.2625 41.207 17.1003 41.2161C16.6257 41.2428 16.2974 41.5618 16.3133 41.9731C16.3292 42.3854 16.6612 42.677 17.1388 42.6775C19.8564 42.6803 22.574 42.6783 25.2916 42.6793C31.3126 42.6813 37.3336 42.6842 43.356 42.7313C43.3573 43.4898 43.3573 44.2037 43.3116 44.919C37.3804 44.9211 31.4949 44.9218 25.6093 44.9227C25.4468 44.9227 25.2831 44.9134 25.1218 44.9284C24.6108 44.9759 24.2954 45.3007 24.3275 45.7339C24.3552 46.1085 24.6902 46.3716 25.1635 46.3862C25.326 46.3912 25.4887 46.3874 25.6513 46.3875C31.5531 46.3893 37.4548 46.3911 43.3573 46.4383C43.3578 47.1947 43.3576 47.9058 43.3574 48.6169Z" fill="#F0F5FA"/>
<path id="Vector_16" d="M43.4031 48.6225C43.3577 47.9058 43.3579 47.1947 43.4034 46.4363C44.7156 46.3888 45.9825 46.3887 47.2494 46.3885C47.2549 47.1026 47.2604 47.8166 47.2664 48.5751C45.9943 48.6225 44.7215 48.6253 43.4031 48.6225Z" fill="#E4ECF2"/>
<path id="Vector_17" d="M43.3587 41.2097C43.358 40.5109 43.3573 39.812 43.354 39.0734C44.6369 39.0297 45.9224 39.0258 47.2406 39.0459C47.2704 39.7531 47.2674 40.4361 47.2125 41.1652C45.8933 41.2107 44.626 41.2102 43.3587 41.2097Z" fill="#E4ECF2"/>
<path id="Vector_18" d="M37.0594 34.0908C37.1063 34.7133 37.108 35.3331 37.1101 35.9996C36.9322 36.0546 36.7539 36.0702 36.5756 36.0703C26.0017 36.0714 15.4279 36.0643 4.85403 36.0801C3.518 36.0821 2.56085 35.5757 1.94946 34.378C1.14489 32.8018 2.20526 30.868 3.84768 30.4759C4.11219 30.4128 4.38989 30.3757 4.6615 30.3756C15.4468 30.3718 26.2321 30.3737 37.0627 30.3813C37.1083 31.1002 37.1087 31.8126 37.1089 32.5706C35.0424 32.6177 32.9759 32.6174 30.9094 32.6217C30.3201 32.623 29.996 32.8742 29.9798 33.3231C29.9616 33.8312 30.2069 34.0808 30.7658 34.0828C32.4743 34.0889 34.1828 34.0851 35.8914 34.0855C36.2656 34.0856 36.6399 34.0872 37.0594 34.0908Z" fill="#F0F5FA"/>
<path id="Vector_19" d="M36.2103 28.8964C36.1662 25.9683 36.165 23.0437 36.1599 20.0746C36.1982 20.0281 36.2403 20.0261 36.314 20.0303C36.5029 20.0609 36.6602 20.1063 36.8175 20.1065C39.7142 20.1097 42.6108 20.1075 45.5523 20.1035C45.6002 21.3064 45.6033 22.5123 45.5667 23.7552C45.4809 23.7773 45.4347 23.7495 45.3885 23.7494C43.7494 23.7433 42.1103 23.7301 40.4713 23.7423C40.0086 23.7458 39.7291 24.0862 39.7489 24.5253C39.7665 24.916 40.0757 25.194 40.5233 25.1963C41.6107 25.2022 42.6983 25.2054 43.7857 25.1962C44.3842 25.1911 44.9824 25.1586 45.5808 25.1385C45.5889 26.3606 45.597 27.5826 45.6048 28.8492C44.9467 28.8983 44.2888 28.9028 43.5836 28.9121C41.1085 28.9112 38.6808 28.9056 36.2103 28.8964Z" fill="#BF6930"/>
<path id="Vector_20" d="M23.396 20.0099C23.352 16.559 23.3523 13.114 23.3537 9.62375C25.8219 9.57239 28.2891 9.56462 30.7563 9.56072C32.2336 9.55838 33.7108 9.5621 35.2358 9.5688C35.285 13.021 35.2864 16.4675 35.2883 19.9587C31.3394 20.0076 27.3898 20.0117 23.396 20.0099ZM25.8786 15.1737C25.8788 15.3524 25.8664 15.5322 25.8819 15.7096C25.9185 16.1307 26.2974 16.4444 26.7154 16.4128C27.1151 16.3826 27.3446 16.105 27.3452 15.6468C27.3459 15.0782 27.3481 14.5095 27.3429 13.9409C27.3381 13.427 27.1348 13.2011 26.6759 13.1835C26.2329 13.1666 25.9034 13.4554 25.8827 13.9097C25.865 14.2989 25.8787 14.6895 25.8786 15.1737ZM32.715 14.8903C32.7151 14.5651 32.7208 14.2398 32.7139 13.9148C32.7037 13.4284 32.4708 13.1921 32.0061 13.1834C31.5719 13.1753 31.2678 13.4419 31.2547 13.8906C31.2367 14.5079 31.2106 15.1299 31.2705 15.7418C31.2927 15.9679 31.5081 16.2763 31.7102 16.3549C31.9131 16.4338 32.2517 16.3381 32.4555 16.2043C32.9098 15.9059 32.6531 15.4008 32.715 14.8903ZM28.8175 16.2642C29.626 16.5984 29.9803 16.3668 29.9806 15.5036C29.9808 14.9835 29.9579 14.462 29.9888 13.9437C30.0109 13.572 29.9345 13.2795 29.5477 13.1957C29.1597 13.1117 28.7598 13.1643 28.6497 13.6212C28.4412 14.4872 28.3543 15.3625 28.8175 16.2642Z" fill="#FFF5F5"/>
<path id="Vector_21" d="M41.054 8.05165C41.0886 7.90206 41.1414 7.73979 41.2498 7.63503C42.827 6.11079 42.7695 3.33011 41.1932 1.9811C41.0708 1.87637 40.9679 1.74886 40.8391 1.60531C41.8708 1.54526 42.9401 1.45231 43.8999 1.98222C44.9113 2.54059 45.4688 3.40463 45.5163 4.59738C45.5558 5.58713 45.3246 6.43135 44.5851 7.13883C43.9255 7.7698 43.1463 8.0318 42.2683 8.07175C41.8791 8.08947 41.4882 8.0689 41.054 8.05165Z" fill="#E4ECF2"/>
<path id="Vector_22" d="M43.313 41.211C44.626 41.2102 45.8933 41.2107 47.2054 41.2104C47.2548 41.6689 47.2594 42.1283 47.2116 42.6327C45.891 42.6807 44.6228 42.6837 43.3546 42.6867C37.3336 42.6842 31.3126 42.6813 25.2916 42.6793C22.574 42.6783 19.8564 42.6803 17.1388 42.6775C16.6613 42.677 16.3292 42.3854 16.3133 41.9731C16.2974 41.5618 16.6257 41.2428 17.1003 41.2161C17.2626 41.207 17.4257 41.2137 17.5884 41.2137C26.1481 41.2132 34.7077 41.2127 43.313 41.211Z" fill="#C5D7E6"/>
<path id="Vector_23" d="M47.2568 46.3434C45.9826 46.3887 44.7157 46.3888 43.4028 46.3909C37.455 46.3911 31.5532 46.3893 25.6514 46.3875C25.4889 46.3874 25.3261 46.3912 25.1637 46.3862C24.6903 46.3715 24.3554 46.1085 24.3277 45.7339C24.2956 45.3007 24.611 44.9759 25.122 44.9284C25.2833 44.9134 25.447 44.9227 25.6095 44.9227C31.4951 44.9218 37.3806 44.9211 43.3577 44.9205C44.7161 44.9206 45.9829 44.9205 47.2497 44.9204C47.2546 45.3797 47.2594 45.839 47.2568 46.3434Z" fill="#C5D7E6"/>
<path id="Vector_24" d="M47.2569 44.8752C45.9827 44.9205 44.7159 44.9206 43.4032 44.9192C43.3572 44.2037 43.3573 43.4898 43.356 42.7312C44.6227 42.6837 45.8909 42.6807 47.2038 42.6778C47.2538 43.3953 47.259 44.1127 47.2569 44.8752Z" fill="#E3ECF2"/>
<path id="Vector_25" d="M45.7035 25.1175C45.0802 25.1586 44.482 25.1911 43.8835 25.1962C42.7961 25.2054 41.7085 25.2022 40.6211 25.1963C40.1735 25.1939 39.8643 24.916 39.8467 24.5253C39.8269 24.0862 40.1064 23.7458 40.5691 23.7423C42.2081 23.73 43.8472 23.7433 45.4863 23.7494C45.5325 23.7495 45.5786 23.7773 45.6646 23.7997C46.1559 24.242 46.164 24.6752 45.7035 25.1175Z" fill="#FFF4F4"/>
<path id="Vector_26" d="M13.0859 25.9532C12.4033 25.9529 11.7694 25.9609 11.1358 25.9498C10.5285 25.9391 10.0376 25.7093 9.71466 25.1646C9.22359 24.3362 9.75076 23.2002 10.7105 23.0443C10.854 23.021 11.002 23.0192 11.1479 23.0192C14.3817 23.0179 17.6155 23.016 20.8494 23.02C21.6733 23.0209 22.25 23.4384 22.3733 24.098C22.5686 25.1428 21.9593 25.9176 20.886 25.9476C20.0416 25.9712 19.1961 25.9531 18.3511 25.9532C16.6123 25.9534 14.8735 25.9532 13.0859 25.9532Z" fill="#FFF5F5"/>
<path id="Vector_27" d="M25.8787 15.1265C25.8789 14.6895 25.8651 14.2989 25.8829 13.9097C25.9036 13.4554 26.233 13.1666 26.676 13.1835C27.1349 13.201 27.3383 13.427 27.343 13.9409C27.3483 14.5095 27.3461 15.0782 27.3454 15.6468C27.3448 16.105 27.1152 16.3826 26.7156 16.4128C26.2976 16.4444 25.9186 16.1307 25.882 15.7096C25.8666 15.5322 25.879 15.3524 25.8787 15.1265Z" fill="#687B90"/>
<path id="Vector_28" d="M32.7152 14.9381C32.6532 15.4008 32.9099 15.9059 32.4557 16.2043C32.2519 16.3381 31.9132 16.4338 31.7103 16.3549C31.5083 16.2763 31.2928 15.9679 31.2707 15.7418C31.2107 15.1299 31.2368 14.5079 31.2549 13.8906C31.268 13.4419 31.5721 13.1753 32.0062 13.1834C32.471 13.1921 32.7039 13.4284 32.7141 13.9148C32.7209 14.2398 32.7152 14.5651 32.7152 14.9381Z" fill="#687B90"/>
<path id="Vector_29" d="M28.7902 16.2362C28.3545 15.3625 28.4413 14.4872 28.6499 13.6212C28.7599 13.1643 29.1599 13.1117 29.5478 13.1957C29.9347 13.2795 30.0111 13.572 29.9889 13.9437C29.9581 14.462 29.981 14.9835 29.9808 15.5036C29.9804 16.3668 29.6261 16.5984 28.7902 16.2362Z" fill="#687B90"/>
</g>
<defs>
<clipPath id="clip0_828_1122">
<rect width="50" height="50" fill="white"/>
</clipPath>
</defs>
</svg>
