<svg width="50" height="29" viewBox="0 0 50 29" fill="none" xmlns="http://www.w3.org/2000/svg">
<g id="Group 226" opacity="0.4">
<g id="Group 223">
<path id="Vector" d="M0.000125885 24.6757C0.0649796 24.7869 0.162151 24.8409 0.18996 24.9194C0.889637 26.8953 2.2458 28.0983 4.33139 28.4313C4.74381 28.4971 5.16646 28.5256 5.58444 28.526C11.9926 28.5318 18.4008 28.5501 24.8087 28.5178C26.7226 28.5082 28.5191 27.961 30.1578 26.9434C30.3623 26.8164 30.5809 26.712 30.8406 26.5519C31.0632 26.3906 31.2336 26.2666 31.4142 26.1598C32.5027 25.5165 33.5935 24.8773 34.6387 24.229C34.3005 24.2009 34.0072 24.1804 33.6696 24.1772C31.2659 24.1976 28.9064 24.2007 26.5023 24.2077C20.2895 24.2125 14.1213 24.2176 7.95315 24.2116C6.19114 24.2099 4.67945 23.5996 3.46015 22.2552C2.73562 21.5654 1.90937 21.2384 0.932259 21.2866C0.679798 21.299 0.423973 21.2431 0.169693 21.2187C0.128304 21.2602 0.0869141 21.3018 0.0228233 21.3235C0.000125885 22.4123 0.000125885 23.5212 0.000125885 24.6757Z" fill="#665E66"/>
<path id="Vector_2" d="M34.6834 24.2366C33.5934 24.8772 32.5026 25.5165 31.4141 26.1598C31.2335 26.2665 31.0631 26.3906 30.87 26.5343C32.1809 27.44 33.6084 28.068 35.1901 28.3387C37.2174 28.6856 39.2587 28.4803 41.2933 28.5243C42.6734 28.5542 44.0549 28.5156 45.4354 28.5335C47.3623 28.5584 49.2322 27.5072 49.8169 25.4924C49.8329 25.4375 49.8962 25.3964 49.9687 25.377C50 24.5567 50 23.7083 50 22.8141C49.9187 22.6716 49.8029 22.5871 49.7631 22.4756C49.6728 22.2224 49.6199 21.9558 49.4872 21.6793C49.2657 21.7481 49.1064 21.8282 48.9521 21.917C47.4178 22.8008 45.768 23.2684 43.9958 23.3031C43.6621 23.3096 43.3727 23.2432 43.2568 22.887C43.1527 22.5673 43.2585 22.3048 43.5475 22.1387C45.3034 21.1296 47.0623 20.1257 48.8202 19.12C48.6513 18.4291 48.4841 17.7377 48.3125 17.0475C48.275 16.8968 48.222 16.7499 48.1225 16.5854C47.3513 16.9823 46.6348 17.3969 45.9159 17.8074C44.3249 18.7159 42.7327 19.6222 41.12 20.5564C40.4552 20.9528 39.8116 21.3223 39.1456 21.7174C38.6405 22.0161 38.1576 22.2892 37.6468 22.5795C36.6403 23.1433 35.6619 23.69 34.6834 24.2366Z" fill="#4073C8"/>
<path id="Vector_3" d="M46.5204 8.50332C47.4399 7.53958 47.8152 6.38697 47.7598 5.0648C47.7271 4.28495 47.7693 3.50207 47.7426 2.72176C47.7362 2.53309 47.6206 2.21953 47.5024 2.1922C47.3045 2.14647 46.9961 2.21566 46.8524 2.3568C45.8429 3.34855 44.8347 4.32975 43.6206 5.08599C42.0638 6.05575 40.3926 6.71501 38.5946 7.03722C37.763 7.18626 36.9123 7.33593 36.0741 7.31674C34.7388 7.28616 33.3991 7.16699 32.034 6.75241C30.9134 6.32329 29.8333 5.96428 28.8349 5.44729C27.7577 4.88946 26.6816 4.57474 25.4971 4.84474C29.0985 8.45179 32.6792 12.0345 36.261 15.6161C36.3407 15.6958 36.4325 15.7634 36.5442 15.8147C40.0684 13.8737 43.2677 11.5492 46.1211 8.754C46.2308 8.64653 46.3863 8.58582 46.5204 8.50332Z" fill="#F5626F"/>
<path id="Vector_4" d="M15.4312 12.8882C14.0691 13.4778 12.7129 14.0812 11.3436 14.6535C9.50913 15.4203 7.66451 16.1627 5.8247 16.9168C5.69483 16.97 5.56873 17.0324 5.39385 17.1238C5.32677 17.1811 5.30136 17.1957 5.27062 17.2011C5.27062 17.2011 5.2742 17.202 5.27071 17.2348C5.10212 17.5275 4.93414 17.7855 4.7725 18.0475C4.35763 18.7199 4.58044 19.1843 5.35949 19.2563C6.13176 19.3278 6.77537 19.6546 7.3815 20.1335C8.07791 20.6837 8.82867 21.165 9.59197 21.6833C9.67656 21.6975 9.72499 21.7046 9.81503 21.7051C14.1845 21.2877 18.5124 20.877 22.8264 20.44C22.6961 20.2805 22.5867 20.1401 22.4619 20.0151C20.2501 17.8004 18.0355 15.5884 15.8252 13.3723C15.679 13.2257 15.5619 13.0502 15.4312 12.8882Z" fill="#F5626F"/>
<path id="Vector_5" d="M36.5186 15.8364C36.4325 15.7632 36.3407 15.6956 36.261 15.6159C32.6792 12.0343 29.0985 8.45157 25.4619 4.84302C24.9685 4.95616 24.5308 5.09528 24.0931 5.2344C24.0931 5.2344 24.0712 5.234 24.0812 5.27626C23.9981 5.37764 23.9049 5.43676 23.8118 5.49589C23.6085 5.6859 23.4052 5.87592 23.1775 6.10857C23.6788 6.69587 24.1996 7.24548 24.7316 7.784C25.513 8.57495 25.5713 8.89203 25.0993 9.90065C27.5197 12.3471 29.9288 14.7613 32.3339 17.1795C32.4791 17.3255 32.5917 17.5038 32.7497 17.6805C34.224 19.1243 35.668 20.5547 37.1365 21.9969C37.2086 22.034 37.2564 22.0593 37.3397 22.0703C37.9727 21.9345 38.5703 21.8131 39.1678 21.6917C39.8115 21.3221 40.4552 20.9526 41.0979 20.5297C40.7095 20.0839 40.322 19.6915 39.9347 19.2989C38.7959 18.1448 37.6573 16.9906 36.5186 15.8364Z" fill="#C6C1C8"/>
<path id="Vector_6" d="M36.5444 15.8146C37.6574 16.9908 38.7961 18.145 39.9348 19.2991C40.3221 19.6917 40.7096 20.0841 41.1191 20.503C42.7328 19.6222 44.325 18.7158 45.916 17.8074C46.6349 17.3969 47.3514 16.9823 48.0975 16.5581C48.2995 13.9182 47.9052 11.4053 46.62 9.06947C46.5402 8.92437 46.5284 8.74182 46.5028 8.53999C46.3864 8.58579 46.2309 8.64651 46.1212 8.75398C43.2679 11.5491 40.0686 13.8737 36.5444 15.8146Z" fill="#F1F1F4"/>
<path id="Vector_7" d="M15.4489 12.8601C15.5618 13.0505 15.6789 13.226 15.8251 13.3725C18.0354 15.5887 20.25 17.8006 22.4618 20.0154C22.5866 20.1403 22.696 20.2807 22.8525 20.464C23.4298 21.0392 23.9671 21.5643 24.5291 22.1004C24.6022 22.1352 24.6507 22.159 24.7457 22.1828C27.1384 22.1836 29.4847 22.1844 31.814 22.1577C30.7999 21.1139 29.8027 20.0975 28.7737 19.07C28.5968 18.9305 28.4446 18.8093 28.3078 18.6727C26.4372 16.8053 24.5699 14.9347 22.6988 13.0678C22.3668 12.7365 22.0215 12.4184 21.6834 12.1349C21.8143 12.9365 21.6054 13.4493 21.0423 13.7517C20.5181 14.0333 19.9776 13.9025 19.4309 13.3611C19.2696 13.2014 19.1138 13.036 18.9484 12.8808C18.4673 12.4293 17.9826 11.9816 17.4993 11.5324C16.8218 11.9655 16.1442 12.3986 15.4489 12.8601Z" fill="#C6C1C8"/>
<path id="Vector_8" d="M21.6824 12.0941C22.0216 12.4183 22.3668 12.7364 22.6989 13.0677C24.5699 14.9346 26.4373 16.8053 28.3078 18.6727C28.4446 18.8093 28.5968 18.9304 28.8092 19.0562C30.1576 18.5915 31.4385 18.1294 32.7195 17.6672C32.5917 17.5039 32.479 17.3256 32.3339 17.1797C29.9288 14.7614 27.5197 12.3472 25.0668 9.91132C24.2241 10.4079 23.7467 10.3583 23.0705 9.70354C22.4536 9.10612 21.8289 8.51675 21.2076 7.92383C20.6362 8.50607 20.0648 9.08832 19.4699 9.71624C19.5632 9.89352 19.6753 10.0297 19.7976 10.156C20.4244 10.8034 21.0539 11.4483 21.6824 12.0941Z" fill="#F56470"/>
<path id="Vector_9" d="M24.0998 5.20402C24.5309 5.09556 24.9686 4.95644 25.4415 4.81881C26.6818 4.57479 27.7578 4.88951 28.8351 5.44734C29.8334 5.96434 30.9136 6.32334 31.9956 6.7456C32.0327 6.04121 32.0292 5.34313 32.0319 4.64507C32.0389 2.89398 31.311 1.46848 30.085 0.268906C29.7161 -0.0920009 29.3587 -0.0903708 28.9889 0.278335C27.357 1.90558 25.7332 3.54094 24.0998 5.20402Z" fill="#4173C8"/>
<path id="Vector_10" d="M9.55566 21.6765C8.82851 21.1652 8.07775 20.6838 7.38134 20.1337C6.77522 19.6548 6.13161 19.328 5.35934 19.2565C4.58029 19.1844 4.35747 18.7201 4.77234 18.0477C4.93398 17.7857 5.10196 17.5276 5.26975 17.2333C4.57998 17.4605 3.88569 17.7174 3.19542 17.9847C1.78666 18.5302 0.812913 19.5193 0.239034 20.9097C0.209327 20.9816 0.203888 21.0636 0.178285 21.1797C0.4237 21.243 0.679526 21.2989 0.931985 21.2864C1.9091 21.2383 2.73535 21.5653 3.49661 22.2352C5.55727 22.048 7.55647 21.8622 9.55566 21.6765Z" fill="#C73E48"/>
<path id="Vector_11" d="M48.8547 19.1428C47.0622 20.1259 45.3033 21.1299 43.5475 22.139C43.2585 22.3051 43.1527 22.5676 43.2568 22.8873C43.3727 23.2434 43.6621 23.3099 43.9957 23.3034C45.7679 23.2687 47.4177 22.8011 48.9521 21.9173C49.1063 21.8284 49.2656 21.7483 49.4568 21.6516C49.2904 20.8145 49.0898 19.9899 48.8547 19.1428Z" fill="#D8F0F4"/>
<path id="Vector_12" d="M21.6835 12.135C21.0539 11.4485 20.4244 10.8036 19.7976 10.1561C19.6753 10.0298 19.5632 9.89368 19.4396 9.73038C18.8934 9.29509 18.3255 9.27894 17.7747 9.64123C17.2272 10.0014 17.1013 10.6711 17.4803 11.4987C17.9827 11.9817 18.4674 12.4294 18.9485 12.8809C19.1139 13.0361 19.2697 13.2015 19.4309 13.3612C19.9776 13.9026 20.5182 14.0334 21.0423 13.7518C21.6054 13.4494 21.8144 12.9366 21.6835 12.135Z" fill="#F1F1F4"/>
<path id="Vector_13" d="M21.1917 7.89016C21.8288 8.5167 22.4535 9.10607 23.0704 9.70349C23.7466 10.3583 24.224 10.4078 25.0547 9.87995C25.5712 8.89213 25.5129 8.57505 24.7315 7.7841C24.1995 7.24558 23.6787 6.69596 23.1459 6.11954C22.6611 5.69715 21.8302 5.64121 21.4355 5.97309C20.8113 6.4981 20.7343 7.05645 21.1917 7.89016Z" fill="#F1F1F4"/>
<path id="Vector_14" d="M23.8228 5.46646C23.9051 5.43698 23.9982 5.37786 24.0803 5.28735C23.9908 5.31626 23.9122 5.37654 23.8228 5.46646Z" fill="#4173C8"/>
<path id="Vector_15" d="M5.27576 17.1749C5.30114 17.196 5.32666 17.1813 5.36133 17.1401C5.34432 17.1314 5.31279 17.1399 5.27576 17.1749Z" fill="#C73E48"/>
<path id="Vector_16" d="M9.59207 21.6834C7.55672 21.8622 5.55752 22.048 3.5216 22.2537C4.67943 23.5994 6.19112 24.2097 7.95313 24.2114C14.1213 24.2174 20.2895 24.2123 26.4949 24.1773C26.4228 24.0077 26.3226 23.8636 26.2028 23.7382C25.7049 23.2167 25.2011 22.7007 24.6994 22.1827C24.6509 22.1589 24.6024 22.1351 24.4957 22.1211C24.3099 22.1482 24.1824 22.1804 24.0549 22.1805C19.9342 22.1829 15.8133 22.2024 11.6929 22.1611C11.0517 22.1546 10.4133 21.8686 9.77353 21.7118C9.72509 21.7047 9.67665 21.6976 9.59207 21.6834Z" fill="#DFDDE2"/>
<path id="Vector_17" d="M24.7459 22.1828C25.2011 22.7008 25.7049 23.2167 26.2028 23.7383C26.3226 23.8637 26.4229 24.0078 26.5395 24.1735C28.9064 24.2006 31.2659 24.1975 33.6592 24.1491C33.0981 23.4708 32.5032 22.8378 31.889 22.2001C31.8696 22.1955 31.8311 22.1851 31.8311 22.1851C29.4849 22.1843 27.1386 22.1835 24.7459 22.1828Z" fill="#B1ABB4"/>
<path id="Vector_18" d="M31.9082 22.2049C32.5031 22.8379 33.098 23.4709 33.7033 24.1319C34.007 24.1804 34.3003 24.2009 34.6385 24.229C35.6619 23.69 36.6403 23.1434 37.6357 22.5516C37.5366 22.3659 37.4204 22.2254 37.3043 22.0849C37.2565 22.0596 37.2087 22.0343 37.1058 22.0189C36.733 22.0801 36.4159 22.1707 36.0974 22.176C34.7012 22.1991 33.3047 22.1975 31.9082 22.2049Z" fill="#DEDCE1"/>
<path id="Vector_19" d="M37.3397 22.0706C37.4204 22.2255 37.5365 22.366 37.6637 22.5344C38.1576 22.2893 38.6404 22.0162 39.1455 21.7175C38.5703 21.8134 37.9727 21.9348 37.3397 22.0706Z" fill="#B0A7B3"/>
<path id="Vector_20" d="M9.81507 21.7053C10.4132 21.8687 11.0516 22.1548 11.6929 22.1612C15.8132 22.2025 19.9341 22.183 24.0549 22.1806C24.1824 22.1805 24.3098 22.1483 24.4709 22.1103C23.9673 21.5643 23.4299 21.0392 22.8664 20.4903C18.5124 20.8772 14.1845 21.2879 9.81507 21.7053Z" fill="#F1EFF3"/>
<path id="Vector_21" d="M31.8889 22.2002C33.3047 22.1975 34.7013 22.1992 36.0975 22.1761C36.416 22.1708 36.7331 22.0802 37.0815 22.0071C35.6681 20.555 34.2241 19.1246 32.7498 17.6808C31.4386 18.1295 30.1577 18.5917 28.8412 19.0675C29.8029 20.0976 30.8 21.1139 31.8141 22.1577C31.8311 22.1852 31.8695 22.1956 31.8889 22.2002Z" fill="#F1F0F3"/>
</g>
</g>
</svg>
