<svg width="51" height="51" viewBox="0 0 51 51" fill="none" xmlns="http://www.w3.org/2000/svg">
<g id="essay 2">
<path id="Vector" d="M34.3594 48.6973C32.4511 48.7012 30.5428 48.7081 28.6345 48.7085C21.714 48.7098 14.7935 48.709 7.873 48.709C7.69232 48.709 7.51165 48.709 7.27085 48.709C7.27085 47.1371 7.27085 45.5842 7.26982 43.9383C7.2688 31.6677 7.2688 19.4902 7.2688 7.27147C7.54042 7.27147 7.73673 7.27147 7.93304 7.27147C14.0254 7.27147 20.1179 7.27251 26.2103 7.27105C29.4639 7.27028 32.7175 7.2652 35.9712 7.26207C37.5438 7.26207 39.1164 7.26207 40.7408 7.26207C40.7408 11.2073 40.7408 15.1155 40.7291 19.1002C40.1916 19.7393 39.6658 20.3018 39.1084 20.8811C38.2175 21.751 37.3603 22.6064 36.4982 23.4568C35.6961 24.2479 34.8888 25.0336 34.0577 25.7905C33.7952 25.706 33.5589 25.6066 33.3224 25.6063C26.3235 25.598 19.3247 25.5996 12.3258 25.6C12.1933 25.6 12.0568 25.5866 11.9289 25.6126C11.5235 25.6947 11.2877 25.9467 11.2601 26.364C11.2337 26.7624 11.5131 27.111 11.9139 27.1781C12.0757 27.2052 12.2446 27.1928 12.4103 27.1929C19.1769 27.1952 25.9436 27.1969 32.6966 27.2308C32.4494 27.5066 32.2158 27.7504 31.9503 28.0047C31.0438 28.8691 30.1693 29.723 29.2665 30.5501C29.0325 30.4758 28.8271 30.3887 28.6211 30.3871C27.1446 30.3752 25.6679 30.3789 24.1913 30.3816C23.5604 30.3828 23.2072 30.6763 23.2108 31.1832C23.2145 31.689 23.5655 31.9712 24.2028 31.9743C25.4303 31.9803 26.6578 31.9836 27.8711 32.017C27.4288 32.4777 26.9942 32.9031 26.5748 33.3431C26.2391 33.6954 25.9219 34.0654 25.5812 34.4626C25.4821 34.7264 25.3983 34.9552 25.2674 35.1761C20.875 35.1662 16.5294 35.1642 12.1839 35.1623C12.1176 35.1623 12.0506 35.159 11.9851 35.1668C11.5496 35.2187 11.2525 35.5477 11.2579 35.9688C11.2632 36.3894 11.5639 36.7091 12.0053 36.7509C12.1533 36.7649 12.3036 36.7556 12.4529 36.7558C16.5993 36.7591 20.7458 36.7623 24.8921 36.8028C24.6041 37.8487 24.3161 38.8572 24.0023 39.9562C25.8976 39.4061 27.7112 38.8796 29.5571 38.3499C31.7063 36.2361 33.8233 34.1255 35.9395 32.0141C35.9499 32.0038 35.9504 31.9834 35.9817 31.9481C36.7097 31.2287 37.4086 30.526 38.1139 29.8298C38.9823 28.9727 39.856 28.1211 40.7334 27.3158C40.7441 27.9019 40.7489 28.4392 40.7468 29.0176C40.7445 29.4363 40.7491 29.8139 40.7536 30.1916C40.7489 34.2064 40.7442 38.2212 40.6882 42.2857C38.5601 42.3353 36.4833 42.3353 34.3594 42.3353C34.3594 44.5028 34.3594 46.6001 34.3594 48.6973ZM14.6824 19.2249C14.9465 19.2117 15.2236 19.2444 15.4718 19.1747C15.8681 19.0633 16.0618 18.756 16.0271 18.3394C15.9929 17.9291 15.666 17.6429 15.203 17.6351C14.4293 17.622 13.6553 17.6315 12.8866 17.6315C12.8866 17.0646 12.8866 16.5608 12.8866 16.0363C13.6855 16.0363 14.4482 16.0479 15.2104 16.0322C15.711 16.0218 16.0445 15.6736 16.0336 15.2211C16.0232 14.7886 15.699 14.4555 15.2228 14.4488C14.1772 14.4342 13.131 14.4351 12.0853 14.4481C11.6003 14.4541 11.2687 14.7437 11.2655 15.2052C11.2505 17.3465 11.2522 19.4881 11.2633 21.6296C11.2656 22.0691 11.5364 22.3819 11.9664 22.3945C13.094 22.4276 14.2243 22.4299 15.3516 22.389C15.7789 22.3735 16.034 22.0447 16.0274 21.6036C16.0207 21.1633 15.7593 20.8987 15.3289 20.8295C15.1344 20.7982 14.9314 20.8186 14.7322 20.8183C14.1095 20.8175 13.4868 20.818 12.877 20.818C12.877 20.2482 12.877 19.7562 12.877 19.2249C13.4639 19.2249 14.0248 19.2249 14.6824 19.2249ZM35.0106 16.0369C32.0082 16.0369 29.0058 16.0369 26.0034 16.037C25.8872 16.037 25.771 16.0333 25.655 16.0381C25.1405 16.0593 24.8124 16.3621 24.8046 16.82C24.7964 17.2954 25.1365 17.626 25.6772 17.6281C27.5019 17.6352 29.3266 17.631 31.1512 17.631C32.6607 17.6311 34.1702 17.6316 35.6797 17.6308C36.3954 17.6303 36.7615 17.3533 36.7538 16.8222C36.7461 16.2947 36.3878 16.0382 35.6565 16.037C35.474 16.0367 35.2915 16.0369 35.0106 16.0369ZM28.3164 22.3368C28.7123 22.1352 28.8705 21.8073 28.7481 21.3883C28.6244 20.9644 28.2953 20.8149 27.8648 20.8156C24.761 20.8207 21.6572 20.8164 18.5534 20.82C17.9713 20.8206 17.6228 21.1384 17.6327 21.6313C17.6423 22.1057 17.9802 22.4095 18.5362 22.4102C21.6732 22.4141 24.8102 22.4122 27.9472 22.4101C28.0452 22.41 28.1433 22.3851 28.3164 22.3368ZM26.1475 11.2557C24.4391 11.2557 22.7308 11.2544 21.0224 11.2564C20.3832 11.2572 20.0316 11.5366 20.0233 12.0392C20.015 12.5466 20.3702 12.8483 20.9959 12.8488C24.0643 12.8509 27.1328 12.8509 30.2012 12.8488C30.8281 12.8484 31.1831 12.5482 31.1757 12.0409C31.1684 11.5383 30.8159 11.2576 30.1781 11.2564C28.8677 11.2541 27.5574 11.2557 26.1475 11.2557ZM16.8838 31.9748C18.1443 31.9748 19.4052 31.9929 20.6649 31.9601C20.9317 31.9531 21.2868 31.829 21.4316 31.6333C21.5736 31.4414 21.6154 31.0106 21.4909 30.828C21.3366 30.6018 20.9672 30.4025 20.6885 30.3995C17.886 30.3688 15.083 30.38 12.2801 30.3812C11.6086 30.3815 11.2492 30.6693 11.2577 31.1906C11.2661 31.7057 11.6223 31.9739 12.3063 31.9744C13.7989 31.9756 15.2916 31.9748 16.8838 31.9748ZM18.9853 16.0368C18.8526 16.0368 18.72 16.0353 18.5874 16.0371C17.9904 16.0451 17.6443 16.3271 17.6326 16.8141C17.6203 17.3204 17.9783 17.6283 18.5978 17.6301C19.8246 17.6336 21.0514 17.6346 22.2781 17.6295C22.8631 17.6271 23.2111 17.3186 23.2071 16.8273C23.2031 16.3369 22.8572 16.0407 22.2652 16.0382C21.2042 16.0336 20.1432 16.0368 18.9853 16.0368ZM33.5155 22.4125C33.7806 22.4124 34.0461 22.4197 34.3109 22.4105C34.8243 22.3927 35.1524 22.0862 35.1603 21.6289C35.1686 21.1538 34.8287 20.8256 34.2889 20.8208C33.278 20.8118 32.2669 20.8119 31.256 20.8207C30.7148 20.8254 30.3757 21.151 30.3825 21.6264C30.3892 22.1006 30.7272 22.4045 31.2789 22.4105C31.9915 22.4183 32.7042 22.4125 33.5155 22.4125Z" fill="#F7FBFE"/>
<path id="Vector_2" d="M35.9659 7.21625C32.7175 7.26521 29.4638 7.27028 26.2102 7.27106C20.1178 7.27251 14.0254 7.27148 7.93297 7.27148C7.73666 7.27148 7.54035 7.27148 7.26873 7.27148C7.26873 19.4902 7.26873 31.6677 7.26541 43.8925C5.68943 43.9399 4.11678 43.9399 2.51733 43.9399C2.51733 30.1117 2.51733 16.3319 2.51733 2.52115C13.6434 2.52115 24.768 2.52115 35.9606 2.52115C35.9606 4.06584 35.9606 5.61813 35.9659 7.21625Z" fill="#A7A7A7"/>
<path id="Vector_3" d="M42.0183 17.9266C42.6926 17.2418 43.3267 16.5105 44.0525 15.8857C44.7546 15.2814 45.6616 15.2024 46.4621 15.5875C47.3651 16.022 48.1371 16.7101 48.4396 17.7228C48.7035 18.6063 48.5613 19.4445 47.8597 20.1276C47.2775 20.6946 46.7085 21.2753 46.0862 21.8755C44.6986 20.5762 43.3585 19.2514 42.0183 17.9266Z" fill="#3397E7"/>
<path id="Vector_4" d="M41.9887 17.9397C43.3584 19.2514 44.6986 20.5762 46.0714 21.9058C46.3357 22.1675 46.5976 22.4035 46.7933 22.6854C47.314 23.4354 47.2103 25.0395 46.4602 25.7379C44.9465 27.1471 43.519 28.6489 42.0547 30.1112C41.7145 30.4509 41.2376 30.4907 40.7881 30.2064C40.749 29.8139 40.7444 29.4363 40.7771 29.0068C42.2467 27.5249 43.6813 26.0969 45.1101 24.6633C45.5455 24.2264 45.5428 23.8275 45.1308 23.3658C45.0552 23.2811 44.9917 23.1856 44.9025 23.0697C44.1147 22.2718 43.3434 21.5026 42.5805 20.7252C42.0282 20.1625 41.487 19.5889 40.9409 19.0202C41.2803 18.6644 41.6197 18.3086 41.9887 17.9397Z" fill="#656565"/>
<path id="Vector_5" d="M34.3935 48.6985C34.3594 46.6001 34.3594 44.5028 34.3594 42.3353C36.4833 42.3353 38.5601 42.3353 40.6828 42.3317C40.6762 42.4057 40.6348 42.4943 40.5698 42.5594C38.5238 44.6075 36.4755 46.6534 34.3935 48.6985Z" fill="#A8A8A8"/>
<path id="Vector_6" d="M40.914 19.0295C41.487 19.5889 42.0282 20.1625 42.5805 20.7252C43.3434 21.5026 44.1147 22.2718 44.8698 23.0796C44.2864 23.6777 43.7156 24.2405 43.1149 24.7877C41.77 23.4695 40.4549 22.167 39.1399 20.8644C39.6657 20.3019 40.1916 19.7393 40.7321 19.1463C40.7935 19.0901 40.8403 19.0644 40.914 19.0295Z" fill="#A1D2F6"/>
<path id="Vector_7" d="M39.1084 20.8811C40.455 22.167 41.77 23.4695 43.1009 24.8189C42.3203 25.6661 41.5239 26.4666 40.7274 27.267C39.856 28.1211 38.9822 28.9727 38.1139 29.8298C37.4085 30.526 36.7097 31.2287 35.9535 31.9322C34.5934 30.622 33.2878 29.3081 31.9822 27.9942C32.2158 27.7504 32.4494 27.5066 32.7235 27.2155C33.2039 26.7194 33.6438 26.2705 34.0837 25.8217C34.8887 25.0336 35.6961 24.2479 36.4982 23.4568C37.3603 22.6064 38.2175 21.751 39.1084 20.8811Z" fill="#3598E8"/>
<path id="Vector_8" d="M31.9503 28.0047C33.2878 29.3081 34.5935 30.622 35.9273 31.9518C35.9504 31.9834 35.9499 32.0038 35.9395 32.0142C33.8233 34.1255 31.7063 36.2361 29.5466 38.3159C28.4582 37.2279 27.4155 36.168 26.365 35.1158C26.1224 34.8728 25.8533 34.6562 25.5964 34.4275C25.9219 34.0654 26.2391 33.6954 26.5748 33.3431C26.9942 32.9031 27.4289 32.4777 27.9015 32.0013C28.3957 31.4967 28.8452 31.0368 29.2947 30.5769C30.1693 29.723 31.0438 28.8691 31.9503 28.0047Z" fill="#A3D4F7"/>
<path id="Vector_9" d="M34.0576 25.7905C33.6438 26.2705 33.2039 26.7194 32.7371 27.1835C25.9435 27.1969 19.1769 27.1952 12.4102 27.1929C12.2446 27.1928 12.0756 27.2052 11.9139 27.1781C11.513 27.111 11.2337 26.7624 11.26 26.364C11.2876 25.9467 11.5234 25.6947 11.9288 25.6126C12.0567 25.5866 12.1932 25.6 12.3257 25.6C19.3246 25.5996 26.3235 25.598 33.3223 25.6063C33.5588 25.6066 33.7952 25.706 34.0576 25.7905Z" fill="#A7A7A7"/>
<path id="Vector_10" d="M14.6341 19.2249C14.0248 19.2249 13.464 19.2249 12.877 19.2249C12.877 19.7562 12.877 20.2482 12.877 20.818C13.4868 20.818 14.1095 20.8175 14.7323 20.8183C14.9314 20.8186 15.1345 20.7982 15.329 20.8295C15.7594 20.8987 16.0208 21.1633 16.0274 21.6036C16.0341 22.0447 15.779 22.3735 15.3516 22.389C14.2244 22.4299 13.0941 22.4276 11.9664 22.3945C11.5364 22.3819 11.2657 22.0691 11.2634 21.6296C11.2522 19.4881 11.2505 17.3466 11.2655 15.2052C11.2688 14.7437 11.6004 14.4541 12.0854 14.4481C13.1311 14.4351 14.1772 14.4342 15.2229 14.4488C15.699 14.4555 16.0233 14.7886 16.0337 15.2211C16.0445 15.6736 15.7111 16.0218 15.2104 16.0322C14.4483 16.0479 13.6856 16.0363 12.8866 16.0363C12.8866 16.5608 12.8866 17.0646 12.8866 17.6315C13.6553 17.6315 14.4294 17.622 15.2031 17.6351C15.6661 17.6429 15.9929 17.9291 16.0271 18.3394C16.0618 18.756 15.8681 19.0633 15.4719 19.1747C15.2236 19.2444 14.9466 19.2117 14.6341 19.2249Z" fill="#666666"/>
<path id="Vector_11" d="M24.8922 36.7655C20.7458 36.7623 16.5994 36.7591 12.4529 36.7558C12.3037 36.7556 12.1534 36.7649 12.0053 36.7509C11.564 36.7091 11.2632 36.3894 11.2579 35.9688C11.2525 35.5477 11.5496 35.2187 11.9851 35.1668C12.0506 35.159 12.1176 35.1623 12.184 35.1624C16.5295 35.1642 20.875 35.1662 25.266 35.215C25.1718 35.763 25.032 36.2643 24.8922 36.7655Z" fill="#A7A7A7"/>
<path id="Vector_12" d="M35.0598 16.0369C35.2915 16.0369 35.474 16.0367 35.6565 16.037C36.3878 16.0382 36.7461 16.2947 36.7538 16.8222C36.7615 17.3533 36.3954 17.6303 35.6797 17.6308C34.1702 17.6316 32.6607 17.6311 31.1512 17.631C29.3265 17.631 27.5019 17.6352 25.6772 17.6281C25.1365 17.626 24.7964 17.2954 24.8046 16.82C24.8124 16.3621 25.1405 16.0593 25.655 16.0381C25.771 16.0333 25.8872 16.037 26.0034 16.037C29.0058 16.0369 32.0082 16.0369 35.0598 16.0369Z" fill="#A7A7A7"/>
<path id="Vector_13" d="M28.2789 22.3543C28.1433 22.3851 28.0453 22.41 27.9472 22.4101C24.8102 22.4123 21.6733 22.4141 18.5363 22.4102C17.9803 22.4095 17.6423 22.1057 17.6328 21.6313C17.6228 21.1384 17.9714 20.8206 18.5535 20.82C21.6573 20.8164 24.7611 20.8207 27.8648 20.8156C28.2954 20.8149 28.6244 20.9644 28.7482 21.3883C28.8705 21.8073 28.7124 22.1352 28.2789 22.3543Z" fill="#A7A7A7"/>
<path id="Vector_14" d="M26.1973 11.2557C27.5574 11.2557 28.8677 11.2541 30.1781 11.2564C30.8159 11.2576 31.1684 11.5383 31.1757 12.0409C31.1831 12.5482 30.8281 12.8484 30.2012 12.8488C27.1328 12.8509 24.0643 12.8509 20.9959 12.8488C20.3702 12.8483 20.015 12.5466 20.0233 12.0392C20.0316 11.5366 20.3832 11.2572 21.0224 11.2564C22.7308 11.2544 24.4391 11.2557 26.1973 11.2557Z" fill="#A7A7A7"/>
<path id="Vector_15" d="M16.834 31.9748C15.2916 31.9748 13.7989 31.9756 12.3063 31.9744C11.6223 31.9739 11.2661 31.7057 11.2577 31.1906C11.2492 30.6693 11.6086 30.3815 12.2801 30.3813C15.083 30.38 17.886 30.3688 20.6885 30.3995C20.9672 30.4025 21.3366 30.6018 21.4909 30.828C21.6154 31.0106 21.5736 31.4414 21.4316 31.6333C21.2868 31.829 20.9317 31.9531 20.6649 31.9601C19.4053 31.9929 18.1443 31.9748 16.834 31.9748Z" fill="#A7A7A7"/>
<path id="Vector_16" d="M24.892 36.8028C25.0319 36.2642 25.1716 35.763 25.3128 35.2228C25.3981 34.9552 25.482 34.7264 25.5811 34.4626C25.8532 34.6562 26.1223 34.8727 26.3649 35.1157C27.4154 36.168 28.4581 37.2279 29.5142 38.3191C27.7111 38.8796 25.8975 39.4061 24.0022 39.9562C24.316 38.8572 24.6039 37.8487 24.892 36.8028Z" fill="#676868"/>
<path id="Vector_17" d="M29.2664 30.5501C28.8451 31.0368 28.3956 31.4967 27.9156 31.9723C26.6577 31.9836 25.4302 31.9803 24.2026 31.9743C23.5654 31.9712 23.2144 31.689 23.2107 31.1832C23.207 30.6763 23.5603 30.3828 24.1912 30.3816C25.6678 30.3789 27.1444 30.3752 28.6209 30.3871C28.827 30.3887 29.0324 30.4758 29.2664 30.5501Z" fill="#A7A7A7"/>
<path id="Vector_18" d="M19.0336 16.0368C20.143 16.0368 21.204 16.0335 22.265 16.0382C22.857 16.0407 23.2029 16.3369 23.2069 16.8273C23.211 17.3186 22.863 17.6271 22.278 17.6295C21.0512 17.6346 19.8244 17.6336 18.5977 17.6301C17.9781 17.6283 17.6201 17.3204 17.6324 16.8141C17.6442 16.3271 17.9902 16.0451 18.5872 16.0371C18.7198 16.0353 18.8525 16.0368 19.0336 16.0368Z" fill="#A8A8A8"/>
<path id="Vector_19" d="M33.4661 22.4125C32.7041 22.4125 31.9914 22.4183 31.2789 22.4105C30.7271 22.4045 30.3892 22.1006 30.3824 21.6264C30.3756 21.151 30.7147 20.8254 31.256 20.8207C32.2669 20.8119 33.278 20.8118 34.2889 20.8208C34.8287 20.8256 35.1685 21.1538 35.1603 21.6289C35.1524 22.0862 34.8243 22.3927 34.3109 22.4105C34.046 22.4197 33.7806 22.4124 33.4661 22.4125Z" fill="#A8A8A8"/>
</g>
</svg>
