<svg width="344" height="232" viewBox="0 0 344 232" fill="none" xmlns="http://www.w3.org/2000/svg">
<path d="M335.597 3.19942e-06H8.40293C7.29917 -0.000960362 6.20606 0.21573 5.18613 0.637676C4.16621 1.05962 3.23949 1.67854 2.45902 2.45902C1.67854 3.23949 1.05962 4.16621 0.637676 5.18613C0.21573 6.20606 -0.000960362 7.29917 3.19942e-06 8.40293V223.597C-0.000960362 224.701 0.21573 225.794 0.637676 226.814C1.05962 227.834 1.67854 228.761 2.45902 229.541C3.23949 230.321 4.16621 230.94 5.18613 231.362C6.20606 231.784 7.29917 232.001 8.40293 232H335.597C336.701 232.001 337.794 231.784 338.814 231.362C339.834 230.94 340.761 230.321 341.541 229.541C342.321 228.761 342.94 227.834 343.362 226.814C343.784 225.794 344.001 224.701 344 223.597V8.40293C344.001 7.29917 343.784 6.20606 343.362 5.18613C342.94 4.16621 342.321 3.23949 341.541 2.45902C340.761 1.67854 339.834 1.05962 338.814 0.637676C337.794 0.21573 336.701 -0.000960362 335.597 3.19942e-06ZM307.971 223.582C307.971 224.624 307.557 225.623 306.821 226.359C306.084 227.095 305.085 227.509 304.044 227.509H280.286C279.77 227.509 279.259 227.408 278.783 227.21C278.307 227.013 277.874 226.724 277.509 226.359C277.144 225.994 276.855 225.562 276.658 225.085C276.461 224.609 276.359 224.098 276.359 223.582V222.85C276.359 222.334 276.461 221.824 276.658 221.347C276.855 220.871 277.144 220.438 277.509 220.073C277.874 219.709 278.307 219.419 278.783 219.222C279.259 219.025 279.77 218.923 280.286 218.923H304.029C304.545 218.923 305.056 219.025 305.532 219.222C306.008 219.419 306.441 219.709 306.806 220.073C307.171 220.438 307.46 220.871 307.657 221.347C307.854 221.824 307.956 222.334 307.956 222.85L307.971 223.582ZM330.681 223.429L330.41 224.161C330.225 224.642 329.946 225.082 329.59 225.455C329.234 225.828 328.809 226.127 328.337 226.335C327.865 226.544 327.357 226.657 326.842 226.668C326.326 226.68 325.814 226.59 325.333 226.403L305.348 218.63C304.867 218.444 304.427 218.166 304.054 217.81C303.681 217.454 303.382 217.028 303.174 216.557C302.966 216.085 302.852 215.577 302.841 215.062C302.829 214.546 302.919 214.034 303.106 213.553L303.37 212.857C303.556 212.375 303.835 211.935 304.191 211.561C304.547 211.187 304.973 210.887 305.446 210.678C305.918 210.469 306.427 210.355 306.943 210.343C307.459 210.331 307.973 210.421 308.454 210.608L328.462 218.352C328.944 218.537 329.385 218.816 329.76 219.173C330.134 219.53 330.434 219.957 330.642 220.431C330.851 220.904 330.963 221.414 330.974 221.931C330.984 222.448 330.892 222.962 330.703 223.443L330.681 223.429Z" fill="#192923"/>
</svg>
