<svg xmlns="http://www.w3.org/2000/svg" width="25" height="25" viewBox="0 0 25 25" fill="none">
  <path d="M16.8428 23.8712C15.9074 23.8731 14.9719 23.8765 14.0365 23.8767C10.6441 23.8773 7.25168 23.8769 3.85929 23.8769C3.77072 23.8769 3.68215 23.8769 3.56412 23.8769C3.56412 23.1064 3.56412 22.3452 3.56361 21.5384C3.56311 15.5233 3.56311 9.55398 3.56311 3.56442C3.69626 3.56442 3.79249 3.56442 3.88872 3.56442C6.87519 3.56442 9.86167 3.56493 12.8481 3.56422C14.4431 3.56384 16.038 3.56135 17.6329 3.55981C18.4038 3.55981 19.1747 3.55981 19.9709 3.55981C19.9709 5.49376 19.9709 7.40954 19.9652 9.36284C19.7017 9.67611 19.444 9.95186 19.1708 10.2358C18.7341 10.6623 18.3139 11.0816 17.8912 11.4984C17.4981 11.8862 17.1023 12.2714 16.6949 12.6424C16.5663 12.601 16.4504 12.5522 16.3345 12.5521C12.9037 12.548 9.47285 12.5488 6.04204 12.549C5.97706 12.549 5.91018 12.5424 5.84747 12.5552C5.64876 12.5954 5.53316 12.7189 5.51963 12.9235C5.50671 13.1188 5.64365 13.2897 5.84014 13.3226C5.91944 13.3358 6.00225 13.3298 6.08346 13.3298C9.40044 13.331 12.7174 13.3318 16.0277 13.3484C15.9066 13.4836 15.792 13.6031 15.6619 13.7278C15.2175 14.1515 14.7888 14.5701 14.3463 14.9755C14.2316 14.9391 14.1309 14.8964 14.0299 14.8956C13.3061 14.8898 12.5823 14.8916 11.8585 14.8929C11.5492 14.8935 11.376 15.0374 11.3778 15.2859C11.3796 15.5338 11.5517 15.6721 11.8641 15.6736C12.4658 15.6766 13.0675 15.6782 13.6623 15.6946C13.4455 15.9204 13.2324 16.1289 13.0268 16.3446C12.8623 16.5173 12.7068 16.6987 12.5398 16.8934C12.4912 17.0227 12.4501 17.1349 12.386 17.2431C10.2328 17.2383 8.10265 17.2373 5.97249 17.2364C5.93997 17.2364 5.90713 17.2348 5.87501 17.2386C5.66153 17.264 5.51591 17.4253 5.51853 17.6318C5.52114 17.8379 5.66857 17.9946 5.88493 18.0151C5.95749 18.022 6.03117 18.0174 6.10433 18.0175C8.1369 18.0192 10.1695 18.0207 12.202 18.0406C12.0608 18.5532 11.9196 19.0476 11.7658 19.5864C12.6949 19.3167 13.5839 19.0586 14.4888 18.799C15.5423 17.7628 16.58 16.7281 17.6174 15.6932C17.6225 15.6881 17.6227 15.6781 17.6381 15.6608C17.9949 15.3082 18.3375 14.9637 18.6832 14.6224C19.1089 14.2023 19.5372 13.7848 19.9673 13.3901C19.9726 13.6774 19.9749 13.9408 19.9739 14.2243C19.9727 14.4295 19.975 14.6147 19.9772 14.7998C19.9749 16.7678 19.9726 18.7359 19.9452 20.7283C18.902 20.7526 17.8839 20.7526 16.8428 20.7526C16.8428 21.8151 16.8428 22.8432 16.8428 23.8712ZM7.19723 9.42397C7.32671 9.41747 7.46252 9.43351 7.58421 9.39932C7.77844 9.34474 7.8734 9.19409 7.85638 8.9899C7.83962 8.78876 7.67939 8.64848 7.45244 8.64463C7.07318 8.63821 6.69373 8.64288 6.31694 8.64288C6.31694 8.36499 6.31694 8.11804 6.31694 7.86091C6.70855 7.86091 7.08243 7.86661 7.45603 7.85889C7.70145 7.85382 7.86492 7.68309 7.85959 7.46132C7.8545 7.24929 7.69554 7.08601 7.46213 7.08274C6.94956 7.07556 6.43676 7.07601 5.92416 7.08238C5.68641 7.08533 5.52387 7.22729 5.52228 7.45348C5.5149 8.50319 5.51575 9.55299 5.52122 10.6027C5.52234 10.8182 5.65506 10.9715 5.86583 10.9777C6.41862 10.9939 6.97269 10.995 7.52526 10.975C7.73473 10.9674 7.8598 10.8062 7.85653 10.59C7.85326 10.3741 7.72512 10.2444 7.51415 10.2105C7.41881 10.1952 7.31928 10.2052 7.22166 10.205C6.91639 10.2046 6.61113 10.2049 6.31221 10.2049C6.31221 9.92554 6.31221 9.68441 6.31221 9.42397C6.59994 9.42397 6.87487 9.42397 7.19723 9.42397ZM17.162 7.86122C15.6903 7.86122 14.2185 7.86122 12.7467 7.86123C12.6898 7.86123 12.6328 7.85942 12.576 7.86177C12.3237 7.87219 12.1629 8.02061 12.1591 8.24505C12.1551 8.4781 12.3218 8.64018 12.5869 8.64121C13.4813 8.64467 14.3757 8.64261 15.2702 8.64263C16.0101 8.64265 16.7501 8.64293 17.49 8.6425C17.8408 8.6423 18.0203 8.50651 18.0166 8.24614C18.0128 7.98757 17.8371 7.86185 17.4786 7.86125C17.3892 7.8611 17.2998 7.86122 17.162 7.86122ZM13.8806 10.9494C14.0746 10.8506 14.1522 10.6898 14.0922 10.4845C14.0315 10.2767 13.8702 10.2034 13.6592 10.2037C12.1377 10.2062 10.6162 10.2041 9.09479 10.2058C8.80945 10.2062 8.63858 10.3619 8.64346 10.6035C8.64815 10.8361 8.8138 10.985 9.08636 10.9854C10.6241 10.9873 12.1618 10.9864 13.6996 10.9853C13.7476 10.9853 13.7957 10.9731 13.8806 10.9494ZM12.8174 5.51747C11.9799 5.51748 11.1425 5.51682 10.3051 5.51783C9.99176 5.51821 9.81941 5.65515 9.81534 5.90157C9.81123 6.15026 9.98535 6.29817 10.2921 6.29839C11.7962 6.29943 13.3004 6.29942 14.8045 6.2984C15.1118 6.29819 15.2858 6.15103 15.2822 5.9024C15.2786 5.65601 15.1058 5.51838 14.7931 5.51783C14.1508 5.51669 13.5085 5.51748 12.8174 5.51747ZM8.27637 15.6739C8.89424 15.6739 9.51235 15.6828 10.1298 15.6667C10.2606 15.6633 10.4347 15.6024 10.5057 15.5065C10.5753 15.4124 10.5957 15.2012 10.5347 15.1118C10.4591 15.0009 10.278 14.9032 10.1414 14.9017C8.76761 14.8866 7.39359 14.8921 6.01962 14.8927C5.69046 14.8929 5.51429 15.0339 5.51846 15.2895C5.52258 15.542 5.69717 15.6734 6.03245 15.6737C6.76415 15.6743 7.49584 15.6739 8.27637 15.6739ZM9.30648 7.86114C9.24147 7.86116 9.17644 7.86043 9.11144 7.86131C8.81877 7.86524 8.64916 8.00347 8.64338 8.24218C8.63738 8.49035 8.81287 8.64131 9.11656 8.64217C9.71791 8.64389 10.3193 8.6444 10.9206 8.64191C11.2074 8.64072 11.378 8.48948 11.376 8.24865C11.374 8.00826 11.2045 7.86308 10.9143 7.86182C10.3942 7.85956 9.87409 7.86116 9.30648 7.86114ZM16.4291 10.9865C16.5591 10.9864 16.6892 10.99 16.8191 10.9855C17.0707 10.9768 17.2315 10.8265 17.2354 10.6024C17.2395 10.3695 17.0729 10.2086 16.8083 10.2062C16.3127 10.2018 15.8171 10.2019 15.3216 10.2062C15.0562 10.2085 14.89 10.3681 14.8933 10.6012C14.8967 10.8336 15.0623 10.9826 15.3328 10.9855C15.6821 10.9893 16.0314 10.9865 16.4291 10.9865Z" fill="#F7FBFE"/>
  <path d="M17.6304 3.53736C16.038 3.56136 14.4431 3.56385 12.8482 3.56423C9.86169 3.56494 6.87521 3.56443 3.88873 3.56443C3.7925 3.56443 3.69627 3.56443 3.56313 3.56443C3.56313 9.55399 3.56313 15.5234 3.5615 21.5159C2.78896 21.5392 2.01805 21.5392 1.23401 21.5392C1.23401 14.7606 1.23401 8.00581 1.23401 1.23584C6.68798 1.23584 12.1412 1.23584 17.6278 1.23584C17.6278 1.99304 17.6278 2.75397 17.6304 3.53736Z" fill="#A7A7A7"/>
  <path d="M20.5972 8.78742C20.9277 8.45176 21.2385 8.09325 21.5943 7.78699C21.9385 7.49075 22.3831 7.45204 22.7755 7.64083C23.2181 7.85381 23.5966 8.1911 23.7449 8.68753C23.8742 9.12063 23.8045 9.5315 23.4606 9.86636C23.1752 10.1443 22.8963 10.4289 22.5913 10.7232C21.911 10.0863 21.2541 9.43684 20.5972 8.78742Z" fill="#3397E7"/>
  <path d="M20.5827 8.79395C21.2542 9.43696 21.9111 10.0864 22.584 10.7381C22.7136 10.8664 22.842 10.9821 22.9379 11.1203C23.1931 11.4879 23.1423 12.2743 22.7746 12.6166C22.0326 13.3074 21.3329 14.0436 20.6151 14.7604C20.4483 14.9269 20.2145 14.9464 19.9942 14.807C19.975 14.6147 19.9728 14.4295 19.9888 14.219C20.7092 13.4926 21.4124 12.7926 22.1128 12.0898C22.3263 11.8757 22.3249 11.6801 22.123 11.4538C22.0859 11.4123 22.0548 11.3655 22.0111 11.3087C21.6249 10.9175 21.2468 10.5405 20.8728 10.1594C20.6021 9.88359 20.3368 9.60242 20.0691 9.32363C20.2355 9.14921 20.4018 8.97478 20.5827 8.79395Z" fill="#656565"/>
  <path d="M16.8595 23.8717C16.8428 22.8431 16.8428 21.815 16.8428 20.7525C17.884 20.7525 18.902 20.7525 19.9425 20.7507C19.9393 20.787 19.919 20.8304 19.8872 20.8623C18.8842 21.8663 17.8801 22.8692 16.8595 23.8717Z" fill="#A8A8A8"/>
  <path d="M20.0559 9.32812C20.3368 9.60238 20.6021 9.88355 20.8728 10.1594C21.2468 10.5404 21.6248 10.9175 21.995 11.3135C21.709 11.6067 21.4292 11.8826 21.1347 12.1508C20.4755 11.5046 19.8309 10.8661 19.1862 10.2276C19.444 9.95185 19.7017 9.67609 19.9667 9.38538C19.9968 9.35783 20.0198 9.34525 20.0559 9.32812Z" fill="#A1D2F6"/>
  <path d="M19.1708 10.2358C19.8309 10.8662 20.4755 11.5047 21.1279 12.1661C20.7453 12.5814 20.3548 12.9738 19.9644 13.3662C19.5373 13.7848 19.109 14.2023 18.6833 14.6225C18.3375 14.9637 17.9949 15.3082 17.6243 15.653C16.9576 15.0108 16.3176 14.3667 15.6776 13.7226C15.7921 13.6031 15.9066 13.4836 16.041 13.3409C16.2764 13.0977 16.4921 12.8777 16.7077 12.6577C17.1023 12.2714 17.4981 11.8862 17.8913 11.4984C18.3139 11.0816 18.7341 10.6623 19.1708 10.2358Z" fill="#3598E8"/>
  <path d="M15.6619 13.7278C16.3175 14.3667 16.9575 15.0108 17.6114 15.6626C17.6227 15.6781 17.6225 15.6881 17.6174 15.6932C16.58 16.7282 15.5423 17.7628 14.4836 18.7823C13.9501 18.249 13.4389 17.7294 12.924 17.2136C12.8051 17.0945 12.6732 16.9883 12.5472 16.8762C12.7068 16.6987 12.8623 16.5173 13.0268 16.3446C13.2324 16.129 13.4455 15.9204 13.6772 15.6869C13.9194 15.4395 14.1398 15.2141 14.3601 14.9887C14.7888 14.5701 15.2175 14.1515 15.6619 13.7278Z" fill="#A3D4F7"/>
  <path d="M16.6949 12.6424C16.4921 12.8777 16.2764 13.0978 16.0476 13.3253C12.7174 13.3319 9.40045 13.331 6.08347 13.3299C6.00226 13.3298 5.91945 13.3359 5.84015 13.3226C5.64367 13.2897 5.50672 13.1189 5.51964 12.9236C5.53317 12.719 5.64877 12.5955 5.84748 12.5552C5.91019 12.5425 5.97708 12.5491 6.04205 12.5491C9.47287 12.5488 12.9037 12.5481 16.3345 12.5522C16.4504 12.5523 16.5663 12.601 16.6949 12.6424Z" fill="#A7A7A7"/>
  <path d="M7.17349 9.42388C6.87484 9.42388 6.59992 9.42388 6.31219 9.42388C6.31219 9.68432 6.31219 9.92546 6.31219 10.2048C6.6111 10.2048 6.91637 10.2045 7.22163 10.2049C7.31926 10.2051 7.41879 10.1951 7.51412 10.2104C7.7251 10.2444 7.85324 10.374 7.8565 10.5899C7.85977 10.8061 7.73471 10.9673 7.52524 10.9749C6.97266 10.9949 6.41859 10.9938 5.86581 10.9776C5.65504 10.9714 5.52232 10.8181 5.5212 10.6026C5.51573 9.5529 5.51488 8.5031 5.52225 7.4534C5.52384 7.2272 5.68638 7.08525 5.92414 7.08229C6.43673 7.07593 6.94953 7.07547 7.46211 7.08265C7.69551 7.08592 7.85447 7.2492 7.85957 7.46124C7.8649 7.683 7.70143 7.85373 7.45601 7.85881C7.08241 7.86652 6.70853 7.86083 6.31691 7.86083C6.31691 8.11795 6.31691 8.3649 6.31691 8.64279C6.69371 8.64279 7.07316 8.63812 7.45241 8.64455C7.67937 8.64839 7.83959 8.78868 7.85636 8.98981C7.87337 9.194 7.77841 9.34465 7.58419 9.39923C7.46249 9.43342 7.32668 9.41738 7.17349 9.42388Z" fill="#666666"/>
  <path d="M12.202 18.0223C10.1695 18.0207 8.1369 18.0192 6.10433 18.0175C6.03116 18.0175 5.95749 18.022 5.88493 18.0151C5.66857 17.9946 5.52114 17.838 5.51853 17.6318C5.51591 17.4253 5.66153 17.2641 5.875 17.2386C5.90713 17.2348 5.93997 17.2364 5.97248 17.2364C8.10264 17.2373 10.2328 17.2383 12.3853 17.2622C12.3391 17.5309 12.2706 17.7766 12.202 18.0223Z" fill="#A7A7A7"/>
  <path d="M17.1861 7.86125C17.2997 7.86125 17.3892 7.86113 17.4786 7.86128C17.8371 7.86188 18.0128 7.9876 18.0165 8.24617C18.0203 8.50654 17.8408 8.64233 17.49 8.64253C16.7501 8.64296 16.0101 8.64268 15.2702 8.64267C14.3757 8.64264 13.4813 8.64471 12.5868 8.64124C12.3218 8.64021 12.1551 8.47813 12.1591 8.24509C12.1629 8.02065 12.3237 7.87223 12.576 7.8618C12.6328 7.85945 12.6898 7.86126 12.7467 7.86126C14.2185 7.86125 15.6902 7.86125 17.1861 7.86125Z" fill="#A7A7A7"/>
  <path d="M13.8622 10.9579C13.7957 10.973 13.7476 10.9852 13.6996 10.9852C12.1618 10.9863 10.6241 10.9872 9.08638 10.9853C8.81381 10.9849 8.64817 10.836 8.64347 10.6035C8.6386 10.3618 8.80947 10.2061 9.0948 10.2058C10.6163 10.204 12.1377 10.2061 13.6592 10.2036C13.8702 10.2033 14.0315 10.2766 14.0922 10.4844C14.1522 10.6897 14.0747 10.8505 13.8622 10.9579Z" fill="#A7A7A7"/>
  <path d="M12.8418 5.51759C13.5085 5.5176 14.1508 5.51681 14.7931 5.51795C15.1058 5.51851 15.2786 5.65613 15.2822 5.90252C15.2858 6.15116 15.1118 6.29831 14.8045 6.29852C13.3003 6.29954 11.7962 6.29956 10.2921 6.29851C9.98533 6.2983 9.81121 6.15039 9.81532 5.90169C9.81939 5.65527 9.99174 5.51833 10.305 5.51795C11.1425 5.51694 11.9799 5.5176 12.8418 5.51759Z" fill="#A7A7A7"/>
  <path d="M8.25194 15.674C7.49583 15.674 6.76413 15.6744 6.03243 15.6738C5.69715 15.6735 5.52256 15.5421 5.51844 15.2896C5.51428 15.034 5.69044 14.893 6.01961 14.8928C7.39357 14.8922 8.7676 14.8867 10.1414 14.9018C10.278 14.9033 10.4591 15.001 10.5347 15.1118C10.5957 15.2013 10.5753 15.4125 10.5056 15.5066C10.4346 15.6025 10.2606 15.6634 10.1298 15.6668C9.51233 15.6829 8.89423 15.674 8.25194 15.674Z" fill="#A7A7A7"/>
  <path d="M12.202 18.0405C12.2705 17.7765 12.3391 17.5307 12.4083 17.266C12.4501 17.1348 12.4912 17.0226 12.5398 16.8933C12.6732 16.9882 12.8051 17.0944 12.924 17.2135C13.4389 17.7293 13.9501 18.2489 14.4677 18.7838C13.5839 19.0585 12.6949 19.3166 11.7658 19.5863C11.9196 19.0476 12.0608 18.5532 12.202 18.0405Z" fill="#676868"/>
  <path d="M14.3463 14.9756C14.1398 15.2141 13.9194 15.4396 13.6842 15.6727C13.0675 15.6782 12.4658 15.6766 11.8641 15.6737C11.5517 15.6722 11.3796 15.5338 11.3778 15.2859C11.376 15.0374 11.5492 14.8935 11.8585 14.893C12.5823 14.8916 13.3061 14.8898 14.0299 14.8956C14.1309 14.8965 14.2316 14.9391 14.3463 14.9756Z" fill="#A7A7A7"/>
  <path d="M9.33026 7.86113C9.87411 7.86115 10.3942 7.85955 10.9143 7.86181C11.2045 7.86307 11.3741 8.00825 11.376 8.24864C11.378 8.48947 11.2074 8.6407 10.9206 8.64189C10.3193 8.64438 9.71793 8.64388 9.11658 8.64216C8.81289 8.64129 8.63739 8.49034 8.6434 8.24217C8.64918 8.00346 8.81879 7.86523 9.11146 7.86129C9.17646 7.86042 9.24148 7.86114 9.33026 7.86113Z" fill="#A8A8A8"/>
  <path d="M16.405 10.9864C16.0315 10.9864 15.6821 10.9893 15.3328 10.9854C15.0623 10.9825 14.8967 10.8335 14.8934 10.6011C14.89 10.368 15.0563 10.2084 15.3216 10.2061C15.8171 10.2018 16.3127 10.2018 16.8083 10.2062C17.0729 10.2085 17.2395 10.3694 17.2355 10.6023C17.2316 10.8265 17.0707 10.9767 16.8191 10.9854C16.6892 10.9899 16.5591 10.9864 16.405 10.9864Z" fill="#A8A8A8"/>
</svg>