<svg xmlns="http://www.w3.org/2000/svg" width="23" height="23" viewBox="0 0 23 23" fill="none">
  <g clip-path="url(#clip0_919_217)">
    <path d="M19.4467 16.6567C20.1978 16.6601 20.949 16.6711 21.6999 16.6621C21.9321 16.6593 22.1199 16.699 22.2535 16.8974C22.2656 16.9581 22.2656 17.0325 22.2535 17.1119C22.1203 17.3278 21.9347 17.3813 21.7017 17.3649C21.4724 17.3488 21.2409 17.3634 20.9959 17.3538C20.41 17.3448 19.8387 17.3466 19.2481 17.3427C19.1928 17.3346 19.1568 17.33 19.1207 17.33C14.2474 17.3296 9.37396 17.3287 4.50058 17.3311C4.03941 17.3313 3.60292 17.431 3.20488 17.6848C2.40544 18.1946 1.91819 19.3836 2.42542 20.3593C2.84543 21.1672 3.48974 21.6131 4.41157 21.6135C9.31388 21.6157 14.2162 21.6146 19.1185 21.6143C19.169 21.6143 19.2195 21.6099 19.2903 21.61C19.8762 21.6113 20.4419 21.61 21.0277 21.6114C21.1853 21.6142 21.3227 21.6121 21.46 21.6151C21.7444 21.6214 22.0572 21.5337 22.2513 21.8479C22.2561 21.8425 22.2608 21.8371 22.2656 21.8316C22.2656 21.8919 22.2656 21.9522 22.2534 22.0168C22.1914 22.1027 22.1417 22.1842 22.092 22.2657C15.9569 22.2657 9.82169 22.2657 3.68021 22.2525C3.63907 22.2189 3.60666 22.1904 3.56909 22.1792C2.94151 21.9923 2.43321 21.627 2.06769 21.0929C1.2633 19.9176 1.40894 18.4193 2.43781 17.4226C2.80124 17.0705 3.25042 16.8594 3.75295 16.7146C4.23569 16.7085 4.69824 16.7022 5.1608 16.7021C9.70013 16.7014 14.2395 16.7023 18.7788 16.6998C19.0014 16.6996 19.2241 16.6717 19.4467 16.6567Z" fill="#6E9EFF"/>
    <path d="M19.4537 16.6434C19.224 16.6718 19.0014 16.6997 18.7788 16.6998C14.2394 16.7024 9.70011 16.7014 5.16078 16.7022C4.69822 16.7022 4.23567 16.7086 3.73273 16.7117C3.14383 16.7109 2.59509 16.7003 2.04686 16.7124C1.11038 16.7331 0.25009 16.0004 0.126384 15.1346C0.12239 15.1066 0.0721029 15.0853 0.0433961 15.0609C0.043396 14.8862 0.043396 14.7115 0.043396 14.5167C0.0721016 14.4724 0.12103 14.452 0.126574 14.4233C0.290503 13.5735 0.812113 13.0535 1.63699 12.8655C1.94584 12.7952 2.28299 12.849 2.64754 12.8459C7.12842 12.8462 11.569 12.8467 16.0096 12.8469C16.0456 12.8469 16.0817 12.8433 16.1369 12.8429C17.2349 12.847 18.3139 12.8495 19.3997 12.8615C19.4195 12.8799 19.4325 12.8887 19.4455 12.8975C19.5576 13.0307 19.6076 13.177 19.5226 13.3419C19.4453 13.492 19.3091 13.5052 19.1561 13.5009C18.8609 13.4925 18.5652 13.499 18.2293 13.4995C17.6234 13.5016 17.0579 13.5037 16.4723 13.5029C11.6587 13.4995 6.86526 13.4987 2.07179 13.5004C1.95107 13.5004 1.82765 13.5169 1.71009 13.5449C0.980126 13.7192 0.508852 14.5786 0.86644 15.2792C1.13817 15.8115 1.56357 16.0366 2.15736 16.0357C6.85684 16.0287 11.5563 16.0318 16.2558 16.0313C16.3351 16.0313 16.4143 16.0243 16.5136 16.0246C17.0999 16.0233 17.6662 16.018 18.2325 16.0127C18.5188 16.0137 18.8052 16.0152 19.0915 16.0156C19.5472 16.0162 19.6665 16.2142 19.4537 16.6434Z" fill="#74D84B"/>
    <path d="M5.81597 0.701567C5.48552 0.69921 5.15503 0.699098 4.82464 0.693487C4.67403 0.690928 4.5055 0.734657 4.42042 0.541802C4.34199 0.364021 4.38048 0.211784 4.48452 0.0565503C9.44827 0.0434573 14.426 0.0434573 19.4241 0.043457C19.4724 0.0725228 19.495 0.115164 19.5291 0.12866C20.2885 0.429236 20.7753 0.982495 20.9052 1.77931C21.0073 2.40536 20.8822 3.00674 20.4311 3.51172C19.9714 4.02629 19.4106 4.26905 18.7262 4.25499C18.3431 4.24712 17.9598 4.25407 17.5363 4.25295C16.8912 4.25284 16.2864 4.25411 15.6604 4.25285C14.9826 4.24988 14.3261 4.24822 13.6695 4.24926C12.573 4.251 11.4765 4.25445 10.3593 4.25478C8.525 4.25171 6.71133 4.25199 4.89766 4.24834C4.76959 4.24809 4.64157 4.21894 4.51353 4.20323C4.36769 4.08408 4.33645 3.91214 4.39771 3.76174C4.46242 3.60289 4.6233 3.54964 4.8058 3.55592C5.12761 3.567 5.45008 3.55875 5.80703 3.568C5.90648 3.58135 5.97117 3.58872 6.03587 3.58873C10.0205 3.58926 14.0052 3.58927 17.9899 3.58845C18.0688 3.58843 18.1478 3.57793 18.2463 3.57856C18.4393 3.58623 18.613 3.59537 18.786 3.5875C19.1762 3.56974 19.5225 3.4533 19.8157 3.17287C20.1443 2.85843 20.2471 2.48322 20.2296 2.04333C20.2084 1.51322 19.9607 1.12921 19.5112 0.881043C19.0846 0.645523 18.6093 0.686837 18.1231 0.698785C14.0432 0.695448 9.98355 0.695002 5.9239 0.69488C5.88792 0.694879 5.85195 0.699242 5.81597 0.701567Z" fill="#FC435F"/>
    <path d="M15.6816 4.2554C16.2864 4.25413 16.8912 4.25285 17.5161 4.25528C17.5358 5.79144 17.5354 7.3239 17.5157 8.87809C17.0632 8.90161 16.6301 8.9034 16.183 8.90242C16.1502 8.90054 16.1315 8.90143 16.0929 8.90036C15.9434 8.89577 15.8137 8.89312 15.6837 8.8706C15.6829 7.31895 15.6823 5.78717 15.6816 4.2554Z" fill="#FAC800"/>
    <path d="M20.2185 8.90503C20.7886 8.90503 21.3586 8.90503 21.9416 8.90503C21.9486 8.95605 21.9609 9.00368 21.961 9.05133C21.962 10.2944 21.9618 11.5375 21.9612 12.7806C21.9612 12.8092 21.9549 12.8378 21.9206 12.8647C21.3349 12.8559 20.7801 12.8487 20.2254 12.8218C20.2219 12.2589 20.2183 11.7158 20.2258 11.1633C20.4305 10.9667 20.4268 10.7742 20.2261 10.5612C20.2247 10.0055 20.2233 9.46947 20.2211 8.92638C20.2202 8.91926 20.2185 8.90503 20.2185 8.90503Z" fill="#AD5F2C"/>
    <path d="M18.2225 14.4961C18.2247 14.7001 18.2268 14.9042 18.2056 15.1282C17.6185 15.1497 17.0547 15.1512 16.4708 15.1515C16.2844 15.1499 16.1181 15.1491 15.9517 15.1491C15.1924 15.1489 14.433 15.1506 13.6737 15.1479C13.4253 15.147 13.3163 15.0361 13.3244 14.8103C13.3316 14.6108 13.4756 14.4991 13.7375 14.4985C14.656 14.4966 15.5744 14.4968 16.5132 14.4965C17.0965 14.4966 17.6595 14.4964 18.2225 14.4961Z" fill="#C5D7E6"/>
    <path d="M18.2256 14.476C17.6595 14.4964 17.0965 14.4967 16.5132 14.4763C16.4927 14.139 16.4926 13.8223 16.4924 13.5057C17.0579 13.5037 17.6234 13.5016 18.2091 13.502C18.2291 13.8216 18.2289 14.1388 18.2256 14.476Z" fill="#E4ECF2"/>
    <path d="M16.491 15.1526C17.0547 15.1511 17.6185 15.1496 18.2021 15.1482C18.2245 15.423 18.227 15.6978 18.231 15.9925C17.6662 16.0178 17.0999 16.0231 16.5134 16.0037C16.4925 15.7036 16.4917 15.4281 16.491 15.1526Z" fill="#E3ECF2"/>
    <path d="M20.2858 8.90247C20.3053 8.90504 20.307 8.91928 20.288 8.92774C18.9816 8.93666 17.6942 8.93763 16.4068 8.93619C16.3368 8.93611 16.2669 8.91593 16.197 8.90511C16.6301 8.90332 17.0632 8.90153 17.5167 8.89829C18.4469 8.89785 19.3566 8.89888 20.2858 8.90247Z" fill="#AA7766"/>
    <path d="M20.3122 12.8416C20.8669 12.8487 21.4217 12.8558 21.9913 12.8732C21.1661 12.8866 20.3261 12.8898 19.4658 12.8951C19.4325 12.8886 19.4196 12.8797 19.4208 12.8593C19.7274 12.8456 20.0198 12.8436 20.3122 12.8416Z" fill="#808064"/>
    <path d="M15.6839 8.89038C15.8136 8.89303 15.9433 8.89567 16.0946 8.92008C16.1167 10.2416 16.1172 11.5414 16.1178 12.8412C16.0817 12.8431 16.0456 12.8468 16.0095 12.8468C11.569 12.8466 7.1284 12.846 2.66767 12.8428C2.64723 11.5538 2.64696 10.2675 2.65474 8.9456C2.74181 8.90582 2.82083 8.89817 2.89985 8.89814C4.67026 8.89746 6.44067 8.89827 8.21108 8.8973C8.93357 8.8969 9.65605 8.89298 10.3982 8.89328C12.1733 8.89406 13.9286 8.89222 15.6839 8.89038ZM5.83765 11.5347C6.61044 11.5347 7.38324 11.5348 8.15603 11.5347C8.53159 11.5347 8.90739 11.5427 9.28266 11.5322C9.75969 11.5189 10.0305 11.1745 9.94369 10.7102C9.8889 10.417 9.63258 10.2315 9.26639 10.2311C7.82914 10.2293 6.39188 10.2302 4.95463 10.2307C4.88978 10.2307 4.82398 10.2315 4.76024 10.2419C4.33368 10.3112 4.09938 10.8161 4.31763 11.1842C4.46118 11.4263 4.67934 11.5285 4.94925 11.5332C5.23084 11.5381 5.51257 11.5346 5.83765 11.5347Z" fill="#6E9EFF"/>
    <path d="M10.3785 8.89075C9.65605 8.89307 8.93357 8.89698 8.21109 8.89738C6.44068 8.89835 4.67027 8.89754 2.89986 8.89822C2.82083 8.89825 2.74181 8.9059 2.65163 8.92556C2.01339 8.94111 1.38632 8.94111 0.748596 8.94111C0.748596 7.36123 0.748596 5.79709 0.748596 4.20937C1.99242 4.20937 3.23273 4.20937 4.49326 4.2063C4.64152 4.21894 4.76953 4.24809 4.89761 4.24834C6.71127 4.25199 8.52495 4.25171 10.3588 4.27488C10.3788 5.8285 10.3787 7.35963 10.3785 8.89075Z" fill="#FFDA45"/>
    <path d="M18.2267 3.57226C18.1478 3.57787 18.0688 3.58838 17.9899 3.58839C14.0052 3.58922 10.0205 3.5892 6.03587 3.58868C5.97117 3.58867 5.90648 3.58129 5.82711 3.5666C5.81379 3.20889 5.81515 2.86194 5.83958 2.49441C8.26916 2.47361 10.6757 2.47342 13.0822 2.47295C13.1544 2.47294 13.2446 2.49681 13.2951 2.4629C13.4007 2.39193 13.5377 2.3024 13.5632 2.19671C13.5859 2.10237 13.4969 1.95645 13.4168 1.87104C13.3673 1.81822 13.2425 1.82389 13.1515 1.8238C10.7089 1.82143 8.26621 1.82172 5.82356 1.82155C5.82104 1.4614 5.81851 1.10125 5.81598 0.721306C5.85195 0.699186 5.88792 0.694823 5.9239 0.694824C9.98355 0.694946 14.0432 0.695393 18.1306 0.710564C18.208 0.77727 18.2538 0.833941 18.3082 0.880487C19.0088 1.48005 19.0343 2.71591 18.3333 3.39334C18.2852 3.4399 18.2617 3.51202 18.2267 3.57226Z" fill="#F0F5FA"/>
    <path d="M5.8201 1.8416C8.26615 1.82168 10.7088 1.8214 13.1515 1.82377C13.2425 1.82386 13.3673 1.81818 13.4168 1.87101C13.4968 1.95641 13.5859 2.10233 13.5631 2.19668C13.5377 2.30237 13.4007 2.39189 13.295 2.46287C13.2445 2.49677 13.1543 2.4729 13.0821 2.47292C10.6756 2.47338 8.2691 2.47357 5.84268 2.47431C5.82075 2.27044 5.81872 2.06606 5.8201 1.8416Z" fill="#C6D7E6"/>
    <path d="M19.27 21.6076C19.2195 21.61 19.169 21.6143 19.1185 21.6143C14.2162 21.6146 9.31388 21.6157 4.41157 21.6136C3.48975 21.6132 2.84544 21.1673 2.42542 20.3593C1.9182 19.3836 2.40544 18.1946 3.20488 17.6849C3.60292 17.4311 4.03941 17.3314 4.50058 17.3312C9.37397 17.3288 14.2474 17.3297 19.1207 17.3301C19.1568 17.3301 19.1928 17.3347 19.2492 17.3604C19.2699 17.6943 19.2703 18.005 19.2503 18.3161C15.4257 18.3169 11.6214 18.3171 7.81712 18.3173C7.7448 18.3173 7.67229 18.3143 7.60019 18.3184C7.38924 18.3303 7.24335 18.472 7.2504 18.6548C7.25746 18.8381 7.40505 18.9677 7.61729 18.9679C8.82511 18.9691 10.0329 18.9683 11.2408 18.9687C13.9168 18.9696 16.5928 18.9709 19.2694 18.9918C19.27 19.3289 19.27 19.6462 19.2497 19.9641C16.6136 19.965 13.9978 19.9653 11.382 19.9657C11.3097 19.9658 11.237 19.9616 11.1653 19.9683C10.9382 19.9894 10.798 20.1338 10.8123 20.3263C10.8246 20.4928 10.9735 20.6097 11.1839 20.6162C11.256 20.6184 11.3284 20.6167 11.4006 20.6168C14.0236 20.6176 16.6466 20.6184 19.27 20.6393C19.2702 20.9755 19.2701 21.2916 19.27 21.6076Z" fill="#F0F5FA"/>
    <path d="M19.2902 21.61C19.2701 21.2915 19.2701 20.9755 19.2904 20.6384C19.8736 20.6173 20.4367 20.6172 20.9997 20.6172C21.0021 20.9345 21.0046 21.2519 21.0073 21.589C20.4419 21.6101 19.8762 21.6113 19.2902 21.61Z" fill="#E4ECF2"/>
    <path d="M19.2706 18.3155C19.2703 18.0049 19.2699 17.6943 19.2685 17.366C19.8387 17.3466 20.41 17.3449 20.9959 17.3538C21.0091 17.6681 21.0078 17.9717 20.9834 18.2957C20.3971 18.316 19.8338 18.3157 19.2706 18.3155Z" fill="#E4ECF2"/>
    <path d="M16.4708 15.1515C16.4917 15.4282 16.4925 15.7037 16.4934 15.9999C16.4143 16.0243 16.3351 16.0313 16.2558 16.0313C11.5563 16.0318 6.85684 16.0287 2.15736 16.0357C1.56357 16.0366 1.13817 15.8115 0.86644 15.2792C0.508852 14.5786 0.980127 13.7192 1.71009 13.5449C1.82765 13.5169 1.95107 13.5004 2.07179 13.5003C6.86526 13.4987 11.6587 13.4995 16.4723 13.5029C16.4926 13.8224 16.4928 14.139 16.4929 14.4759C15.5744 14.4969 14.656 14.4967 13.7375 14.4986C13.4756 14.4992 13.3315 14.6108 13.3244 14.8103C13.3163 15.0362 13.4253 15.1471 13.6737 15.148C14.433 15.1507 15.1924 15.149 15.9517 15.1492C16.1181 15.1492 16.2844 15.15 16.4708 15.1515Z" fill="#F0F5FA"/>
    <path d="M16.0935 12.8428C16.0739 11.5414 16.0734 10.2416 16.0711 8.92197C16.0881 8.90127 16.1068 8.90039 16.1396 8.90227C16.2236 8.91586 16.2935 8.93604 16.3634 8.93611C17.6508 8.93755 18.9382 8.93658 20.2455 8.93478C20.2668 9.46941 20.2682 10.0054 20.2519 10.5578C20.2137 10.5676 20.1932 10.5553 20.1727 10.5552C19.4442 10.5525 18.7157 10.5466 17.9873 10.5521C17.7816 10.5536 17.6574 10.7049 17.6662 10.9001C17.674 11.0737 17.8115 11.1972 18.0104 11.1983C18.4937 11.2009 18.977 11.2023 19.4603 11.1982C19.7263 11.1959 19.9922 11.1815 20.2582 11.1726C20.2618 11.7157 20.2654 12.2588 20.2689 12.8218C19.9764 12.8436 19.684 12.8456 19.3705 12.8497C18.2705 12.8493 17.1915 12.8469 16.0935 12.8428Z" fill="#BF6930"/>
    <path d="M10.3983 8.89319C10.3787 7.35945 10.3788 5.82833 10.3795 4.2771C11.4765 4.25428 12.573 4.25082 13.6695 4.24909C14.3261 4.24805 14.9826 4.2497 15.6604 4.25268C15.6823 5.78699 15.6829 7.31876 15.6837 8.87041C13.9286 8.89213 12.1733 8.89396 10.3983 8.89319ZM11.5016 6.74373C11.5017 6.82316 11.4962 6.90308 11.5031 6.98193C11.5194 7.16908 11.6878 7.30849 11.8736 7.29446C12.0512 7.28104 12.1532 7.15764 12.1535 6.95403C12.1538 6.70129 12.1548 6.44854 12.1524 6.19582C12.1503 5.96742 12.0599 5.86702 11.856 5.85923C11.6591 5.85172 11.5127 5.98007 11.5035 6.18199C11.4956 6.35494 11.5017 6.52853 11.5016 6.74373ZM14.5401 6.61778C14.5401 6.47327 14.5426 6.3287 14.5396 6.18425C14.535 5.96805 14.4315 5.86304 14.225 5.85918C14.032 5.85557 13.8969 5.97405 13.891 6.17348C13.883 6.44782 13.8714 6.72429 13.8981 6.99626C13.9079 7.09671 14.0037 7.2338 14.0935 7.26872C14.1836 7.30378 14.3341 7.26127 14.4247 7.20177C14.6266 7.06917 14.5125 6.84468 14.5401 6.61778ZM12.8078 7.22843C13.1671 7.37696 13.3246 7.27399 13.3248 6.89037C13.3249 6.65921 13.3147 6.42744 13.3284 6.1971C13.3382 6.03188 13.3043 5.9019 13.1323 5.86465C12.9599 5.8273 12.7822 5.8507 12.7333 6.05374C12.6406 6.43862 12.602 6.82764 12.8078 7.22843Z" fill="#FFF5F5"/>
    <path d="M18.2463 3.57858C18.2617 3.51209 18.2851 3.43997 18.3333 3.39342C19.0343 2.71598 19.0087 1.48012 18.3081 0.880558C18.2537 0.834012 18.208 0.777341 18.1508 0.713542C18.6093 0.686852 19.0845 0.645539 19.5111 0.881058C19.9606 1.12922 20.2084 1.51324 20.2295 2.04335C20.247 2.48324 20.1443 2.85845 19.8156 3.17288C19.5225 3.45331 19.1762 3.56976 18.786 3.58752C18.613 3.59539 18.4392 3.58625 18.2463 3.57858Z" fill="#E4ECF2"/>
    <path d="M19.2503 18.316C19.8338 18.3156 20.397 18.3158 20.9802 18.3157C21.0021 18.5195 21.0042 18.7237 20.9829 18.9478C20.396 18.9691 19.8324 18.9705 19.2687 18.9718C16.5927 18.9707 13.9167 18.9694 11.2407 18.9685C10.0329 18.9681 8.82508 18.969 7.61725 18.9677C7.40502 18.9675 7.25743 18.8379 7.25037 18.6547C7.24332 18.4719 7.38921 18.3301 7.60015 18.3182C7.67226 18.3142 7.74477 18.3172 7.81709 18.3172C11.6214 18.3169 15.4257 18.3167 19.2503 18.316Z" fill="#C5D7E6"/>
    <path d="M21.003 20.5971C20.4367 20.6172 19.8736 20.6172 19.2901 20.6182C16.6466 20.6182 14.0236 20.6174 11.4006 20.6166C11.3284 20.6166 11.256 20.6183 11.1838 20.6161C10.9735 20.6096 10.8246 20.4926 10.8123 20.3262C10.798 20.1336 10.9382 19.9893 11.1653 19.9682C11.237 19.9615 11.3097 19.9656 11.382 19.9656C13.9978 19.9652 16.6136 19.9649 19.2701 19.9647C19.8738 19.9647 20.4368 19.9646 20.9999 19.9646C21.002 20.1687 21.0041 20.3729 21.003 20.5971Z" fill="#C5D7E6"/>
    <path d="M21.0031 19.9447C20.4368 19.9648 19.8738 19.9648 19.2903 19.9642C19.2699 19.6462 19.2699 19.3289 19.2693 18.9918C19.8324 18.9706 20.396 18.9693 20.9795 18.968C21.0017 19.2869 21.0041 19.6058 21.0031 19.9447Z" fill="#E3ECF2"/>
    <path d="M20.3127 11.1633C20.0356 11.1815 19.7697 11.1959 19.5037 11.1982C19.0204 11.2023 18.5371 11.2009 18.0538 11.1983C17.8549 11.1972 17.7174 11.0737 17.7096 10.9C17.7008 10.7049 17.825 10.5536 18.0307 10.552C18.7591 10.5466 19.4876 10.5525 20.2161 10.5552C20.2366 10.5552 20.2571 10.5676 20.2953 10.5775C20.5137 10.7741 20.5173 10.9667 20.3127 11.1633Z" fill="#FFF4F4"/>
    <path d="M5.81597 11.5347C5.5126 11.5345 5.23086 11.5381 4.94927 11.5332C4.67937 11.5284 4.4612 11.4263 4.31766 11.1842C4.0994 10.816 4.3337 10.3111 4.76026 10.2418C4.82401 10.2315 4.8898 10.2307 4.95465 10.2307C6.3919 10.2301 7.82916 10.2293 9.26641 10.231C9.6326 10.2315 9.88892 10.417 9.94371 10.7101C10.0305 11.1745 9.75971 11.5189 9.28268 11.5322C8.90741 11.5427 8.53162 11.5347 8.15605 11.5347C7.38326 11.5348 6.61046 11.5347 5.81597 11.5347Z" fill="#FFF5F5"/>
    <path d="M11.5016 6.723C11.5017 6.52874 11.4955 6.35516 11.5034 6.1822C11.5126 5.98028 11.6591 5.85193 11.8559 5.85944C12.0599 5.86723 12.1503 5.96763 12.1524 6.19603C12.1547 6.44875 12.1537 6.7015 12.1534 6.95424C12.1532 7.15785 12.0511 7.28125 11.8735 7.29467C11.6877 7.3087 11.5193 7.16929 11.5031 6.98214C11.4962 6.90329 11.5017 6.82337 11.5016 6.723Z" fill="#687B90"/>
    <path d="M14.54 6.63906C14.5125 6.84472 14.6266 7.06921 14.4247 7.20181C14.3341 7.2613 14.1836 7.30381 14.0934 7.26875C14.0036 7.23383 13.9079 7.09674 13.898 6.99629C13.8714 6.72433 13.883 6.44786 13.891 6.17351C13.8968 5.97408 14.032 5.8556 14.2249 5.85921C14.4315 5.86307 14.535 5.96809 14.5396 6.18428C14.5426 6.32873 14.5401 6.4733 14.54 6.63906Z" fill="#687B90"/>
    <path d="M12.7956 7.2162C12.602 6.82785 12.6405 6.43883 12.7332 6.05395C12.7821 5.85091 12.9599 5.82751 13.1323 5.86487C13.3043 5.90211 13.3382 6.03209 13.3284 6.19731C13.3147 6.42766 13.3249 6.65943 13.3248 6.89058C13.3246 7.27421 13.1671 7.37717 12.7956 7.2162Z" fill="#687B90"/>
  </g>
  <defs>
    <clipPath id="clip0_919_217">
      <rect width="22.2222" height="22.2222" fill="white"/>
    </clipPath>
  </defs>
</svg>