<svg xmlns="http://www.w3.org/2000/svg" width="23" height="13" viewBox="0 0 23 13" fill="none">
  <path d="M22.2222 10.9669C22.1934 11.0163 22.1502 11.0403 22.1378 11.0752C21.8268 11.9534 21.2241 12.488 20.2972 12.636C20.1139 12.6653 19.926 12.678 19.7403 12.6781C16.8922 12.6807 14.0441 12.6888 11.1961 12.6745C10.3455 12.6702 9.54707 12.427 8.81879 11.9748C8.72787 11.9183 8.6307 11.8719 8.51531 11.8007C8.41636 11.7291 8.34064 11.6739 8.26037 11.6265C7.7766 11.3406 7.29179 11.0565 6.82727 10.7684C6.97758 10.7559 7.10794 10.7467 7.25796 10.7453C8.32628 10.7544 9.37494 10.7558 10.4434 10.7589C13.2047 10.761 15.9461 10.7633 18.6875 10.7606C19.4706 10.7599 20.1425 10.4886 20.6844 9.89113C21.0064 9.58454 21.3736 9.43921 21.8079 9.4606C21.9201 9.46613 22.0338 9.4413 22.1468 9.43042C22.1652 9.4489 22.1836 9.46739 22.2121 9.47701C22.2222 9.96095 22.2222 10.4538 22.2222 10.9669Z" fill="#665E66"/>
  <path d="M6.80737 10.7719C7.29183 11.0566 7.77664 11.3407 8.26041 11.6266C8.34069 11.674 8.4164 11.7292 8.50223 11.7931C7.9196 12.1956 7.28516 12.4747 6.58219 12.595C5.68116 12.7492 4.77392 12.658 3.86966 12.6775C3.25626 12.6908 2.64227 12.6737 2.0287 12.6816C1.17232 12.6926 0.341247 12.2255 0.0813608 11.33C0.0742821 11.3056 0.0461156 11.2873 0.0138914 11.2787C1.2935e-07 10.9141 1.30208e-07 10.537 0 10.1396C0.0361358 10.0763 0.087618 10.0388 0.105299 9.98919C0.145436 9.87664 0.168942 9.75816 0.227914 9.63526C0.326371 9.66584 0.39716 9.70145 0.465715 9.74094C1.14765 10.1337 1.8809 10.3416 2.66854 10.357C2.81684 10.3599 2.94546 10.3303 2.99698 10.172C3.04322 10.03 2.9962 9.9133 2.86776 9.83948C2.08738 9.39097 1.30565 8.94479 0.524375 8.49783C0.599401 8.19074 0.67373 7.88348 0.749999 7.5767C0.766654 7.50971 0.790233 7.44444 0.834464 7.37134C1.17722 7.54774 1.49566 7.73201 1.81515 7.91444C2.52226 8.3182 3.2299 8.72103 3.94668 9.1362C4.24212 9.3124 4.52819 9.47664 4.82419 9.65224C5.04869 9.78496 5.26327 9.90633 5.49031 10.0354C5.93764 10.286 6.3725 10.5289 6.80737 10.7719Z" fill="#4073C8"/>
  <path d="M1.54646 3.77918C1.13781 3.35086 0.970984 2.83858 0.99562 2.25096C1.01015 1.90435 0.99141 1.55641 1.00325 1.2096C1.00612 1.12575 1.05748 0.986389 1.11004 0.974243C1.19799 0.953918 1.33505 0.984668 1.39891 1.0474C1.8476 1.48818 2.29566 1.92427 2.83525 2.26037C3.5272 2.69138 4.26995 2.98438 5.06904 3.12759C5.43866 3.19383 5.81675 3.26035 6.18929 3.25182C6.78273 3.23823 7.37816 3.18526 7.98489 3.001C8.48291 2.81028 8.96298 2.65072 9.4067 2.42095C9.88546 2.17302 10.3637 2.03315 10.8902 2.15315C9.28955 3.75628 7.69812 5.34859 6.10622 6.94043C6.0708 6.97585 6.03 7.00589 5.98034 7.02867C4.41402 6.16603 2.99212 5.13289 1.72396 3.8906C1.6752 3.84284 1.60609 3.81585 1.54646 3.77918Z" fill="#F5626F"/>
  <path d="M15.3641 5.72803C15.9695 5.99006 16.5722 6.25824 17.1808 6.51261C17.9961 6.85341 18.816 7.18338 19.6336 7.51849C19.6914 7.54215 19.7474 7.56989 19.8251 7.61053C19.855 7.63596 19.8662 7.64248 19.8799 7.64488C19.8799 7.64488 19.8783 7.64528 19.8799 7.65985C19.9548 7.78991 20.0295 7.90462 20.1013 8.02105C20.2857 8.3199 20.1867 8.52627 19.8404 8.5583C19.4972 8.59006 19.2111 8.73533 18.9417 8.94815C18.6322 9.19268 18.2986 9.40662 17.9593 9.63696C17.9217 9.64325 17.9002 9.64642 17.8602 9.64663C15.9182 9.46113 13.9947 9.27858 12.0773 9.08437C12.1353 9.01349 12.1839 8.95108 12.2393 8.89554C13.2224 7.91122 14.2066 6.92813 15.189 5.94317C15.254 5.87803 15.306 5.80004 15.3641 5.72803Z" fill="#F5626F"/>
  <path d="M5.99156 7.03831C6.02985 7.00576 6.07064 6.97571 6.10606 6.94029C7.69796 5.34845 9.28939 3.75614 10.9057 2.15234C11.125 2.20263 11.3195 2.26446 11.514 2.32629C11.514 2.32629 11.5237 2.32612 11.5193 2.3449C11.5563 2.38996 11.5976 2.41623 11.639 2.44251C11.7294 2.52696 11.8197 2.61141 11.921 2.71481C11.6981 2.97583 11.4667 3.22011 11.2302 3.45945C10.8829 3.81098 10.857 3.9519 11.0668 4.40018C9.9911 5.48748 8.92037 6.56045 7.85144 7.63524C7.78693 7.70011 7.73686 7.77935 7.66665 7.85789C7.01142 8.49958 6.3696 9.13531 5.71696 9.77629C5.6849 9.79279 5.66365 9.80404 5.62663 9.80889C5.34529 9.74854 5.07971 9.69459 4.81413 9.64064C4.52805 9.4764 4.24197 9.31216 3.95633 9.12421C4.12895 8.92607 4.30118 8.75168 4.47332 8.5772C4.97942 8.06425 5.48548 7.55127 5.99156 7.03831Z" fill="#C6C1C8"/>
  <path d="M5.98014 7.02883C5.48544 7.55157 4.97938 8.06455 4.47328 8.5775C4.30114 8.75197 4.12891 8.92637 3.94693 9.11255C3.22971 8.72109 2.52207 8.31826 1.81496 7.9145C1.49547 7.73207 1.17703 7.54779 0.845421 7.35924C0.755643 6.18597 0.930898 5.06913 1.50208 4.03098C1.53756 3.96649 1.54278 3.88535 1.55417 3.79565C1.60589 3.81601 1.675 3.84299 1.72376 3.89076C2.99192 5.13305 4.41382 6.16618 5.98014 7.02883Z" fill="#F1F1F4"/>
  <path d="M15.3561 5.71557C15.3059 5.8002 15.2539 5.8782 15.1889 5.94333C14.2065 6.92829 13.2223 7.91138 12.2392 8.89571C12.1838 8.95125 12.1352 9.01365 12.0656 9.09512C11.809 9.35076 11.5702 9.58414 11.3204 9.82241C11.2879 9.83788 11.2664 9.84846 11.2242 9.85903C10.1608 9.85937 9.11798 9.85971 8.08273 9.84784C8.53344 9.38393 8.97661 8.93223 9.43396 8.47556C9.5126 8.41356 9.58024 8.3597 9.64105 8.29899C10.4724 7.46903 11.3023 6.63764 12.1339 5.8079C12.2815 5.66065 12.4349 5.51928 12.5852 5.39328C12.527 5.74957 12.6199 5.97745 12.8702 6.11188C13.1031 6.237 13.3434 6.17888 13.5863 5.93824C13.658 5.86727 13.7272 5.79378 13.8007 5.72479C14.0146 5.52411 14.23 5.32513 14.4448 5.12549C14.7459 5.31798 15.0471 5.51047 15.3561 5.71557Z" fill="#C6C1C8"/>
  <path d="M12.5854 5.3752C12.4347 5.51928 12.2813 5.66065 12.1337 5.8079C11.3021 6.63765 10.4722 7.46903 9.64083 8.29899C9.58002 8.3597 9.51238 8.41356 9.41798 8.46947C8.81872 8.26292 8.2494 8.05752 7.68008 7.85211C7.73688 7.77955 7.78694 7.70031 7.85146 7.63544C8.92038 6.56066 9.99112 5.48768 11.0813 4.40506C11.4558 4.62575 11.668 4.60374 11.9685 4.31271C12.2427 4.04719 12.5204 3.78525 12.7965 3.52173C13.0504 3.7805 13.3044 4.03928 13.5688 4.31835C13.5273 4.39715 13.4775 4.45766 13.4231 4.51379C13.1445 4.80155 12.8648 5.08817 12.5854 5.3752Z" fill="#F56470"/>
  <path d="M11.5114 2.3129C11.3198 2.26469 11.1253 2.20286 10.9151 2.14169C10.3639 2.03324 9.88564 2.17312 9.40687 2.42104C8.96316 2.65082 8.48308 2.81037 8.00221 2.99805C7.98571 2.68498 7.98728 2.37472 7.98604 2.06448C7.98295 1.28621 8.30646 0.652657 8.85136 0.119514C9.0153 -0.0408893 9.17417 -0.0401648 9.3385 0.123704C10.0638 0.846924 10.7855 1.57375 11.5114 2.3129Z" fill="#4173C8"/>
  <path d="M17.9753 9.63391C18.2985 9.40669 18.6322 9.19275 18.9417 8.94822C19.2111 8.7354 19.4971 8.59013 19.8404 8.55837C20.1866 8.52634 20.2856 8.31996 20.1013 8.02112C20.0294 7.90468 19.9548 7.78998 19.8802 7.65918C20.1868 7.76014 20.4953 7.87433 20.8021 7.99313C21.4282 8.23559 21.861 8.6752 22.1161 9.29311C22.1293 9.3251 22.1317 9.36154 22.1431 9.41315C22.034 9.44128 21.9203 9.4661 21.8081 9.46058C21.3738 9.43918 21.0066 9.58452 20.6683 9.88224C19.7524 9.79906 18.8639 9.71648 17.9753 9.63391Z" fill="#C73E48"/>
  <path d="M0.508856 8.50781C1.30549 8.94476 2.08722 9.39094 2.8676 9.83945C2.99604 9.91327 3.04306 10.0299 2.99681 10.172C2.9453 10.3303 2.81667 10.3598 2.66838 10.3569C1.88074 10.3415 1.14748 10.1337 0.46555 9.74091C0.396995 9.70142 0.326206 9.66581 0.241241 9.62283C0.315187 9.25078 0.404345 8.88431 0.508856 8.50781Z" fill="#D8F0F4"/>
  <path d="M12.5851 5.39342C12.865 5.08831 13.1447 4.80168 13.4233 4.51393C13.4777 4.4578 13.5275 4.39728 13.5824 4.32471C13.8252 4.13124 14.0776 4.12407 14.3224 4.28509C14.5657 4.44517 14.6217 4.74282 14.4532 5.11064C14.2299 5.32527 14.0145 5.52425 13.8007 5.72493C13.7272 5.79392 13.6579 5.86742 13.5863 5.93839C13.3433 6.17902 13.1031 6.23715 12.8701 6.11202C12.6198 5.97759 12.527 5.74971 12.5851 5.39342Z" fill="#F1F1F4"/>
  <path d="M12.8036 3.50679C12.5204 3.78525 12.2428 4.04719 11.9686 4.31271C11.6681 4.60373 11.4559 4.62574 11.0867 4.39113C10.8571 3.9521 10.883 3.81118 11.2303 3.45965C11.4668 3.22031 11.6982 2.97603 11.9351 2.71984C12.1505 2.53211 12.5198 2.50725 12.6952 2.65475C12.9727 2.88809 13.0069 3.13625 12.8036 3.50679Z" fill="#F1F1F4"/>
  <path d="M11.6346 2.42946C11.598 2.41635 11.5566 2.39008 11.5201 2.34985C11.5599 2.3627 11.5948 2.38949 11.6346 2.42946Z" fill="#4173C8"/>
  <path d="M19.8773 7.63333C19.866 7.64273 19.8547 7.63618 19.8393 7.61787C19.8469 7.61399 19.8609 7.61775 19.8773 7.63333Z" fill="#C73E48"/>
  <path d="M17.9591 9.63696C18.8637 9.71641 19.7522 9.79898 20.6571 9.89042C20.1425 10.4885 19.4706 10.7598 18.6875 10.7605C15.9461 10.7632 13.2047 10.7609 10.4467 10.7454C10.4788 10.67 10.5233 10.606 10.5765 10.5502C10.7979 10.3184 11.0218 10.0891 11.2447 9.85887C11.2663 9.84829 11.2878 9.83771 11.3353 9.83151C11.4179 9.84353 11.4745 9.85784 11.5312 9.85787C13.3626 9.85896 15.1941 9.86762 17.0254 9.84926C17.3104 9.8464 17.5941 9.71926 17.8785 9.64959C17.9 9.64642 17.9215 9.64325 17.9591 9.63696Z" fill="#DFDDE2"/>
  <path d="M11.224 9.85889C11.0217 10.0891 10.7978 10.3184 10.5765 10.5502C10.5233 10.606 10.4787 10.67 10.4269 10.7437C9.37492 10.7557 8.32626 10.7543 7.26257 10.7328C7.51195 10.4314 7.77634 10.15 8.04934 9.86659C8.05795 9.86452 8.07504 9.8599 8.07504 9.8599C9.11782 9.85956 10.1606 9.85922 11.224 9.85889Z" fill="#B1ABB4"/>
  <path d="M8.04059 9.86878C7.7762 10.1501 7.51181 10.4315 7.24278 10.7252C7.10779 10.7468 6.97743 10.7559 6.82712 10.7684C6.3723 10.5288 5.93744 10.2859 5.49503 10.0229C5.5391 9.94036 5.59072 9.87791 5.64234 9.81547C5.66359 9.80422 5.68484 9.79297 5.73055 9.78613C5.89623 9.81336 6.03716 9.85362 6.17872 9.85596C6.79924 9.86623 7.41995 9.86552 8.04059 9.86878Z" fill="#DEDCE1"/>
  <path d="M5.6269 9.80924C5.59104 9.87808 5.53942 9.94053 5.48289 10.0154C5.26339 9.90644 5.04881 9.78507 4.82431 9.65234C5.07997 9.69494 5.34555 9.74889 5.6269 9.80924Z" fill="#B0A7B3"/>
  <path d="M17.8601 9.64669C17.5942 9.71932 17.3105 9.84646 17.0255 9.84932C15.1942 9.86769 13.3627 9.85903 11.5313 9.85793C11.4746 9.8579 11.418 9.84359 11.3463 9.82669C11.5702 9.58404 11.809 9.35066 12.0595 9.10669C13.9946 9.27865 15.9181 9.46119 17.8601 9.64669Z" fill="#F1EFF3"/>
  <path d="M8.04929 9.86681C7.42004 9.86561 6.79933 9.86632 6.17881 9.85606C6.03725 9.85372 5.89632 9.81345 5.74146 9.78097C6.36963 9.13557 7.01145 8.49985 7.66669 7.85815C8.24942 8.05758 8.81873 8.26299 9.40381 8.4745C8.9764 8.9323 8.53324 9.384 8.08253 9.84791C8.075 9.86012 8.0579 9.86474 8.04929 9.86681Z" fill="#F1F0F3"/>
</svg>