<svg width="45" height="22" viewBox="0 0 45 22" fill="none" xmlns="http://www.w3.org/2000/svg">
<path d="M3 20C3 8.95431 11.9543 0 23 0V0C34.0457 0 43 8.95431 43 20V20H3V20Z" fill="#6ECE7D"/>
<path fill-rule="evenodd" clip-rule="evenodd" d="M21.2101 16.5567C21.593 15.9823 22.3691 15.8271 22.9435 16.2101L22.981 16.2351L22.9872 16.2393C23.0713 16.2968 23.1701 16.3288 23.2719 16.3314C23.3737 16.334 23.4741 16.3071 23.5609 16.254C24.1499 15.8939 24.9193 16.0793 25.2795 16.6683C25.6396 17.2573 25.4542 18.0267 24.8652 18.3868C24.3671 18.6914 23.7916 18.8455 23.2079 18.8306C22.6271 18.8157 22.0629 18.6341 21.5825 18.3074L21.5567 18.2902C20.9823 17.9072 20.8271 17.1311 21.2101 16.5567Z" fill="#020303"/>
<path d="M19.983 14.4086C20.7459 14.2996 21.2297 13.2686 21.0636 12.1057C20.8974 10.9428 20.1443 10.0885 19.3814 10.1974C18.6185 10.3064 18.1347 11.3375 18.3008 12.5004C18.4669 13.6632 19.2201 14.5176 19.983 14.4086Z" fill="#353535"/>
<path d="M25.977 13.4066C26.74 13.2988 27.2251 12.2685 27.0607 11.1056C26.8962 9.94266 26.1444 9.08737 25.3815 9.19527C24.6185 9.30316 24.1333 10.3334 24.2978 11.4963C24.4622 12.6593 25.214 13.5145 25.977 13.4066Z" fill="#353535"/>
<ellipse cx="42" cy="18.5" rx="3" ry="3.5" fill="#D9D9D9"/>
<ellipse cx="3" cy="18.5" rx="3" ry="3.5" fill="#D9D9D9"/>
</svg>
