<svg width="21" height="20" viewBox="0 0 21 20" fill="none" xmlns="http://www.w3.org/2000/svg">
<g id="streamline:ai-generate-landscape-image-spark">
<g clip-path="url(#clip0_1496_1972)">
<g id="Group">
<path id="Vector" d="M0.864014 9.29147C1.44019 9.19578 2.02452 9.14774 2.61001 9.14795C4.98001 9.14795 7.15051 9.92489 8.84101 11.2179" stroke="#8B8D94" stroke-width="1.5" stroke-linecap="round" stroke-linejoin="round"/>
<path id="Vector_2" d="M7.61401 14.6682H2.36401C1.96619 14.6682 1.58466 14.5228 1.30335 14.264C1.02205 14.0052 0.864014 13.6542 0.864014 13.2882V2.24816C0.864014 1.88217 1.02205 1.53116 1.30335 1.27236C1.58466 1.01356 1.96619 0.868164 2.36401 0.868164H14.364C14.7618 0.868164 15.1434 1.01356 15.4247 1.27236C15.706 1.53116 15.864 1.88217 15.864 2.24816V7.07816" stroke="#8B8D94" stroke-width="1.5" stroke-linecap="round" stroke-linejoin="round"/>
<path id="Vector_3" d="M9.48901 7.76836C9.98629 7.76836 10.4632 7.58662 10.8148 7.26312C11.1665 6.93962 11.364 6.50086 11.364 6.04336C11.364 5.58586 11.1665 5.1471 10.8148 4.8236C10.4632 4.5001 9.98629 4.31836 9.48901 4.31836C8.99173 4.31836 8.51482 4.5001 8.16319 4.8236C7.81156 5.1471 7.61401 5.58586 7.61401 6.04336C7.61401 6.50086 7.81156 6.93962 8.16319 7.26312C8.51482 7.58662 8.99173 7.76836 9.48901 7.76836ZM11.01 14.5773C10.4835 14.4931 10.4835 13.7976 11.01 13.7134C11.9422 13.5641 12.805 13.1628 13.4884 12.5607C14.1718 11.9585 14.6447 11.1828 14.847 10.3324L14.8785 10.1985C14.9925 9.71968 15.7335 9.71692 15.852 10.1944L15.891 10.3503C16.1011 11.1969 16.5783 11.9675 17.2629 12.5653C17.9474 13.1632 18.8087 13.5616 19.7385 13.7106C20.268 13.7962 20.268 14.4945 19.7385 14.58C18.8086 14.7289 17.9472 15.1273 17.2627 15.7251C16.5781 16.323 16.1009 17.0937 15.891 17.9403L15.852 18.0963C15.7335 18.5738 14.9925 18.571 14.8785 18.0921L14.847 17.9583C14.6447 17.1079 14.1718 16.3321 13.4884 15.73C12.805 15.1278 11.9422 14.7265 11.01 14.5773Z" stroke="#8B8D94" stroke-width="1.5" stroke-linecap="round" stroke-linejoin="round"/>
</g>
</g>
</g>
<defs>
<clipPath id="clip0_1496_1972">
<rect width="21" height="19.32" rx="4" fill="white"/>
</clipPath>
</defs>
</svg>
