<svg xmlns="http://www.w3.org/2000/svg" width="70" height="42" viewBox="0 0 70 42" fill="none">
  <g clip-path="url(#clip0_1685_333)">
    <path d="M54.546 0H15.454C11.3554 0 7.42456 1.67147 4.52637 4.64671C1.62819 7.62195 0 11.6572 0 15.8649C0 20.0725 1.62819 24.1078 4.52637 27.083C7.42456 30.0583 11.3554 31.7297 15.454 31.7297H30.4361L34.7397 42L39.0433 31.7297H54.546C58.6446 31.7297 62.5754 30.0583 65.4736 27.083C68.3718 24.1078 70 20.0725 70 15.8649C70 11.6572 68.3718 7.62195 65.4736 4.64671C62.5754 1.67147 58.6446 0 54.546 0Z" fill="white"/>
    <path d="M38.7025 16.957C40.0097 16.907 41.2532 16.807 42.4255 16.6609L42.5079 17.6184C41.2678 17.826 40.0174 17.9621 38.7624 18.0259C37.4702 18.0952 36.0844 18.1259 34.6124 18.1259L34.4438 17.0339C35.957 17.0339 37.3953 17.0108 38.7025 16.957ZM38.4778 14.1424C38.193 14.6714 37.7899 15.1234 37.3017 15.4613C36.7548 15.8473 36.1406 16.1215 35.4926 16.2687L34.9457 15.219C35.4887 15.1115 36.0086 14.9058 36.4814 14.6115C36.8823 14.3728 37.2254 14.0442 37.4852 13.6502C37.7142 13.3 37.8367 12.8878 37.8373 12.4659V12.3044H38.8898V12.4775C38.8934 13.0595 38.7515 13.6327 38.4778 14.1424ZM41.7214 12.4659H35.2304V11.4354H41.7214V12.4659ZM39.0995 12.1506H37.8298V10.0974H39.1108L39.0995 12.1506ZM39.122 22.1479H37.8335V17.1493H39.122V22.1479ZM39.4479 13.5618C39.7139 13.9389 40.0564 14.2524 40.4517 14.4808C40.924 14.7571 41.438 14.9507 41.9723 15.0537L41.4555 16.0957C40.8109 15.9576 40.1973 15.6968 39.6464 15.3267C39.1659 15.0078 38.7655 14.577 38.4778 14.0693C38.2056 13.5843 38.0647 13.0334 38.0695 12.4736V12.3044H39.1108V12.4775C39.1147 12.8732 39.2391 13.2577 39.4666 13.5772L39.4479 13.5618ZM44.5081 22.5247H43.2346V10.0781H44.5081V22.5247Z" fill="#1A202A"/>
    <path d="M52.8118 19.4561H47.1111V11.266H52.8118V19.4561ZM48.3808 18.3987H51.5533V12.3042H48.3808V18.3987ZM56.5011 22.5668H55.2052V10.0625H56.5011V22.5668Z" fill="#1A202A"/>
    <path d="M26.0389 20.4904C26.5783 20.4904 27.1214 20.4904 27.6607 20.4904C27.736 20.4783 27.8131 20.4881 27.8833 20.5187C27.9535 20.5493 28.0139 20.5994 28.0578 20.6634C28.0691 20.7153 28.0691 20.7691 28.0578 20.8211C28.0191 20.8912 27.9601 20.9471 27.8888 20.9809C27.8176 21.0147 27.7378 21.0247 27.6607 21.0095C27.4959 21.0095 27.3311 21.0095 27.1551 21.0095C26.7318 21.0095 26.3198 21.0095 25.8928 21.0095H25.8029H15.2706C14.9418 21.0037 14.6182 21.0944 14.3379 21.2709C14.0566 21.4577 13.8424 21.7336 13.7277 22.0568C13.613 22.3799 13.6041 22.7327 13.7024 23.0615C13.8006 23.3903 14.0007 23.6772 14.2723 23.8787C14.5438 24.0801 14.8719 24.1852 15.2069 24.1778H27.4884C27.6944 24.1778 27.9192 24.1163 28.0578 24.3509C28.0632 24.3955 28.0632 24.4407 28.0578 24.4854C28.0128 24.5508 27.9791 24.6123 27.9416 24.67C23.5269 24.67 19.1072 24.67 14.6825 24.67C14.6591 24.6463 14.631 24.6279 14.6001 24.6162C14.1604 24.4854 13.7789 24.2012 13.5214 23.8125C13.2389 23.4034 13.1102 22.9031 13.1591 22.4041C13.208 21.9051 13.4311 21.4411 13.7873 21.0979C14.0557 20.8451 14.3815 20.6653 14.7349 20.575H15.7462H25.5557C25.7168 20.5211 25.8779 20.4981 26.0389 20.4904Z" fill="#7897D0"/>
    <path d="M26.0427 20.4789C25.8813 20.5023 25.7187 20.5165 25.5557 20.5212H15.7312H14.705C14.278 20.5212 13.8847 20.5212 13.4914 20.5212C13.1657 20.5249 12.8488 20.4117 12.5958 20.2011C12.3427 19.9904 12.1693 19.6956 12.1056 19.3676C12.1056 19.3446 12.0681 19.3292 12.0457 19.3138V18.9293C12.0681 18.8985 12.1018 18.8832 12.1056 18.8601C12.1461 18.5746 12.2733 18.3095 12.4689 18.1025C12.6646 17.8954 12.9188 17.7569 13.1955 17.7066C13.437 17.6792 13.6807 17.6792 13.9222 17.7066H23.653C24.4433 17.7066 25.2224 17.7066 26.0052 17.7066L26.0352 17.7335C26.0788 17.7737 26.108 17.8277 26.1182 17.8869C26.1284 17.9462 26.1189 18.0072 26.0914 18.0603C26.0352 18.1718 25.9378 18.1834 25.8292 18.1795C25.6157 18.1795 25.4022 18.1795 25.1625 18.1795H13.5214C13.4344 18.18 13.3477 18.1903 13.2629 18.2103C13.134 18.2427 13.0135 18.3039 12.9103 18.3896C12.807 18.4753 12.7234 18.5833 12.6654 18.7059C12.6075 18.8286 12.5766 18.9629 12.575 19.0992C12.5734 19.2355 12.6011 19.3705 12.6562 19.4945C12.7377 19.6732 12.8702 19.8222 13.0361 19.9218C13.202 20.0213 13.3934 20.0668 13.5851 20.0521H23.9264H25.1625H25.7805C26.1101 20.0136 26.1962 20.1636 26.0427 20.4789Z" fill="#7EBF4F"/>
    <path d="M16.218 8.68974H15.5064C15.3978 8.68974 15.2742 8.7205 15.2142 8.57824C15.1887 8.51956 15.1793 8.45479 15.1873 8.39104C15.1952 8.32728 15.2201 8.26699 15.2592 8.2168C18.8349 8.2168 22.4219 8.2168 26.02 8.2168C26.0575 8.23602 26.0725 8.27063 26.095 8.27832C26.3533 8.36982 26.5823 8.53211 26.7573 8.74763C26.9322 8.96316 27.0464 9.2237 27.0875 9.50106C27.1296 9.72462 27.1207 9.95514 27.0616 10.1746C27.0024 10.394 26.8947 10.5965 26.7467 10.7661C26.5961 10.9476 26.4071 11.0914 26.1943 11.1867C25.9814 11.2819 25.7502 11.3261 25.5181 11.3159C25.241 11.3159 24.9676 11.3159 24.6604 11.3159H19.4766H15.5438C15.4509 11.3116 15.3583 11.3013 15.2667 11.2852C15.2192 11.2481 15.1853 11.1957 15.1703 11.1364C15.1554 11.0771 15.1603 11.0144 15.1843 10.9584C15.2102 10.9037 15.2527 10.8592 15.3053 10.8314C15.358 10.8037 15.4181 10.7943 15.4764 10.8045C15.7086 10.8045 15.9409 10.8045 16.1993 10.8045C16.2705 10.8045 16.3154 10.8045 16.3641 10.8045H24.9788C25.0387 10.8045 25.0949 10.8045 25.1661 10.8045C25.3047 10.8045 25.4283 10.8045 25.5406 10.8045C25.8183 10.8018 26.0852 10.6936 26.2897 10.5008C26.3965 10.396 26.4791 10.2682 26.5316 10.1265C26.584 9.98479 26.6051 9.83286 26.5931 9.68178C26.5892 9.508 26.5399 9.33849 26.4503 9.19101C26.3607 9.04353 26.2341 8.92352 26.0837 8.84355C25.7738 8.70121 25.432 8.64804 25.0949 8.68974H16.218Z" fill="#E44964"/>
    <path d="M23.3271 11.3198C23.7616 11.3198 24.1961 11.3198 24.6456 11.3198C24.6456 12.4541 24.6456 13.5884 24.6456 14.7381C24.3197 14.7381 24.0088 14.7573 23.6867 14.7381H23.623C23.524 14.7387 23.425 14.731 23.3271 14.715V11.3198Z" fill="#FBC912"/>
    <path d="M26.6567 14.7573H27.8965C27.8965 14.7958 27.8965 14.8304 27.8965 14.865V17.6219C27.8976 17.634 27.8953 17.6462 27.89 17.6571C27.8848 17.6679 27.8766 17.6771 27.8665 17.6834C27.4433 17.6834 27.0463 17.6834 26.6455 17.6527C26.6455 17.2374 26.6455 16.8337 26.6455 16.4261C26.6796 16.4004 26.7073 16.3668 26.7264 16.328C26.7454 16.2893 26.7554 16.2465 26.7554 16.2031C26.7554 16.1597 26.7454 16.1169 26.7264 16.0781C26.7073 16.0394 26.6796 16.0058 26.6455 15.9801C26.6455 15.5725 26.6455 15.1726 26.6455 14.7727L26.6567 14.7573Z" fill="#AE602C"/>
    <path d="M25.1549 18.891C25.1641 19.0472 25.1641 19.2039 25.1549 19.3601C24.7316 19.3601 24.3271 19.3601 23.9039 19.3601H21.8775C21.7015 19.3601 21.6228 19.2793 21.6266 19.114C21.6303 18.9487 21.7352 18.8833 21.9262 18.8833H25.1549V18.891Z" fill="#C6D8E7"/>
    <path d="M25.1585 18.8753C24.7503 18.8753 24.3458 18.8753 23.9263 18.8753C23.9263 18.6254 23.9263 18.3947 23.9263 18.1602H25.1623C25.1585 18.3909 25.1585 18.6254 25.1585 18.8753Z" fill="#E4EBF2"/>
    <path d="M23.9077 19.3755H25.14C25.14 19.5754 25.14 19.76 25.1625 19.9984C24.7542 20.0176 24.3459 20.0215 23.9264 19.9984C23.9115 19.7831 23.9077 19.5793 23.9077 19.3755Z" fill="#E3ECF1"/>
    <path d="M26.642 14.7538C26.642 14.7538 26.642 14.7538 26.642 14.7731C25.7018 14.7731 24.7692 14.7731 23.8478 14.7731C23.7974 14.7692 23.7473 14.7614 23.698 14.75H26.642V14.7538Z" fill="#AB7867"/>
    <path d="M26.6607 17.6874L27.8705 17.7105C27.275 17.7105 26.672 17.7105 26.0502 17.7105C26.0277 17.7105 26.0165 17.7105 26.0202 17.6836L26.6607 17.6874Z" fill="#808065"/>
    <path d="M23.3272 14.7461C23.4262 14.7467 23.5251 14.7544 23.6231 14.7692C23.6231 15.7458 23.6231 16.6917 23.6231 17.6684H13.9521C13.9521 16.7148 13.9521 15.7458 13.9521 14.7884C14.0084 14.7618 14.0701 14.7499 14.1319 14.7538H23.3272M16.2369 16.7032H17.9037C18.1771 16.7032 18.4468 16.7032 18.7164 16.7032C18.7907 16.7081 18.865 16.6945 18.9331 16.6637C19.0012 16.6328 19.0611 16.5857 19.1077 16.5261C19.1544 16.4666 19.1864 16.3964 19.2011 16.3215C19.2157 16.2466 19.2127 16.1692 19.1921 16.0957C19.1671 15.9858 19.1038 15.8892 19.0141 15.824C18.9244 15.7588 18.8145 15.7296 18.7052 15.742H15.6002C15.5528 15.7381 15.5052 15.7381 15.4578 15.742C15.3859 15.7556 15.3181 15.7867 15.2601 15.8326C15.2021 15.8785 15.1557 15.938 15.1245 16.006C15.0934 16.074 15.0785 16.1487 15.0811 16.2238C15.0837 16.2989 15.1037 16.3723 15.1395 16.4379C15.1854 16.5197 15.2522 16.587 15.3328 16.6324C15.4134 16.6779 15.5046 16.6997 15.5964 16.6956L16.2369 16.7032Z" fill="#7897D0"/>
    <path d="M19.5068 14.7459H14.1207C14.0602 14.7449 13.9999 14.7513 13.9409 14.7652C13.4802 14.7652 13.027 14.7652 12.5701 14.7652V11.2661H15.2668C15.3636 11.2815 15.4612 11.2918 15.559 11.2969C16.8662 11.2969 18.1809 11.2969 19.4918 11.2969C19.5068 12.4812 19.5068 13.6155 19.5068 14.7459Z" fill="#FEDA48"/>
    <path d="M25.1586 10.8126C25.1024 10.8126 25.0462 10.8126 24.9863 10.8126H16.3716C16.3199 10.8112 16.2685 10.8048 16.218 10.7934C16.205 10.5295 16.205 10.2651 16.218 10.0013C17.9672 10.0013 19.7014 10.0013 21.4355 10.0013C21.488 10.0013 21.5517 10.0013 21.5891 10.0013C21.6266 10.0013 21.7614 9.88207 21.7801 9.80516C21.7989 9.72826 21.7314 9.62829 21.6753 9.56292C21.6191 9.49756 21.5517 9.52832 21.4842 9.52832H16.2255C16.2255 9.25916 16.2255 8.99385 16.2255 8.71316C16.2496 8.69965 16.2768 8.69301 16.3042 8.69393C19.2294 8.69393 22.1547 8.69393 25.0987 8.69393C25.1511 8.74392 25.1848 8.78621 25.226 8.82082C25.3455 8.94237 25.4403 9.08701 25.505 9.24639C25.5698 9.40577 25.6031 9.57674 25.6031 9.74941C25.6031 9.92209 25.5698 10.0931 25.505 10.2524C25.4403 10.4118 25.3455 10.5565 25.226 10.678C25.1978 10.7196 25.1751 10.7648 25.1586 10.8126Z" fill="#F0F5FA"/>
    <path d="M16.2218 9.53564C17.9859 9.53564 19.7426 9.53564 21.503 9.53564C21.5704 9.53564 21.6603 9.53564 21.694 9.57025C21.7277 9.60486 21.8176 9.74328 21.7989 9.81249C21.7801 9.8817 21.6828 9.95476 21.6078 10.0086C21.5329 10.0624 21.5067 10.0086 21.4543 10.0086H16.2368C16.2238 9.85132 16.2188 9.69345 16.2218 9.53564Z" fill="#C7D8E7"/>
    <path d="M25.9115 24.151H15.2068C14.8718 24.1584 14.5437 24.0533 14.2722 23.8519C14.0006 23.6504 13.8005 23.3635 13.7023 23.0347C13.604 22.7059 13.6129 22.3532 13.7276 22.03C13.8423 21.7069 14.0565 21.431 14.3378 21.2441C14.6181 21.0676 14.9417 20.9769 15.2705 20.9827H25.8029C25.8354 20.9828 25.8674 20.9907 25.8965 21.0058C25.9115 21.2413 25.9115 21.4777 25.8965 21.7133H17.5028C17.4696 21.7089 17.4358 21.7119 17.4038 21.722C17.3718 21.7321 17.3422 21.7491 17.3171 21.7718C17.292 21.7946 17.2718 21.8225 17.2581 21.8539C17.2443 21.8852 17.2371 21.9192 17.2371 21.9536C17.2371 21.988 17.2443 22.0219 17.2581 22.0533C17.2718 22.0846 17.292 22.1126 17.3171 22.1353C17.3422 22.158 17.3718 22.175 17.4038 22.1851C17.4358 22.1952 17.4696 22.1982 17.5028 22.1939H20.1246C22.0498 22.1939 23.9775 22.2003 25.9077 22.2131C25.9077 22.4592 25.9077 22.6938 25.9077 22.9321H20.0722C19.9074 22.9321 19.8063 23.0552 19.8175 23.1975C19.8277 23.2617 19.8611 23.3196 19.9111 23.3595C19.9612 23.3994 20.0241 23.4185 20.0872 23.4128H20.2258C22.1173 23.4128 24.005 23.4128 25.8965 23.4128L25.9115 24.151Z" fill="#F0F5FA"/>
    <path d="M25.9265 24.1512C25.9115 23.9117 25.9115 23.6716 25.9265 23.4321C26.346 23.4321 26.7505 23.4321 27.1551 23.4321C27.1551 23.6667 27.1551 23.9012 27.1551 24.1512C26.7543 24.1512 26.346 24.1512 25.9265 24.1512Z" fill="#E4EBF2"/>
    <path d="M25.9116 21.7173C25.9116 21.4866 25.9116 21.2559 25.9116 21.0137C26.3236 21.0137 26.7356 21.0137 27.1589 21.0137C27.1719 21.2455 27.1719 21.4778 27.1589 21.7096C26.7207 21.7173 26.3161 21.7173 25.9116 21.7173Z" fill="#E4EBF2"/>
    <path d="M23.8927 19.3756C23.8927 19.5794 23.9115 19.7832 23.9115 20.0023C23.8556 20.0192 23.7974 20.027 23.7392 20.0254H13.5851C13.3934 20.0401 13.202 19.9947 13.0361 19.8951C12.8702 19.7955 12.7377 19.6465 12.6562 19.4679C12.6011 19.3438 12.5734 19.2088 12.575 19.0725C12.5766 18.9362 12.6075 18.8019 12.6654 18.6793C12.7234 18.5566 12.807 18.4486 12.9103 18.3629C13.0136 18.2772 13.134 18.216 13.263 18.1836C13.3477 18.1637 13.4344 18.1533 13.5214 18.1528H23.8965C23.8965 18.3912 23.8965 18.6219 23.8965 18.8719C23.2335 18.8719 22.5706 18.8719 21.9114 18.8719C21.7203 18.8719 21.6192 18.9526 21.6117 19.1026C21.6042 19.2525 21.6866 19.3487 21.8627 19.3487H23.8778L23.8927 19.3756Z" fill="#F0F5FA"/>
    <path d="M23.6528 17.6873C23.6528 16.726 23.6528 15.7647 23.6528 14.7881C23.6528 14.7881 23.679 14.7881 23.7015 14.7881C23.7544 14.8018 23.8082 14.8108 23.8626 14.815H26.6605C26.6605 15.1995 26.6605 15.6071 26.6605 16.0147C26.6305 16.0147 26.6193 16.0147 26.6043 16.0147H25.0162C24.9839 16.0132 24.9516 16.0191 24.9217 16.0319C24.8918 16.0447 24.865 16.064 24.8432 16.0886C24.8214 16.1132 24.8052 16.1424 24.7956 16.1741C24.786 16.2058 24.7833 16.2394 24.7877 16.2723C24.7896 16.3035 24.7975 16.3339 24.8111 16.3619C24.8246 16.3899 24.8434 16.4148 24.8664 16.4353C24.8894 16.4557 24.9162 16.4712 24.9452 16.4808C24.9741 16.4905 25.0046 16.4941 25.0349 16.4915H26.0799H26.653C26.653 16.876 26.653 17.2951 26.653 17.7104C26.4432 17.7104 26.2335 17.7296 26.005 17.7334L23.6528 17.6873Z" fill="#C06A2E"/>
    <path d="M19.5217 14.7496C19.5217 13.5961 19.5217 12.481 19.5217 11.3351C20.312 11.3351 21.1023 11.3159 21.8926 11.3159H23.3272C23.3272 12.4694 23.3272 13.5845 23.3272 14.7304C22.0612 14.7304 20.799 14.7304 19.5217 14.7304M20.3158 13.1385C20.3158 13.2 20.3158 13.2577 20.3158 13.3154C20.3224 13.3817 20.3538 13.4427 20.4034 13.4858C20.453 13.5288 20.5169 13.5504 20.5817 13.5461C20.6115 13.5448 20.6407 13.5371 20.6674 13.5235C20.6941 13.5099 20.7178 13.4907 20.7368 13.4672C20.7559 13.4436 20.7699 13.4162 20.778 13.3868C20.7862 13.3573 20.7882 13.3264 20.784 13.2961V12.754C20.784 12.5848 20.7165 12.5117 20.5705 12.5041C20.5383 12.5014 20.5059 12.5056 20.4753 12.5163C20.4447 12.5271 20.4166 12.5442 20.3927 12.5665C20.3689 12.5889 20.3497 12.616 20.3365 12.6463C20.3232 12.6765 20.3162 12.7093 20.3158 12.7424C20.3158 12.8732 20.3158 13.0001 20.3158 13.1577M22.5032 13.0731C22.5032 12.9655 22.5032 12.8578 22.5032 12.754C22.5073 12.7218 22.5042 12.6892 22.4943 12.6584C22.4844 12.6276 22.4678 12.5995 22.4459 12.5763C22.4239 12.553 22.3971 12.5351 22.3675 12.5239C22.3378 12.5127 22.3061 12.5086 22.2747 12.5117C22.2435 12.509 22.2121 12.5131 22.1825 12.5237C22.153 12.5344 22.126 12.5514 22.1033 12.5736C22.0807 12.5957 22.0629 12.6226 22.0511 12.6524C22.0393 12.6822 22.0338 12.7142 22.035 12.7463C22.0219 12.9486 22.0219 13.1515 22.035 13.3538C22.041 13.396 22.0567 13.4362 22.0808 13.4709C22.1049 13.5057 22.1367 13.5341 22.1736 13.5538C22.2147 13.5632 22.2573 13.5636 22.2986 13.555C22.3399 13.5464 22.379 13.5289 22.4133 13.5038C22.5593 13.4077 22.4769 13.2423 22.4957 13.0731M21.2484 13.5268C21.5069 13.6345 21.623 13.5576 21.623 13.2731C21.623 13.1039 21.623 12.9309 21.623 12.7617C21.623 12.5925 21.623 12.5425 21.4806 12.5156C21.3383 12.4887 21.2297 12.5156 21.196 12.6579C21.1093 12.9424 21.1307 13.2501 21.2559 13.5192L21.2484 13.5268Z" fill="#FDF5F5"/>
    <path d="M25.1735 10.8201C25.1806 10.7684 25.2028 10.7201 25.2372 10.6817C25.3567 10.5601 25.4515 10.4155 25.5162 10.2561C25.581 10.0967 25.6143 9.92577 25.6143 9.7531C25.6143 9.58042 25.581 9.40946 25.5162 9.25008C25.4515 9.0907 25.3567 8.94606 25.2372 8.82451C25.1957 8.78634 25.1569 8.74522 25.1211 8.70146C25.4529 8.64341 25.794 8.68618 26.1024 8.82451C26.252 8.90858 26.3767 9.03271 26.4631 9.18369C26.5495 9.33467 26.5944 9.50687 26.5931 9.68197C26.6089 9.83557 26.5904 9.99085 26.5392 10.1361C26.4879 10.2813 26.4052 10.4126 26.2972 10.5202C26.0926 10.713 25.8258 10.8212 25.5481 10.824C25.4357 10.8316 25.3121 10.824 25.1735 10.8201Z" fill="#E4EBF2"/>
    <path d="M25.8966 21.7173H27.1438C27.1588 21.872 27.1588 22.0278 27.1438 22.1825C26.7206 22.1825 26.3161 22.2018 25.9078 22.2018H17.5178C17.4846 22.2061 17.4509 22.2031 17.4188 22.193C17.3868 22.1829 17.3573 22.1659 17.3322 22.1432C17.307 22.1205 17.2869 22.0925 17.2731 22.0612C17.2593 22.0298 17.2522 21.9958 17.2522 21.9614C17.2522 21.9271 17.2593 21.8931 17.2731 21.8617C17.2869 21.8304 17.307 21.8024 17.3322 21.7797C17.3573 21.757 17.3868 21.74 17.4188 21.7299C17.4509 21.7198 17.4846 21.7168 17.5178 21.7211H25.8966V21.7173Z" fill="#C6D8E7"/>
    <path d="M27.1588 23.401C26.7506 23.401 26.3461 23.401 25.9266 23.401H20.0873C20.0242 23.4067 19.9613 23.3877 19.9113 23.3478C19.8612 23.3078 19.8278 23.2499 19.8176 23.1857C19.8176 23.0435 19.9075 22.9358 20.0723 22.9204H27.1551C27.1588 23.0704 27.1588 23.2357 27.1588 23.401Z" fill="#C6D8E7"/>
    <path d="M27.1588 22.9204C26.7505 22.9204 26.346 22.9204 25.9265 22.9204C25.9265 22.682 25.9265 22.4474 25.9265 22.2014C26.331 22.2014 26.7355 22.1821 27.155 22.1821C27.1588 22.4321 27.1588 22.6858 27.1588 22.9204Z" fill="#E3ECF1"/>
    <path d="M26.6607 16.4262C26.4622 16.4262 26.2862 16.4492 26.0802 16.4531H25.0352C25.0048 16.4557 24.9743 16.4521 24.9454 16.4424C24.9165 16.4328 24.8897 16.4173 24.8667 16.3969C24.8436 16.3765 24.8248 16.3515 24.8113 16.3235C24.7978 16.2956 24.7898 16.2651 24.788 16.2339C24.7835 16.201 24.7862 16.1675 24.7958 16.1357C24.8054 16.104 24.8217 16.0748 24.8435 16.0502C24.8653 16.0256 24.8921 16.0063 24.9219 15.9935C24.9518 15.9807 24.9841 15.9748 25.0164 15.9763H26.5933C26.5933 15.9763 26.6195 15.9763 26.6495 15.9955C26.6857 16.0173 26.7159 16.0482 26.7373 16.0853C26.7586 16.1225 26.7704 16.1645 26.7716 16.2076C26.7727 16.2507 26.7631 16.2934 26.7437 16.3316C26.7243 16.3699 26.6958 16.4024 26.6607 16.4262Z" fill="#FDF4F4"/>
    <path d="M16.2182 16.7033H15.5964C15.5046 16.7074 15.4134 16.6856 15.3328 16.6402C15.2522 16.5947 15.1853 16.5274 15.1395 16.4457C15.1068 16.3806 15.0892 16.3087 15.0882 16.2355C15.0872 16.1624 15.1027 16.0899 15.1335 16.024C15.1644 15.958 15.2097 15.9003 15.266 15.8554C15.3223 15.8104 15.388 15.7795 15.4578 15.7651C15.5052 15.7612 15.5528 15.7612 15.6002 15.7651H18.7052C18.8145 15.7527 18.9243 15.7819 19.0141 15.8471C19.1038 15.9123 19.1671 16.0089 19.1921 16.1188C19.2075 16.1895 19.207 16.2628 19.1906 16.3333C19.1743 16.4037 19.1425 16.4694 19.0978 16.5254C19.053 16.5813 18.9964 16.6261 18.9323 16.6563C18.8682 16.6864 18.7982 16.7012 18.7277 16.6994C18.458 16.6994 18.1883 16.6994 17.9149 16.6994L16.2182 16.7033Z" fill="#FDF5F5"/>
    <path d="M20.3156 13.1427C20.3156 13.0004 20.3156 12.8736 20.3156 12.7582C20.316 12.725 20.3231 12.6923 20.3363 12.662C20.3496 12.6318 20.3687 12.6046 20.3926 12.5823C20.4165 12.5599 20.4446 12.5428 20.4751 12.5321C20.5057 12.5214 20.5381 12.5172 20.5703 12.5198C20.7164 12.5198 20.7801 12.6006 20.7838 12.7697V13.3311C20.788 13.3614 20.786 13.3923 20.7779 13.4218C20.7698 13.4512 20.7557 13.4786 20.7367 13.5021C20.7176 13.5257 20.694 13.5449 20.6673 13.5585C20.6405 13.5721 20.6114 13.5798 20.5816 13.5811C20.5168 13.5854 20.4529 13.5638 20.4033 13.5207C20.3537 13.4777 20.3223 13.4167 20.3156 13.3503C20.3119 13.2773 20.3156 13.2196 20.3156 13.1427Z" fill="#687C90"/>
    <path d="M22.503 13.0734C22.503 13.2272 22.5667 13.3925 22.4206 13.4887C22.3863 13.5138 22.3472 13.5313 22.3059 13.5399C22.2646 13.5485 22.222 13.5481 22.1809 13.5387C22.144 13.519 22.1122 13.4906 22.0881 13.4558C22.064 13.4211 22.0483 13.3809 22.0423 13.3387C22.0292 13.1364 22.0292 12.9335 22.0423 12.7312C22.0411 12.6991 22.0466 12.6671 22.0584 12.6373C22.0702 12.6075 22.088 12.5806 22.1107 12.5584C22.1333 12.5363 22.1603 12.5193 22.1899 12.5086C22.2194 12.498 22.2508 12.4939 22.282 12.4966C22.3134 12.4935 22.3452 12.4976 22.3748 12.5088C22.4044 12.52 22.4312 12.5379 22.4532 12.5611C22.4752 12.5844 22.4917 12.6125 22.5016 12.6433C22.5116 12.6741 22.5146 12.7067 22.5105 12.7389C22.5067 12.8504 22.503 12.958 22.503 13.0734Z" fill="#687C90"/>
    <path d="M21.2483 13.508C21.1293 13.238 21.1133 12.9321 21.2033 12.6506C21.237 12.5006 21.3644 12.4814 21.488 12.5083C21.6116 12.5352 21.6378 12.6313 21.6303 12.7544C21.6228 12.8774 21.6303 13.0966 21.6303 13.2658C21.6266 13.5503 21.5142 13.6272 21.2483 13.508Z" fill="#687C90"/>
  </g>
  <defs>
    <clipPath id="clip0_1685_333">
      <rect width="70" height="42" fill="white"/>
    </clipPath>
  </defs>
</svg>