<svg width="94" height="64" viewBox="0 0 94 64" fill="none" xmlns="http://www.w3.org/2000/svg">
<g filter="url(#filter0_d_0_1)">
<path fill-rule="evenodd" clip-rule="evenodd" d="M27.5 10C18.9396 10 12 16.9396 12 25.5C12 34.0604 18.9396 41 27.5 41H42.4173L46.5 50L50.5827 41H66.5C75.0604 41 82 34.0604 82 25.5C82 16.9396 75.0604 10 66.5 10H27.5Z" fill="white"/>
</g>
<path d="M51.1816 22.2773C51.1816 22.6647 51.2979 23.0293 51.5303 23.3711C51.7627 23.7083 52.0954 24.0023 52.5283 24.2529C52.9658 24.5036 53.4785 24.6927 54.0664 24.8203L53.5332 25.832C52.8359 25.6771 52.2321 25.431 51.7217 25.0938C51.2158 24.7565 50.8262 24.3509 50.5527 23.877C50.2884 24.3919 49.8965 24.834 49.377 25.2031C48.8574 25.5677 48.2376 25.832 47.5176 25.9961L46.9707 24.9844C47.5632 24.8613 48.0781 24.6654 48.5156 24.3965C48.9577 24.123 49.2949 23.804 49.5273 23.4395C49.7643 23.0703 49.8828 22.6829 49.8828 22.2773H47.2441V21.252H49.8828V19.9395H51.1816V21.252H53.8066V22.2773H51.1816ZM56.6367 32.1621H55.3516V19.9258H56.6367V32.1621ZM46.4375 26.748C48.0417 26.748 49.4909 26.7275 50.7852 26.6865C52.084 26.641 53.3236 26.543 54.5039 26.3926L54.5996 27.3359C53.556 27.5091 52.4212 27.6322 51.1953 27.7051V31.793H49.8965V27.7734C48.9987 27.8099 47.9049 27.8281 46.6152 27.8281L46.4375 26.748ZM64.9766 29.1406H59.2344V21.0879H64.9766V29.1406ZM60.5195 28.0879H63.7188V22.1133H60.5195V28.0879ZM68.6953 32.1895H67.3965V19.9121H68.6953V32.1895Z" fill="#181F29"/>
<g clip-path="url(#clip0_0_1)">
<path d="M38.0016 29.9927C38.5424 29.9951 39.0832 30.003 39.6239 29.9965C39.7911 29.9945 39.9263 30.0231 40.0225 30.166C40.0312 30.2097 40.0312 30.2632 40.0225 30.3204C39.9265 30.4758 39.793 30.5144 39.6252 30.5026C39.4601 30.4909 39.2934 30.5015 39.117 30.4946C38.6952 30.4881 38.2838 30.4894 37.8586 30.4866C37.8188 30.4808 37.7928 30.4774 37.7669 30.4774C34.2581 30.4772 30.7492 30.4765 27.2404 30.4782C26.9083 30.4784 26.5941 30.5502 26.3075 30.7329C25.7319 31.0999 25.3811 31.956 25.7463 32.6585C26.0487 33.2402 26.5126 33.5613 27.1763 33.5616C30.706 33.5631 34.2356 33.5623 37.7653 33.5621C37.8016 33.5621 37.838 33.5589 37.889 33.559C38.3108 33.5599 38.7181 33.559 39.1399 33.56C39.2534 33.562 39.3523 33.5605 39.4512 33.5627C39.6559 33.5672 39.8812 33.5041 40.0209 33.7303C40.0243 33.7264 40.0278 33.7225 40.0312 33.7186C40.0312 33.762 40.0312 33.8054 40.0224 33.852C39.9778 33.9138 39.942 33.9724 39.9062 34.0311C35.4889 34.0311 31.0716 34.0311 26.6497 34.0216C26.6201 33.9974 26.5968 33.9769 26.5697 33.9689C26.1179 33.8343 25.7519 33.5713 25.4887 33.1867C24.9095 32.3405 25.0144 31.2617 25.7552 30.5441C26.0169 30.2906 26.3403 30.1386 26.7021 30.0344C27.0497 30.03 27.3827 30.0254 27.7157 30.0254C30.9841 30.0248 34.2524 30.0255 37.5207 30.0237C37.681 30.0236 37.8413 30.0035 38.0016 29.9927Z" fill="#6E9EFF"/>
<path d="M38.0067 29.9831C37.8413 30.0035 37.681 30.0236 37.5207 30.0237C34.2524 30.0256 30.9841 30.0249 27.7158 30.0254C27.3827 30.0255 27.0497 30.03 26.6876 30.0323C26.2636 30.0317 25.8685 30.0241 25.4737 30.0328C24.7995 30.0477 24.1801 29.5201 24.091 28.8967C24.0881 28.8766 24.0519 28.8613 24.0313 28.8437C24.0313 28.7179 24.0313 28.5921 24.0312 28.4519C24.0519 28.42 24.0871 28.4053 24.0911 28.3846C24.2092 27.7728 24.5847 27.3984 25.1786 27.2631C25.401 27.2124 25.6438 27.2511 25.9062 27.2489C29.1325 27.2491 32.3297 27.2495 35.5269 27.2496C35.5529 27.2496 35.5788 27.247 35.6185 27.2468C36.4091 27.2497 37.186 27.2515 37.9678 27.2602C37.9821 27.2734 37.9914 27.2797 38.0007 27.2861C38.0815 27.382 38.1175 27.4873 38.0563 27.606C38.0006 27.7141 37.9025 27.7236 37.7924 27.7205C37.5798 27.7145 37.367 27.7192 37.1251 27.7195C36.6889 27.721 36.2817 27.7225 35.8601 27.722C32.3943 27.7195 28.943 27.7189 25.4917 27.7201C25.4048 27.7201 25.3159 27.732 25.2313 27.7522C24.7057 27.8777 24.3664 28.4965 24.6238 29.0009C24.8195 29.3842 25.1258 29.5462 25.5533 29.5456C28.9369 29.5405 32.3206 29.5428 35.7042 29.5424C35.7613 29.5424 35.8183 29.5374 35.8898 29.5376C36.3119 29.5366 36.7197 29.5328 37.1274 29.529C37.3336 29.5297 37.5397 29.5308 37.7459 29.5311C38.074 29.5315 38.1599 29.6741 38.0067 29.9831Z" fill="#74D84B"/>
<path d="M28.1875 18.5051C27.9496 18.5034 27.7117 18.5033 27.4738 18.4993C27.3653 18.4974 27.244 18.5289 27.1827 18.3901C27.1263 18.2621 27.154 18.1524 27.2289 18.0407C30.8028 18.0313 34.3868 18.0313 37.9854 18.0312C38.0202 18.0522 38.0364 18.0829 38.061 18.0926C38.6078 18.309 38.9582 18.7074 39.0518 19.2811C39.1253 19.7318 39.0352 20.1648 38.7104 20.5284C38.3794 20.8989 37.9757 21.0737 37.4829 21.0636C37.2071 21.0579 36.9311 21.0629 36.6261 21.0621C36.1617 21.062 35.7263 21.0629 35.2755 21.062C34.7875 21.0599 34.3148 21.0587 33.8421 21.0594C33.0526 21.0607 32.2631 21.0632 31.4587 21.0634C30.138 21.0612 28.8322 21.0614 27.5263 21.0588C27.4341 21.0586 27.342 21.0376 27.2498 21.0263C27.1448 20.9405 27.1223 20.8167 27.1664 20.7084C27.213 20.594 27.3288 20.5557 27.4602 20.5602C27.6919 20.5682 27.9241 20.5623 28.1811 20.5689C28.2527 20.5785 28.2993 20.5838 28.3459 20.5838C31.2148 20.5842 34.0838 20.5842 36.9527 20.5836C37.0096 20.5836 37.0664 20.5761 37.1374 20.5765C37.2763 20.582 37.4014 20.5886 37.5259 20.583C37.8069 20.5702 38.0563 20.4863 38.2673 20.2844C38.5039 20.058 38.5779 19.7879 38.5653 19.4712C38.5501 19.0895 38.3717 18.813 38.0481 18.6343C37.7409 18.4647 37.3988 18.4945 37.0486 18.5031C34.1111 18.5007 31.1882 18.5004 28.2652 18.5003C28.2393 18.5003 28.2134 18.5034 28.1875 18.5051Z" fill="#FC435F"/>
<path d="M35.2908 21.0641C35.7262 21.0631 36.1617 21.0622 36.6116 21.064C36.6258 22.17 36.6255 23.2734 36.6113 24.3924C36.2855 24.4093 35.9737 24.4106 35.6517 24.4099C35.6281 24.4086 35.6147 24.4092 35.5869 24.4084C35.4792 24.4051 35.3858 24.4032 35.2923 24.387C35.2917 23.2698 35.2912 22.1669 35.2908 21.0641Z" fill="#FAC800"/>
<path d="M38.5574 24.4116C38.9678 24.4116 39.3783 24.4116 39.798 24.4116C39.8031 24.4484 39.8119 24.4827 39.8119 24.517C39.8127 25.412 39.8125 26.307 39.8121 27.202C39.8121 27.2226 39.8076 27.2432 39.7829 27.2626C39.3611 27.2562 38.9617 27.2511 38.5623 27.2317C38.5598 26.8264 38.5572 26.4354 38.5626 26.0376C38.71 25.896 38.7074 25.7574 38.5628 25.6041C38.5618 25.2039 38.5608 24.818 38.5592 24.427C38.5586 24.4219 38.5574 24.4116 38.5574 24.4116Z" fill="#AD5F2C"/>
<path d="M37.1202 28.437C37.1218 28.5839 37.1233 28.7309 37.108 28.8921C36.6853 28.9076 36.2794 28.9087 35.859 28.9089C35.7248 28.9077 35.605 28.9072 35.4853 28.9072C34.9385 28.907 34.3918 28.9083 33.8451 28.9063C33.6662 28.9057 33.5877 28.8258 33.5936 28.6632C33.5987 28.5196 33.7025 28.4392 33.891 28.4388C34.5523 28.4374 35.2136 28.4375 35.8895 28.4373C36.3095 28.4374 36.7149 28.4372 37.1202 28.437Z" fill="#C5D7E6"/>
<path d="M37.1224 28.4225C36.7148 28.4372 36.3095 28.4374 35.8895 28.4227C35.8747 28.1798 35.8746 27.9519 35.8745 27.7239C36.2817 27.7224 36.6888 27.7209 37.1105 27.7212C37.1249 27.9514 37.1247 28.1797 37.1224 28.4225Z" fill="#E4ECF2"/>
<path d="M35.8735 28.9099C36.2794 28.9088 36.6854 28.9078 37.1056 28.9067C37.1217 29.1046 37.1235 29.3024 37.1264 29.5147C36.7197 29.5329 36.312 29.5367 35.8897 29.5227C35.8746 29.3066 35.8741 29.1083 35.8735 28.9099Z" fill="#E3ECF2"/>
<path d="M38.6058 24.4098C38.6199 24.4117 38.6211 24.4219 38.6074 24.428C37.6667 24.4344 36.7398 24.4351 35.8129 24.4341C35.7625 24.434 35.7122 24.4195 35.6619 24.4117C35.9737 24.4104 36.2855 24.4091 36.6121 24.4068C37.2818 24.4065 37.9368 24.4072 38.6058 24.4098Z" fill="#AA7766"/>
<path d="M38.6247 27.2461C39.0242 27.2512 39.4236 27.2564 39.8338 27.2689C39.2396 27.2785 38.6348 27.2808 38.0154 27.2847C37.9914 27.2799 37.9821 27.2736 37.983 27.2589C38.2037 27.249 38.4142 27.2476 38.6247 27.2461Z" fill="#808064"/>
<path d="M35.2925 24.4009C35.3859 24.4028 35.4793 24.4047 35.5882 24.4223C35.6041 25.3738 35.6045 26.3096 35.6049 27.2455C35.5789 27.2469 35.5529 27.2495 35.5269 27.2495C32.3297 27.2493 29.1325 27.249 25.9208 27.2466C25.9061 26.3186 25.9059 25.3924 25.9115 24.4406C25.9742 24.412 26.0311 24.4065 26.088 24.4065C27.3627 24.406 28.6373 24.4066 29.912 24.4059C30.4322 24.4056 30.9524 24.4028 31.4868 24.403C32.7648 24.4035 34.0287 24.4022 35.2925 24.4009ZM28.2032 26.3048C28.7596 26.3048 29.316 26.3049 29.8724 26.3048C30.1428 26.3048 30.4134 26.3106 30.6836 26.303C31.027 26.2934 31.222 26.0455 31.1595 25.7111C31.1201 25.5001 30.9355 25.3665 30.6719 25.3662C29.637 25.3649 28.6022 25.3655 27.5674 25.3659C27.5207 25.3659 27.4733 25.3665 27.4274 25.374C27.1203 25.4238 26.9516 25.7874 27.1088 26.0524C27.2121 26.2268 27.3692 26.3003 27.5635 26.3037C27.7663 26.3073 27.9691 26.3047 28.2032 26.3048Z" fill="#6E9EFF"/>
<path d="M31.4726 24.4011C30.9524 24.4028 30.4322 24.4056 29.9121 24.4059C28.6374 24.4066 27.3627 24.406 26.088 24.4065C26.0311 24.4065 25.9742 24.412 25.9092 24.4262C25.4497 24.4374 24.9982 24.4374 24.5391 24.4374C24.5391 23.2999 24.5391 22.1737 24.5391 21.0305C25.4346 21.0305 26.3276 21.0305 27.2352 21.0283C27.342 21.0374 27.4341 21.0584 27.5264 21.0586C28.8322 21.0612 30.138 21.061 31.4584 21.0777C31.4728 22.1963 31.4727 23.2987 31.4726 24.4011Z" fill="#FFDA45"/>
<path d="M37.1232 20.5722C37.0664 20.5763 37.0096 20.5838 36.9527 20.5839C34.0837 20.5845 31.2148 20.5844 28.3458 20.5841C28.2992 20.5841 28.2527 20.5787 28.1955 20.5682C28.1859 20.3106 28.1869 20.0608 28.2045 19.7962C29.9538 19.7812 31.6865 19.7811 33.4192 19.7807C33.4712 19.7807 33.5361 19.7979 33.5724 19.7735C33.6485 19.7224 33.7472 19.6579 33.7655 19.5818C33.7819 19.5139 33.7177 19.4089 33.6601 19.3474C33.6245 19.3093 33.5346 19.3134 33.4691 19.3134C31.7104 19.3116 29.9517 19.3119 28.193 19.3117C28.1911 19.0524 28.1893 18.7931 28.1875 18.5196C28.2134 18.5036 28.2393 18.5005 28.2652 18.5005C31.1882 18.5006 34.1111 18.5009 37.054 18.5118C37.1098 18.5598 37.1427 18.6007 37.1819 18.6342C37.6863 19.0658 37.7047 19.9557 37.2 20.4434C37.1653 20.4769 37.1484 20.5289 37.1232 20.5722Z" fill="#F0F5FA"/>
<path d="M28.1905 19.3261C29.9517 19.3117 31.7104 19.3115 33.4691 19.3132C33.5347 19.3133 33.6245 19.3092 33.6602 19.3472C33.7178 19.4087 33.7819 19.5138 33.7655 19.5817C33.7472 19.6578 33.6486 19.7223 33.5725 19.7734C33.5361 19.7978 33.4712 19.7806 33.4192 19.7806C31.6865 19.781 29.9538 19.7811 28.2068 19.7816C28.191 19.6348 28.1896 19.4877 28.1905 19.3261Z" fill="#C6D7E6"/>
<path d="M37.8744 33.5572C37.8381 33.5589 37.8017 33.5621 37.7653 33.5621C34.2357 33.5623 30.706 33.5631 27.1764 33.5615C26.5126 33.5612 26.0487 33.2402 25.7463 32.6585C25.3811 31.956 25.7319 31.0999 26.3075 30.7329C26.5941 30.5501 26.9084 30.4783 27.2404 30.4782C30.7493 30.4765 34.2581 30.4771 37.767 30.4774C37.7929 30.4774 37.8188 30.4807 37.8595 30.4993C37.8744 30.7397 37.8746 30.9633 37.8602 31.1873C35.1065 31.1879 32.3674 31.188 29.6283 31.1882C29.5763 31.1882 29.5241 31.1861 29.4722 31.189C29.3203 31.1975 29.2152 31.2996 29.2203 31.4312C29.2254 31.5632 29.3317 31.6565 29.4845 31.6566C30.3541 31.6575 31.2237 31.6569 32.0934 31.6572C34.0201 31.6579 35.9468 31.6588 37.874 31.6738C37.8744 31.9166 37.8744 32.145 37.8598 32.3739C35.9618 32.3746 34.0784 32.3748 32.1951 32.3751C32.143 32.3751 32.0907 32.3721 32.0391 32.3769C31.8755 32.3921 31.7746 32.496 31.7849 32.6347C31.7937 32.7545 31.9009 32.8387 32.0524 32.8434C32.1044 32.845 32.1564 32.8438 32.2085 32.8438C34.097 32.8444 35.9856 32.845 37.8744 32.8601C37.8745 33.1021 37.8745 33.3297 37.8744 33.5572Z" fill="#F0F5FA"/>
<path d="M37.889 33.5591C37.8745 33.3298 37.8746 33.1022 37.8891 32.8595C38.3091 32.8443 38.7145 32.8443 39.1199 32.8442C39.1216 33.0727 39.1234 33.3012 39.1253 33.544C38.7182 33.5591 38.3109 33.56 37.889 33.5591Z" fill="#E4ECF2"/>
<path d="M37.8748 31.1869C37.8746 30.9632 37.8743 30.7396 37.8733 30.5033C38.2838 30.4893 38.6952 30.488 39.117 30.4945C39.1265 30.7208 39.1256 30.9393 39.108 31.1726C38.6859 31.1872 38.2803 31.187 37.8748 31.1869Z" fill="#E4ECF2"/>
<path d="M35.859 28.9092C35.874 29.1084 35.8746 29.3067 35.8753 29.52C35.8183 29.5376 35.7613 29.5426 35.7042 29.5426C32.3206 29.543 28.9369 29.5407 25.5533 29.5458C25.1258 29.5464 24.8195 29.3844 24.6239 29.0011C24.3664 28.4967 24.7057 27.8779 25.2313 27.7524C25.3159 27.7322 25.4048 27.7204 25.4917 27.7203C28.943 27.7191 32.3943 27.7197 35.8601 27.7222C35.8747 27.9522 35.8748 28.1802 35.8749 28.4227C35.2136 28.4378 34.5523 28.4377 33.891 28.4391C33.7025 28.4395 33.5987 28.5199 33.5936 28.6635C33.5877 28.8261 33.6662 28.906 33.8451 28.9066C34.3918 28.9086 34.9385 28.9074 35.4853 28.9075C35.605 28.9075 35.7248 28.908 35.859 28.9092Z" fill="#F0F5FA"/>
<path d="M35.5873 27.2468C35.5732 26.3098 35.5728 25.374 35.5712 24.4238C35.5834 24.4089 35.5969 24.4083 35.6205 24.4097C35.6809 24.4194 35.7313 24.434 35.7816 24.434C36.7085 24.4351 37.6355 24.4344 38.5767 24.4331C38.5921 24.818 38.593 25.2039 38.5813 25.6016C38.5539 25.6087 38.5391 25.5998 38.5243 25.5998C37.9998 25.5978 37.4753 25.5936 36.9508 25.5975C36.8028 25.5986 36.7133 25.7075 36.7196 25.8481C36.7253 25.9731 36.8242 26.062 36.9674 26.0628C37.3154 26.0647 37.6634 26.0657 38.0114 26.0627C38.2029 26.0611 38.3944 26.0507 38.5858 26.0443C38.5884 26.4353 38.591 26.8264 38.5935 27.2317C38.3829 27.2474 38.1724 27.2489 37.9467 27.2518C37.1547 27.2515 36.3779 27.2498 35.5873 27.2468Z" fill="#BF6930"/>
<path d="M31.4867 24.4031C31.4726 23.2988 31.4727 22.1964 31.4732 21.0795C32.263 21.063 33.0525 21.0606 33.842 21.0593C34.3147 21.0586 34.7874 21.0597 35.2754 21.0619C35.2912 22.1666 35.2916 23.2695 35.2922 24.3867C34.0286 24.4023 32.7647 24.4036 31.4867 24.4031ZM32.2811 22.8554C32.2812 22.9126 32.2772 22.9702 32.2822 23.0269C32.2939 23.1617 32.4152 23.2621 32.5489 23.252C32.6768 23.2423 32.7503 23.1535 32.7504 23.0069C32.7507 22.8249 32.7514 22.6429 32.7497 22.461C32.7482 22.2965 32.6831 22.2242 32.5363 22.2186C32.3945 22.2132 32.2891 22.3056 32.2824 22.451C32.2768 22.5755 32.2812 22.7005 32.2811 22.8554ZM34.4688 22.7648C34.4688 22.6607 34.4706 22.5566 34.4684 22.4526C34.4652 22.297 34.3906 22.2214 34.2419 22.2186C34.103 22.216 34.0057 22.3013 34.0015 22.4449C33.9957 22.6424 33.9874 22.8415 34.0065 23.0373C34.0136 23.1096 34.0826 23.2083 34.1472 23.2334C34.2122 23.2587 34.3205 23.2281 34.3858 23.1852C34.5311 23.0898 34.449 22.9281 34.4688 22.7648ZM33.2216 23.2044C33.4803 23.3114 33.5937 23.2372 33.5938 22.961C33.5938 22.7946 33.5865 22.6277 33.5964 22.4619C33.6035 22.3429 33.579 22.2493 33.4552 22.2225C33.3311 22.1956 33.2031 22.2125 33.1679 22.3587C33.1011 22.6358 33.0734 22.9159 33.2216 23.2044Z" fill="#FFF5F5"/>
<path d="M37.1374 20.5764C37.1484 20.5286 37.1653 20.4766 37.2 20.4431C37.7047 19.9553 37.6863 19.0655 37.1819 18.6338C37.1427 18.6003 37.1098 18.5595 37.0686 18.5136C37.3988 18.4944 37.7409 18.4646 38.0481 18.6342C38.3717 18.8129 38.5501 19.0894 38.5653 19.4711C38.5779 19.7878 38.5039 20.0579 38.2673 20.2843C38.0563 20.4862 37.8069 20.5701 37.5259 20.5829C37.4014 20.5885 37.2763 20.5819 37.1374 20.5764Z" fill="#E4ECF2"/>
<path d="M37.8602 31.1877C38.2803 31.1875 38.6859 31.1876 39.1057 31.1875C39.1215 31.3342 39.123 31.4812 39.1077 31.6426C38.6851 31.658 38.2793 31.659 37.8735 31.6599C35.9468 31.6591 34.02 31.6582 32.0933 31.6575C31.2237 31.6572 30.3541 31.6579 29.4844 31.657C29.3316 31.6568 29.2254 31.5635 29.2203 31.4316C29.2152 31.3 29.3202 31.1979 29.4721 31.1894C29.524 31.1864 29.5762 31.1886 29.6283 31.1886C32.3674 31.1884 35.1065 31.1883 37.8602 31.1877Z" fill="#C5D7E6"/>
<path d="M39.1221 32.8301C38.7144 32.8445 38.3089 32.8446 37.8888 32.8452C35.9855 32.8453 34.0969 32.8447 32.2084 32.8441C32.1564 32.8441 32.1043 32.8454 32.0523 32.8437C31.9008 32.8391 31.7936 32.7549 31.7848 32.635C31.7745 32.4964 31.8754 32.3925 32.039 32.3772C32.0906 32.3725 32.1429 32.3754 32.195 32.3754C34.0783 32.3751 35.9617 32.3749 37.8744 32.3747C38.3091 32.3747 38.7145 32.3747 39.1198 32.3747C39.1214 32.5217 39.1229 32.6686 39.1221 32.8301Z" fill="#C5D7E6"/>
<path d="M39.1222 32.3599C38.7145 32.3744 38.3091 32.3744 37.889 32.374C37.8743 32.145 37.8743 31.9166 37.8739 31.6739C38.2793 31.6586 38.6851 31.6577 39.1052 31.6567C39.1212 31.8863 39.1229 32.1159 39.1222 32.3599Z" fill="#E3ECF2"/>
<path d="M38.6251 26.0374C38.4257 26.0505 38.2342 26.0609 38.0427 26.0625C37.6947 26.0655 37.3467 26.0645 36.9987 26.0626C36.8555 26.0618 36.7566 25.9729 36.7509 25.8479C36.7446 25.7074 36.834 25.5984 36.9821 25.5973C37.5066 25.5934 38.0311 25.5976 38.5556 25.5996C38.5704 25.5996 38.5852 25.6085 38.6126 25.6157C38.7699 25.7572 38.7725 25.8958 38.6251 26.0374Z" fill="#FFF4F4"/>
<path d="M28.1875 26.3051C27.9691 26.305 27.7662 26.3076 27.5635 26.304C27.3692 26.3006 27.2121 26.2271 27.1087 26.0527C26.9516 25.7877 27.1203 25.4241 27.4274 25.3743C27.4733 25.3668 27.5207 25.3662 27.5674 25.3662C28.6022 25.3658 29.637 25.3652 30.6718 25.3665C30.9355 25.3668 31.12 25.5004 31.1595 25.7114C31.222 26.0458 31.027 26.2937 30.6836 26.3033C30.4134 26.3109 30.1428 26.3051 29.8724 26.3051C29.316 26.3052 28.7596 26.3051 28.1875 26.3051Z" fill="#FFF5F5"/>
<path d="M32.2811 22.8407C32.2812 22.7009 32.2768 22.5759 32.2824 22.4514C32.2891 22.306 32.3945 22.2136 32.5363 22.219C32.6831 22.2246 32.7482 22.2969 32.7497 22.4613C32.7514 22.6433 32.7507 22.8253 32.7504 23.0072C32.7503 23.1538 32.6768 23.2427 32.5489 23.2523C32.4152 23.2624 32.2939 23.1621 32.2822 23.0273C32.2772 22.9705 32.2812 22.913 32.2811 22.8407Z" fill="#687B90"/>
<path d="M34.4688 22.7803C34.449 22.9284 34.5311 23.09 34.3858 23.1855C34.3205 23.2283 34.2122 23.2589 34.1473 23.2337C34.0826 23.2085 34.0136 23.1098 34.0066 23.0375C33.9874 22.8417 33.9957 22.6426 34.0015 22.4451C34.0057 22.3015 34.103 22.2162 34.2419 22.2188C34.3906 22.2216 34.4652 22.2972 34.4684 22.4529C34.4706 22.5569 34.4688 22.661 34.4688 22.7803Z" fill="#687B90"/>
<path d="M33.2128 23.1955C33.0734 22.9159 33.1012 22.6358 33.1679 22.3587C33.2031 22.2125 33.3311 22.1957 33.4553 22.2225C33.579 22.2494 33.6035 22.343 33.5964 22.4619C33.5865 22.6278 33.5939 22.7946 33.5938 22.9611C33.5937 23.2373 33.4803 23.3114 33.2128 23.1955Z" fill="#687B90"/>
</g>
<defs>
<filter id="filter0_d_0_1" x="0" y="0" width="94" height="64" filterUnits="userSpaceOnUse" color-interpolation-filters="sRGB">
<feFlood flood-opacity="0" result="BackgroundImageFix"/>
<feColorMatrix in="SourceAlpha" type="matrix" values="0 0 0 0 0 0 0 0 0 0 0 0 0 0 0 0 0 0 127 0" result="hardAlpha"/>
<feOffset dy="2"/>
<feGaussianBlur stdDeviation="6"/>
<feComposite in2="hardAlpha" operator="out"/>
<feColorMatrix type="matrix" values="0 0 0 0 0 0 0 0 0 0 0 0 0 0 0 0 0 0 0.07 0"/>
<feBlend mode="normal" in2="BackgroundImageFix" result="effect1_dropShadow_0_1"/>
<feBlend mode="normal" in="SourceGraphic" in2="effect1_dropShadow_0_1" result="shape"/>
</filter>
<clipPath id="clip0_0_1">
<rect width="16" height="16" fill="white" transform="translate(24 18)"/>
</clipPath>
</defs>
</svg>
