<svg width="19" height="19" viewBox="0 0 19 19" fill="none" xmlns="http://www.w3.org/2000/svg">
<path d="M2.375 3.5625L3.45147 7.125H2.375V8.3125H3.80356L4.15625 9.5H2.375V10.6875H4.50894L5.9375 15.4375H7.125L8.3125 10.6875H10.6875L11.875 15.4375H13.0625L14.4911 10.6875H16.625V9.5H14.8438L15.1964 8.3125H16.625V7.125H15.5485L16.625 3.5625H15.4375L14.361 7.125H10.9844L10.0938 3.5625H8.90625L8.01562 7.125H4.63837L3.5625 3.5625H2.375ZM9.5 5.9375L9.79688 7.125H9.20312L9.5 5.9375ZM4.99106 8.3125H7.71875L7.42188 9.5H5.34375L4.99106 8.3125ZM8.90625 8.3125H10.0938L10.3906 9.5H8.60938L8.90625 8.3125ZM11.2812 8.3125H14.0089L13.6562 9.5H11.5781L11.2812 8.3125ZM5.69644 10.6875H7.125L6.47544 13.2852L5.69644 10.6875ZM11.875 10.6875H13.3036L12.5246 13.2852L11.875 10.6875Z" fill="#5DC26D"/>
</svg>
