<svg xmlns="http://www.w3.org/2000/svg" width="29" height="28" viewBox="0 0 29 28" fill="none">
  <path fill-rule="evenodd" clip-rule="evenodd" d="M25.4 0V3.6H29V5.4H25.4V9H23.6V5.4H20V3.6H23.6V0H25.4ZM11.0124 8.15967C12.8007 8.15967 14.5488 8.68457 16.0357 9.66748C17.5226 10.6504 18.6815 12.0474 19.3658 13.6816C20.0502 15.3164 20.2292 17.1152 19.8803 18.8501C19.5314 20.5854 18.6703 22.1792 17.4058 23.4307C16.1413 24.6816 14.5303 25.5337 12.7763 25.8784C11.0224 26.2236 9.20447 26.0469 7.55231 25.3696C5.90015 24.6924 4.48804 23.5459 3.49451 22.0747C2.50104 20.604 1.97071 18.8745 1.97071 17.105C1.97699 14.7344 2.93158 12.4629 4.62586 10.7866C6.32013 9.11035 8.61634 8.16602 11.0124 8.15967ZM11.0124 6.20996C8.83436 6.20996 6.70521 6.84912 4.89423 8.0459C3.08326 9.24316 1.67176 10.9448 0.838262 12.9355C0.0047658 14.9268 -0.213313 17.1172 0.211614 19.2305C0.636541 21.3442 1.68537 23.2856 3.22547 24.8091C4.76557 26.333 6.72779 27.3706 8.86396 27.791C11.0002 28.2114 13.2144 27.9956 15.2266 27.1709C17.2389 26.3462 18.9588 24.9497 20.1689 23.1582C21.3789 21.3662 22.0248 19.2598 22.0248 17.105C22.0248 14.2153 20.8646 11.4443 18.7993 9.40088C16.7341 7.35791 13.933 6.20996 11.0124 6.20996ZM11.1069 12.6597C11.9968 12.6587 12.8668 12.9194 13.6069 13.4077C14.3471 13.8965 14.9241 14.5913 15.265 15.4043C15.6058 16.2178 15.6953 17.1128 15.5219 17.9761C15.3485 18.8394 14.92 19.6328 14.2909 20.2554C13.6617 20.8774 12.86 21.3013 11.9873 21.4731C11.1146 21.6445 10.21 21.5562 9.38807 21.2188C8.56617 20.8818 7.86384 20.3105 7.37 19.5786C6.8761 18.8462 6.61292 17.9854 6.61371 17.105C6.61579 15.9268 7.08985 14.7974 7.93207 13.9639C8.77424 13.1309 9.9159 12.6616 11.1069 12.6597ZM11.1069 10.71C9.82758 10.71 8.57691 11.0854 7.51319 11.7886C6.44947 12.4922 5.62043 13.4917 5.13099 14.6611C4.64161 15.8306 4.51374 17.1177 4.76362 18.3589C5.01349 19.6001 5.62989 20.7402 6.53486 21.6353C7.43976 22.5298 8.59266 23.1392 9.84754 23.3857C11.1025 23.6318 12.4031 23.5049 13.5848 23.02C14.7666 22.5347 15.7765 21.7144 16.4868 20.6611C17.197 19.6084 17.5756 18.3711 17.5748 17.105C17.5748 16.2651 17.4075 15.4331 17.0825 14.6567C16.7573 13.8809 16.2809 13.1758 15.6802 12.5815C15.0795 11.9878 14.3665 11.5166 13.5818 11.1958C12.7971 10.8745 11.9561 10.7095 11.1069 10.71Z" fill="white"/>
</svg>