<svg width="45" height="22" viewBox="0 0 45 22" fill="none" xmlns="http://www.w3.org/2000/svg">
<g id="Group 583">
<path id="Rectangle 4669" d="M3 20C3 8.95431 11.9543 0 23 0V0C34.0457 0 43 8.95431 43 20V20H3V20Z" fill="#FF6A6A"/>
<path id="Vector" d="M19.983 14.4086C20.7459 14.2996 21.2297 13.2686 21.0636 12.1057C20.8974 10.9428 20.1443 10.0885 19.3814 10.1974C18.6185 10.3064 18.1347 11.3375 18.3008 12.5004C18.4669 13.6632 19.2201 14.5176 19.983 14.4086Z" fill="#353535"/>
<path id="Vector_2" d="M25.977 13.4066C26.74 13.2988 27.2251 12.2685 27.0607 11.1056C26.8962 9.94266 26.1444 9.08737 25.3815 9.19527C24.6185 9.30316 24.1333 10.3334 24.2978 11.4963C24.4622 12.6593 25.214 13.5145 25.977 13.4066Z" fill="#353535"/>
<ellipse id="Ellipse 58" cx="42" cy="18.5" rx="3" ry="3.5" fill="#FF0000"/>
<ellipse id="Ellipse 59" cx="3" cy="18.5" rx="3" ry="3.5" fill="#FF0000"/>
<path id="Vector 411" d="M21 17L21.2233 16.8333C22.6578 15.7622 24.6437 15.8315 26 17V17" stroke="#353535" stroke-linecap="round"/>
</g>
</svg>
