<svg xmlns="http://www.w3.org/2000/svg" width="92" height="92" viewBox="0 0 92 92" fill="none">
  <path d="M0.00626373 44.951C0.124409 45.1535 0.301422 45.2518 0.352081 45.3949C1.62666 48.9943 4.09713 51.1857 7.89639 51.7923C8.64768 51.9123 9.41762 51.9642 10.179 51.9649C21.8525 51.9754 33.5261 52.0088 45.1993 51.9499C48.6857 51.9324 51.9584 50.9357 54.9435 49.082C55.3161 48.8506 55.7144 48.6603 56.1874 48.3687C56.5929 48.075 56.9033 47.8489 57.2323 47.6545C59.2151 46.4826 61.2023 45.3181 63.1062 44.1372C62.4901 44.086 61.9558 44.0486 61.3409 44.0427C56.9622 44.08 52.6639 44.0857 48.2845 44.0984C36.9668 44.1071 25.7304 44.1164 14.494 44.1055C11.2842 44.1024 8.53045 42.9906 6.30928 40.5416C4.98944 39.285 3.48428 38.6893 1.7043 38.777C1.24441 38.7997 0.778378 38.6979 0.315163 38.6533C0.239765 38.7291 0.164368 38.8048 0.0476112 38.8443C0.00626373 40.8278 0.00626373 42.8477 0.00626373 44.951Z" fill="#665E66"/>
  <path d="M63.1878 44.1508C61.2021 45.3178 59.2149 46.4823 57.2321 47.6542C56.9031 47.8486 56.5927 48.0747 56.2409 48.3364C58.629 49.9864 61.2294 51.1304 64.1107 51.6235C67.8038 52.2554 71.5224 51.8815 75.2287 51.9616C77.7429 52.0159 80.2595 51.9458 82.7744 51.9783C86.2844 52.0236 89.6908 50.1087 90.756 46.4384C90.785 46.3384 90.9005 46.2635 91.0325 46.2281C91.0895 44.7338 91.0895 43.1883 91.0895 41.5595C90.9414 41.2999 90.7304 41.146 90.6579 40.9428C90.4934 40.4815 90.397 39.9959 90.1553 39.4922C89.7518 39.6175 89.4616 39.7634 89.1806 39.9253C86.3856 41.5353 83.3801 42.3871 80.1518 42.4502C79.544 42.4621 79.0168 42.3411 78.8056 41.6923C78.6161 41.1099 78.8088 40.6318 79.3352 40.3292C82.5338 38.4908 85.7379 36.6621 88.9402 34.8301C88.6327 33.5714 88.328 32.312 88.0154 31.0546C87.9472 30.78 87.8505 30.5125 87.6692 30.2129C86.2643 30.9359 84.9591 31.6912 83.6496 32.4389C80.7514 34.0938 77.8509 35.745 74.913 37.4466C73.7021 38.1688 72.5295 38.842 71.3163 39.5617C70.3962 40.1057 69.5166 40.6032 68.586 41.132C66.7526 42.1592 64.9702 43.155 63.1878 44.1508Z" fill="#4073C8"/>
  <path d="M84.7508 15.4901C86.4258 13.7344 87.1096 11.6348 87.0086 9.22622C86.949 7.80558 87.0258 6.37945 86.9773 4.95797C86.9656 4.61428 86.755 4.04308 86.5396 3.99329C86.1791 3.90998 85.6174 4.03602 85.3556 4.29313C83.5165 6.09977 81.6801 7.8872 79.4684 9.26482C76.6323 11.0314 73.5879 12.2324 70.3126 12.8193C68.7977 13.0908 67.2479 13.3635 65.721 13.3285C63.2887 13.2728 60.8481 13.0557 58.3613 12.3005C56.32 11.5188 54.3523 10.8648 52.5336 9.92298C50.5713 8.9068 48.611 8.33349 46.4532 8.82533C53.0138 15.3962 59.5367 21.9227 66.0615 28.4472C66.2067 28.5924 66.3739 28.7155 66.5775 28.8089C72.9974 25.2731 78.8254 21.0386 84.0233 15.9467C84.2232 15.7509 84.5064 15.6403 84.7508 15.4901Z" fill="#F5626F"/>
  <path d="M28.1166 23.478C25.6354 24.552 23.1647 25.6512 20.6703 26.6939C17.3286 28.0907 13.9683 29.4431 10.6168 30.8167C10.3802 30.9137 10.1505 31.0274 9.8319 31.1939C9.7097 31.2982 9.66342 31.3249 9.60742 31.3347C9.60742 31.3347 9.61394 31.3364 9.60758 31.3961C9.30046 31.9292 8.99447 32.3993 8.7 32.8766C7.94426 34.1015 8.35015 34.9473 9.76932 35.0786C11.1761 35.2088 12.3486 35.8042 13.4527 36.6765C14.7214 37.6788 16.089 38.5557 17.4795 39.4998C17.6336 39.5256 17.7218 39.5386 17.8858 39.5394C25.8455 38.7791 33.7295 38.0309 41.5883 37.2349C41.3508 36.9443 41.1516 36.6885 40.9243 36.4609C36.8951 32.4264 32.8609 28.3969 28.8343 24.3598C28.5681 24.0929 28.3546 23.7732 28.1166 23.478Z" fill="#F5626F"/>
  <path d="M66.5309 28.8486C66.3739 28.7152 66.2067 28.5921 66.0615 28.4469C59.5367 21.9223 53.0139 15.3958 46.3892 8.82227C45.4903 9.02838 44.6929 9.28181 43.8956 9.53524C43.8956 9.53524 43.8558 9.53451 43.874 9.6115C43.7225 9.79618 43.5529 9.90388 43.3833 10.0116C43.0129 10.3577 42.6426 10.7039 42.2277 11.1277C43.141 12.1975 44.0897 13.1988 45.0588 14.1798C46.4823 15.6206 46.5884 16.1982 45.7287 18.0356C50.1377 22.4922 54.5264 26.89 58.9077 31.2953C59.1721 31.5612 59.3773 31.886 59.6651 32.2079C62.3507 34.838 64.9814 37.4437 67.6564 40.0709C67.7878 40.1386 67.8749 40.1847 68.0266 40.2046C69.1798 39.9572 70.2683 39.7361 71.3569 39.5149C72.5294 38.8418 73.702 38.1686 74.8728 37.3982C74.1652 36.5861 73.4593 35.8713 72.7537 35.1562C70.6794 33.0537 68.6051 30.9512 66.5309 28.8486Z" fill="#C6C1C8"/>
  <path d="M66.5778 28.8093C68.6054 30.9519 70.6797 33.0545 72.754 35.157C73.4596 35.8721 74.1655 36.5869 74.9114 37.35C77.8511 35.7455 80.7515 34.0944 83.6498 32.4395C84.9593 31.6918 86.2645 30.9365 87.6237 30.1636C87.9917 25.3547 87.2734 20.777 84.9322 16.5219C84.7868 16.2576 84.7654 15.925 84.7187 15.5574C84.5068 15.6408 84.2235 15.7514 84.0236 15.9472C78.8257 21.039 72.9978 25.2736 66.5778 28.8093Z" fill="#F1F1F4"/>
  <path d="M28.1487 23.4269C28.3544 23.7738 28.5678 24.0935 28.8341 24.3604C32.8606 28.3975 36.8948 32.427 40.924 36.4615C41.1513 36.6891 41.3505 36.9449 41.6356 37.2788C42.6873 38.3266 43.6662 39.2832 44.6899 40.2598C44.8231 40.3232 44.9114 40.3666 45.0844 40.4099C49.4432 40.4113 53.7173 40.4127 57.9605 40.3641C56.1132 38.4626 54.2967 36.6112 52.4222 34.7394C52.0998 34.4853 51.8226 34.2645 51.5734 34.0157C48.1659 30.6139 44.7642 27.2062 41.3558 23.8053C40.7509 23.2018 40.122 22.6223 39.506 22.1059C39.7444 23.5663 39.3638 24.5003 38.338 25.0513C37.3832 25.5641 36.3985 25.3259 35.4026 24.3396C35.1089 24.0487 34.8251 23.7474 34.5238 23.4647C33.6474 22.6422 32.7644 21.8266 31.884 21.0083C30.6497 21.7973 29.4154 22.5862 28.1487 23.4269Z" fill="#C6C1C8"/>
  <path d="M39.5043 22.0315C40.1221 22.6221 40.751 23.2015 41.3559 23.805C44.7643 27.2059 48.166 30.6136 51.5735 34.0154C51.8227 34.2642 52.0999 34.485 52.4869 34.7141C54.9431 33.8676 57.2766 33.0256 59.6101 32.1837C59.3773 31.8863 59.1721 31.5615 58.9076 31.2956C54.5264 26.8904 50.1377 22.4925 45.6695 18.0551C44.1343 18.9597 43.2647 18.8695 42.0329 17.6766C40.909 16.5883 39.771 15.5147 38.6392 14.4346C37.5983 15.4952 36.5575 16.5559 35.4738 17.6997C35.6437 18.0227 35.8479 18.2707 36.0707 18.5008C37.2126 19.6802 38.3592 20.855 39.5043 22.0315Z" fill="#F56470"/>
  <path d="M43.9079 9.47999C44.6932 9.28241 45.4906 9.02898 46.352 8.77828C48.6114 8.33376 50.5716 8.90707 52.5339 9.92325C54.3526 10.865 56.3204 11.519 58.2913 12.2883C58.359 11.0051 58.3525 9.73341 58.3576 8.46178C58.3702 5.27186 57.0443 2.67508 54.8109 0.489858C54.1389 -0.167595 53.4878 -0.164626 52.8142 0.507034C49.8414 3.47133 46.8833 6.45042 43.9079 9.47999Z" fill="#4173C8"/>
  <path d="M17.4133 39.4875C16.0887 38.5562 14.7211 37.6793 13.4524 36.677C12.3483 35.8047 11.1758 35.2093 9.76901 35.0791C8.34985 34.9478 7.94395 34.102 8.6997 32.8771C8.99416 32.3998 9.30016 31.9297 9.60582 31.3936C8.34929 31.8074 7.08453 32.2754 5.82708 32.7623C3.26078 33.7561 1.48694 35.558 0.441521 38.0906C0.387405 38.2217 0.377497 38.3711 0.330856 38.5826C0.777924 38.6979 1.24395 38.7997 1.70385 38.777C3.48383 38.6893 4.98898 39.285 6.37574 40.5053C10.1296 40.1644 13.7715 39.8259 17.4133 39.4875Z" fill="#C73E48"/>
  <path d="M89.0031 34.8718C85.7379 36.6628 82.5338 38.4915 79.3352 40.3299C78.8087 40.6325 78.616 41.1106 78.8056 41.693C79.0167 42.3417 79.5439 42.4628 80.1517 42.4509C83.3801 42.3878 86.3855 41.536 89.1806 39.926C89.4616 39.7641 89.7517 39.6182 90.1 39.442C89.7969 37.9171 89.4315 36.415 89.0031 34.8718Z" fill="#D8F0F4"/>
  <path d="M39.5062 22.106C38.3593 20.8554 37.2126 19.6806 36.0707 18.5012C35.8479 18.2711 35.6437 18.0231 35.4186 17.7256C34.4236 16.9326 33.389 16.9032 32.3857 17.5632C31.3883 18.2193 31.1589 19.4393 31.8494 20.9469C32.7645 21.8267 33.6475 22.6422 34.5239 23.4648C34.8252 23.7475 35.1091 24.0488 35.4028 24.3397C36.3986 25.326 37.3833 25.5642 38.3381 25.0513C39.364 24.5004 39.7445 23.5663 39.5062 22.106Z" fill="#F1F1F4"/>
  <path d="M38.6103 14.3734C39.7708 15.5147 40.9089 16.5884 42.0327 17.6767C43.2646 18.8695 44.1342 18.9597 45.6473 17.9981C46.5883 16.1986 46.4821 15.621 45.0587 14.1802C44.0895 13.1992 43.1408 12.198 42.1702 11.1479C41.2871 10.3785 39.7734 10.2765 39.0545 10.8811C37.9173 11.8375 37.7771 12.8546 38.6103 14.3734Z" fill="#F1F1F4"/>
  <path d="M43.4033 9.95811C43.5532 9.9044 43.7228 9.7967 43.8724 9.63184C43.7093 9.68449 43.5662 9.7943 43.4033 9.95811Z" fill="#4173C8"/>
  <path d="M9.61671 31.2869C9.66295 31.3255 9.70943 31.2986 9.77258 31.2236C9.74159 31.2077 9.68416 31.2231 9.61671 31.2869Z" fill="#C73E48"/>
  <path d="M17.4796 39.5C13.7718 39.8256 10.13 40.1641 6.42118 40.5388C8.53038 42.9903 11.2842 44.1021 14.494 44.1052C25.7303 44.1161 36.9667 44.1068 48.2709 44.043C48.1397 43.7341 47.957 43.4717 47.7389 43.2432C46.8318 42.2931 45.914 41.3532 45.0001 40.4095C44.9118 40.3662 44.8235 40.3228 44.629 40.2974C44.2906 40.3467 44.0584 40.4053 43.8261 40.4054C36.3195 40.4099 28.8125 40.4454 21.3067 40.3701C20.1385 40.3584 18.9755 39.8373 17.8101 39.5518C17.7219 39.5388 17.6337 39.5258 17.4796 39.5Z" fill="#DFDDE2"/>
  <path d="M45.0848 40.4099C45.914 41.3536 46.8318 42.2934 47.7389 43.2435C47.9571 43.472 48.1397 43.7345 48.3522 44.0364C52.6639 44.0858 56.9621 44.08 61.3219 43.9919C60.2998 42.7563 59.2161 41.6031 58.0972 40.4415C58.0619 40.433 57.9918 40.4141 57.9918 40.4141C53.7177 40.4127 49.4436 40.4113 45.0848 40.4099Z" fill="#B1ABB4"/>
  <path d="M58.1322 40.4496C59.2159 41.6028 60.2996 42.7559 61.4023 43.96C61.9556 44.0483 62.4899 44.0857 63.106 44.1369C64.9701 43.155 66.7525 42.1592 68.5659 41.0812C68.3852 40.743 68.1737 40.487 67.9621 40.2311C67.875 40.185 67.7879 40.1389 67.6005 40.1108C66.9215 40.2224 66.3438 40.3875 65.7636 40.3971C63.2202 40.4391 60.6761 40.4362 58.1322 40.4496Z" fill="#DEDCE1"/>
  <path d="M68.0266 40.2053C68.1735 40.4875 68.3851 40.7435 68.6168 41.0503C69.5165 40.6037 70.396 40.1063 71.3162 39.5623C70.2683 39.7368 69.1797 39.958 68.0266 40.2053Z" fill="#B0A7B3"/>
  <path d="M17.8858 39.5398C18.9754 39.8375 20.1384 40.3586 21.3066 40.3703C28.8124 40.4456 36.3194 40.4101 43.826 40.4056C44.0583 40.4054 44.2905 40.3468 44.584 40.2775C43.6664 39.283 42.6876 38.3264 41.6611 37.3264C33.7295 38.0312 25.8455 38.7794 17.8858 39.5398Z" fill="#F1EFF3"/>
  <path d="M58.0971 40.4412C60.6762 40.4363 63.2203 40.4392 65.7637 40.3972C66.3439 40.3876 66.9216 40.2225 67.5563 40.0894C64.9816 37.4441 62.3509 34.8384 59.6653 32.2083C57.2768 33.0257 54.9433 33.8676 52.5452 34.7345C54.2971 36.6109 56.1135 38.4623 57.9608 40.3638C57.9917 40.4138 58.0618 40.4328 58.0971 40.4412Z" fill="#F1F0F3"/>
</svg>