<svg width="23" height="23" viewBox="0 0 23 23" fill="none" xmlns="http://www.w3.org/2000/svg">
<g id="solar:gallery-wide-bold-duotone">
<path id="Vector" d="M17.7406 9.65701C17.7406 10.3643 17.1417 10.9383 16.4028 10.9383C15.6649 10.9383 15.0659 10.3643 15.0659 9.65701C15.0659 8.9488 15.6649 8.37476 16.4028 8.37476C17.1407 8.37476 17.7406 8.9488 17.7406 9.65701Z" fill="#8B8D94"/>
<path id="Vector_2" fill-rule="evenodd" clip-rule="evenodd" d="M17.2846 5.30162C16.2687 5.17033 14.9712 5.17033 13.3334 5.17129H9.66679C8.02804 5.17129 6.73046 5.17129 5.71558 5.30162C4.671 5.43579 3.82383 5.72041 3.15683 6.35962C2.48983 6.99883 2.19466 7.80958 2.05283 8.812C1.91675 9.7847 1.91675 11.0286 1.91675 12.5993V12.6952C1.91675 14.2668 1.91675 15.5098 2.05283 16.4835C2.19371 17.4859 2.48983 18.2966 3.15683 18.9358C3.82383 19.575 4.671 19.8587 5.71558 19.9938C6.73141 20.1242 8.029 20.1242 9.66679 20.1242H13.3334C14.9721 20.1242 16.2697 20.1242 17.2846 19.9938C18.3292 19.8597 19.1763 19.575 19.8433 18.9358C20.5103 18.2966 20.8065 17.4849 20.9473 16.4835C21.0834 15.5098 21.0834 14.2659 21.0834 12.6961V12.6003C21.0834 11.0286 21.0834 9.78566 20.9473 8.812C20.8065 7.80958 20.5103 6.99883 19.8433 6.35962C19.1763 5.72041 18.3292 5.43675 17.2846 5.30162ZM5.89383 6.57237C4.99683 6.68737 4.48029 6.90395 4.10175 7.2662C3.72512 7.6275 3.49896 8.12295 3.37821 8.98258C3.28237 9.67258 3.26033 10.5341 3.25554 11.6611L3.70596 11.2826C4.78408 10.3798 6.4075 10.4316 7.4195 11.4014L11.2432 15.067C11.4328 15.2457 11.6773 15.3548 11.9369 15.3764C12.1965 15.398 12.4557 15.3308 12.6721 15.1859L12.9385 15.0067C13.5635 14.5887 14.3077 14.386 15.0583 14.4292C15.8089 14.4725 16.5249 14.7593 17.0977 15.2462L19.4044 17.2367C19.4983 16.9837 19.5702 16.6818 19.622 16.3129C19.7446 15.435 19.7465 14.2774 19.7465 12.6482C19.7465 11.019 19.7446 9.86041 19.622 8.98258C19.5012 8.12295 19.275 7.6275 18.8975 7.2662C18.5208 6.90395 18.0033 6.68737 17.1063 6.57237C16.1902 6.45354 14.9827 6.45258 13.2826 6.45258H9.71758C8.0175 6.45258 6.81 6.45354 5.89383 6.57237Z" fill="#8B8D94"/>
<path id="Vector_3" opacity="0.5" d="M16.3749 2.50117C15.5508 2.39575 14.5014 2.39575 13.1933 2.39575H10.232C8.92484 2.39575 7.87546 2.39575 7.05225 2.50117C6.19934 2.61138 5.4873 2.84425 4.92284 3.38284C4.61132 3.68185 4.37376 4.04935 4.229 4.45617C4.712 4.23575 5.25825 4.10542 5.87159 4.02492C6.91138 3.89075 8.23867 3.89075 9.91575 3.89075H13.6676C15.3438 3.89075 16.671 3.89075 17.7108 4.02492C18.2465 4.09488 18.7305 4.20317 19.1675 4.37567C19.0213 4.00048 18.7946 3.66191 18.5034 3.38379C17.9389 2.84425 17.2278 2.61138 16.3749 2.50213" fill="#8B8D94"/>
</g>
</svg>
