<svg xmlns="http://www.w3.org/2000/svg" width="21" height="21" viewBox="0 0 21 21" fill="none">
  <g clip-path="url(#clip0_1152_9)">
    <path d="M0.864014 10.0995C1.44019 9.99548 2.02452 9.94327 2.61001 9.9435C4.98001 9.9435 7.15051 10.788 8.84101 12.1935" stroke="#8B8D94" stroke-width="1.5" stroke-linecap="round" stroke-linejoin="round"/>
    <path d="M7.61401 15.9435H2.36401C1.96619 15.9435 1.58466 15.7855 1.30335 15.5042C1.02205 15.2229 0.864014 14.8413 0.864014 14.4435V2.4435C0.864014 2.04567 1.02205 1.66414 1.30335 1.38284C1.58466 1.10153 1.96619 0.943497 2.36401 0.943497H14.364C14.7618 0.943497 15.1434 1.10153 15.4247 1.38284C15.706 1.66414 15.864 2.04567 15.864 2.4435V7.6935" stroke="#8B8D94" stroke-width="1.5" stroke-linecap="round" stroke-linejoin="round"/>
    <path d="M9.48901 8.4435C9.98629 8.4435 10.4632 8.24595 10.8148 7.89432C11.1665 7.54269 11.364 7.06578 11.364 6.5685C11.364 6.07122 11.1665 5.5943 10.8148 5.24267C10.4632 4.89104 9.98629 4.6935 9.48901 4.6935C8.99173 4.6935 8.51482 4.89104 8.16319 5.24267C7.81156 5.5943 7.61401 6.07122 7.61401 6.5685C7.61401 7.06578 7.81156 7.54269 8.16319 7.89432C8.51482 8.24595 8.99173 8.4435 9.48901 8.4435ZM11.01 15.8445C10.4835 15.753 10.4835 14.997 11.01 14.9055C11.9422 14.7432 12.805 14.3071 13.4884 13.6526C14.1718 12.998 14.6447 12.1549 14.847 11.2305L14.8785 11.085C14.9925 10.5645 15.7335 10.5615 15.852 11.0805L15.891 11.25C16.1011 12.1702 16.5783 13.0078 17.2629 13.6576C17.9474 14.3074 18.8087 14.7405 19.7385 14.9025C20.268 14.9955 20.268 15.7545 19.7385 15.8475C18.8086 16.0093 17.9472 16.4423 17.2627 17.0922C16.5781 17.742 16.1009 18.5797 15.891 19.5L15.852 19.6695C15.7335 20.1885 14.9925 20.1855 14.8785 19.665L14.847 19.5195C14.6447 18.5951 14.1718 17.7519 13.4884 17.0974C12.805 16.4429 11.9422 16.0067 11.01 15.8445Z" stroke="#8B8D94" stroke-width="1.5" stroke-linecap="round" stroke-linejoin="round"/>
  </g>
  <defs>
    <clipPath id="clip0_1152_9">
      <rect width="21" height="21" fill="white"/>
    </clipPath>
  </defs>
</svg>