<svg width="20" height="20" viewBox="0 0 20 20" fill="none" xmlns="http://www.w3.org/2000/svg">
<g id="fluent:speaker-1-24-regular">
<path id="Vector" d="M12.2534 2.86912C12.4126 3.05662 12.5001 3.29496 12.5001 3.54162V16.46C12.5001 16.6587 12.4433 16.8533 12.3364 17.0208C12.2294 17.1882 12.0768 17.3217 11.8965 17.4052C11.7162 17.4888 11.5158 17.5191 11.3188 17.4924C11.1219 17.4658 10.9367 17.3834 10.7851 17.255L6.64592 13.75H3.54175C3.04447 13.75 2.56755 13.5524 2.21592 13.2008C1.86429 12.8492 1.66675 12.3722 1.66675 11.875V8.12496C1.66675 7.62768 1.86429 7.15076 2.21592 6.79913C2.56755 6.4475 3.04447 6.24996 3.54175 6.24996H6.64592L10.7859 2.74662C10.9968 2.56836 11.2698 2.48113 11.545 2.5041C11.8202 2.52707 12.075 2.65837 12.2534 2.86912ZM11.2501 3.99079L7.10425 7.49996H3.54175C3.37599 7.49996 3.21702 7.56581 3.09981 7.68302C2.9826 7.80023 2.91675 7.9592 2.91675 8.12496V11.875C2.91675 12.2208 3.19675 12.5 3.54175 12.5H7.10425L11.2501 16.0108V3.99079ZM14.2534 7.19996C14.3949 7.11388 14.5648 7.08747 14.7257 7.12654C14.8866 7.1656 15.0255 7.26693 15.1117 7.40829C15.5901 8.19162 15.8301 9.06829 15.8301 10.025C15.8301 10.9816 15.5901 11.8591 15.1117 12.6425C15.0702 12.7149 15.0146 12.7782 14.9481 12.8288C14.8817 12.8794 14.8058 12.9161 14.7249 12.9368C14.644 12.9576 14.5598 12.9619 14.4772 12.9496C14.3946 12.9372 14.3154 12.9085 14.2441 12.865C14.1728 12.8215 14.111 12.7641 14.0622 12.6964C14.0135 12.6286 13.9788 12.5517 13.9603 12.4703C13.9417 12.3889 13.9396 12.3046 13.9542 12.2224C13.9688 12.1402 13.9997 12.0617 14.0451 11.9916C14.4017 11.4066 14.5801 10.7558 14.5801 10.025C14.5801 9.29412 14.4017 8.64412 14.0451 8.05912C13.959 7.91764 13.9326 7.74779 13.9717 7.58685C14.0107 7.42592 14.1121 7.28623 14.2534 7.19996Z" fill="#181F29"/>
</g>
</svg>
