<svg width="17" height="13" viewBox="0 0 17 13" fill="none" xmlns="http://www.w3.org/2000/svg">
<path d="M13.4058 3.475C13.3103 4.87303 12.3266 5.94999 11.2539 5.94999C10.1813 5.94999 9.19599 4.87337 9.10209 3.475C9.00428 2.02059 9.96185 1 11.2539 1C12.546 1 13.5036 2.04706 13.4058 3.475Z" stroke="black" stroke-width="1.2" stroke-linecap="round" stroke-linejoin="round"/>
<path d="M11.2541 8.15002C9.05586 8.15002 6.94193 9.26274 6.41236 11.4297C6.34219 11.7164 6.51861 12 6.80768 12H15.7009C15.9899 12 16.1653 11.7164 16.0962 11.4297C15.5666 9.22802 13.4527 8.15002 11.2541 8.15002Z" stroke="black" stroke-width="1.2" stroke-miterlimit="10"/>
<path d="M6.93058 4.02301C6.84744 5.10101 5.98126 5.95 5.04758 5.95C4.1139 5.95 3.2463 5.10134 3.16458 4.02301C3.07967 2.90154 3.92275 2.10001 5.04758 2.10001C6.1724 2.10001 7.01549 2.92211 6.93058 4.02301Z" stroke="black" stroke-width="1.2" stroke-linecap="round" stroke-linejoin="round"/>
<path d="M6.93651 8.50204C6.32071 8.24779 5.64249 8.15002 4.92367 8.15002C3.14964 8.15002 1.44043 8.94474 1.01227 10.4927C0.955983 10.6974 1.09859 10.9 1.33194 10.9H5.16248" stroke="black" stroke-width="1.2" stroke-miterlimit="10" stroke-linecap="round"/>
</svg>
