<svg xmlns="http://www.w3.org/2000/svg" width="90" height="90" viewBox="0 0 90 90" fill="none">
  <g clip-path="url(#clip0_1392_240)">
    <path d="M78.7591 67.4597C81.801 67.4732 84.8433 67.5178 87.8847 67.4815C88.825 67.4703 89.5855 67.6309 90.1267 68.4344C90.1758 68.6803 90.1758 68.9817 90.1267 69.3029C89.587 70.1773 88.8357 70.3943 87.8917 70.3278C86.9631 70.2624 86.0257 70.3217 85.0332 70.2828C82.6604 70.2464 80.3466 70.2535 77.9547 70.2379C77.7308 70.2051 77.5849 70.1865 77.439 70.1865C57.7017 70.185 37.9645 70.1811 18.2273 70.1908C16.3596 70.1917 14.5918 70.5956 12.9797 71.6235C9.74198 73.6879 7.76865 78.5033 9.82289 82.4549C11.524 85.7271 14.1334 87.533 17.8668 87.5347C37.7212 87.5434 57.5755 87.5389 77.4299 87.5377C77.6344 87.5377 77.8389 87.5199 78.1256 87.5205C80.4987 87.5256 82.7897 87.5206 85.1623 87.5259C85.8003 87.5373 86.3569 87.5288 86.913 87.5411C88.0647 87.5667 89.3317 87.2113 90.1176 88.4839C90.137 88.4619 90.1564 88.44 90.1758 88.418C90.1758 88.6622 90.1758 88.9063 90.1262 89.1681C89.8753 89.5158 89.674 89.8458 89.4727 90.1759C64.6252 90.1759 39.7778 90.1759 14.9048 90.1226C14.7382 89.9866 14.6069 89.8712 14.4548 89.8258C11.9131 89.0686 9.85445 87.5892 8.37409 85.4262C5.11632 80.6661 5.70617 74.5982 9.87308 70.5614C11.345 69.1355 13.1642 68.2806 15.1994 67.6942C17.1545 67.6695 19.0278 67.6438 20.9012 67.6435C39.2855 67.6405 57.6698 67.6443 76.0541 67.6339C76.9558 67.6334 77.8574 67.5204 78.7591 67.4597Z" fill="#6E9EFF"/>
    <path d="M78.7875 67.4055C77.8574 67.5203 76.9558 67.6334 76.0541 67.6339C57.6698 67.6442 39.2855 67.6404 20.9012 67.6434C19.0278 67.6438 17.1545 67.6694 15.1176 67.6819C12.7326 67.679 10.5102 67.636 8.2898 67.685C4.49705 67.7688 1.01289 64.8013 0.511883 61.2946C0.495708 61.1814 0.292044 61.095 0.175782 60.9961C0.175781 60.2887 0.175781 59.5812 0.175781 58.7924C0.292039 58.6127 0.4902 58.5302 0.51265 58.4138C1.17656 54.9723 3.28909 52.8664 6.62985 52.1051C7.88069 51.8201 9.24613 52.0379 10.7226 52.0256C28.8701 52.0266 46.8545 52.0287 64.8388 52.0296C64.9849 52.0296 65.131 52.0148 65.3543 52.0136C69.8013 52.0301 74.1712 52.0401 78.5689 52.0888C78.6492 52.1633 78.7017 52.199 78.7542 52.2347C79.2085 52.7739 79.4107 53.3663 79.0667 54.0342C78.7536 54.6423 78.2017 54.6958 77.5824 54.6783C76.3866 54.6444 75.1891 54.6708 73.8287 54.6725C71.3749 54.6813 69.0847 54.6896 66.713 54.6864C47.2179 54.6727 27.8043 54.6693 8.39079 54.6761C7.90188 54.6763 7.40203 54.743 6.9259 54.8566C3.96954 55.5624 2.06088 59.0432 3.50911 61.8804C4.60961 64.0364 6.33248 64.9478 8.73733 64.9442C27.7702 64.9157 46.8032 64.9286 65.8361 64.9265C66.157 64.9264 66.478 64.8982 66.8799 64.8993C69.2545 64.8939 71.5481 64.8724 73.8417 64.851C75.0014 64.8551 76.161 64.8614 77.3207 64.8628C79.1663 64.8651 79.6493 65.6673 78.7875 67.4055Z" fill="#74D84B"/>
    <path d="M23.5546 2.84113C22.2163 2.83158 20.8778 2.83113 19.5397 2.8084C18.9297 2.79804 18.2472 2.97514 17.9026 2.19408C17.5849 1.47407 17.7408 0.857506 18.1622 0.228809C38.2654 0.175782 58.4253 0.175782 78.6676 0.175781C78.8632 0.293498 78.9545 0.466193 79.0926 0.520853C82.1684 1.73818 84.1398 3.97889 84.666 7.20601C85.0794 9.74149 84.5728 12.1771 82.7458 14.2223C80.884 16.3063 78.6128 17.2894 75.8411 17.2325C74.2896 17.2006 72.7369 17.2288 71.0218 17.2242C68.4094 17.2238 65.96 17.2289 63.4246 17.2238C60.6796 17.2118 58.0205 17.2051 55.3615 17.2093C50.9206 17.2163 46.4796 17.2303 41.9551 17.2316C34.5261 17.2192 27.1808 17.2203 19.8354 17.2056C19.3167 17.2045 18.7982 17.0865 18.2797 17.0229C17.689 16.5403 17.5625 15.844 17.8106 15.2348C18.0727 14.5915 18.7242 14.3758 19.4634 14.4013C20.7667 14.4461 22.0727 14.4127 23.5184 14.4502C23.9211 14.5042 24.1831 14.5341 24.4452 14.5341C40.5831 14.5363 56.721 14.5363 72.8589 14.533C73.1786 14.5329 73.4984 14.4904 73.8974 14.493C74.6789 14.524 75.3826 14.561 76.0832 14.5292C77.6636 14.4572 79.0662 13.9856 80.2533 12.8499C81.5844 11.5764 82.0006 10.0568 81.9296 8.27528C81.8441 6.12833 80.8405 4.57306 79.0201 3.568C77.2923 2.61415 75.3677 2.78147 73.3984 2.82986C56.8749 2.81635 40.4333 2.81454 23.9917 2.81404C23.846 2.81404 23.7003 2.83171 23.5546 2.84113Z" fill="#FC435F"/>
    <path d="M63.5106 17.2341C65.96 17.2289 68.4094 17.2238 70.9402 17.2336C71.0201 23.4551 71.0185 29.6615 70.9384 35.956C69.1059 36.0512 67.352 36.0585 65.5411 36.0545C65.4084 36.0469 65.3325 36.0505 65.1763 36.0462C64.5707 36.0276 64.0454 36.0169 63.5191 35.9256C63.5156 29.6414 63.5131 23.4378 63.5106 17.2341Z" fill="#FAC800"/>
    <path d="M81.8851 36.0654C84.1938 36.0654 86.5025 36.0654 88.8636 36.0654C88.8921 36.2721 88.9418 36.465 88.942 36.6579C88.946 41.6925 88.9452 46.727 88.943 51.7615C88.943 51.8773 88.9174 51.993 88.7784 52.102C86.4063 52.0664 84.1594 52.0375 81.913 51.9284C81.8988 49.6486 81.8842 47.449 81.9146 45.2116C82.7435 44.4153 82.7288 43.6355 81.9158 42.7729C81.9101 40.5221 81.9046 38.3514 81.8955 36.1519C81.892 36.1231 81.8851 36.0654 81.8851 36.0654Z" fill="#AD5F2C"/>
    <path d="M73.8013 58.7092C73.81 59.5356 73.8187 60.3621 73.7327 61.2693C71.3548 61.3562 69.0716 61.3623 66.7069 61.3635C65.9518 61.357 65.2782 61.3541 64.6046 61.3539C61.5292 61.3532 58.4538 61.3601 55.3785 61.349C54.3725 61.3454 53.931 60.8963 53.9638 59.9816C53.9928 59.1736 54.5763 58.7214 55.6369 58.7192C59.3566 58.7113 63.0763 58.7119 66.8785 58.7109C69.241 58.7114 71.5212 58.7103 73.8013 58.7092Z" fill="#C5D7E6"/>
    <path d="M73.8137 58.6276C71.5212 58.7102 69.241 58.7113 66.8786 58.6286C66.7957 57.2625 66.7951 55.9802 66.7945 54.6979C69.0847 54.6895 71.3749 54.6812 73.747 54.6828C73.8279 55.9773 73.827 57.2617 73.8137 58.6276Z" fill="#E4ECF2"/>
    <path d="M66.7884 61.3682C69.0716 61.3622 71.3548 61.3562 73.7186 61.3503C73.8093 62.4633 73.8194 63.5761 73.8356 64.7699C71.5481 64.8724 69.2545 64.8938 66.8793 64.8153C66.7945 63.5996 66.7914 62.4839 66.7884 61.3682Z" fill="#E3ECF2"/>
    <path d="M82.1577 36.0549C82.2366 36.0653 82.2436 36.123 82.1664 36.1573C76.8753 36.1934 71.6614 36.1973 66.4474 36.1915C66.1642 36.1912 65.8811 36.1094 65.598 36.0656C67.3519 36.0584 69.1059 36.0511 70.9428 36.038C74.71 36.0362 78.3944 36.0404 82.1577 36.0549Z" fill="#AA7766"/>
    <path d="M82.2641 52.0085C84.511 52.0374 86.7579 52.0663 89.0648 52.1368C85.7228 52.1911 82.3207 52.2038 78.8364 52.2255C78.7017 52.1989 78.6492 52.1632 78.6541 52.0804C79.8957 52.025 81.0799 52.0168 82.2641 52.0085Z" fill="#808064"/>
    <path d="M63.5201 36.0061C64.0454 36.0168 64.5707 36.0275 65.1833 36.1264C65.2728 41.4787 65.2749 46.7428 65.2771 52.0069C65.131 52.0148 64.9849 52.0296 64.8388 52.0296C46.8545 52.0286 28.8701 52.0266 10.8042 52.0135C10.7214 46.793 10.7203 41.5836 10.7518 36.2297C11.1044 36.0686 11.4244 36.0376 11.7445 36.0375C18.9147 36.0348 26.0848 36.038 33.255 36.0341C36.181 36.0325 39.1071 36.0166 42.1129 36.0179C49.3018 36.021 56.411 36.0135 63.5201 36.0061ZM23.6426 46.7158C26.7724 46.7158 29.9022 46.716 33.032 46.7157C34.5531 46.7156 36.075 46.7481 37.5949 46.7056C39.5268 46.6516 40.6236 45.2569 40.272 43.3763C40.0501 42.1891 39.012 41.4376 37.529 41.4359C31.7081 41.4288 25.8872 41.4322 20.0663 41.4345C19.8037 41.4346 19.5372 41.4377 19.2791 41.4796C17.5515 41.7603 16.6026 43.8052 17.4865 45.2961C18.0679 46.2767 18.9514 46.6904 20.0446 46.7095C21.185 46.7295 22.326 46.7151 23.6426 46.7158Z" fill="#6E9EFF"/>
    <path d="M42.0331 36.0074C39.1071 36.0168 36.181 36.0327 33.255 36.0343C26.0848 36.0382 18.9147 36.0349 11.7445 36.0377C11.4244 36.0378 11.1044 36.0688 10.7392 36.1484C8.1543 36.2114 5.61466 36.2114 3.03189 36.2114C3.03189 29.8129 3.03189 23.4781 3.03189 17.0478C8.06938 17.0478 13.0926 17.0478 18.1978 17.0354C18.7982 17.0866 19.3167 17.2046 19.8354 17.2057C27.1807 17.2204 34.5261 17.2193 41.9531 17.3131C42.0342 23.6053 42.0337 29.8064 42.0331 36.0074Z" fill="#FFDA45"/>
    <path d="M73.8181 14.4676C73.4984 14.4903 73.1786 14.5329 72.8589 14.5329C56.721 14.5363 40.5831 14.5362 24.4452 14.5341C24.1831 14.534 23.9211 14.5042 23.5997 14.4446C23.5457 12.9959 23.5512 11.5908 23.6502 10.1023C33.49 10.018 43.2364 10.0173 52.9827 10.0154C53.2752 10.0153 53.6404 10.112 53.8448 9.97469C54.2728 9.68723 54.8277 9.32464 54.9309 8.89661C55.0229 8.51451 54.6622 7.92353 54.3381 7.57764C54.1376 7.3637 53.6321 7.38669 53.2635 7.38633C43.3708 7.37672 33.478 7.37788 23.5853 7.37722C23.5751 5.91861 23.5649 4.46 23.5546 2.92122C23.7003 2.83163 23.846 2.81396 23.9917 2.81396C40.4333 2.81446 56.8749 2.81627 73.4287 2.87771C73.7425 3.14787 73.9277 3.37739 74.1479 3.5659C76.9854 5.99412 77.0888 10.9993 74.2499 13.743C74.0548 13.9315 73.9597 14.2236 73.8181 14.4676Z" fill="#F0F5FA"/>
    <path d="M23.5715 7.45864C33.478 7.37799 43.3708 7.37682 53.2635 7.38644C53.6321 7.3868 54.1376 7.36381 54.3381 7.57775C54.6622 7.92364 55.0229 8.51462 54.9309 8.89672C54.8277 9.32475 54.2728 9.68734 53.8448 9.9748C53.6404 10.1121 53.2752 10.0154 52.9828 10.0155C43.2364 10.0174 33.49 10.0181 23.663 10.0211C23.5742 9.19547 23.5659 8.36771 23.5715 7.45864Z" fill="#C6D7E6"/>
    <path d="M78.0434 87.5103C77.8389 87.5198 77.6344 87.5376 77.4299 87.5376C57.5755 87.5388 37.7212 87.5433 17.8668 87.5345C14.1334 87.5329 11.5239 85.7269 9.82288 82.4548C7.76864 78.5032 9.74196 73.6878 12.9797 71.6234C14.5918 70.5955 16.3595 70.1916 18.2273 70.1907C37.9645 70.181 57.7017 70.1849 77.4389 70.1864C77.5849 70.1864 77.7308 70.205 77.9593 70.3093C78.0432 71.6616 78.0445 72.9195 77.9636 74.1798C62.474 74.1829 47.0666 74.1837 31.6593 74.1846C31.3664 74.1846 31.0727 74.1726 30.7807 74.189C29.9264 74.237 29.3355 74.8111 29.364 75.5515C29.3927 76.2936 29.9904 76.8186 30.8499 76.8195C35.7416 76.8244 40.6333 76.8209 45.525 76.8226C56.3628 76.8263 67.2006 76.8315 78.0409 76.9162C78.0433 78.2815 78.0432 79.5666 77.961 80.8542C67.2849 80.8579 56.6909 80.8591 46.097 80.8608C45.8044 80.8608 45.5098 80.8441 45.2195 80.8711C44.2996 80.9566 43.7319 81.5412 43.7897 82.321C43.8396 82.9952 44.4424 83.4687 45.2945 83.4951C45.5869 83.5042 45.8798 83.4973 46.1724 83.4974C56.7956 83.5007 67.4188 83.5039 78.0432 83.5888C78.0441 84.9504 78.0438 86.2304 78.0434 87.5103Z" fill="#F0F5FA"/>
    <path d="M78.1256 87.5206C78.0438 86.2306 78.0441 84.9506 78.1261 83.5854C80.4881 83.4999 82.7685 83.4997 85.0489 83.4995C85.0588 84.7847 85.0686 86.07 85.0795 87.4354C82.7896 87.5206 80.4987 87.5256 78.1256 87.5206Z" fill="#E4ECF2"/>
    <path d="M78.0459 74.1776C78.0445 72.9197 78.0432 71.6617 78.0374 70.3322C80.3466 70.2536 82.6604 70.2465 85.0332 70.2828C85.0868 71.5557 85.0814 72.7851 84.9826 74.0974C82.6081 74.1794 80.327 74.1785 78.0459 74.1776Z" fill="#E4ECF2"/>
    <path d="M66.7069 61.3634C66.7914 62.4839 66.7945 63.5996 66.7982 64.7992C66.478 64.8981 66.157 64.9263 65.8361 64.9264C46.8032 64.9285 27.7702 64.9156 8.73733 64.9441C6.33248 64.9477 4.6096 64.0362 3.5091 61.8803C2.06087 59.0431 3.96953 55.5623 6.92589 54.8565C7.40202 54.7429 7.90187 54.6762 8.39078 54.676C27.8043 54.6692 47.2179 54.6726 66.713 54.6863C66.7951 55.9802 66.7957 57.2625 66.7962 58.627C63.0763 58.7118 59.3566 58.7112 55.6369 58.719C54.5763 58.7213 53.9928 59.1735 53.9638 59.9814C53.931 60.8961 54.3725 61.3453 55.3785 61.3489C58.4538 61.36 61.5292 61.3531 64.6046 61.3538C65.2782 61.354 65.9518 61.3569 66.7069 61.3634Z" fill="#F0F5FA"/>
    <path d="M65.1785 52.0137C65.0991 46.743 65.097 41.4788 65.0879 36.1345C65.1567 36.0506 65.2325 36.0471 65.3653 36.0547C65.7053 36.1097 65.9884 36.1914 66.2716 36.1917C71.4856 36.1976 76.6995 36.1936 81.9942 36.1863C82.0804 38.3516 82.0859 40.5223 82.0201 42.7595C81.8656 42.7992 81.7825 42.7493 81.6993 42.749C78.749 42.7381 75.7985 42.7142 72.8484 42.7363C72.0156 42.7425 71.5124 43.3553 71.548 44.1457C71.5797 44.849 72.1363 45.3492 72.9419 45.3535C74.8993 45.364 76.8569 45.3699 78.8142 45.3532C79.8915 45.3441 80.9684 45.2857 82.0454 45.2495C82.06 47.4491 82.0746 49.6488 82.0887 51.9286C80.9041 52.017 79.7199 52.0252 78.4505 52.0418C73.9954 52.0402 69.6255 52.0303 65.1785 52.0137Z" fill="#BF6930"/>
    <path d="M42.1129 36.0179C42.0337 29.8062 42.0342 23.6052 42.0367 17.3227C46.4796 17.2303 50.9205 17.2163 55.3615 17.2093C58.0205 17.2051 60.6796 17.2118 63.4246 17.2238C63.5131 23.4377 63.5156 29.6414 63.5191 35.9256C56.411 36.0136 49.3018 36.021 42.1129 36.0179ZM46.5815 27.3126C46.582 27.6343 46.5597 27.9579 46.5875 28.2773C46.6534 29.0352 47.3355 29.5998 48.0879 29.543C48.8073 29.4887 49.2205 28.9889 49.2215 28.1643C49.2228 27.1407 49.2267 26.117 49.2173 25.0935C49.2087 24.1685 48.8427 23.7619 48.0167 23.7303C47.2193 23.6999 46.6263 24.2197 46.589 25.0375C46.5571 25.738 46.5818 26.441 46.5815 27.3126ZM58.8872 26.8025C58.8873 26.2172 58.8975 25.6317 58.8852 25.0467C58.8668 24.1711 58.4476 23.7458 57.611 23.7301C56.8296 23.7155 56.2822 24.1954 56.2586 25.003C56.2261 26.1141 56.1792 27.2338 56.2871 28.3353C56.327 28.7421 56.7148 29.2973 57.0785 29.4388C57.4436 29.5808 58.0532 29.4086 58.4201 29.1676C59.2377 28.6306 58.7756 27.7214 58.8872 26.8025ZM51.8717 29.2756C53.3269 29.8771 53.9646 29.4601 53.9653 27.9065C53.9656 26.9703 53.9243 26.0316 53.9799 25.0987C54.0198 24.4296 53.8822 23.9031 53.1859 23.7523C52.4876 23.601 51.7677 23.6958 51.5696 24.5181C51.1942 26.0769 51.0379 27.6524 51.8717 29.2756Z" fill="#FFF5F5"/>
    <path d="M73.8974 14.493C73.9597 14.2238 74.0548 13.9317 74.2499 13.7431C77.0887 10.9995 76.9854 5.99428 74.1479 3.56605C73.9277 3.37754 73.7425 3.14803 73.5106 2.88964C75.3677 2.78154 77.2923 2.61422 79.0201 3.56808C80.8405 4.57314 81.8441 6.12841 81.9296 8.27535C82.0006 10.0569 81.5844 11.5765 80.2533 12.85C79.0662 13.9857 77.6636 14.4573 76.0832 14.5292C75.3826 14.5611 74.6789 14.5241 73.8974 14.493Z" fill="#E4ECF2"/>
    <path d="M77.9636 74.1799C80.327 74.1785 82.6081 74.1793 84.9698 74.1787C85.0587 75.0041 85.067 75.831 84.981 76.7389C82.6039 76.8253 80.3212 76.8307 78.0384 76.8361C67.2006 76.8316 56.3628 76.8265 45.525 76.8227C40.6333 76.821 35.7416 76.8245 30.85 76.8196C29.9904 76.8187 29.3927 76.2938 29.3641 75.5516C29.3355 74.8113 29.9264 74.2371 30.7807 74.1891C31.0727 74.1727 31.3664 74.1847 31.6593 74.1847C47.0666 74.1838 62.474 74.183 77.9636 74.1799Z" fill="#C5D7E6"/>
    <path d="M85.0622 83.4181C82.7686 83.4996 80.4881 83.4998 78.1249 83.5036C67.4188 83.504 56.7957 83.5007 46.1725 83.4974C45.8798 83.4973 45.5869 83.5042 45.2945 83.4951C44.4425 83.4688 43.8396 82.9953 43.7897 82.3211C43.7319 81.5412 44.2996 80.9566 45.2195 80.8711C45.5098 80.8441 45.8044 80.8608 46.097 80.8608C56.691 80.8592 67.2849 80.8579 78.0438 80.8569C80.4889 80.857 82.7691 80.8568 85.0494 80.8567C85.058 81.6834 85.0667 82.5102 85.0622 83.4181Z" fill="#C5D7E6"/>
    <path d="M85.0627 80.7755C82.7691 80.8569 80.4889 80.8571 78.1259 80.8546C78.0432 79.5668 78.0433 78.2816 78.0409 76.9163C80.3211 76.8307 82.6039 76.8253 84.9671 76.8201C85.057 78.1116 85.0665 79.4029 85.0627 80.7755Z" fill="#E3ECF2"/>
    <path d="M82.2662 45.2115C81.1442 45.2855 80.0673 45.3439 78.99 45.353C77.0327 45.3697 75.0751 45.3638 73.1177 45.3533C72.3121 45.349 71.7555 44.8488 71.7238 44.1455C71.6882 43.3551 72.1913 42.7423 73.0242 42.7361C75.9743 42.714 78.9248 42.7379 81.8751 42.7488C81.9583 42.7491 82.0413 42.799 82.196 42.8393C83.0804 43.6355 83.095 44.4153 82.2662 45.2115Z" fill="#FFF4F4"/>
    <path d="M23.5547 46.7157C22.326 46.7151 21.185 46.7295 20.0446 46.7095C18.9515 46.6904 18.0679 46.2767 17.4865 45.2961C16.6026 43.8052 17.5515 41.7603 19.2791 41.4797C19.5373 41.4377 19.8037 41.4346 20.0664 41.4345C25.8872 41.4322 31.7081 41.4288 37.529 41.4359C39.0121 41.4376 40.0501 42.1891 40.2721 43.3763C40.6236 45.2569 39.5268 46.6516 37.5949 46.7056C36.075 46.7481 34.5531 46.7156 33.032 46.7157C29.9022 46.716 26.7724 46.7158 23.5547 46.7157Z" fill="#FFF5F5"/>
    <path d="M46.5815 27.2277C46.5818 26.4409 46.5571 25.7379 46.589 25.0374C46.6263 24.2197 47.2193 23.6998 48.0167 23.7303C48.8427 23.7618 49.2087 24.1684 49.2173 25.0935C49.2267 26.117 49.2228 27.1406 49.2215 28.1642C49.2205 28.9888 48.8073 29.4886 48.0879 29.5429C47.3355 29.5998 46.6534 29.0352 46.5875 28.2772C46.5597 27.9579 46.582 27.6342 46.5815 27.2277Z" fill="#687B90"/>
    <path d="M58.8872 26.8884C58.7756 27.7214 59.2377 28.6305 58.4201 29.1676C58.0532 29.4085 57.4436 29.5807 57.0785 29.4387C56.7148 29.2973 56.327 28.7421 56.2871 28.3352C56.1792 27.2338 56.2261 26.1141 56.2586 25.003C56.2822 24.1953 56.8296 23.7154 57.611 23.7301C58.4476 23.7457 58.8668 24.171 58.8852 25.0466C58.8975 25.6316 58.8873 26.2171 58.8872 26.8884Z" fill="#687B90"/>
    <path d="M51.8223 29.2253C51.0379 27.6525 51.1942 26.077 51.5696 24.5182C51.7677 23.6959 52.4876 23.6012 53.186 23.7524C53.8823 23.9033 54.0198 24.4297 53.9799 25.0989C53.9244 26.0317 53.9657 26.9704 53.9653 27.9066C53.9646 29.4603 53.3269 29.8773 51.8223 29.2253Z" fill="#687B90"/>
  </g>
  <defs>
    <clipPath id="clip0_1392_240">
      <rect width="90" height="90" fill="white"/>
    </clipPath>
  </defs>
</svg>