<svg xmlns="http://www.w3.org/2000/svg" width="18" height="17" viewBox="0 0 18 17" fill="none">
  <path d="M3.64106 2.05939C7.04797 -0.456122 11.9141 -0.250513 15.0641 2.54612C18.2683 5.39279 18.7061 10.0408 16.0707 13.3706C13.5883 16.5065 9.11099 17.54 5.3834 15.9225L5.17981 15.8306L1.35785 16.6776L1.32289 16.683L1.29231 16.6894H1.27658L1.25736 16.694H1.22416L1.19532 16.6976L1.17697 16.6967L1.15687 16.6976L1.12804 16.6949H1.09746L1.07823 16.6912L1.05901 16.6894L1.02843 16.683L0.998718 16.6785L0.984738 16.6749L0.963767 16.6703L0.920951 16.6557L0.89998 16.6512L0.890368 16.6466L0.871145 16.6403L0.831824 16.6221L0.805611 16.6112L0.795999 16.6057L0.783766 16.6003L0.756678 16.5839L0.717358 16.562L0.703377 16.552L0.671047 16.5284L0.636095 16.5038L0.634348 16.5002L0.622988 16.492L0.585415 16.4556L0.563571 16.4374L0.558328 16.431L0.509396 16.3746L0.498036 16.3619L0.488425 16.3492L0.454347 16.2982L0.442114 16.2809L0.437745 16.2718L0.401045 16.2054L0.394929 16.1945L0.391434 16.1872L0.385317 16.1763L0.373084 16.1417L0.355608 16.1035L0.352113 16.089L0.348618 16.0799L0.333764 16.0244L0.327647 16.008L0.325899 15.9943L0.321531 15.9771L0.317162 15.947L0.310171 15.9088L0.308424 15.8806L0.305802 15.8715V15.857L0.302307 15.8078L0.303181 15.7751L0.304055 15.7542L0.305802 15.7059L0.309297 15.6832V15.6659L0.316288 15.6341L0.320657 15.6031L0.325026 15.5849L0.328521 15.5668L0.344249 15.5122L0.346871 15.5003L1.35173 12.3616L1.33251 12.328C-0.598571 8.91906 0.276093 4.69409 3.44096 2.21223L3.64106 2.05939Z" fill="#070104"/>
</svg>