<svg width="40" height="13" viewBox="0 0 40 13" fill="none" xmlns="http://www.w3.org/2000/svg">
<path d="M3.3048 10.7443C2.96261 10.9061 2.69779 11.3787 2.37419 11.1249C2.07833 10.8929 2.39799 10.4891 2.46207 10.1635C2.5111 9.91442 2.54784 9.65795 2.63764 9.42294C2.79293 9.01647 2.62684 8.80305 2.29379 8.57578C-0.858459 6.42466 -0.744281 2.87711 2.52864 0.930558C5.00388 -0.541574 8.53344 -0.237117 10.6589 1.63187C12.6978 3.42473 12.6907 6.32755 10.6156 8.06592C9.12239 9.31679 7.37608 9.79799 5.44541 9.60953C5.17411 9.58305 4.94994 9.62586 4.72802 9.78165C4.27324 10.1009 3.80794 10.4052 3.3048 10.7443Z" fill="black"/>
<path d="M18.8728 8.99581C18.3521 9.00445 17.8919 9.00445 17.2905 9.00445C17.2905 9.68273 17.2635 10.3885 17.2986 11.0912C17.3292 11.704 17.138 11.9676 16.475 11.949C14.67 11.8984 14.9251 12.1222 14.9136 10.3883C14.8941 7.4697 14.8966 4.55083 14.9196 1.63233C14.9227 1.24131 14.6478 0.62308 15.2344 0.502399C15.7944 0.387195 16.5072 0.178434 16.8742 0.989538C17.6467 0.5094 18.4137 0.123319 19.3084 0.191642C20.8065 0.306036 21.7727 1.16328 22.1458 2.7123C22.4157 3.83313 22.4304 4.97155 22.1283 6.08043C21.6854 7.70648 20.6037 8.68367 18.8728 8.99581ZM17.2923 2.8547C17.2936 4.10644 17.2958 5.35818 17.2955 6.60992C17.2955 6.90514 17.32 7.21946 17.6989 7.21166C18.3549 7.19816 18.9969 7.10432 19.4455 6.52851C20.0734 5.72249 20.1549 3.593 19.6003 2.73761C19.2381 2.17889 18.696 2.14998 18.1254 2.19553C17.7597 2.22472 17.3506 2.21099 17.2923 2.8547Z" fill="black"/>
<path d="M33.741 0.458327C34.3147 2.38344 34.8652 4.25853 35.4157 6.13363C35.4564 6.13273 35.4971 6.13182 35.5377 6.13092C35.9672 4.63176 36.3776 3.1268 36.831 1.63491C37.396 -0.224263 37.0277 0.101969 38.6992 0.539053C39.5659 0.765688 39.5398 0.775506 39.214 1.6641C38.4339 3.79123 37.6894 5.9314 36.9045 8.05671C36.3957 9.43447 35.7363 10.7352 34.623 11.7372C34.3873 11.9494 34.1144 12.3449 33.7401 12.1073C33.2972 11.8261 32.8852 11.4656 32.6097 11.0026C32.5172 10.8472 32.6955 10.703 32.8203 10.6051C34.1658 9.5501 34.3354 8.36397 33.5865 6.79212C32.7743 5.08738 32.2493 3.24555 31.6041 1.46168C31.5353 1.27122 31.5 1.0686 31.4448 0.855011C32.0762 0.512012 32.7506 0.433984 33.3832 0.231535C33.5342 0.183236 33.6494 0.267241 33.741 0.458327Z" fill="black"/>
<path d="M30.3771 7.30345C30.3774 7.4647 30.3918 7.56006 30.3752 7.64965C30.3082 8.01014 30.5711 8.47729 30.0935 8.70573C29.6211 8.93172 28.7698 8.69311 28.3914 8.24206C27.8675 8.49542 27.3394 8.77506 26.7554 8.92463C25.3985 9.27214 24.0832 8.61955 23.6691 7.37076C23.1773 5.88741 23.7555 4.52229 25.0945 3.96179C25.8899 3.6288 26.7203 3.64968 27.5552 3.65021C28.2249 3.65064 28.3714 3.37314 28.0231 2.79572C27.7551 2.35149 27.3289 2.2076 26.8383 2.20672C26.0668 2.20532 25.3443 2.45493 24.6298 2.69575C24.2873 2.32166 24.2354 1.86775 24.0681 1.46896C23.9571 1.20436 24.1063 1.03077 24.3431 0.917124C25.6268 0.301271 26.9454 -0.0535035 28.3634 0.405531C29.6818 0.832317 30.3506 1.84678 30.3724 3.48034C30.3891 4.73166 30.3765 5.98338 30.3771 7.30345ZM28.1558 5.32077C27.4334 5.02986 26.7208 5.1289 26.0692 5.48409C25.6364 5.72008 25.5791 6.193 25.7018 6.64505C25.8218 7.08694 26.1942 7.13245 26.5846 7.12802C27.8327 7.11385 28.2489 6.67457 28.1558 5.32077Z" fill="black"/>
</svg>
