<svg width="14" height="14" viewBox="0 0 14 14" fill="none" xmlns="http://www.w3.org/2000/svg">
<path d="M12.6263 1.37441L1.37193 5.74727L4.71001 7.13392C5.68573 7.53865 6.46093 8.31409 6.86534 9.28993L8.252 12.6273L12.6263 1.37441ZM13.903 1.84584L9.52875 13.1001C9.25225 13.8121 8.45662 14.1764 7.75153 13.9158C7.57973 13.8523 7.42289 13.7541 7.29085 13.6271C7.15881 13.5002 7.05442 13.3474 6.98424 13.1782L5.59689 9.83947C5.327 9.18923 4.81014 8.67263 4.15977 8.40305L0.822381 7.0164C0.12836 6.72815 -0.188236 5.92699 0.115226 5.22606C0.189778 5.05473 0.297478 4.89983 0.432127 4.77028C0.566777 4.64074 0.725717 4.5391 0.899802 4.47122L12.1541 0.0969758C12.3986 -0.00128107 12.6666 -0.0255313 12.9248 0.0272386C13.1829 0.0800086 13.4199 0.207472 13.6062 0.393791C13.7925 0.580109 13.92 0.817069 13.9728 1.07523C14.0255 1.33338 14.0013 1.60135 13.903 1.84584Z" fill="black"/>
</svg>
