<svg width="32" height="44" viewBox="0 0 32 44" fill="none" xmlns="http://www.w3.org/2000/svg">
<ellipse cx="16.5927" cy="40.2963" rx="8.2963" ry="3.55556" fill="#6D6D6D" fill-opacity="0.6"/>
<g clip-path="url(#clip0_0_1)">
<path d="M14.8089 39.2592C12.7997 36.2882 11.0864 33.7987 9.62676 31.6777M14.8089 39.2592L14.4776 39.4833M14.8089 39.2592C14.8088 39.259 14.8087 39.2589 14.8086 39.2587L14.4776 39.4833M14.8089 39.2592C15.386 40.1087 16.6145 40.1087 17.1915 39.2589M9.62676 31.6777L14.4776 39.4833M9.62676 31.6777C7.00451 27.8674 5.201 25.2468 3.97179 23.162C3.02003 21.5478 2.42722 20.2779 2.06978 19.0468C1.71318 17.8186 1.5853 16.6098 1.5853 15.1111C1.5853 6.97886 8.04644 0.4 16.0001 0.4C23.9538 0.4 30.4149 6.97886 30.4149 15.1111C30.4149 16.6098 30.2871 17.8186 29.9305 19.0468C29.573 20.2779 28.9802 21.5478 28.0284 23.162C26.7992 25.2468 24.9957 27.8674 22.3735 31.6777C20.9139 33.7986 19.2006 36.2881 17.1915 39.2589M9.62676 31.6777L17.5226 39.4833M14.4776 39.4833C15.2132 40.5673 16.7869 40.5674 17.5226 39.4833M17.1915 39.2589C17.1914 39.259 17.1914 39.2591 17.1913 39.2592L17.5226 39.4833M17.1915 39.2589C17.1915 39.2588 17.1916 39.2588 17.1917 39.2587L17.5226 39.4833" fill="white" stroke="#5DC26D" stroke-width="0.8"/>
</g>
<path fill-rule="evenodd" clip-rule="evenodd" d="M15.9999 30.3704L16.9439 31.3117C16.82 31.4361 16.6728 31.5347 16.5107 31.6021C16.3486 31.6694 16.1748 31.7041 15.9993 31.7041C15.8237 31.7041 15.6499 31.6694 15.4878 31.6021C15.3257 31.5347 15.1785 31.4361 15.0546 31.3117L15.0466 31.3024L15.0239 31.2797L14.9413 31.1957C14.4712 30.7115 14.009 30.2199 13.5546 29.721C12.4138 28.471 11.3214 27.1776 10.2799 25.8437C9.09059 24.3104 7.87459 22.577 6.95059 20.865C6.04659 19.1864 5.33325 17.3677 5.33325 15.7037C5.33325 9.65168 10.1226 5.03702 15.9999 5.03702C21.8773 5.03702 26.6666 9.65168 26.6666 15.7037C26.6666 17.3677 25.9533 19.1864 25.0493 20.8637C24.1253 22.5784 22.9106 24.3104 21.7199 25.8437C20.2631 27.7099 18.7071 29.4964 17.0586 31.1957L16.9759 31.2797L16.9533 31.3024L16.9453 31.3104L15.9999 30.3704ZM15.9999 19.7037C17.0608 19.7037 18.0782 19.2823 18.8283 18.5321C19.5785 17.782 19.9999 16.7646 19.9999 15.7037C19.9999 14.6428 19.5785 13.6254 18.8283 12.8753C18.0782 12.1251 17.0608 11.7037 15.9999 11.7037C14.9391 11.7037 13.9216 12.1251 13.1715 12.8753C12.4213 13.6254 11.9999 14.6428 11.9999 15.7037C11.9999 16.7646 12.4213 17.782 13.1715 18.5321C13.9216 19.2823 14.9391 19.7037 15.9999 19.7037Z" fill="#045905"/>
<defs>
<clipPath id="clip0_0_1">
<rect width="29.6296" height="40.2963" fill="white" transform="translate(1.1853)"/>
</clipPath>
</defs>
</svg>
