<svg width="3" height="18" viewBox="0 0 3 18" fill="none" xmlns="http://www.w3.org/2000/svg">
<path id="Vector" d="M0 1.5C0 1.89782 0.158035 2.27936 0.43934 2.56066C0.720644 2.84197 1.10218 3 1.5 3C1.89782 3 2.27936 2.84197 2.56066 2.56066C2.84196 2.27936 3 1.89782 3 1.5C3 1.10218 2.84196 0.720644 2.56066 0.43934C2.27936 0.158035 1.89782 0 1.5 0C1.10218 0 0.720644 0.158035 0.43934 0.43934C0.158035 0.720644 0 1.10218 0 1.5ZM0 9C0 9.39783 0.158035 9.77936 0.43934 10.0607C0.720644 10.342 1.10218 10.5 1.5 10.5C1.89782 10.5 2.27936 10.342 2.56066 10.0607C2.84196 9.77936 3 9.39783 3 9C3 8.60218 2.84196 8.22064 2.56066 7.93934C2.27936 7.65803 1.89782 7.5 1.5 7.5C1.10218 7.5 0.720644 7.65803 0.43934 7.93934C0.158035 8.22064 0 8.60218 0 9ZM0 16.5C0 16.8978 0.158035 17.2794 0.43934 17.5607C0.720644 17.842 1.10218 18 1.5 18C1.89782 18 2.27936 17.842 2.56066 17.5607C2.84196 17.2794 3 16.8978 3 16.5C3 16.1022 2.84196 15.7206 2.56066 15.4393C2.27936 15.158 1.89782 15 1.5 15C1.10218 15 0.720644 15.158 0.43934 15.4393C0.158035 15.7206 0 16.1022 0 16.5Z" fill="black"/>
</svg>
