<svg width="33" height="33" viewBox="0 0 33 33" fill="none" xmlns="http://www.w3.org/2000/svg">
<g id="&#234;&#184;&#176;&#235;&#179;&#184; &#237;&#148;&#132;&#235;&#161;&#156;&#237;&#149;&#132; 3" clip-path="url(#clip0_1692_62)">
<g id="&#235;&#160;&#136;&#236;&#157;&#180;&#236;&#150;&#180; 2">
<g id="&#235;&#147;&#177;&#235;&#161;&#157;">
<path id="Vector" d="M23.1059 0H9.89413C4.42975 0 0 4.42975 0 9.89413V23.1059C0 28.5702 4.42975 33 9.89413 33H23.1059C28.5702 33 33 28.5702 33 23.1059V9.89413C33 4.42975 28.5702 0 23.1059 0Z" fill="#EAEAEA"/>
<path id="Vector_2" d="M17.0234 32.1136C24.0598 32.1136 29.764 26.4095 29.764 19.373C29.764 12.3365 24.0598 6.63232 17.0234 6.63232C9.9869 6.63232 4.28271 12.3365 4.28271 19.373C4.28271 26.4095 9.9869 32.1136 17.0234 32.1136Z" fill="#6ECE7D"/>
<path id="Vector_3" d="M16.3242 17.9898C16.7438 17.9305 17.0106 17.3639 16.9202 16.7242C16.8297 16.0846 16.4162 15.6142 15.9966 15.6736C15.577 15.7329 15.3101 16.2995 15.4006 16.9391C15.491 17.5788 15.9045 18.0492 16.3242 17.9898Z" fill="#353535"/>
<path id="Vector_4" d="M19.7806 17.4757C20.2002 17.4157 20.4663 16.8486 20.3749 16.2091C20.2835 15.5695 19.8693 15.0996 19.4497 15.1595C19.0301 15.2195 18.764 15.7866 18.8554 16.4261C18.9467 17.0657 19.361 17.5356 19.7806 17.4757Z" fill="#353535"/>
<path id="Vector_5" d="M17.8022 19.3545L17.8194 19.3659C17.975 19.4724 18.1581 19.5316 18.3466 19.5365C18.5351 19.5413 18.721 19.4915 18.8819 19.3932" stroke="#020303" stroke-width="1.5" stroke-miterlimit="10" stroke-linecap="round"/>
</g>
</g>
</g>
<defs>
<clipPath id="clip0_1692_62">
<rect width="33" height="33" fill="white"/>
</clipPath>
</defs>
</svg>
