<svg width="131" height="66" viewBox="0 0 131 66" fill="none" xmlns="http://www.w3.org/2000/svg">
<g id="Group 587">
<g id="&#235;&#160;&#136;&#236;&#157;&#180;&#236;&#150;&#180; 2" opacity="0.3">
<g id="&#235;&#147;&#177;&#235;&#161;&#157;">
<path id="Vector" d="M0.0483117 58.8626C0.487944 60.4718 1.9739 61.3542 3.42908 61.7885C5.28433 62.3417 7.18354 62.1908 9.05637 61.8662C11.1754 61.4959 13.2109 60.9976 15.3739 61.0387C17.5369 61.0799 19.8318 61.2993 22.0519 61.4685C31.1039 62.1451 40.1604 62.9497 49.2388 62.8903C51.4941 62.8903 53.7538 62.808 56.0047 62.6754C58.2556 62.5428 60.401 62.2914 62.5992 62.2868C64.7973 62.2823 66.9735 62.6891 69.1673 62.904C71.2837 63.1359 73.4233 62.9466 75.4716 62.3463C77.3576 61.7748 79.1733 60.9427 81.1077 60.5541C83.0421 60.1655 85.1611 60.3392 87.1438 60.6456C89.2321 60.9656 91.3115 61.3999 93.4218 61.5599C95.612 61.6844 97.8086 61.5448 99.9679 61.1439C102.144 60.7964 104.307 60.4124 106.501 60.1838C108.695 59.9552 110.963 59.7998 113.201 59.6626C117.624 59.3883 122.068 59.0729 126.495 59.4295C127.537 59.5163 128.575 59.6398 129.608 59.8181C129.889 59.8898 130.185 59.8475 130.437 59.6996C130.688 59.5518 130.876 59.3096 130.962 59.0226C131.038 58.7298 130.999 58.4178 130.855 58.1542C130.711 57.8906 130.473 57.6967 130.193 57.6145C125.893 56.8738 121.536 56.915 117.197 57.1573C112.858 57.3996 108.448 57.6145 104.118 58.1951C101.92 58.4968 99.7701 58.9631 97.5807 59.2054C95.5088 59.4251 93.4184 59.3698 91.3599 59.0409C87.2845 58.4191 83.2839 57.491 79.2129 58.6797C77.3224 59.2329 75.5156 60.0512 73.5856 60.4855C71.5149 60.9427 69.3871 60.673 67.312 60.4033C65.1789 60.0934 63.0239 59.9771 60.8714 60.0558C58.6733 60.1655 56.4443 60.385 54.2286 60.4855C45.326 60.8833 36.4191 60.2798 27.5473 59.6032L20.9133 59.1003C18.7503 58.9403 16.5653 58.698 14.3935 58.762C12.2217 58.826 10.1423 59.4249 8.00565 59.7449C6.44056 59.9826 4.69083 60.0238 3.22685 59.2877C2.9944 59.1982 2.78161 59.061 2.60112 58.8843C2.42062 58.7076 2.2761 58.495 2.17613 58.2591C1.75848 56.8464 -0.342961 57.4453 0.0483117 58.8626Z" fill="#8C8D95"/>
<path id="Vector_2" d="M62.9579 61.9559C79.7904 61.9559 93.4358 48.3104 93.4358 31.4779C93.4358 14.6454 79.7904 1 62.9579 1C46.1254 1 32.48 14.6454 32.48 31.4779C32.48 48.3104 46.1254 61.9559 62.9579 61.9559Z" fill="white" stroke="#8C8D95" stroke-width="2" stroke-miterlimit="10"/>
<path id="Vector_3" d="M67.1526 42.3005C68.0751 42.3005 68.823 41.161 68.823 39.7555C68.823 38.3499 68.0751 37.2104 67.1526 37.2104C66.2301 37.2104 65.4822 38.3499 65.4822 39.7555C65.4822 41.161 66.2301 42.3005 67.1526 42.3005Z" fill="#8B8D94"/>
<path id="Vector_4" d="M58.9456 42.2963C59.8681 42.2963 60.616 41.1569 60.616 39.7513C60.616 38.3457 59.8681 37.2063 58.9456 37.2063C58.023 37.2063 57.2751 38.3457 57.2751 39.7513C57.2751 41.1569 58.023 42.2963 58.9456 42.2963Z" fill="#8B8D94"/>
<path id="Vector_5" d="M42.8673 54.6152C41.4866 54.8385 40.1362 55.2196 38.8425 55.7509C38.2383 55.9452 37.701 56.3057 37.2923 56.7913C37.0641 57.1276 36.9217 57.5147 36.8778 57.9187C36.6249 59.6554 37.599 61.4088 38.9917 62.4782C40.3844 63.5476 42.146 64.0242 43.8828 64.2937C44.4284 64.418 44.9951 64.418 45.5408 64.2937C46.0951 64.0801 46.5888 63.7343 46.9791 63.2864C47.8403 62.4674 48.5429 61.4964 49.0515 60.4223C49.5616 59.3352 49.6502 58.0975 49.3002 56.9488C48.6039 54.9468 46.3366 53.8608 44.2185 53.8193" fill="white"/>
<path id="Vector_6" d="M42.5896 53.6162C41.1529 53.852 39.7481 54.2526 38.4031 54.81C37.1058 55.3529 36.0903 56.1819 35.854 57.641C35.4395 60.331 37.1721 62.8056 39.4767 64.0242C40.7101 64.6499 42.0373 65.0699 43.4061 65.2677C44.1048 65.4187 44.8249 65.444 45.5325 65.3423C46.2175 65.1789 46.8451 64.8322 47.348 64.3392C49.3666 62.5403 51.0784 59.7798 50.3945 56.9985C49.7106 54.2172 46.8381 52.8535 44.2144 52.7665C42.8797 52.725 42.8797 54.7975 44.2144 54.839C45.7232 54.8846 47.4433 55.5146 48.1728 56.9322C49.1137 58.7642 47.8371 60.8284 46.606 62.1507C46.3041 62.5094 45.9604 62.8309 45.5822 63.1082C45.173 63.3424 44.6909 63.4149 44.231 63.3113C43.2089 63.1794 42.2067 62.9232 41.2466 62.5486C39.6301 61.9227 37.9969 60.5466 37.8726 58.6938C37.8099 58.2431 37.8973 57.7842 38.1213 57.3881C38.4387 57.0447 38.8445 56.7951 39.2943 56.6669C40.5336 56.1719 41.8235 55.8146 43.1408 55.6016C43.272 55.5654 43.3948 55.5038 43.5021 55.4201C43.6095 55.3365 43.6993 55.2325 43.7665 55.1142C43.8336 54.9958 43.8768 54.8654 43.8936 54.7303C43.9103 54.5953 43.9003 54.4582 43.8641 54.3271C43.8279 54.1959 43.7663 54.0731 43.6826 53.9658C43.599 53.8584 43.495 53.7686 43.3766 53.7014C43.2583 53.6343 43.1279 53.5911 42.9928 53.5743C42.8578 53.5576 42.7207 53.5676 42.5896 53.6038V53.6162Z" fill="#8C8D95"/>
<path id="Vector_7" d="M62.9329 46.404C62.9753 46.354 63.021 46.3069 63.0697 46.263C63.0912 46.2402 63.1148 46.2194 63.1402 46.2009C63.0324 46.2796 63.0158 46.2962 63.0863 46.2465C63.1568 46.1967 63.1858 46.1801 63.2397 46.1511L63.3226 46.1138C63.1899 46.1636 63.165 46.176 63.2479 46.147C63.3308 46.118 63.3557 46.1097 63.4137 46.0972H63.5008H63.4096C63.5132 46.0972 63.6251 46.0972 63.7288 46.0972C63.8324 46.0972 63.7578 46.0972 63.6168 46.0972H63.7163C63.785 46.1094 63.8529 46.126 63.9194 46.147C63.9858 46.1647 64.0509 46.1869 64.1142 46.2133L64.2137 46.2506H64.164C64.4238 46.3757 64.6769 46.514 64.9225 46.6651C65.0166 46.73 65.1232 46.7747 65.2354 46.7964C65.3476 46.8182 65.4631 46.8164 65.5747 46.7914C65.6862 46.7663 65.7914 46.7185 65.8835 46.6508C65.9757 46.5832 66.0529 46.4972 66.1102 46.3983C66.1675 46.2994 66.2038 46.1897 66.2167 46.0761C66.2296 45.9626 66.2189 45.8475 66.1852 45.7383C66.1515 45.629 66.0956 45.5279 66.0209 45.4413C65.9463 45.3548 65.8546 45.2845 65.7515 45.2351C65.1346 44.8093 64.4233 44.5404 63.679 44.4517C63.3185 44.4331 62.9583 44.4953 62.6249 44.6337C62.2914 44.7721 61.9931 44.9832 61.7516 45.2517C61.5961 45.4072 61.5087 45.6182 61.5087 45.8382C61.5087 46.0582 61.5961 46.2691 61.7516 46.4247C61.9072 46.5802 62.1181 46.6676 62.3381 46.6676C62.5581 46.6676 62.7691 46.5802 62.9246 46.4247L62.9329 46.404Z" fill="#8B8D94"/>
<path id="Vector_8" d="M82.5552 63.5558C83.9357 63.3319 85.2861 62.9509 86.58 62.4201C87.1831 62.2257 87.72 61.8669 88.1302 61.3839C88.3559 61.0463 88.498 60.6598 88.5447 60.2564C88.7976 58.5155 87.8276 56.7622 86.4308 55.697C85.0339 54.6317 83.2806 54.1467 81.5439 53.8815C80.9823 53.7186 80.3846 53.7292 79.8291 53.9118C79.2736 54.0945 78.7863 54.4408 78.431 54.9053C77.5692 55.7238 76.8665 56.6949 76.3585 57.7694C75.8483 58.855 75.7597 60.0915 76.1098 61.2388C76.802 63.2408 79.0693 64.3309 81.1874 64.3724" fill="white"/>
<path id="Vector_9" d="M82.8289 64.5548C84.2606 64.3231 85.6611 63.9281 87.0029 63.3776C88.2961 62.8388 89.3158 62.0056 89.552 60.5466C89.9914 57.8565 88.2339 55.382 85.9335 54.1634C84.6993 53.5396 83.3724 53.1197 82.0041 52.9199C81.3065 52.771 80.5882 52.7457 79.8818 52.8453C79.1953 53.0078 78.5661 53.3546 78.0622 53.8483C76.0436 55.6431 74.3317 58.4078 75.0115 61.1849C75.6913 63.9621 78.5679 65.3299 81.1875 65.4211C82.5222 65.4667 82.5222 63.3942 81.1875 63.3486C79.6787 63.303 77.9586 62.673 77.2332 61.2513C76.2923 59.4192 77.5731 57.3591 78.8042 56.0369C79.104 55.6761 79.448 55.3545 79.828 55.0794C80.2378 54.8471 80.7192 54.7747 81.1792 54.8763C82.2062 55.0016 83.214 55.2522 84.1802 55.6224C85.7967 56.2483 87.4298 57.6244 87.55 59.4772C87.6137 59.9293 87.5262 60.3897 87.3013 60.787C86.9814 61.1274 86.5765 61.3764 86.1283 61.5082C84.8869 62 83.5958 62.3558 82.2776 62.5694C82.0142 62.6439 81.7907 62.8193 81.6557 63.0575C81.5206 63.2957 81.485 63.5775 81.5564 63.8419C81.6347 64.1031 81.8105 64.3242 82.0474 64.4593C82.2844 64.5944 82.5642 64.633 82.8289 64.5672V64.5548Z" fill="#8C8D95"/>
</g>
</g>
<circle id="Ellipse 64" cx="18.5" cy="35.5" r="1.5" fill="#EAEAEA"/>
<circle id="Ellipse 66" cx="117.5" cy="36.5" r="1.5" fill="#EAEAEA"/>
<circle id="Ellipse 65" cx="7.5" cy="35.5" r="1.5" fill="#EAEAEA"/>
<circle id="Ellipse 67" cx="106.5" cy="36.5" r="1.5" fill="#EAEAEA"/>
</g>
</svg>
