<svg width="24" height="24" viewBox="0 0 24 24" fill="none" xmlns="http://www.w3.org/2000/svg">
<g id="solar:gallery-wide-bold-duotone">
<path id="Vector" d="M18.5119 10.0768C18.5119 10.8148 17.8869 11.4138 17.1159 11.4138C16.3459 11.4138 15.7209 10.8148 15.7209 10.0768C15.7209 9.33777 16.3459 8.73877 17.1159 8.73877C17.8859 8.73877 18.5119 9.33777 18.5119 10.0768Z" fill="#8B8D94"/>
<path id="Vector_2" fill-rule="evenodd" clip-rule="evenodd" d="M18.036 5.53215C16.976 5.39515 15.622 5.39515 13.913 5.39615H10.087C8.377 5.39615 7.023 5.39615 5.964 5.53215C4.874 5.67215 3.99 5.96915 3.294 6.63615C2.598 7.30315 2.29 8.14915 2.142 9.19515C2 10.2101 2 11.5081 2 13.1471V13.2471C2 14.8871 2 16.1841 2.142 17.2001C2.289 18.2462 2.598 19.0922 3.294 19.7592C3.99 20.4262 4.874 20.7222 5.964 20.8632C7.024 20.9992 8.378 20.9992 10.087 20.9992H13.913C15.623 20.9992 16.977 20.9992 18.036 20.8632C19.126 20.7232 20.01 20.4262 20.706 19.7592C21.402 19.0922 21.711 18.2451 21.858 17.2001C22 16.1841 22 14.8861 22 13.2481V13.1481C22 11.5081 22 10.2111 21.858 9.19515C21.711 8.14915 21.402 7.30315 20.706 6.63615C20.01 5.96915 19.126 5.67315 18.036 5.53215ZM6.15 6.85815C5.214 6.97815 4.675 7.20415 4.28 7.58215C3.887 7.95915 3.651 8.47615 3.525 9.37315C3.425 10.0931 3.402 10.9921 3.397 12.1681L3.867 11.7731C4.992 10.8311 6.686 10.8851 7.742 11.8971L11.732 15.7221C11.9297 15.9086 12.1849 16.0224 12.4558 16.045C12.7267 16.0675 12.9972 15.9974 13.223 15.8461L13.501 15.6591C14.1531 15.223 14.9297 15.0115 15.7129 15.0566C16.4961 15.1017 17.2433 15.4011 17.841 15.9091L20.248 17.9861C20.346 17.7221 20.421 17.4071 20.475 17.0221C20.603 16.1061 20.605 14.8981 20.605 13.1981C20.605 11.4981 20.603 10.2891 20.475 9.37315C20.349 8.47615 20.113 7.95915 19.719 7.58215C19.326 7.20415 18.786 6.97815 17.85 6.85815C16.894 6.73415 15.634 6.73315 13.86 6.73315H10.14C8.366 6.73315 7.106 6.73415 6.15 6.85815Z" fill="#8B8D94"/>
<path id="Vector_3" opacity="0.5" d="M17.087 2.61C16.227 2.5 15.132 2.5 13.767 2.5H10.677C9.31296 2.5 8.21796 2.5 7.35896 2.61C6.46896 2.725 5.72596 2.968 5.13696 3.53C4.8119 3.84202 4.56401 4.22549 4.41296 4.65C4.91696 4.42 5.48696 4.284 6.12696 4.2C7.21196 4.06 8.59696 4.06 10.347 4.06H14.262C16.011 4.06 17.396 4.06 18.481 4.2C19.04 4.273 19.545 4.386 20.001 4.566C19.8484 4.1745 19.6118 3.82121 19.308 3.531C18.719 2.968 17.977 2.725 17.087 2.611" fill="#8B8D94"/>
</g>
</svg>
