<svg width="64" height="64" viewBox="0 0 64 64" fill="none" xmlns="http://www.w3.org/2000/svg">
<g filter="url(#filter0_d_0_1)">
<circle cx="28" cy="30" r="17" fill="white"/>
</g>
<g clip-path="url(#clip0_0_1)">
<path d="M37.5353 29.3189H35.4605C35.2991 27.5754 34.533 25.9433 33.2949 24.7052C32.0568 23.4671 30.4246 22.701 28.6811 22.5396V20.4648C28.6811 20.2841 28.6094 20.1109 28.4816 19.9832C28.3539 19.8554 28.1807 19.7837 28 19.7837C27.8194 19.7837 27.6462 19.8554 27.5184 19.9832C27.3907 20.1109 27.3189 20.2841 27.3189 20.4648V22.5396C25.5754 22.701 23.9433 23.4671 22.7052 24.7052C21.4671 25.9433 20.701 27.5754 20.5396 29.3189H18.4648C18.2841 29.3189 18.1109 29.3907 17.9832 29.5184C17.8554 29.6462 17.7837 29.8194 17.7837 30C17.7837 30.1807 17.8554 30.3539 17.9832 30.4816C18.1109 30.6094 18.2841 30.6811 18.4648 30.6811H20.5396C20.701 32.4246 21.4671 34.0568 22.7052 35.2949C23.9433 36.533 25.5754 37.2991 27.3189 37.4605V39.5353C27.3189 39.7159 27.3907 39.8892 27.5184 40.0169C27.6462 40.1446 27.8194 40.2164 28 40.2164C28.1807 40.2164 28.3539 40.1446 28.4816 40.0169C28.6094 39.8892 28.6811 39.7159 28.6811 39.5353V37.4605C30.4246 37.2991 32.0568 36.533 33.2949 35.2949C34.533 34.0568 35.2991 32.4246 35.4605 30.6811H37.5353C37.7159 30.6811 37.8892 30.6094 38.0169 30.4816C38.1446 30.3539 38.2164 30.1807 38.2164 30C38.2164 29.8194 38.1446 29.6462 38.0169 29.5184C37.8892 29.3907 37.7159 29.3189 37.5353 29.3189ZM28 36.1298C26.7877 36.1298 25.6025 35.7703 24.5945 35.0968C23.5865 34.4232 22.8008 33.4659 22.3368 32.3458C21.8729 31.2257 21.7515 29.9932 21.988 28.8042C22.2245 27.6151 22.8083 26.5229 23.6656 25.6656C24.5229 24.8083 25.6151 24.2245 26.8042 23.988C27.9932 23.7515 29.2257 23.8729 30.3458 24.3368C31.4659 24.8008 32.4232 25.5865 33.0968 26.5945C33.7703 27.6025 34.1298 28.7877 34.1298 30C34.128 31.6252 33.4816 33.1833 32.3325 34.3325C31.1833 35.4816 29.6252 36.128 28 36.1298Z" fill="#045905"/>
</g>
<defs>
<filter id="filter0_d_0_1" x="0" y="0" width="64" height="64" filterUnits="userSpaceOnUse" color-interpolation-filters="sRGB">
<feFlood flood-opacity="0" result="BackgroundImageFix"/>
<feColorMatrix in="SourceAlpha" type="matrix" values="0 0 0 0 0 0 0 0 0 0 0 0 0 0 0 0 0 0 127 0" result="hardAlpha"/>
<feMorphology radius="1" operator="dilate" in="SourceAlpha" result="effect1_dropShadow_0_1"/>
<feOffset dx="4" dy="2"/>
<feGaussianBlur stdDeviation="7"/>
<feComposite in2="hardAlpha" operator="out"/>
<feColorMatrix type="matrix" values="0 0 0 0 0 0 0 0 0 0 0 0 0 0 0 0 0 0 0.1 0"/>
<feBlend mode="normal" in2="BackgroundImageFix" result="effect1_dropShadow_0_1"/>
<feBlend mode="normal" in="SourceGraphic" in2="effect1_dropShadow_0_1" result="shape"/>
</filter>
<clipPath id="clip0_0_1">
<rect width="21.7949" height="21.7949" fill="white" transform="translate(17.1025 19.1025)"/>
</clipPath>
</defs>
</svg>
