<svg width="75" height="75" viewBox="0 0 75 75" fill="none" xmlns="http://www.w3.org/2000/svg">
<g id="Group 585">
<path id="Vector" d="M37.2725 74.5451C57.8576 74.5451 74.5451 57.8576 74.5451 37.2725C74.5451 16.6875 57.8576 0 37.2725 0C16.6875 0 0 16.6875 0 37.2725C0 57.8576 16.6875 74.5451 37.2725 74.5451Z" fill="#5DC26D"/>
<path id="Vector_2" d="M40.6312 48.3881C41.8588 48.2145 42.6395 46.5569 42.3749 44.6857C42.1103 42.8145 40.9006 41.4383 39.673 41.6119C38.4454 41.7855 37.6647 43.4432 37.9293 45.3143C38.1939 47.1855 39.4036 48.5617 40.6312 48.3881Z" fill="#353535"/>
<path id="Vector_3" d="M50.7424 46.8841C51.9699 46.7087 52.7484 45.0497 52.4811 43.1786C52.2138 41.3076 51.002 39.9329 49.7744 40.1083C48.5469 40.2836 47.7684 41.9426 48.0357 43.8137C48.303 45.6848 49.5148 47.0594 50.7424 46.8841Z" fill="#353535"/>
<path id="Vector_4" d="M48.1289 52.4956L48.0717 52.4762C47.5513 52.2932 46.9891 52.2645 46.4528 52.3936C45.9165 52.5227 45.4289 52.804 45.0489 53.2038" stroke="#3A3A3A" stroke-width="2.5" stroke-miterlimit="10" stroke-linecap="round"/>
</g>
</svg>
