<svg width="24" height="24" viewBox="0 0 24 24" fill="none" xmlns="http://www.w3.org/2000/svg">
<g id="solar:gallery-wide-bold-duotone">
<path id="Vector" d="M18.5119 10.077C18.5119 10.815 17.8869 11.414 17.1159 11.414C16.3459 11.414 15.7209 10.815 15.7209 10.077C15.7209 9.338 16.3459 8.739 17.1159 8.739C17.8859 8.739 18.5119 9.338 18.5119 10.077Z" fill="#8B8D94"/>
<path id="Vector_2" fill-rule="evenodd" clip-rule="evenodd" d="M18.036 5.532C16.976 5.395 15.622 5.395 13.913 5.396H10.087C8.377 5.396 7.023 5.396 5.964 5.532C4.874 5.672 3.99 5.969 3.294 6.636C2.598 7.303 2.29 8.149 2.142 9.195C2 10.21 2 11.508 2 13.147V13.247C2 14.887 2 16.184 2.142 17.2C2.289 18.246 2.598 19.092 3.294 19.759C3.99 20.426 4.874 20.722 5.964 20.863C7.024 20.999 8.378 20.999 10.087 20.999H13.913C15.623 20.999 16.977 20.999 18.036 20.863C19.126 20.723 20.01 20.426 20.706 19.759C21.402 19.092 21.711 18.245 21.858 17.2C22 16.184 22 14.886 22 13.248V13.148C22 11.508 22 10.211 21.858 9.195C21.711 8.149 21.402 7.303 20.706 6.636C20.01 5.969 19.126 5.673 18.036 5.532ZM6.15 6.858C5.214 6.978 4.675 7.204 4.28 7.582C3.887 7.959 3.651 8.476 3.525 9.373C3.425 10.093 3.402 10.992 3.397 12.168L3.867 11.773C4.992 10.831 6.686 10.885 7.742 11.897L11.732 15.722C11.9297 15.9085 12.1849 16.0223 12.4558 16.0448C12.7267 16.0673 12.9972 15.9972 13.223 15.846L13.501 15.659C14.1531 15.2229 14.9297 15.0114 15.7129 15.0565C16.4961 15.1016 17.2433 15.4009 17.841 15.909L20.248 17.986C20.346 17.722 20.421 17.407 20.475 17.022C20.603 16.106 20.605 14.898 20.605 13.198C20.605 11.498 20.603 10.289 20.475 9.373C20.349 8.476 20.113 7.959 19.719 7.582C19.326 7.204 18.786 6.978 17.85 6.858C16.894 6.734 15.634 6.733 13.86 6.733H10.14C8.366 6.733 7.106 6.734 6.15 6.858Z" fill="#8B8D94"/>
<path id="Vector_3" opacity="0.5" d="M17.0871 2.61C16.2271 2.5 15.1321 2.5 13.7671 2.5H10.6771C9.31309 2.5 8.21809 2.5 7.35909 2.61C6.46909 2.725 5.72609 2.968 5.13709 3.53C4.81202 3.84202 4.56413 4.22549 4.41309 4.65C4.91709 4.42 5.48709 4.284 6.12709 4.2C7.21209 4.06 8.59709 4.06 10.3471 4.06H14.2621C16.0111 4.06 17.3961 4.06 18.4811 4.2C19.0401 4.273 19.5451 4.386 20.0011 4.566C19.8485 4.1745 19.6119 3.82121 19.3081 3.531C18.7191 2.968 17.9771 2.725 17.0871 2.611" fill="#8B8D94"/>
</g>
</svg>
