<svg xmlns="http://www.w3.org/2000/svg" width="85" height="42" viewBox="0 0 85 42" fill="none">
  <g clip-path="url(#clip0_1685_368)">
    <path d="M68.3227 0H16.3327C12.0013 0.00103411 7.84762 1.72213 4.78487 4.78487C1.72213 7.84762 0.00103411 12.0013 0 16.3327C0 20.6644 1.72076 24.8187 4.78373 27.8816C7.8467 30.9446 12.001 32.6654 16.3327 32.6654H38.6843L42.944 42L47.1998 32.6654H68.3149C72.6466 32.6654 76.8008 30.9446 79.8638 27.8816C82.9268 24.8187 84.6475 20.6644 84.6475 16.3327C84.6465 12.0027 82.9265 7.85015 79.8654 4.78763C76.8044 1.72511 72.6527 0.00310162 68.3227 0Z" fill="white"/>
    <g opacity="0.69">
      <path d="M24.7585 24.2238H14.7764C14.7764 23.6426 14.7764 23.0536 14.7764 22.4646V8.97168H27.1107C27.1107 10.4267 27.1107 11.8661 27.1107 13.3367C26.9118 13.5707 26.7206 13.7775 26.5139 13.992L25.5504 14.9399C25.2578 15.2325 24.9575 15.5211 24.6532 15.802C24.5661 15.7662 24.474 15.7438 24.3802 15.7357H16.6371C16.589 15.7318 16.5408 15.7318 16.4927 15.7357C16.4243 15.747 16.3621 15.7822 16.3173 15.8351C16.2724 15.8879 16.2478 15.955 16.2478 16.0243C16.2478 16.0937 16.2724 16.1608 16.3173 16.2136C16.3621 16.2665 16.4243 16.3017 16.4927 16.313C16.5537 16.3188 16.6151 16.3188 16.6761 16.313C19.1726 16.313 21.6652 16.313 24.1539 16.313C24.0642 16.4144 23.9784 16.5041 23.8809 16.5978C23.5454 16.9176 23.2216 17.2336 22.89 17.5379C22.8143 17.5053 22.7341 17.4843 22.6521 17.4754H21.0099C20.7797 17.4754 20.6471 17.5847 20.651 17.7719C20.6549 17.9591 20.7797 18.0606 21.0177 18.0606C21.4702 18.0606 21.9226 18.0606 22.3673 18.0606C22.2035 18.2322 22.0436 18.3882 21.8914 18.5521C21.7393 18.7159 21.6496 18.8173 21.5248 18.9421C21.4936 19.0338 21.4545 19.1226 21.4077 19.2074H16.5863C16.5617 19.2055 16.5369 19.2055 16.5122 19.2074C16.4346 19.2074 16.3602 19.2382 16.3054 19.2931C16.2505 19.348 16.2197 19.4224 16.2197 19.5C16.2197 19.5776 16.2505 19.652 16.3054 19.7068C16.3602 19.7617 16.4346 19.7925 16.5122 19.7925H16.6761C18.2052 19.7925 19.7343 19.7925 21.2634 19.7925C21.1542 20.1826 21.0489 20.5493 20.9357 20.9628L22.9837 20.3698C23.7638 19.5897 24.544 18.8095 25.3242 18.0294C25.3242 18.0294 25.3242 18.0294 25.3242 18.006C25.5894 17.7407 25.8469 17.4793 26.1043 17.2258C26.4242 16.9098 26.7479 16.5939 27.0717 16.2974C27.0717 16.5119 27.0717 16.7109 27.0717 16.9254C27.0717 17.0776 27.0717 17.218 27.0717 17.3584C27.0717 18.8368 27.0717 20.3191 27.0444 21.817C26.2642 21.817 25.4841 21.817 24.7039 21.817V24.1575M17.5069 13.3601C17.6043 13.368 17.7021 13.368 17.7995 13.3601C17.8657 13.3434 17.9233 13.3025 17.9608 13.2454C17.9984 13.1884 18.0132 13.1194 18.0023 13.0519C17.9954 12.9774 17.9598 12.9085 17.903 12.8598C17.8463 12.811 17.7728 12.7862 17.6981 12.7906C17.4133 12.7906 17.1286 12.7906 16.8438 12.7906V12.182H17.702C17.7796 12.182 17.854 12.1512 17.9088 12.0964C17.9637 12.0415 17.9945 11.9671 17.9945 11.8895C17.9945 11.8119 17.9637 11.7375 17.9088 11.6826C17.854 11.6277 17.7796 11.5969 17.702 11.5969C17.3119 11.5969 16.9218 11.5969 16.5317 11.5969C16.4929 11.5937 16.4539 11.5985 16.4171 11.6112C16.3802 11.6238 16.3464 11.644 16.3178 11.6704C16.2892 11.6968 16.2664 11.7289 16.2508 11.7646C16.2353 11.8003 16.2273 11.8388 16.2275 11.8778C16.2275 12.6579 16.2275 13.4472 16.2275 14.2456C16.2248 14.2812 16.2295 14.3169 16.2411 14.3507C16.2528 14.3844 16.2713 14.4154 16.2954 14.4417C16.3196 14.468 16.3488 14.4891 16.3814 14.5037C16.414 14.5183 16.4492 14.526 16.4849 14.5264C16.9023 14.5264 17.3197 14.5264 17.7332 14.5264C17.7693 14.5251 17.8047 14.5162 17.8373 14.5005C17.8698 14.4847 17.8987 14.4624 17.9222 14.4349C17.9456 14.4074 17.9631 14.3754 17.9736 14.3408C17.984 14.3061 17.9872 14.2698 17.9828 14.2339C17.985 14.1623 17.9594 14.0927 17.9114 14.0396C17.8634 13.9866 17.7968 13.9541 17.7254 13.9491C17.6527 13.9433 17.5796 13.9433 17.5069 13.9491H16.8399V13.364H17.5069M25.0004 12.1937H21.5521C21.5105 12.189 21.4685 12.193 21.4286 12.2056C21.3888 12.2182 21.3521 12.2391 21.3209 12.2669C21.2897 12.2948 21.2647 12.3289 21.2476 12.367C21.2305 12.4051 21.2217 12.4465 21.2217 12.4883C21.2217 12.5301 21.2305 12.5714 21.2476 12.6095C21.2647 12.6477 21.2897 12.6818 21.3209 12.7096C21.3521 12.7374 21.3888 12.7583 21.4286 12.7709C21.4685 12.7835 21.5105 12.7876 21.5521 12.7828H25.2383C25.5036 12.7828 25.6284 12.6813 25.6284 12.4824C25.6284 12.2835 25.4919 12.1937 25.2383 12.1937H25.0004ZM22.5312 14.5342C22.5989 14.5088 22.6538 14.4576 22.6838 14.3918C22.7137 14.326 22.7164 14.2509 22.6911 14.1832C22.6712 14.1152 22.6276 14.0565 22.5682 14.0179C22.5088 13.9792 22.4376 13.9631 22.3673 13.9725H18.9346C18.7201 13.9725 18.5914 14.0895 18.5953 14.2729C18.5961 14.3143 18.6055 14.3551 18.623 14.3926C18.6406 14.4301 18.6658 14.4636 18.697 14.4908C18.7282 14.518 18.7648 14.5383 18.8044 14.5505C18.844 14.5627 18.8857 14.5665 18.9268 14.5615H22.3946C22.4411 14.5578 22.4869 14.5487 22.5312 14.5342ZM21.751 10.4462H19.8435C19.6095 10.4462 19.4768 10.5476 19.4768 10.7348C19.4768 10.9221 19.6017 11.0313 19.8357 11.0313H23.2255C23.4596 11.0313 23.5883 10.9221 23.5844 10.7348C23.5805 10.5476 23.4518 10.4462 23.2177 10.4462H21.7315M18.3339 18.0567C18.7981 18.0567 19.2623 18.0567 19.7265 18.0567C19.7797 18.057 19.8324 18.0464 19.8814 18.0256C19.9303 18.0048 19.9745 17.9742 20.0113 17.9357C20.0382 17.8916 20.0541 17.8415 20.0575 17.7899C20.0609 17.7383 20.0517 17.6866 20.0308 17.6393C19.9948 17.5938 19.95 17.5562 19.899 17.5287C19.8481 17.5012 19.792 17.4844 19.7343 17.4793C18.7045 17.4793 17.6708 17.4793 16.6371 17.4793C16.3874 17.4793 16.247 17.5847 16.247 17.7758C16.247 17.9669 16.3835 18.0645 16.6371 18.0645H18.3339M19.1141 12.1898H18.9658C18.7474 12.1898 18.6187 12.2991 18.6148 12.4785C18.6109 12.6579 18.7396 12.7789 18.9697 12.7789H20.3272C20.5418 12.7789 20.6705 12.6618 20.6666 12.4824C20.6627 12.303 20.5379 12.1937 20.3194 12.1898H19.1141ZM24.4699 14.5303H24.7624C24.804 14.5351 24.846 14.5311 24.8859 14.5185C24.9257 14.5058 24.9624 14.4849 24.9936 14.4571C25.0249 14.4293 25.0498 14.3952 25.0669 14.3571C25.084 14.3189 25.0928 14.2776 25.0928 14.2358C25.0928 14.194 25.084 14.1527 25.0669 14.1146C25.0498 14.0764 25.0249 14.0423 24.9936 14.0145C24.9624 13.9867 24.9257 13.9658 24.8859 13.9532C24.846 13.9406 24.804 13.9365 24.7624 13.9413H23.6156C23.5741 13.9365 23.532 13.9406 23.4922 13.9532C23.4523 13.9658 23.4156 13.9867 23.3844 14.0145C23.3532 14.0423 23.3282 14.0764 23.3111 14.1146C23.294 14.1527 23.2852 14.194 23.2852 14.2358C23.2852 14.2776 23.294 14.3189 23.3111 14.3571C23.3282 14.3952 23.3532 14.4293 23.3844 14.4571C23.4156 14.4849 23.4523 14.5058 23.4922 14.5185C23.532 14.5311 23.5741 14.5351 23.6156 14.5303H24.4699Z" fill="#F7FCFF"/>
      <path d="M25.3554 8.93264C24.1578 8.93264 22.9603 8.95215 21.7588 8.95215H14.7725V22.4489C14.1912 22.4684 13.6022 22.4684 13.021 22.4684V7.20068H25.3554V8.93264Z" fill="#A8A7A7"/>
      <path d="M27.5828 12.8727C27.8324 12.6191 28.0665 12.3499 28.3317 12.1198C28.4508 12.0124 28.6 11.9443 28.7592 11.9248C28.9183 11.9052 29.0796 11.9352 29.2211 12.0106C29.3905 12.0823 29.543 12.1888 29.6686 12.3232C29.7943 12.4576 29.8903 12.6169 29.9506 12.7907C30.0044 12.9432 30.0128 13.1081 29.9747 13.2653C29.9366 13.4225 29.8537 13.5653 29.736 13.6762C29.5215 13.883 29.3108 14.0975 29.0807 14.3199C28.5697 13.8557 28.086 13.3681 27.5828 12.8727Z" fill="#4693D3"/>
      <path d="M27.5709 12.8726C28.078 13.3563 28.5696 13.8439 29.0767 14.3354C29.1742 14.4228 29.2631 14.5194 29.3419 14.624C29.4376 14.8016 29.4772 15.004 29.4556 15.2045C29.434 15.405 29.3522 15.5943 29.221 15.7475C28.6632 16.2663 28.1366 16.8202 27.5943 17.3585C27.5342 17.4193 27.4541 17.4563 27.3688 17.4628C27.2835 17.4692 27.1988 17.4446 27.1302 17.3936C27.1164 17.247 27.1164 17.0994 27.1302 16.9528L28.7256 15.3496C28.762 15.3215 28.7915 15.2855 28.8118 15.2442C28.8321 15.203 28.8426 15.1576 28.8426 15.1116C28.8426 15.0656 28.8321 15.0203 28.8118 14.979C28.7915 14.9378 28.762 14.9017 28.7256 14.8737C28.6983 14.8425 28.6749 14.8074 28.6437 14.7644C28.3511 14.468 28.0663 14.1871 27.7855 13.8985C27.5826 13.6917 27.3954 13.4811 27.1809 13.2704C27.3057 13.1534 27.4344 13.0208 27.5709 12.8726Z" fill="#666666"/>
      <path d="M24.7742 24.2238C24.7742 23.4436 24.7742 22.6635 24.7742 21.8833H27.1147C27.1084 21.9153 27.0936 21.9449 27.0717 21.9691L24.7742 24.2238Z" fill="#A8A8A8"/>
      <path d="M27.1771 13.2861C27.3877 13.4929 27.5671 13.7035 27.7895 13.9103C28.0704 14.1989 28.3551 14.4798 28.6321 14.7801C28.4175 14.9986 28.2069 15.2053 27.9884 15.4082C27.493 14.9245 27.0054 14.433 26.5256 13.961L27.1147 13.329C27.1325 13.3108 27.1537 13.2962 27.1771 13.2861Z" fill="#A2D1F3"/>
      <path d="M26.5256 13.9688C27.021 14.4446 27.5086 14.9244 27.9962 15.4198C27.7115 15.7319 27.415 16.0284 27.1224 16.3209L26.1355 17.2688C25.8742 17.5224 25.6167 17.7837 25.3554 18.049C24.8522 17.5653 24.3724 17.0816 23.8926 16.5979L24.1656 16.3131L24.6649 15.7982C24.9614 15.5057 25.2618 15.217 25.5543 14.9244L26.5256 13.9688Z" fill="#4695D3"/>
      <path d="M23.873 16.5938C24.3645 17.0735 24.8443 17.5533 25.3553 18.0488C25.3553 18.0488 25.3553 18.0488 25.3553 18.0722C24.5751 18.8523 23.795 19.6325 23.0148 20.4126L21.8446 19.2424C21.7549 19.1527 21.6573 19.0747 21.5598 18.9888C21.6807 18.8562 21.7978 18.7197 21.9226 18.5988C22.0474 18.4778 22.2347 18.2789 22.4102 18.1034L22.8939 17.5533C23.2138 17.2296 23.5375 16.9136 23.873 16.5938Z" fill="#A4D4F5"/>
      <path d="M24.6493 15.7787C24.4972 15.9542 24.3334 16.122 24.1617 16.2936H16.6683C16.6073 16.2994 16.5459 16.2994 16.4849 16.2936C16.4165 16.2823 16.3543 16.2471 16.3095 16.1942C16.2646 16.1414 16.24 16.0743 16.24 16.005C16.24 15.9356 16.2646 15.8685 16.3095 15.8157C16.3543 15.7628 16.4165 15.7276 16.4849 15.7163C16.533 15.7124 16.5812 15.7124 16.6293 15.7163H24.3763C24.4699 15.7232 24.562 15.7442 24.6493 15.7787Z" fill="#A8A7A7"/>
      <path d="M17.4875 13.3598H16.84V13.945H17.5265C17.5992 13.9391 17.6723 13.9391 17.745 13.945C17.8164 13.95 17.883 13.9824 17.931 14.0355C17.979 14.0886 18.0046 14.1582 18.0024 14.2297C18.0068 14.2656 18.0036 14.302 17.9932 14.3366C17.9827 14.3712 17.9652 14.4033 17.9418 14.4308C17.9183 14.4583 17.8894 14.4806 17.8569 14.4963C17.8243 14.5121 17.7889 14.5209 17.7528 14.5223C17.3393 14.5223 16.9219 14.5223 16.5045 14.5223C16.4688 14.5218 16.4336 14.5141 16.401 14.4995C16.3684 14.485 16.3392 14.4639 16.315 14.4375C16.2909 14.4112 16.2724 14.3803 16.2607 14.3465C16.2491 14.3128 16.2444 14.277 16.2471 14.2414C16.2471 13.4613 16.2471 12.672 16.2471 11.8736C16.2469 11.8347 16.2549 11.7962 16.2704 11.7605C16.286 11.7248 16.3088 11.6927 16.3374 11.6663C16.366 11.6399 16.3998 11.6197 16.4367 11.607C16.4735 11.5944 16.5125 11.5895 16.5513 11.5928C16.9414 11.5928 17.3315 11.5928 17.7216 11.5928C17.7992 11.5928 17.8736 11.6236 17.9284 11.6785C17.9833 11.7333 18.0141 11.8077 18.0141 11.8853C18.0141 11.9629 17.9833 12.0373 17.9284 12.0922C17.8736 12.1471 17.7992 12.1779 17.7216 12.1779H16.8634V12.7669C17.1482 12.7669 17.4329 12.7669 17.7177 12.7669C17.7924 12.7625 17.8658 12.7874 17.9226 12.8361C17.9794 12.8849 18.015 12.9538 18.0219 13.0283C18.0328 13.0957 18.018 13.1647 17.9804 13.2218C17.9429 13.2788 17.8853 13.3197 17.8191 13.3364C17.7095 13.3539 17.5985 13.3617 17.4875 13.3598Z" fill="#676767"/>
      <path d="M21.2713 19.8239H16.5201C16.4425 19.8239 16.3681 19.7931 16.3132 19.7382C16.2584 19.6833 16.2275 19.6089 16.2275 19.5313C16.2275 19.4537 16.2584 19.3793 16.3132 19.3245C16.3681 19.2696 16.4425 19.2388 16.5201 19.2388C16.5448 19.2368 16.5695 19.2368 16.5942 19.2388C18.1935 19.2388 19.7968 19.2388 21.4156 19.2388C21.3727 19.4533 21.322 19.6405 21.2713 19.8239Z" fill="#A8A7A7"/>
      <path d="M25.016 12.1821H25.2384C25.5075 12.1821 25.6284 12.2796 25.6284 12.4708C25.6284 12.6619 25.4958 12.7711 25.2384 12.7711H21.5599C21.5184 12.7759 21.4763 12.7719 21.4365 12.7593C21.3966 12.7467 21.3599 12.7258 21.3287 12.6979C21.2975 12.6701 21.2725 12.636 21.2554 12.5979C21.2383 12.5598 21.2295 12.5184 21.2295 12.4766C21.2295 12.4348 21.2383 12.3935 21.2554 12.3554C21.2725 12.3172 21.2975 12.2831 21.3287 12.2553C21.3599 12.2275 21.3966 12.2066 21.4365 12.194C21.4763 12.1814 21.5184 12.1773 21.5599 12.1821H25.0238H25.016Z" fill="#A8A7A7"/>
      <path d="M22.5194 14.5106C22.4788 14.523 22.4369 14.5309 22.3946 14.534H18.9268C18.8857 14.5389 18.844 14.5352 18.8044 14.523C18.7648 14.5108 18.7282 14.4904 18.697 14.4632C18.6657 14.436 18.6405 14.4026 18.623 14.3651C18.6055 14.3275 18.596 14.2868 18.5952 14.2454C18.5952 14.062 18.72 13.945 18.9346 13.945H22.3673C22.4375 13.9356 22.5088 13.9517 22.5682 13.9903C22.6276 14.029 22.6712 14.0876 22.6911 14.1556C22.7034 14.1902 22.7087 14.2269 22.7067 14.2635C22.7047 14.3001 22.6954 14.336 22.6795 14.369C22.6635 14.402 22.6411 14.4316 22.6137 14.4559C22.5862 14.4802 22.5542 14.4988 22.5194 14.5106Z" fill="#A8A7A7"/>
      <path d="M21.7511 10.4189H23.2178C23.4518 10.4189 23.5844 10.5204 23.5844 10.7076C23.5844 10.8948 23.4596 11.0041 23.2256 11.0041H19.8358C19.6017 11.0041 19.473 10.8909 19.4769 10.7076C19.4808 10.5243 19.6095 10.4189 19.8436 10.4189H21.7511Z" fill="#A8A7A7"/>
      <path d="M18.2989 18.0568H16.6293C16.3797 18.0568 16.2393 17.9593 16.2393 17.7681C16.2393 17.577 16.368 17.4717 16.6293 17.4717C17.6631 17.4717 18.6968 17.4717 19.7266 17.4717C19.7843 17.4767 19.8403 17.4935 19.8913 17.521C19.9423 17.5485 19.9871 17.5862 20.023 17.6316C20.044 17.6789 20.0532 17.7306 20.0498 17.7822C20.0464 17.8339 20.0305 17.8839 20.0035 17.9281C19.9668 17.9666 19.9226 17.9972 19.8737 18.018C19.8247 18.0388 19.772 18.0493 19.7188 18.049C19.2468 18.0646 18.7826 18.0568 18.2989 18.0568Z" fill="#A8A7A7"/>
      <path d="M21.2713 19.8391C21.322 19.6402 21.3727 19.449 21.4234 19.254C21.4585 19.1565 21.4858 19.0707 21.5248 18.9731C21.6272 19.0462 21.7237 19.127 21.8135 19.215C22.2036 19.6051 22.5937 19.9952 22.9837 20.3852C22.3206 20.592 21.6536 20.7753 20.9553 20.9899C21.0645 20.5959 21.1621 20.2214 21.2713 19.8391Z" fill="#676969"/>
      <path d="M22.8821 17.5536C22.7261 17.7331 22.5623 17.9008 22.3828 18.0763H21.0176C20.7796 18.0763 20.6509 17.971 20.6509 17.7877C20.6509 17.6043 20.7796 17.4912 21.0098 17.4912H22.6442C22.7262 17.5 22.8064 17.5211 22.8821 17.5536Z" fill="#A8A7A7"/>
      <path d="M19.1141 12.1821H20.2844C20.5028 12.1821 20.6315 12.2953 20.6315 12.4747C20.6315 12.6541 20.5067 12.7712 20.2922 12.7712H18.9503C18.7201 12.7712 18.5914 12.658 18.5953 12.4708C18.5992 12.2835 18.7279 12.186 18.9464 12.1821H19.1141Z" fill="#A8A8A8"/>
      <path d="M24.4308 14.5343H23.6234C23.5819 14.5391 23.5398 14.5351 23.4999 14.5225C23.4601 14.5098 23.4234 14.4889 23.3922 14.4611C23.361 14.4333 23.336 14.3992 23.3189 14.3611C23.3018 14.3229 23.293 14.2816 23.293 14.2398C23.293 14.198 23.3018 14.1567 23.3189 14.1186C23.336 14.0804 23.361 14.0463 23.3922 14.0185C23.4234 13.9907 23.4601 13.9698 23.4999 13.9572C23.5398 13.9446 23.5819 13.9405 23.6234 13.9453H24.7429C24.7844 13.9405 24.8265 13.9446 24.8663 13.9572C24.9062 13.9698 24.9429 13.9907 24.9741 14.0185C25.0053 14.0463 25.0303 14.0804 25.0474 14.1186C25.0645 14.1567 25.0733 14.198 25.0733 14.2398C25.0733 14.2816 25.0645 14.3229 25.0474 14.3611C25.0303 14.3992 25.0053 14.4333 24.9741 14.4611C24.9429 14.4889 24.9062 14.5098 24.8663 14.5225C24.8265 14.5351 24.7844 14.5391 24.7429 14.5343H24.4308Z" fill="#A8A8A8"/>
    </g>
    <path d="M47.2348 20.604H35.6572V19.504H47.2348V20.604ZM41.1418 13.9024C40.6564 14.6779 40.0131 15.3425 39.2538 15.8528C38.4712 16.3904 37.5935 16.7743 36.6675 16.9841L36.0668 15.8606C36.8716 15.7012 37.6399 15.3944 38.3332 14.9557C39.0052 14.5479 39.5824 14.0013 40.0261 13.3524C40.434 12.7833 40.656 12.1021 40.662 11.402V10.4658H41.8322V11.4137C41.8389 12.2915 41.5998 13.1536 41.1418 13.9024ZM42.7255 13.3524C43.1757 14.0044 43.7578 14.5546 44.434 14.9674C45.1266 15.4051 45.8955 15.7081 46.7004 15.8606L46.0997 16.9841C45.1829 16.7787 44.3133 16.4014 43.5369 15.8723C42.7727 15.3666 42.1272 14.7012 41.645 13.9219C41.1764 13.1737 40.9289 12.3083 40.9311 11.4254V10.4658H42.0819V11.4137C42.0925 12.1107 42.3172 12.7875 42.7255 13.3524Z" fill="#1A202A"/>
    <path d="M54.6465 11.8431H50.0787V18.5564H48.7329V10.7548H54.6465V11.8431ZM52.8171 18.1273C53.6667 18.0734 54.513 17.9758 55.3526 17.8347L55.493 18.9308C54.6088 19.0687 53.7311 19.1636 52.86 19.2156C51.9888 19.2676 50.9395 19.2949 49.712 19.2975H48.7329V18.1975H49.712C50.9447 18.2014 51.9823 18.178 52.8171 18.1273ZM54.116 15.3655H49.7471V14.2928H54.116V15.3655ZM57.5682 15.3655H54.8377V14.285H57.5682V15.3655ZM58.7073 22.2816H57.3693V9.61182H58.7073V22.2816Z" fill="#1A202A"/>
    <path d="M67.5152 11.9016H62.803V18.4784H61.4534V10.7899H67.5191L67.5152 11.9016ZM65.9003 17.9634C66.782 17.9112 67.6599 17.807 68.5294 17.6514L68.6582 18.767C67.7704 18.9261 66.8744 19.0355 65.9744 19.0947C65.0798 19.1571 63.9226 19.1896 62.5027 19.1922H61.4495V18.022H62.5027C63.8953 18.0415 65.0304 18.0142 65.9003 17.9634ZM71.1274 22.2972H69.7816V9.61182H71.1274V22.2972Z" fill="#1A202A"/>
  </g>
  <defs>
    <clipPath id="clip0_1685_368">
      <rect width="84.6553" height="42" fill="white"/>
    </clipPath>
  </defs>
</svg>