<svg xmlns="http://www.w3.org/2000/svg" width="91" height="91" viewBox="0 0 91 91" fill="none">
  <path d="M61.3079 86.8912C57.9028 86.8982 54.4978 86.9105 51.0928 86.9111C38.7444 86.9135 26.3961 86.9121 14.0478 86.9121C13.7254 86.9121 13.403 86.9121 12.9734 86.9121C12.9734 84.1073 12.9734 81.3365 12.9716 78.3996C12.9697 56.505 12.9697 34.7765 12.9697 12.9745C13.4544 12.9745 13.8047 12.9745 14.1549 12.9745C25.0257 12.9745 35.8965 12.9764 46.7673 12.9738C52.5728 12.9724 58.3783 12.9634 64.1837 12.9578C66.9898 12.9578 69.7958 12.9578 72.6942 12.9578C72.6942 19.9973 72.6942 26.9708 72.6734 34.0808C71.7144 35.2211 70.7761 36.2248 69.7816 37.2584C68.192 38.8106 66.6625 40.3369 65.1241 41.8542C63.693 43.2658 62.2524 44.6678 60.7695 46.0182C60.3012 45.8675 59.8795 45.6902 59.4575 45.6897C46.9693 45.6749 34.4812 45.6776 21.993 45.6784C21.7565 45.6784 21.5131 45.6545 21.2848 45.7008C20.5615 45.8474 20.1407 46.297 20.0914 47.0416C20.0444 47.7525 20.5429 48.3744 21.2581 48.4942C21.5468 48.5425 21.8482 48.5205 22.1438 48.5206C34.2176 48.5248 46.2914 48.5278 58.341 48.5882C57.8999 49.0803 57.483 49.5153 57.0093 49.9691C55.3918 51.5115 53.8313 53.0351 52.2205 54.5109C51.8031 54.3784 51.4366 54.223 51.0688 54.2201C48.4343 54.1989 45.7995 54.2054 43.1648 54.2103C42.0391 54.2124 41.4088 54.7361 41.4153 55.6406C41.4219 56.543 42.0482 57.0466 43.1852 57.0521C45.3755 57.0628 47.5658 57.0687 49.7307 57.1283C48.9416 57.9503 48.166 58.7094 47.4177 59.4945C46.8186 60.1231 46.2527 60.7832 45.6448 61.492C45.468 61.9628 45.3184 62.3709 45.085 62.7651C37.2474 62.7475 29.4936 62.7439 21.7399 62.7406C21.6215 62.7406 21.502 62.7346 21.385 62.7485C20.608 62.8411 20.0779 63.4282 20.0875 64.1796C20.097 64.9301 20.6336 65.5005 21.4211 65.5751C21.6853 65.6001 21.9534 65.5835 22.2198 65.5837C29.6183 65.5897 37.0169 65.5955 44.4153 65.6677C43.9013 67.5339 43.3875 69.3335 42.8276 71.2944C46.2093 70.3127 49.4454 69.3734 52.7391 68.4282C56.5739 64.6565 60.3512 60.8905 64.1273 57.1232C64.1458 57.1047 64.1467 57.0683 64.2026 57.0053C65.5015 55.7217 66.7485 54.4679 68.007 53.2257C69.5565 51.6964 71.1155 50.1768 72.681 48.7399C72.7001 49.7857 72.7087 50.7444 72.7049 51.7764C72.7008 52.5235 72.709 53.1974 72.7172 53.8712C72.7087 61.0349 72.7003 68.1986 72.6004 75.4509C68.8033 75.5395 65.0976 75.5395 61.3079 75.5395C61.3079 79.407 61.3079 83.1491 61.3079 86.8912ZM26.1979 34.3033C26.6692 34.2796 27.1636 34.338 27.6065 34.2136C28.3135 34.0149 28.6592 33.4665 28.5972 32.7233C28.5362 31.9911 27.953 31.4805 27.1269 31.4665C25.7464 31.4431 24.3652 31.4601 22.9937 31.4601C22.9937 30.4486 22.9937 29.5497 22.9937 28.6138C24.4191 28.6138 25.7801 28.6345 27.14 28.6064C28.0333 28.5879 28.6283 27.9665 28.6089 27.1593C28.5904 26.3874 28.0118 25.7931 27.1622 25.7812C25.2964 25.7551 23.4298 25.7567 21.564 25.7799C20.6985 25.7907 20.1069 26.3074 20.1011 27.1307C20.0742 30.9516 20.0773 34.7729 20.0973 38.5939C20.1013 39.3781 20.5844 39.9362 21.3516 39.9588C23.3638 40.0178 25.3806 40.0219 27.3919 39.949C28.1544 39.9213 28.6097 39.3347 28.5978 38.5476C28.5859 37.7619 28.1195 37.2898 27.3515 37.1663C27.0045 37.1105 26.6422 37.1468 26.2868 37.1464C25.1757 37.1449 24.0645 37.1458 22.9765 37.1458C22.9765 36.129 22.9765 35.2513 22.9765 34.3033C24.0238 34.3033 25.0245 34.3033 26.1979 34.3033ZM62.4698 28.6149C57.1125 28.6149 51.7553 28.6149 46.3981 28.6149C46.1909 28.6149 45.9834 28.6083 45.7766 28.6169C44.8584 28.6548 44.2731 29.1951 44.2591 30.012C44.2445 30.8603 44.8513 31.4503 45.8161 31.454C49.0719 31.4666 52.3277 31.4591 55.5835 31.4592C58.2769 31.4593 60.9703 31.4603 63.6637 31.4587C64.9406 31.458 65.594 30.9637 65.5802 30.016C65.5666 29.0748 64.9272 28.6172 63.6223 28.615C63.2967 28.6144 62.9711 28.6149 62.4698 28.6149ZM50.5253 39.8558C51.2317 39.4961 51.5139 38.911 51.2956 38.1635C51.0747 37.4071 50.4876 37.1402 49.7194 37.1415C44.1813 37.1505 38.6432 37.143 33.105 37.1493C32.0664 37.1505 31.4445 37.7175 31.4622 38.597C31.4793 39.4434 32.0822 39.9855 33.0744 39.9868C38.6717 39.9937 44.2691 39.9904 49.8664 39.9866C50.0414 39.9864 50.2163 39.942 50.5253 39.8558ZM46.6553 20.0836C43.607 20.0837 40.5587 20.0813 37.5104 20.0849C36.37 20.0863 35.7426 20.5848 35.7278 21.4817C35.7129 22.387 36.3467 22.9254 37.4632 22.9262C42.9382 22.93 48.4133 22.9299 53.8884 22.9262C55.0069 22.9254 55.6403 22.3898 55.6271 21.4848C55.6141 20.5879 54.9852 20.087 53.847 20.0849C51.509 20.0808 49.171 20.0837 46.6553 20.0836ZM30.126 57.053C32.375 57.0529 34.625 57.0853 36.8725 57.0268C37.3487 57.0144 37.9822 56.7928 38.2406 56.4437C38.494 56.1013 38.5685 55.3326 38.3463 55.0068C38.0711 54.6032 37.4121 54.2476 36.9147 54.2421C31.9141 54.1874 26.9127 54.2074 21.9114 54.2096C20.7133 54.2102 20.072 54.7235 20.0872 55.6537C20.1022 56.5729 20.7377 57.0513 21.9581 57.0523C24.6215 57.0544 27.2849 57.053 30.126 57.053ZM33.8756 28.6146C33.6389 28.6146 33.4023 28.612 33.1657 28.6152C32.1003 28.6295 31.4829 29.1327 31.4619 30.0016C31.4401 30.9049 32.0789 31.4544 33.1843 31.4576C35.3732 31.4638 37.5622 31.4656 39.7511 31.4566C40.7949 31.4522 41.4158 30.9018 41.4087 30.0251C41.4015 29.1501 40.7843 28.6217 39.7279 28.6171C37.8348 28.6088 35.9417 28.6147 33.8756 28.6146ZM59.802 39.9909C60.2752 39.9907 60.7488 40.0037 61.2214 39.9873C62.1374 39.9556 62.7228 39.4086 62.7369 38.5926C62.7517 37.7449 62.1453 37.1593 61.182 37.1507C59.3783 37.1347 57.5742 37.1349 55.7705 37.1506C54.8047 37.1591 54.1996 37.74 54.2117 38.5883C54.2238 39.4343 54.8268 39.9766 55.8113 39.9873C57.0827 40.0012 58.3544 39.9909 59.802 39.9909Z" fill="#F7FBFE"/>
  <path d="M64.1744 12.8761C58.3782 12.9634 52.5728 12.9725 46.7673 12.9739C35.8965 12.9765 25.0257 12.9746 14.1549 12.9746C13.8046 12.9746 13.4544 12.9746 12.9697 12.9746C12.9697 34.7766 12.9697 56.5051 12.9638 78.3181C10.1518 78.4026 7.34565 78.4026 4.49173 78.4026C4.49173 53.7287 4.49173 29.1412 4.49173 4.49854C24.3442 4.49854 44.1939 4.49854 64.1651 4.49854C64.1651 7.25474 64.1651 10.0245 64.1744 12.8761Z" fill="#A7A7A7"/>
  <path d="M74.9738 31.9866C76.1768 30.7648 77.3083 29.4598 78.6034 28.345C79.8562 27.2667 81.4746 27.1258 82.9028 27.813C84.5141 28.5883 85.8915 29.816 86.4313 31.623C86.9023 33.1995 86.6485 34.6951 85.3967 35.9139C84.3577 36.9256 83.3426 37.9618 82.2322 39.0327C79.7563 36.7144 77.365 34.3505 74.9738 31.9866Z" fill="#3397E7"/>
  <path d="M74.921 32.01C77.3651 34.3506 79.7563 36.7145 82.2057 39.0869C82.6774 39.5538 83.1447 39.9749 83.4939 40.4779C84.423 41.8162 84.2379 44.6784 82.8995 45.9245C80.1986 48.4389 77.6516 51.1186 75.0388 53.7278C74.4318 54.334 73.5807 54.405 72.7788 53.8977C72.709 53.1975 72.7008 52.5236 72.7592 51.7573C75.3814 49.113 77.9411 46.5652 80.4906 44.0071C81.2675 43.2275 81.2627 42.5157 80.5276 41.692C80.3926 41.5408 80.2793 41.3704 80.1202 41.1637C78.7144 39.7399 77.3382 38.3674 75.9769 36.9804C74.9915 35.9763 74.0259 34.9529 73.0514 33.9381C73.657 33.3032 74.2626 32.6683 74.921 32.01Z" fill="#656565"/>
  <path d="M61.3687 86.8933C61.3079 83.1491 61.3079 79.4069 61.3079 75.5394C65.0975 75.5394 68.8033 75.5394 72.5908 75.533C72.579 75.665 72.5052 75.8231 72.3892 75.9391C68.7385 79.5938 65.0837 83.2443 61.3687 86.8933Z" fill="#A8A8A8"/>
  <path d="M73.0034 33.9546C74.0258 34.9529 74.9915 35.9763 75.9769 36.9804C77.3382 38.3674 78.7144 39.7399 80.0619 41.1814C79.0209 42.2485 78.0022 43.2527 76.9304 44.2291C74.5308 41.8771 72.1843 39.5529 69.8378 37.2287C70.7761 36.2249 71.7144 35.2212 72.6788 34.163C72.7885 34.0627 72.8719 34.0169 73.0034 33.9546Z" fill="#A1D2F6"/>
  <path d="M69.7816 37.2585C72.1843 39.5529 74.5308 41.8771 76.9055 44.2848C75.5127 45.7965 74.0916 47.2248 72.6704 48.653C71.1155 50.1769 69.5565 51.6965 68.007 53.2259C66.7485 54.468 65.5015 55.7219 64.1522 56.9771C61.7255 54.6393 59.3958 52.2949 57.0662 49.9505C57.483 49.5155 57.8999 49.0805 58.389 48.561C59.2462 47.6758 60.0311 46.875 60.816 46.0741C62.2524 44.6679 63.693 43.2659 65.1241 41.8544C66.6625 40.3371 68.192 38.8108 69.7816 37.2585Z" fill="#3598E8"/>
  <path d="M57.0092 49.9692C59.3958 52.2949 61.7255 54.6393 64.1054 57.0121C64.1467 57.0684 64.1458 57.1048 64.1273 57.1234C60.3512 60.8906 56.5739 64.6566 52.7203 68.3676C50.7783 66.4264 48.9177 64.5351 47.0434 62.6576C46.6105 62.224 46.1304 61.8376 45.672 61.4295C46.2527 60.7834 46.8186 60.1232 47.4177 59.4946C48.166 58.7095 48.9416 57.9504 49.785 57.1004C50.6667 56.2 51.4688 55.3794 52.2709 54.5588C53.8313 53.0352 55.3918 51.5116 57.0092 49.9692Z" fill="#A3D4F7"/>
  <path d="M60.7695 46.0184C60.031 46.875 59.2461 47.6758 58.4132 48.5039C46.2914 48.528 34.2176 48.5249 22.1438 48.5207C21.8482 48.5206 21.5468 48.5426 21.2581 48.4943C20.5429 48.3745 20.0444 47.7526 20.0914 47.0417C20.1407 46.2971 20.5615 45.8475 21.2848 45.7009C21.5131 45.6546 21.7565 45.6785 21.993 45.6785C34.4812 45.6777 46.9693 45.675 59.4575 45.6898C59.8794 45.6903 60.3012 45.8677 60.7695 46.0184Z" fill="#A7A7A7"/>
  <path d="M26.1116 34.3034C25.0245 34.3034 24.0238 34.3034 22.9765 34.3034C22.9765 35.2514 22.9765 36.1292 22.9765 37.146C24.0645 37.146 25.1757 37.145 26.2868 37.1465C26.6422 37.147 27.0045 37.1107 27.3515 37.1665C28.1195 37.29 28.5859 37.762 28.5978 38.5477C28.6097 39.3348 28.1544 39.9215 27.392 39.9491C25.3806 40.022 23.3638 40.018 21.3516 39.9589C20.5844 39.9364 20.1013 39.3783 20.0973 38.594C20.0773 34.773 20.0742 30.9518 20.1011 27.1309C20.1069 26.3075 20.6985 25.7908 21.564 25.78C23.4298 25.7569 25.2964 25.7552 27.1622 25.7814C28.0118 25.7933 28.5904 26.3876 28.6089 27.1594C28.6283 27.9666 28.0333 28.5881 27.14 28.6065C25.7801 28.6346 24.4191 28.6139 22.9937 28.6139C22.9937 29.5498 22.9937 30.4487 22.9937 31.4603C24.3652 31.4603 25.7464 31.4433 27.1269 31.4666C27.953 31.4806 28.5362 31.9913 28.5972 32.7234C28.6592 33.4667 28.3135 34.015 27.6065 34.2137C27.1636 34.3382 26.6692 34.2798 26.1116 34.3034Z" fill="#666666"/>
  <path d="M44.4155 65.6012C37.0169 65.5954 29.6183 65.5897 22.2198 65.5837C21.9535 65.5835 21.6853 65.6 21.4212 65.575C20.6336 65.5004 20.097 64.9301 20.0875 64.1796C20.0779 63.4281 20.608 62.8411 21.385 62.7485C21.502 62.7346 21.6215 62.7405 21.7399 62.7406C29.4936 62.7439 37.2474 62.7475 45.0824 62.8344C44.9142 63.8122 44.6648 64.7067 44.4155 65.6012Z" fill="#A7A7A7"/>
  <path d="M62.5576 28.6149C62.9711 28.6149 63.2967 28.6145 63.6223 28.615C64.9272 28.6172 65.5666 29.0748 65.5802 30.016C65.594 30.9638 64.9406 31.4581 63.6637 31.4588C60.9703 31.4603 58.2769 31.4594 55.5834 31.4593C52.3277 31.4592 49.0719 31.4667 45.8161 31.4541C44.8513 31.4503 44.2445 30.8604 44.2591 30.0121C44.2731 29.1951 44.8584 28.6549 45.7766 28.6169C45.9834 28.6084 46.1909 28.615 46.3981 28.615C51.7553 28.6149 57.1125 28.6149 62.5576 28.6149Z" fill="#A7A7A7"/>
  <path d="M50.4583 39.8871C50.2163 39.9421 50.0414 39.9865 49.8664 39.9867C44.2691 39.9905 38.6717 39.9938 33.0744 39.9869C32.0822 39.9856 31.4793 39.4435 31.4622 38.5971C31.4444 37.7176 32.0664 37.1506 33.105 37.1494C38.6431 37.1431 44.1813 37.1507 49.7194 37.1416C50.4876 37.1404 51.0747 37.4072 51.2956 38.1636C51.5138 38.9111 51.2317 39.4962 50.4583 39.8871Z" fill="#A7A7A7"/>
  <path d="M46.7441 20.0837C49.171 20.0837 51.509 20.0809 53.847 20.085C54.9852 20.087 55.6141 20.588 55.6271 21.4848C55.6403 22.3899 55.0069 22.9255 53.8884 22.9263C48.4133 22.93 42.9382 22.9301 37.4632 22.9262C36.3467 22.9255 35.7129 22.3871 35.7278 21.4818C35.7426 20.5849 36.37 20.0864 37.5104 20.085C40.5587 20.0813 43.607 20.0837 46.7441 20.0837Z" fill="#A7A7A7"/>
  <path d="M30.0371 57.0531C27.2849 57.0531 24.6215 57.0545 21.9581 57.0524C20.7377 57.0514 20.1022 56.573 20.0872 55.6538C20.072 54.7236 20.7133 54.2103 21.9114 54.2097C26.9127 54.2075 31.9141 54.1875 36.9147 54.2422C37.4121 54.2477 38.0711 54.6033 38.3464 55.0069C38.5685 55.3327 38.494 56.1014 38.2406 56.4438C37.9822 56.7929 37.3487 57.0145 36.8725 57.0269C34.625 57.0854 32.3751 57.053 30.0371 57.0531Z" fill="#A7A7A7"/>
  <path d="M44.4152 65.6679C44.6648 64.7069 44.9142 63.8125 45.1662 62.8486C45.3184 62.3711 45.468 61.963 45.6448 61.4922C46.1304 61.8377 46.6105 62.224 47.0434 62.6576C48.9177 64.5351 50.7783 66.4264 52.6626 68.3734C49.4454 69.3735 46.2093 70.3129 42.8276 71.2945C43.3874 69.3336 43.9012 67.534 44.4152 65.6679Z" fill="#676868"/>
  <path d="M52.2205 54.5109C51.4688 55.3793 50.6667 56.1999 49.8104 57.0486C47.5658 57.0687 45.3755 57.0627 43.1852 57.0521C42.0482 57.0466 41.4219 56.543 41.4153 55.6405C41.4088 54.7361 42.0391 54.2124 43.1648 54.2103C45.7995 54.2053 48.4343 54.1989 51.0688 54.22C51.4366 54.223 51.8031 54.3783 52.2205 54.5109Z" fill="#A7A7A7"/>
  <path d="M33.9621 28.6147C35.9417 28.6148 37.8348 28.609 39.7279 28.6172C40.7843 28.6218 41.4015 29.1502 41.4087 30.0253C41.4158 30.9019 40.7949 31.4524 39.7511 31.4567C37.5622 31.4658 35.3732 31.4639 33.1843 31.4577C32.0789 31.4545 31.4401 30.9051 31.4619 30.0017C31.4829 29.1328 32.1003 28.6296 33.1657 28.6153C33.4023 28.6121 33.6389 28.6148 33.9621 28.6147Z" fill="#A8A8A8"/>
  <path d="M59.714 39.9911C58.3544 39.991 57.0827 40.0013 55.8113 39.9874C54.8268 39.9767 54.2238 39.4345 54.2117 38.5884C54.1996 37.7401 54.8047 37.1592 55.7705 37.1508C57.5742 37.135 59.3783 37.1349 61.182 37.1509C62.1453 37.1594 62.7516 37.745 62.7369 38.5928C62.7228 39.4087 62.1373 39.9557 61.2213 39.9875C60.7488 40.0038 60.2751 39.9908 59.714 39.9911Z" fill="#A8A8A8"/>
</svg>