<svg width="106" height="64" viewBox="0 0 106 64" fill="none" xmlns="http://www.w3.org/2000/svg">
<g filter="url(#filter0_d_0_1)">
<path fill-rule="evenodd" clip-rule="evenodd" d="M27.5 10C18.9396 10 12 16.9396 12 25.5C12 34.0604 18.9396 41 27.5 41H49.4173L53.5 50L57.5827 41H78.5C87.0604 41 94 34.0604 94 25.5C94 16.9396 87.0604 10 78.5 10H27.5Z" fill="white"/>
</g>
<path d="M52.6719 20.6484C52.6719 21.2956 52.8792 21.9245 53.2939 22.5352C53.7132 23.1458 54.2669 23.6676 54.9551 24.1006C55.6432 24.529 56.377 24.8138 57.1562 24.9551L56.5547 26.0352C55.903 25.8939 55.2786 25.6615 54.6816 25.3379C54.0846 25.0143 53.5514 24.6201 53.082 24.1553C52.6172 23.6859 52.2549 23.1686 51.9951 22.6035C51.7308 23.1641 51.3662 23.679 50.9014 24.1484C50.4411 24.6133 49.9124 25.0075 49.3154 25.3311C48.7184 25.6546 48.0918 25.8893 47.4355 26.0352L46.8613 24.9551C47.6315 24.8092 48.3584 24.5221 49.042 24.0938C49.7256 23.6608 50.2725 23.1413 50.6826 22.5352C51.0973 21.9245 51.3047 21.2956 51.3047 20.6484V19.7188H52.6719V20.6484ZM57.6621 29.5488H46.4512V28.4688H57.6621V29.5488ZM68.7637 31.1895H67.4785V24.5039H65.0449V23.4375H67.4785V18.9121H68.7637V31.1895ZM64.8398 21.0586H60.4238V23.4375H64.3203V24.4766H60.4238V27.2109C61.5586 27.2064 62.502 27.1813 63.2539 27.1357C64.0059 27.0902 64.7624 27.0013 65.5234 26.8691L65.6602 27.9219C64.8171 28.0586 63.9762 28.152 63.1377 28.2021C62.3037 28.2523 61.2806 28.2819 60.0684 28.291H59.1113V20.0059H64.8398V21.0586ZM80.7949 31.1895H79.4961V18.9121H80.7949V31.1895ZM77.2949 21.127H72.7422V27.0742C73.9954 27.0697 75.0254 27.0423 75.832 26.9922C76.6432 26.9421 77.459 26.8418 78.2793 26.6914L78.416 27.7715C77.5319 27.931 76.6455 28.0404 75.7568 28.0996C74.8727 28.1543 73.7676 28.1816 72.4414 28.1816H71.4297V20.0469H77.2949V21.127Z" fill="#181F29"/>
<g clip-path="url(#clip0_0_1)">
<path d="M36.1268 33.1872C35.4533 33.1886 34.7798 33.191 34.1063 33.1911C31.6637 33.1916 29.2212 33.1913 26.7787 33.1913C26.7149 33.1913 26.6511 33.1913 26.5662 33.1913C26.5662 32.6365 26.5662 32.0885 26.5658 31.5075C26.5654 27.1767 26.5654 22.8788 26.5654 18.5663C26.6613 18.5663 26.7306 18.5663 26.7999 18.5663C28.9501 18.5663 31.1004 18.5667 33.2507 18.5662C34.399 18.5659 35.5473 18.5641 36.6957 18.563C37.2507 18.563 37.8057 18.563 38.3791 18.563C38.3791 19.9554 38.3791 21.3348 38.375 22.7412C38.1852 22.9667 37.9997 23.1653 37.8029 23.3697C37.4885 23.6767 37.186 23.9786 36.8817 24.2788C36.5986 24.558 36.3136 24.8353 36.0203 25.1024C35.9277 25.0726 35.8443 25.0375 35.7608 25.0374C33.2906 25.0345 30.8204 25.035 28.3503 25.0352C28.3035 25.0352 28.2553 25.0305 28.2102 25.0396C28.0671 25.0686 27.9839 25.1576 27.9741 25.3048C27.9648 25.4455 28.0634 25.5685 28.2049 25.5922C28.262 25.6017 28.3216 25.5974 28.3801 25.5974C30.7683 25.5982 33.1565 25.5988 35.54 25.6108C35.4527 25.7081 35.3703 25.7942 35.2765 25.8839C34.9566 26.189 34.6479 26.4904 34.3293 26.7823C34.2468 26.7561 34.1743 26.7253 34.1015 26.7248C33.5804 26.7206 33.0592 26.7219 32.5381 26.7228C32.3154 26.7232 32.1907 26.8268 32.192 27.0057C32.1933 27.1843 32.3172 27.2839 32.5421 27.2849C32.9754 27.2871 33.4086 27.2882 33.8368 27.3C33.6807 27.4626 33.5273 27.6128 33.3793 27.7681C33.2608 27.8924 33.1489 28.023 33.0286 28.1632C32.9937 28.2563 32.9641 28.337 32.9179 28.415C31.3676 28.4115 29.8339 28.4108 28.3002 28.4101C28.2768 28.4101 28.2531 28.409 28.23 28.4117C28.0763 28.43 27.9714 28.5461 27.9733 28.6948C27.9752 28.8432 28.0814 28.9561 28.2371 28.9708C28.2894 28.9758 28.3424 28.9725 28.3951 28.9725C29.8586 28.9737 31.322 28.9748 32.7854 28.9891C32.6838 29.3583 32.5821 29.7142 32.4714 30.1021C33.1403 29.9079 33.7804 29.7221 34.4319 29.5352C35.1904 28.7891 35.9376 28.0442 36.6845 27.299C36.6882 27.2953 36.6883 27.2882 36.6994 27.2757C36.9563 27.0218 37.203 26.7738 37.4519 26.5281C37.7584 26.2256 38.0668 25.925 38.3765 25.6408C38.3802 25.8476 38.3819 26.0373 38.3812 26.2414C38.3804 26.3892 38.382 26.5225 38.3836 26.6558C38.3819 28.0728 38.3803 29.4897 38.3605 30.9243C37.6094 30.9418 36.8764 30.9418 36.1268 30.9418C36.1268 31.7068 36.1268 32.447 36.1268 33.1872ZM29.182 22.7852C29.2752 22.7805 29.373 22.7921 29.4606 22.7674C29.6005 22.7281 29.6688 22.6197 29.6566 22.4726C29.6445 22.3278 29.5292 22.2268 29.3657 22.2241C29.0927 22.2194 28.8195 22.2228 28.5482 22.2228C28.5482 22.0227 28.5482 21.8449 28.5482 21.6598C28.8301 21.6598 29.0993 21.6639 29.3683 21.6583C29.545 21.6547 29.6627 21.5317 29.6589 21.3721C29.6552 21.2194 29.5408 21.1018 29.3727 21.0995C29.0037 21.0943 28.6345 21.0947 28.2654 21.0992C28.0942 21.1014 27.9772 21.2036 27.976 21.3664C27.9707 22.1222 27.9713 22.8781 27.9753 23.6339C27.9761 23.789 28.0716 23.8994 28.2234 23.9038C28.6214 23.9155 29.0203 23.9163 29.4182 23.9019C29.569 23.8964 29.659 23.7804 29.6567 23.6247C29.6543 23.4693 29.5621 23.3759 29.4102 23.3515C29.3415 23.3405 29.2699 23.3476 29.1996 23.3475C28.9798 23.3473 28.76 23.3474 28.5448 23.3474C28.5448 23.1463 28.5448 22.9727 28.5448 22.7852C28.7519 22.7852 28.9499 22.7852 29.182 22.7852ZM36.3566 21.66C35.297 21.66 34.2373 21.66 33.1776 21.66C33.1366 21.66 33.0956 21.6587 33.0547 21.6604C32.8731 21.6679 32.7573 21.7748 32.7545 21.9364C32.7517 22.1042 32.8717 22.2209 33.0625 22.2216C33.7065 22.2241 34.3505 22.2226 34.9945 22.2226C35.5273 22.2226 36.06 22.2228 36.5928 22.2225C36.8454 22.2224 36.9746 22.1246 36.9719 21.9371C36.9692 21.751 36.8427 21.6605 36.5846 21.66C36.5202 21.6599 36.4558 21.66 36.3566 21.66ZM33.994 23.8835C34.1337 23.8123 34.1895 23.6966 34.1464 23.5487C34.1027 23.3991 33.9866 23.3463 33.8346 23.3466C32.7391 23.3484 31.6437 23.3469 30.5482 23.3481C30.3428 23.3484 30.2198 23.4605 30.2233 23.6345C30.2267 23.8019 30.3459 23.9091 30.5422 23.9094C31.6493 23.9108 32.7565 23.9101 33.8637 23.9093C33.8983 23.9093 33.9329 23.9005 33.994 23.8835ZM33.2285 19.9725C32.6255 19.9725 32.0226 19.972 31.4196 19.9728C31.1941 19.973 31.07 20.0716 31.067 20.2491C31.0641 20.4281 31.1894 20.5346 31.4103 20.5348C32.4933 20.5355 33.5762 20.5355 34.6592 20.5348C34.8805 20.5346 35.0058 20.4287 35.0032 20.2496C35.0006 20.0722 34.8762 19.9732 34.651 19.9728C34.1886 19.9719 33.7261 19.9725 33.2285 19.9725ZM29.959 27.2851C30.4038 27.2851 30.8489 27.2915 31.2935 27.2799C31.3876 27.2775 31.5129 27.2337 31.5641 27.1646C31.6142 27.0969 31.6289 26.9448 31.585 26.8804C31.5305 26.8005 31.4002 26.7302 31.3018 26.7291C30.3127 26.7183 29.3234 26.7223 28.3341 26.7227C28.0971 26.7228 27.9703 26.8243 27.9733 27.0083C27.9762 27.1902 28.1019 27.2848 28.3434 27.285C28.8702 27.2854 29.397 27.2851 29.959 27.2851ZM30.7007 21.6599C30.6538 21.66 30.607 21.6594 30.5602 21.6601C30.3495 21.6629 30.2274 21.7624 30.2232 21.9343C30.2189 22.113 30.3453 22.2217 30.5639 22.2223C30.9969 22.2235 31.4299 22.2239 31.8628 22.2221C32.0693 22.2212 32.1921 22.1124 32.1907 21.939C32.1893 21.7659 32.0672 21.6613 31.8583 21.6604C31.4838 21.6588 31.1093 21.66 30.7007 21.6599ZM35.829 23.9102C35.9225 23.9102 36.0162 23.9127 36.1097 23.9095C36.2909 23.9032 36.4067 23.795 36.4095 23.6336C36.4124 23.4659 36.2925 23.3501 36.1019 23.3484C35.7451 23.3452 35.3883 23.3453 35.0315 23.3484C34.8405 23.3501 34.7208 23.465 34.7232 23.6328C34.7256 23.8001 34.8449 23.9074 35.0396 23.9095C35.2911 23.9122 35.5426 23.9102 35.829 23.9102Z" fill="#F7FBFE"/>
<path d="M36.6938 18.5467C35.5473 18.564 34.399 18.5658 33.2506 18.5661C31.1004 18.5666 28.9501 18.5662 26.7998 18.5662C26.7305 18.5662 26.6613 18.5662 26.5654 18.5662C26.5654 22.8787 26.5654 27.1767 26.5642 31.4913C26.008 31.508 25.4529 31.508 24.8884 31.508C24.8884 26.6275 24.8884 21.764 24.8884 16.8896C28.8153 16.8896 32.7416 16.8896 36.6919 16.8896C36.6919 17.4348 36.6919 17.9827 36.6938 18.5467Z" fill="#A7A7A7"/>
<path d="M38.8301 22.3271C39.068 22.0854 39.2919 21.8273 39.548 21.6068C39.7958 21.3935 40.116 21.3656 40.3985 21.5016C40.7172 21.6549 40.9896 21.8978 41.0964 22.2552C41.1896 22.567 41.1394 22.8629 40.8918 23.104C40.6862 23.3041 40.4855 23.509 40.2658 23.7208C39.7761 23.2623 39.3031 22.7947 38.8301 22.3271Z" fill="#3397E7"/>
<path d="M38.8196 22.3315C39.303 22.7945 39.776 23.2621 40.2605 23.7314C40.3538 23.8237 40.4462 23.907 40.5153 24.0065C40.6991 24.2712 40.6625 24.8374 40.3977 25.0839C39.8635 25.5812 39.3597 26.1113 38.8429 26.6274C38.7228 26.7473 38.5545 26.7613 38.3958 26.661C38.382 26.5225 38.3804 26.3892 38.3919 26.2376C38.9106 25.7146 39.417 25.2106 39.9212 24.7046C40.0749 24.5504 40.074 24.4096 39.9286 24.2467C39.9019 24.2168 39.8795 24.183 39.848 24.1422C39.5699 23.8605 39.2977 23.5891 39.0284 23.3147C38.8335 23.1161 38.6425 22.9136 38.4498 22.7129C38.5695 22.5873 38.6893 22.4617 38.8196 22.3315Z" fill="#656565"/>
<path d="M36.1387 33.1875C36.1267 32.4469 36.1267 31.7067 36.1267 30.9417C36.8763 30.9417 37.6093 30.9417 38.3585 30.9404C38.3562 30.9665 38.3416 30.9978 38.3186 31.0208C37.5965 31.7437 36.8736 32.4657 36.1387 33.1875Z" fill="#A8A8A8"/>
<path d="M38.4401 22.7163C38.6424 22.9138 38.8334 23.1162 39.0283 23.3148C39.2976 23.5892 39.5698 23.8607 39.8363 24.1458C39.6304 24.3569 39.4289 24.5555 39.2169 24.7486C38.7422 24.2834 38.2781 23.8237 37.814 23.3639C37.9996 23.1654 38.1851 22.9668 38.3759 22.7575C38.3976 22.7377 38.4141 22.7286 38.4401 22.7163Z" fill="#A1D2F6"/>
<path d="M37.803 23.3696C38.2782 23.8235 38.7424 24.2832 39.2121 24.7594C38.9366 25.0585 38.6555 25.341 38.3744 25.6235C38.0668 25.9249 37.7585 26.2255 37.452 26.528C37.203 26.7737 36.9564 27.0217 36.6895 27.27C36.2095 26.8076 35.7486 26.3439 35.2878 25.8801C35.3703 25.7941 35.4527 25.708 35.5495 25.6053C35.719 25.4302 35.8743 25.2718 36.0296 25.1134C36.3137 24.8352 36.5986 24.5579 36.8817 24.2787C37.186 23.9786 37.4886 23.6767 37.803 23.3696Z" fill="#3598E8"/>
<path d="M35.2765 25.8838C35.7485 26.3438 36.2094 26.8075 36.6801 27.2769C36.6883 27.288 36.6881 27.2952 36.6844 27.2989C35.9375 28.0441 35.1904 28.789 34.4281 29.523C34.044 29.139 33.676 28.7649 33.3052 28.3936C33.2196 28.3078 33.1246 28.2314 33.0339 28.1507C33.1488 28.0228 33.2607 27.8923 33.3793 27.7679C33.5273 27.6126 33.6807 27.4625 33.8475 27.2943C34.0219 27.1163 34.1806 26.9539 34.3392 26.7916C34.6479 26.4902 34.9565 26.1889 35.2765 25.8838Z" fill="#A3D4F7"/>
<path d="M36.0204 25.1026C35.8744 25.2721 35.7191 25.4305 35.5544 25.5943C33.1566 25.599 30.7684 25.5984 28.3802 25.5976C28.3217 25.5976 28.2621 25.6019 28.205 25.5924C28.0635 25.5687 27.9649 25.4457 27.9742 25.305C27.984 25.1578 28.0672 25.0688 28.2103 25.0398C28.2554 25.0307 28.3036 25.0354 28.3504 25.0354C30.8206 25.0352 33.2907 25.0347 35.7609 25.0376C35.8444 25.0377 35.9278 25.0728 36.0204 25.1026Z" fill="#A7A7A7"/>
<path d="M29.1649 22.7852C28.9499 22.7852 28.7519 22.7852 28.5448 22.7852C28.5448 22.9727 28.5448 23.1463 28.5448 23.3474C28.76 23.3474 28.9798 23.3473 29.1996 23.3475C29.2699 23.3476 29.3415 23.3405 29.4102 23.3515C29.5621 23.3759 29.6543 23.4693 29.6567 23.6247C29.659 23.7804 29.569 23.8964 29.4182 23.9019C29.0203 23.9163 28.6214 23.9155 28.2234 23.9038C28.0716 23.8994 27.9761 23.789 27.9753 23.6339C27.9713 22.8781 27.9707 22.1222 27.976 21.3664C27.9772 21.2036 28.0942 21.1014 28.2654 21.0992C28.6344 21.0946 29.0037 21.0943 29.3727 21.0995C29.5408 21.1018 29.6552 21.2194 29.6589 21.3721C29.6627 21.5317 29.545 21.6547 29.3683 21.6583C29.0993 21.6639 28.8301 21.6598 28.5482 21.6598C28.5482 21.8449 28.5482 22.0227 28.5482 22.2228C28.8195 22.2228 29.0927 22.2194 29.3657 22.2241C29.5291 22.2268 29.6445 22.3278 29.6566 22.4726C29.6688 22.6197 29.6005 22.7281 29.4606 22.7674C29.373 22.792 29.2752 22.7805 29.1649 22.7852Z" fill="#666666"/>
<path d="M32.7855 28.9762C31.3221 28.9751 29.8586 28.974 28.3952 28.9728C28.3425 28.9727 28.2895 28.976 28.2372 28.9711C28.0814 28.9563 27.9753 28.8435 27.9734 28.6951C27.9715 28.5464 28.0764 28.4303 28.2301 28.412C28.2532 28.4092 28.2769 28.4104 28.3003 28.4104C29.834 28.4111 31.3677 28.4118 32.9175 28.429C32.8842 28.6224 32.8349 28.7993 32.7855 28.9762Z" fill="#A7A7A7"/>
<path d="M36.3739 21.6601C36.4557 21.6601 36.5201 21.6601 36.5845 21.6602C36.8426 21.6606 36.9691 21.7511 36.9718 21.9373C36.9745 22.1248 36.8453 22.2225 36.5927 22.2227C36.06 22.223 35.5272 22.2228 34.9944 22.2228C34.3504 22.2227 33.7064 22.2242 33.0624 22.2217C32.8716 22.221 32.7516 22.1043 32.7544 21.9365C32.7572 21.7749 32.873 21.668 33.0546 21.6605C33.0955 21.6588 33.1366 21.6601 33.1775 21.6601C34.2372 21.6601 35.2969 21.6601 36.3739 21.6601Z" fill="#A7A7A7"/>
<path d="M33.9807 23.8898C33.9328 23.9006 33.8982 23.9094 33.8636 23.9094C32.7564 23.9102 31.6493 23.9109 30.5421 23.9095C30.3459 23.9092 30.2266 23.802 30.2232 23.6346C30.2197 23.4606 30.3427 23.3485 30.5482 23.3482C31.6436 23.347 32.7391 23.3485 33.8345 23.3467C33.9865 23.3464 34.1026 23.3992 34.1463 23.5488C34.1895 23.6967 34.1337 23.8124 33.9807 23.8898Z" fill="#A7A7A7"/>
<path d="M33.246 19.9724C33.726 19.9724 34.1885 19.9718 34.651 19.9726C34.8761 19.973 35.0005 20.0721 35.0031 20.2495C35.0057 20.4285 34.8804 20.5345 34.6591 20.5346C33.5762 20.5354 32.4932 20.5354 31.4102 20.5346C31.1894 20.5345 31.064 20.428 31.0669 20.2489C31.0699 20.0715 31.194 19.9729 31.4195 19.9726C32.0225 19.9719 32.6255 19.9724 33.246 19.9724Z" fill="#A7A7A7"/>
<path d="M29.9413 27.2852C29.3969 27.2852 28.8701 27.2855 28.3433 27.285C28.1019 27.2848 27.9762 27.1902 27.9732 27.0084C27.9702 26.8244 28.097 26.7228 28.334 26.7227C29.3233 26.7223 30.3126 26.7183 31.3017 26.7292C31.4001 26.7302 31.5304 26.8006 31.5849 26.8804C31.6288 26.9449 31.6141 27.0969 31.564 27.1646C31.5129 27.2337 31.3876 27.2775 31.2934 27.28C30.8488 27.2916 30.4038 27.2852 29.9413 27.2852Z" fill="#A7A7A7"/>
<path d="M32.7855 28.9891C32.8348 28.799 32.8842 28.622 32.934 28.4314C32.9641 28.3369 32.9937 28.2562 33.0287 28.1631C33.1247 28.2314 33.2197 28.3078 33.3053 28.3936C33.6761 28.765 34.0441 29.1391 34.4168 29.5242C33.7805 29.722 33.1404 29.9078 32.4714 30.102C32.5822 29.7141 32.6838 29.3582 32.7855 28.9891Z" fill="#676868"/>
<path d="M34.3294 26.7826C34.1807 26.9544 34.0221 27.1167 33.8527 27.2846C33.4087 27.2886 32.9755 27.2874 32.5422 27.2853C32.3173 27.2842 32.1934 27.1846 32.1921 27.0061C32.1908 26.8272 32.3155 26.7236 32.5382 26.7231C33.0594 26.7222 33.5805 26.7209 34.1016 26.7251C34.1744 26.7257 34.2469 26.7564 34.3294 26.7826Z" fill="#A7A7A7"/>
<path d="M30.7178 21.6601C31.1094 21.6601 31.4838 21.6589 31.8583 21.6605C32.0672 21.6615 32.1893 21.766 32.1907 21.9391C32.1922 22.1125 32.0693 22.2213 31.8629 22.2222C31.4299 22.224 30.9969 22.2236 30.5639 22.2224C30.3453 22.2218 30.2189 22.1131 30.2233 21.9344C30.2274 21.7625 30.3495 21.663 30.5603 21.6602C30.6071 21.6595 30.6539 21.6601 30.7178 21.6601Z" fill="#A8A8A8"/>
<path d="M35.8115 23.9104C35.5426 23.9103 35.2911 23.9124 35.0396 23.9096C34.8448 23.9075 34.7256 23.8003 34.7232 23.6329C34.7208 23.4651 34.8405 23.3502 35.0315 23.3485C35.3883 23.3454 35.7451 23.3454 36.1019 23.3486C36.2925 23.3502 36.4124 23.4661 36.4095 23.6338C36.4067 23.7952 36.2909 23.9034 36.1097 23.9096C36.0162 23.9129 35.9225 23.9103 35.8115 23.9104Z" fill="#A8A8A8"/>
</g>
<defs>
<filter id="filter0_d_0_1" x="0" y="0" width="106" height="64" filterUnits="userSpaceOnUse" color-interpolation-filters="sRGB">
<feFlood flood-opacity="0" result="BackgroundImageFix"/>
<feColorMatrix in="SourceAlpha" type="matrix" values="0 0 0 0 0 0 0 0 0 0 0 0 0 0 0 0 0 0 127 0" result="hardAlpha"/>
<feOffset dy="2"/>
<feGaussianBlur stdDeviation="6"/>
<feComposite in2="hardAlpha" operator="out"/>
<feColorMatrix type="matrix" values="0 0 0 0 0 0 0 0 0 0 0 0 0 0 0 0 0 0 0.07 0"/>
<feBlend mode="normal" in2="BackgroundImageFix" result="effect1_dropShadow_0_1"/>
<feBlend mode="normal" in="SourceGraphic" in2="effect1_dropShadow_0_1" result="shape"/>
</filter>
<clipPath id="clip0_0_1">
<rect width="18" height="18" fill="white" transform="translate(24 16)"/>
</clipPath>
</defs>
</svg>
