<svg width="20" height="17" viewBox="0 0 20 17" fill="none" xmlns="http://www.w3.org/2000/svg">
<path id="Vector" d="M17.6923 2.21739H15.0269L13.7163 0.328913C13.6461 0.227792 13.551 0.144872 13.4395 0.0874997C13.328 0.0301271 13.2034 7.29937e-05 13.0769 0H6.92308C6.79657 7.29937e-05 6.67203 0.0301271 6.56049 0.0874997C6.44896 0.144872 6.35387 0.227792 6.28365 0.328913L4.97212 2.21739H2.30769C1.69565 2.21739 1.10868 2.45101 0.675907 2.86685C0.243131 3.28269 0 3.84669 0 4.43478V14.7826C0 15.3707 0.243131 15.9347 0.675907 16.3505C1.10868 16.7664 1.69565 17 2.30769 17H17.6923C18.3043 17 18.8913 16.7664 19.3241 16.3505C19.7569 15.9347 20 15.3707 20 14.7826V4.43478C20 3.84669 19.7569 3.28269 19.3241 2.86685C18.8913 2.45101 18.3043 2.21739 17.6923 2.21739ZM18.4615 14.7826C18.4615 14.9786 18.3805 15.1666 18.2362 15.3053C18.092 15.4439 17.8963 15.5217 17.6923 15.5217H2.30769C2.10368 15.5217 1.90802 15.4439 1.76376 15.3053C1.61951 15.1666 1.53846 14.9786 1.53846 14.7826V4.43478C1.53846 4.23875 1.61951 4.05075 1.76376 3.91214C1.90802 3.77352 2.10368 3.69565 2.30769 3.69565H5.38462C5.51129 3.69573 5.63602 3.66575 5.74774 3.60837C5.85946 3.55099 5.9547 3.46799 6.025 3.36674L7.33462 1.47826H12.6644L13.975 3.36674C14.0453 3.46799 14.1405 3.55099 14.2523 3.60837C14.364 3.66575 14.4887 3.69573 14.6154 3.69565H17.6923C17.8963 3.69565 18.092 3.77352 18.2362 3.91214C18.3805 4.05075 18.4615 4.23875 18.4615 4.43478V14.7826ZM10 5.17391C9.16323 5.17391 8.34526 5.41233 7.64951 5.85903C6.95376 6.30572 6.4115 6.94062 6.09128 7.68344C5.77106 8.42626 5.68728 9.24364 5.85052 10.0322C6.01377 10.8208 6.41671 11.5451 7.00839 12.1137C7.60008 12.6822 8.35393 13.0694 9.17462 13.2262C9.99531 13.3831 10.846 13.3026 11.619 12.9949C12.3921 12.6872 13.0529 12.1662 13.5178 11.4976C13.9826 10.8291 14.2308 10.0432 14.2308 9.23913C14.2295 8.16134 13.7833 7.12805 12.9902 6.36594C12.1971 5.60383 11.1217 5.17514 10 5.17391ZM10 11.8261C9.46751 11.8261 8.94698 11.6744 8.50423 11.3901C8.06149 11.1058 7.71641 10.7018 7.51263 10.2291C7.30886 9.75641 7.25554 9.23626 7.35942 8.73444C7.46331 8.23262 7.71973 7.77167 8.09625 7.40988C8.47278 7.04808 8.9525 6.8017 9.47476 6.70188C9.99701 6.60206 10.5383 6.65329 11.0303 6.84909C11.5223 7.04489 11.9427 7.37647 12.2386 7.80189C12.5344 8.22732 12.6923 8.72748 12.6923 9.23913C12.6923 9.92523 12.4087 10.5832 11.9037 11.0684C11.3988 11.5535 10.714 11.8261 10 11.8261Z" fill="#8B8D94"/>
</svg>
