<svg width="16" height="16" viewBox="0 0 16 16" fill="none" xmlns="http://www.w3.org/2000/svg">
<g clip-path="url(#clip0_894_1081)">
<path d="M8.00016 1.33334C11.6822 1.33334 14.6668 4.318 14.6668 8C14.6668 11.682 11.6822 14.6667 8.00016 14.6667C4.31816 14.6667 1.3335 11.682 1.3335 8C1.3335 4.318 4.31816 1.33334 8.00016 1.33334ZM8.00016 2.66667C6.58567 2.66667 5.22912 3.22857 4.22893 4.22877C3.22873 5.22896 2.66683 6.58551 2.66683 8C2.66683 9.41449 3.22873 10.771 4.22893 11.7712C5.22912 12.7714 6.58567 13.3333 8.00016 13.3333C9.41465 13.3333 10.7712 12.7714 11.7714 11.7712C12.7716 10.771 13.3335 9.41449 13.3335 8C13.3335 6.58551 12.7716 5.22896 11.7714 4.22877C10.7712 3.22857 9.41465 2.66667 8.00016 2.66667ZM8.00016 4C8.16345 4.00002 8.32105 4.05997 8.44308 4.16848C8.5651 4.27699 8.64306 4.4265 8.66216 4.58867L8.66683 4.66667V7.724L10.4715 9.52867C10.5911 9.64864 10.6605 9.80962 10.6656 9.97892C10.6708 10.1482 10.6114 10.3131 10.4993 10.4402C10.3873 10.5672 10.2311 10.6469 10.0625 10.6629C9.8939 10.679 9.72549 10.6303 9.5915 10.5267L9.52883 10.4713L7.52883 8.47134C7.42522 8.36763 7.35867 8.23267 7.3395 8.08734L7.3335 8V4.66667C7.3335 4.48986 7.40373 4.32029 7.52876 4.19526C7.65378 4.07024 7.82335 4 8.00016 4Z" fill="black"/>
</g>
<defs>
<clipPath id="clip0_894_1081">
<rect width="16" height="16" fill="white"/>
</clipPath>
</defs>
</svg>
