<svg width="94" height="64" viewBox="0 0 94 64" fill="none" xmlns="http://www.w3.org/2000/svg">
<g filter="url(#filter0_d_0_1)">
<path fill-rule="evenodd" clip-rule="evenodd" d="M27.5 10C18.9396 10 12 16.9396 12 25.5C12 34.0604 18.9396 41 27.5 41H42.4173L46.5 50L50.5827 41H66.5C75.0604 41 82 34.0604 82 25.5C82 16.9396 75.0604 10 66.5 10H27.5Z" fill="white"/>
</g>
<path d="M57.6484 26.1035H52.7949V28.4824H51.4824V26.1035H46.4375V25.0508H57.6484V26.1035ZM56.4043 30.9023H47.8457V27.3066H49.1445V29.8359H56.4043V30.9023ZM52.0293 19.1992C52.9043 19.1992 53.6676 19.3018 54.3193 19.5068C54.9756 19.7074 55.4814 19.9945 55.8369 20.3682C56.1969 20.7419 56.377 21.1816 56.377 21.6875C56.377 22.1934 56.1969 22.6331 55.8369 23.0068C55.4814 23.376 54.9756 23.6608 54.3193 23.8613C53.6676 24.0618 52.9043 24.1621 52.0293 24.1621C51.1589 24.1621 50.3932 24.0618 49.7324 23.8613C49.0762 23.6608 48.568 23.376 48.208 23.0068C47.848 22.6331 47.668 22.1934 47.668 21.6875C47.668 21.1816 47.848 20.7419 48.208 20.3682C48.568 19.9945 49.0762 19.7074 49.7324 19.5068C50.3932 19.3018 51.1589 19.1992 52.0293 19.1992ZM52.0293 20.2383C51.4323 20.2383 50.9082 20.2975 50.457 20.416C50.0104 20.5299 49.6641 20.6963 49.418 20.915C49.1764 21.1338 49.0579 21.3913 49.0625 21.6875C49.0579 21.9792 49.1764 22.2321 49.418 22.4463C49.6641 22.6605 50.0104 22.8245 50.457 22.9385C50.9082 23.0524 51.4323 23.1094 52.0293 23.1094C52.6309 23.1094 53.1549 23.0524 53.6016 22.9385C54.0527 22.8245 54.3991 22.6605 54.6406 22.4463C54.8867 22.2321 55.0098 21.9792 55.0098 21.6875C55.0098 21.3913 54.8867 21.1338 54.6406 20.915C54.3991 20.6963 54.0527 20.5299 53.6016 20.416C53.1504 20.2975 52.6263 20.2383 52.0293 20.2383ZM69.7344 25.9121H58.5508V24.873H63.5137V23.5742H59.9453V19.4727H68.3535V20.498H61.2305V22.5352H68.4355V23.5742H64.7715V24.873H69.7344V25.9121ZM64.1289 26.7051C65.0085 26.7051 65.7627 26.7917 66.3916 26.9648C67.0251 27.138 67.5104 27.3932 67.8477 27.7305C68.1849 28.0632 68.3535 28.4642 68.3535 28.9336C68.3535 29.403 68.1849 29.804 67.8477 30.1367C67.515 30.4694 67.0319 30.7223 66.3984 30.8955C65.765 31.0687 65.0085 31.1576 64.1289 31.1621C63.2448 31.1576 62.4837 31.0687 61.8457 30.8955C61.2122 30.7223 60.7246 30.4694 60.3828 30.1367C60.0456 29.804 59.877 29.403 59.877 28.9336C59.877 28.4642 60.0456 28.0632 60.3828 27.7305C60.7246 27.3932 61.2122 27.138 61.8457 26.9648C62.4837 26.7917 63.2448 26.7051 64.1289 26.7051ZM64.1289 27.7168C63.1901 27.7168 62.4655 27.8239 61.9551 28.0381C61.4447 28.2477 61.1895 28.5462 61.1895 28.9336C61.1895 29.3255 61.4447 29.6263 61.9551 29.8359C62.4701 30.041 63.1947 30.1413 64.1289 30.1367C65.054 30.1458 65.7718 30.0456 66.2822 29.8359C66.7972 29.6217 67.0547 29.321 67.0547 28.9336C67.0547 28.5462 66.7972 28.2477 66.2822 28.0381C65.7718 27.8239 65.054 27.7168 64.1289 27.7168Z" fill="#181F29"/>
<path d="M40.9999 28.8963C40.9791 28.9319 40.948 28.9492 40.9391 28.9743C40.7152 29.6066 40.2812 29.9915 39.6139 30.0981C39.4819 30.1192 39.3466 30.1283 39.2129 30.1284C37.1623 30.1302 35.1117 30.1361 33.0611 30.1258C32.4487 30.1227 31.8738 29.9476 31.3494 29.622C31.284 29.5813 31.214 29.5479 31.1309 29.4967C31.0597 29.4451 31.0052 29.4054 30.9474 29.3712C30.599 29.1654 30.25 28.9608 29.9155 28.7534C30.0237 28.7444 30.1176 28.7378 30.2256 28.7368C30.9948 28.7433 31.7498 28.7443 32.5192 28.7465C34.5073 28.7481 36.4811 28.7497 38.4549 28.7478C39.0187 28.7472 39.5025 28.5519 39.8927 28.1217C40.1245 27.901 40.3889 27.7964 40.7016 27.8118C40.7824 27.8158 40.8642 27.7979 40.9456 27.79C40.9588 27.8033 40.9721 27.8167 40.9926 27.8236C40.9999 28.172 40.9999 28.5268 40.9999 28.8963Z" fill="#665E66"/>
<path d="M29.9013 28.7555C30.2501 28.9605 30.5992 29.1651 30.9475 29.3709C31.0053 29.4051 31.0598 29.4448 31.1216 29.4908C30.7021 29.7806 30.2453 29.9816 29.7392 30.0682C29.0904 30.1792 28.4372 30.1135 27.7862 30.1276C27.3445 30.1371 26.9024 30.1248 26.4607 30.1305C25.8441 30.1385 25.2457 29.8021 25.0586 29.1574C25.0535 29.1398 25.0332 29.1266 25.01 29.1204C25 28.8579 25 28.5864 25 28.3003C25.026 28.2547 25.0631 28.2277 25.0758 28.192C25.1047 28.1109 25.1216 28.0256 25.1641 27.9372C25.235 27.9592 25.286 27.9848 25.3353 28.0132C25.8263 28.2961 26.3542 28.4457 26.9214 28.4568C27.0281 28.4589 27.1207 28.4376 27.1578 28.3236C27.1911 28.2213 27.1573 28.1373 27.0648 28.0842C26.5029 27.7613 25.9401 27.44 25.3775 27.1182C25.4316 26.8971 25.4851 26.6759 25.54 26.455C25.552 26.4068 25.569 26.3598 25.6008 26.3071C25.8476 26.4341 26.0769 26.5668 26.3069 26.6982C26.816 26.9889 27.3255 27.2789 27.8416 27.5778C28.0543 27.7047 28.2603 27.8229 28.4734 27.9494C28.6351 28.0449 28.7896 28.1323 28.953 28.2252C29.2751 28.4057 29.5882 28.5806 29.9013 28.7555Z" fill="#4073C8"/>
<path d="M26.1134 23.7213C25.8192 23.4129 25.6991 23.0441 25.7168 22.621C25.7273 22.3714 25.7138 22.1209 25.7223 21.8712C25.7243 21.8108 25.7613 21.7105 25.7992 21.7017C25.8625 21.6871 25.9612 21.7093 26.0072 21.7544C26.3302 22.0718 26.6528 22.3858 27.0413 22.6278C27.5395 22.9381 28.0743 23.149 28.6497 23.2522C28.9158 23.2998 29.188 23.3477 29.4562 23.3416C29.8835 23.3318 30.3122 23.2937 30.7491 23.161C31.1076 23.0237 31.4533 22.9088 31.7728 22.7434C32.1175 22.5649 32.4618 22.4642 32.8409 22.5506C31.6884 23.7048 30.5426 24.8513 29.3964 25.9974C29.3709 26.0229 29.3415 26.0445 29.3058 26.0609C28.178 25.4398 27.1543 24.696 26.2412 23.8015C26.2061 23.7671 26.1563 23.7477 26.1134 23.7213Z" fill="#F5626F"/>
<path d="M36.062 25.124C36.4979 25.3127 36.9319 25.5058 37.3701 25.6889C37.9571 25.9343 38.5474 26.1719 39.1361 26.4132C39.1777 26.4302 39.218 26.4502 39.274 26.4794C39.2954 26.4977 39.3036 26.5024 39.3134 26.5042C39.3134 26.5042 39.3123 26.5044 39.3134 26.5149C39.3673 26.6086 39.4211 26.6912 39.4728 26.775C39.6056 26.9902 39.5343 27.1388 39.285 27.1618C39.0378 27.1847 38.8319 27.2893 38.6379 27.4425C38.4151 27.6186 38.1748 27.7726 37.9306 27.9385C37.9035 27.943 37.888 27.9453 37.8592 27.9454C36.461 27.8119 35.0761 27.6804 33.6956 27.5406C33.7373 27.4896 33.7723 27.4446 33.8122 27.4046C34.52 26.6959 35.2286 25.9881 35.9359 25.2789C35.9827 25.232 36.0202 25.1759 36.062 25.124Z" fill="#F5626F"/>
<path d="M29.314 26.0677C29.3416 26.0443 29.3709 26.0226 29.3964 25.9971C30.5426 24.851 31.6884 23.7045 32.8521 22.5498C33.01 22.586 33.1501 22.6305 33.2902 22.675C33.2902 22.675 33.2972 22.6749 33.294 22.6884C33.3206 22.7209 33.3504 22.7398 33.3802 22.7587C33.4452 22.8195 33.5103 22.8803 33.5832 22.9548C33.4227 23.1427 33.2561 23.3186 33.0858 23.4909C32.8358 23.744 32.8171 23.8455 32.9682 24.1682C32.1937 24.9511 31.4227 25.7236 30.6531 26.4975C30.6067 26.5442 30.5706 26.6013 30.5201 26.6578C30.0483 27.1198 29.5862 27.5775 29.1163 28.039C29.0932 28.0509 29.0779 28.059 29.0513 28.0625C28.8487 28.0191 28.6575 27.9802 28.4662 27.9414C28.2603 27.8231 28.0543 27.7049 27.8486 27.5696C27.9729 27.4269 28.0969 27.3013 28.2209 27.1757C28.5853 26.8064 28.9496 26.437 29.314 26.0677Z" fill="#C6C1C8"/>
<path d="M29.3058 26.0608C28.9496 26.4372 28.5852 26.8065 28.2208 27.1758C28.0969 27.3015 27.9729 27.427 27.8418 27.5611C27.3255 27.2792 26.816 26.9892 26.3068 26.6985C26.0768 26.5671 25.8475 26.4345 25.6088 26.2987C25.5441 25.4539 25.6703 24.6498 26.0816 23.9023C26.1071 23.8559 26.1109 23.7975 26.1191 23.7329C26.1563 23.7476 26.2061 23.767 26.2412 23.8014C27.1542 24.6958 28.178 25.4397 29.3058 26.0608Z" fill="#F1F1F4"/>
<path d="M36.0564 25.1153C36.0203 25.1762 35.9828 25.2324 35.936 25.2793C35.2287 25.9884 34.52 26.6963 33.8123 27.405C33.7723 27.445 33.7373 27.4899 33.6873 27.5486C33.5025 27.7326 33.3306 27.9007 33.1507 28.0722C33.1273 28.0833 33.1118 28.091 33.0814 28.0986C32.3158 28.0988 31.565 28.0991 30.8196 28.0905C31.1441 27.7565 31.4632 27.4313 31.7925 27.1025C31.8491 27.0578 31.8978 27.0191 31.9416 26.9754C32.5401 26.3778 33.1377 25.7792 33.7364 25.1818C33.8427 25.0757 33.9532 24.974 34.0614 24.8832C34.0195 25.1398 34.0863 25.3038 34.2665 25.4006C34.4343 25.4907 34.6072 25.4489 34.7822 25.2756C34.8338 25.2245 34.8836 25.1716 34.9365 25.1219C35.0905 24.9774 35.2456 24.8342 35.4003 24.6904C35.6171 24.829 35.8339 24.9676 36.0564 25.1153Z" fill="#C6C1C8"/>
<path d="M34.0614 24.8701C33.9529 24.9739 33.8424 25.0757 33.7361 25.1817C33.1374 25.7791 32.5399 26.3777 31.9413 26.9753C31.8975 27.019 31.8488 27.0578 31.7808 27.098C31.3494 26.9493 30.9394 26.8014 30.5295 26.6535C30.5704 26.6013 30.6065 26.5442 30.6529 26.4975C31.4226 25.7237 32.1935 24.9511 32.9784 24.1716C33.2481 24.3305 33.4008 24.3147 33.6172 24.1052C33.8146 23.914 34.0145 23.7254 34.2134 23.5356C34.3962 23.722 34.579 23.9083 34.7694 24.1092C34.7395 24.1659 34.7037 24.2095 34.6645 24.2499C34.464 24.4571 34.2625 24.6635 34.0614 24.8701Z" fill="#F56470"/>
<path d="M33.2883 22.6653C33.1503 22.6306 33.0103 22.5861 32.859 22.542C32.4621 22.4639 32.1177 22.5646 31.773 22.7431C31.4535 22.9086 31.1079 23.0235 30.7617 23.1586C30.7498 22.9332 30.7509 22.7098 30.75 22.4864C30.7478 21.9261 30.9807 21.4699 31.373 21.086C31.4911 20.9706 31.6055 20.9711 31.7238 21.0891C32.246 21.6098 32.7656 22.1331 33.2883 22.6653Z" fill="#4173C8"/>
<path d="M37.9424 27.9365C38.1751 27.7729 38.4153 27.6188 38.6382 27.4428C38.8321 27.2895 39.0381 27.1849 39.2852 27.1621C39.5345 27.139 39.6058 26.9904 39.473 26.7752C39.4213 26.6914 39.3676 26.6088 39.3139 26.5146C39.5346 26.5873 39.7568 26.6696 39.9777 26.7551C40.4285 26.9297 40.7401 27.2462 40.9237 27.6911C40.9332 27.7141 40.935 27.7403 40.9431 27.7775C40.8646 27.7978 40.7827 27.8156 40.702 27.8117C40.3893 27.7962 40.1249 27.9009 39.8813 28.1153C39.2219 28.0554 38.5821 27.9959 37.9424 27.9365Z" fill="#C73E48"/>
<path d="M25.3663 27.1255C25.9398 27.4401 26.5027 27.7613 27.0646 28.0843C27.157 28.1374 27.1909 28.2214 27.1576 28.3237C27.1205 28.4377 27.0279 28.4589 26.9211 28.4569C26.354 28.4458 25.8261 28.2961 25.3351 28.0133C25.2857 27.9849 25.2348 27.9592 25.1736 27.9283C25.2268 27.6604 25.291 27.3966 25.3663 27.1255Z" fill="#D8F0F4"/>
<path d="M34.0614 24.8833C34.2628 24.6636 34.4643 24.4572 34.6649 24.25C34.704 24.2096 34.7399 24.1661 34.7794 24.1138C34.9542 23.9745 35.1359 23.9693 35.3122 24.0853C35.4874 24.2005 35.5277 24.4149 35.4064 24.6797C35.2456 24.8342 35.0905 24.9775 34.9366 25.122C34.8837 25.1716 34.8338 25.2246 34.7822 25.2757C34.6073 25.4489 34.4343 25.4908 34.2666 25.4007C34.0864 25.3039 34.0195 25.1398 34.0614 24.8833Z" fill="#F1F1F4"/>
<path d="M34.2186 23.5249C34.0147 23.7254 33.8148 23.914 33.6174 24.1052C33.401 24.3147 33.2482 24.3306 32.9824 24.1617C32.8171 23.8456 32.8358 23.7441 33.0858 23.491C33.2561 23.3187 33.4227 23.1428 33.5932 22.9583C33.7484 22.8232 34.0143 22.8053 34.1406 22.9115C34.3403 23.0795 34.3649 23.2582 34.2186 23.5249Z" fill="#F1F1F4"/>
<path d="M33.3768 22.7492C33.3505 22.7398 33.3207 22.7209 33.2944 22.6919C33.3231 22.7011 33.3482 22.7204 33.3768 22.7492Z" fill="#4173C8"/>
<path d="M39.3116 26.496C39.3034 26.5028 39.2953 26.4981 39.2842 26.4849C39.2896 26.4821 39.2997 26.4848 39.3116 26.496Z" fill="#C73E48"/>
<path d="M37.9306 27.9385C38.5819 27.9957 39.2217 28.0551 39.8732 28.121C39.5027 28.5516 39.0189 28.7469 38.4551 28.7474C36.4813 28.7494 34.5075 28.7477 32.5217 28.7365C32.5448 28.6822 32.5769 28.6362 32.6152 28.596C32.7745 28.4291 32.9357 28.264 33.0963 28.0982C33.1118 28.0906 33.1273 28.083 33.1615 28.0785C33.2209 28.0872 33.2617 28.0975 33.3025 28.0975C34.6211 28.0983 35.9398 28.1046 37.2583 28.0913C37.4635 28.0893 37.6678 27.9977 37.8726 27.9476C37.8881 27.9453 37.9036 27.943 37.9306 27.9385Z" fill="#DFDDE2"/>
<path d="M33.0813 28.0986C32.9356 28.2644 32.7744 28.4295 32.615 28.5964C32.5767 28.6365 32.5446 28.6826 32.5073 28.7357C31.7499 28.7443 30.9949 28.7433 30.229 28.7279C30.4086 28.5108 30.5989 28.3082 30.7955 28.1042C30.8017 28.1027 30.814 28.0994 30.814 28.0994C31.5648 28.0991 32.3156 28.0989 33.0813 28.0986Z" fill="#B1ABB4"/>
<path d="M30.7893 28.1054C30.599 28.308 30.4086 28.5105 30.2149 28.7221C30.1177 28.7376 30.0239 28.7441 29.9156 28.7531C29.5882 28.5806 29.2751 28.4057 28.9565 28.2164C28.9883 28.1569 29.0254 28.112 29.0626 28.067C29.0779 28.0589 29.0932 28.0508 29.1261 28.0459C29.2454 28.0655 29.3469 28.0945 29.4488 28.0962C29.8956 28.1036 30.3425 28.1031 30.7893 28.1054Z" fill="#DEDCE1"/>
<path d="M29.0513 28.0627C29.0254 28.1122 28.9883 28.1572 28.9476 28.2111C28.7895 28.1327 28.635 28.0453 28.4734 27.9497C28.6575 27.9804 28.8487 28.0192 29.0513 28.0627Z" fill="#B0A7B3"/>
<path d="M37.8593 27.9459C37.6679 27.9982 37.4636 28.0898 37.2584 28.0918C35.9399 28.105 34.6212 28.0988 33.3026 28.098C33.2618 28.098 33.221 28.0877 33.1694 28.0755C33.3306 27.9008 33.5026 27.7328 33.6829 27.5571C35.0762 27.6809 36.4611 27.8124 37.8593 27.9459Z" fill="#F1EFF3"/>
<path d="M30.7954 28.1039C30.3424 28.1031 29.8955 28.1036 29.4487 28.0962C29.3468 28.0945 29.2453 28.0655 29.1338 28.0421C29.5861 27.5775 30.0482 27.1197 30.52 26.6577C30.9395 26.8013 31.3494 26.9492 31.7707 27.1015C31.463 27.4311 31.1439 27.7563 30.8194 28.0903C30.8139 28.0991 30.8016 28.1025 30.7954 28.1039Z" fill="#F1F0F3"/>
<defs>
<filter id="filter0_d_0_1" x="0" y="0" width="94" height="64" filterUnits="userSpaceOnUse" color-interpolation-filters="sRGB">
<feFlood flood-opacity="0" result="BackgroundImageFix"/>
<feColorMatrix in="SourceAlpha" type="matrix" values="0 0 0 0 0 0 0 0 0 0 0 0 0 0 0 0 0 0 127 0" result="hardAlpha"/>
<feOffset dy="2"/>
<feGaussianBlur stdDeviation="6"/>
<feComposite in2="hardAlpha" operator="out"/>
<feColorMatrix type="matrix" values="0 0 0 0 0 0 0 0 0 0 0 0 0 0 0 0 0 0 0.07 0"/>
<feBlend mode="normal" in2="BackgroundImageFix" result="effect1_dropShadow_0_1"/>
<feBlend mode="normal" in="SourceGraphic" in2="effect1_dropShadow_0_1" result="shape"/>
</filter>
</defs>
</svg>
