<svg xmlns="http://www.w3.org/2000/svg" width="70" height="42" viewBox="0 0 70 42" fill="none">
  <g clip-path="url(#clip0_1685_306)">
    <path d="M54.546 0H15.454C11.3554 0 7.42456 1.67147 4.52637 4.64671C1.62819 7.62195 0 11.6572 0 15.8649C0 20.0725 1.62819 24.1078 4.52637 27.083C7.42456 30.0583 11.3554 31.7297 15.454 31.7297H30.4361L34.7397 42L39.0433 31.7297H54.546C58.6446 31.7297 62.5754 30.0583 65.4736 27.083C68.3718 24.1078 70 20.0725 70 15.8649C70 11.6572 68.3718 7.62195 65.4736 4.64671C62.5754 1.67147 58.6446 0 54.546 0Z" fill="white"/>
    <path d="M29.8217 19.6869C29.7992 19.7215 29.7655 19.7407 29.758 19.7677C29.6666 20.0817 29.4884 20.3617 29.2451 20.574C29.0018 20.7862 28.7038 20.9215 28.3872 20.9635C28.2494 20.9833 28.1105 20.9936 27.9714 20.9942C25.8515 20.9942 23.7278 20.9942 21.604 20.9942C20.9826 20.9841 20.3759 20.7978 19.8511 20.4559C19.7837 20.4136 19.7126 20.379 19.6264 20.3214C19.5403 20.2637 19.4953 20.2252 19.4354 20.1906C19.0608 19.9715 18.7125 19.7523 18.3679 19.5331C18.4803 19.5331 18.5777 19.5331 18.69 19.5331H21.0609H27.2036C27.4855 19.5411 27.7656 19.4858 28.0245 19.3709C28.2833 19.2559 28.5145 19.0843 28.7018 18.8679C28.8103 18.7552 28.9408 18.6675 29.0848 18.6105C29.2288 18.5535 29.383 18.5285 29.5371 18.5372C29.6224 18.5353 29.7074 18.5276 29.7918 18.5142C29.8039 18.5308 29.821 18.5429 29.8404 18.5488C29.8217 18.9179 29.8217 19.2947 29.8217 19.6869Z" fill="#675F67"/>
    <path d="M18.3532 19.5369L19.4356 20.1906C19.4984 20.2285 19.5585 20.2709 19.6154 20.3175C19.1881 20.6269 18.6996 20.8357 18.1846 20.9288C17.5142 21.0024 16.8394 21.0243 16.1658 20.9942C15.7088 20.9942 15.2519 20.9942 14.7949 20.9942C14.4752 21.0119 14.1588 20.9198 13.8957 20.7326C13.6326 20.5453 13.4377 20.2734 13.3417 19.9599C13.3377 19.9495 13.3311 19.9405 13.3225 19.9338C13.3139 19.927 13.3037 19.9227 13.293 19.9214C13.293 19.6407 13.293 19.3523 13.293 19.0486C13.3192 18.9986 13.3566 18.9717 13.3716 18.9332C13.3866 18.8948 13.4203 18.7564 13.4615 18.6641C13.5244 18.6834 13.5848 18.7105 13.6413 18.7448C14.1312 19.0424 14.6866 19.2077 15.2556 19.2255C15.3642 19.2255 15.4616 19.2255 15.4991 19.087C15.5173 19.0394 15.5175 18.9864 15.4994 18.9387C15.4814 18.891 15.4465 18.8519 15.4017 18.8294C14.8224 18.4859 14.2406 18.145 13.6563 17.8066L13.8248 17.0991C13.8387 17.0449 13.8601 16.9931 13.8885 16.9453C14.1432 17.0799 14.3829 17.2183 14.6376 17.3606C15.1657 17.6682 15.6901 17.9758 16.2257 18.2949C16.4467 18.4295 16.6602 18.5526 16.8774 18.6795C17.0947 18.8063 17.207 18.8756 17.3756 18.9717L18.3532 19.5369Z" fill="#4773BA"/>
    <path d="M14.4202 14.1884C14.2767 14.0364 14.1658 13.8552 14.0949 13.6565C14.0239 13.4578 13.9944 13.246 14.0082 13.0348C14.0082 12.7695 14.0082 12.5042 14.0082 12.2389C14.0082 12.1735 14.0457 12.0697 14.0869 12.0582C14.1244 12.051 14.163 12.0525 14.1999 12.0624C14.2368 12.0724 14.2711 12.0907 14.3004 12.1159C14.6248 12.4625 14.9838 12.7731 15.3716 13.0425C15.8796 13.371 16.444 13.5968 17.0346 13.7077C17.3093 13.7669 17.5891 13.7978 17.8698 13.8C18.3222 13.8015 18.7724 13.7367 19.207 13.6078C19.5682 13.4811 19.9221 13.3334 20.267 13.1656C20.5985 12.9608 20.9917 12.8883 21.3719 12.9618L17.8062 16.6223C17.7797 16.6505 17.7478 16.6727 17.7125 16.6877C16.5543 16.0405 15.4882 15.2332 14.5438 14.2883C14.5054 14.2516 14.464 14.2182 14.4202 14.1884Z" fill="#E76472"/>
    <path d="M24.7205 15.6802C25.17 15.8801 25.6194 16.0647 26.0726 16.28C26.6794 16.5415 27.2899 16.7914 27.9004 17.049L28.0428 17.1182C28.0544 17.1302 28.0685 17.1394 28.084 17.1452C28.1402 17.2451 28.1926 17.3336 28.2488 17.422C28.3836 17.6489 28.3124 17.8065 28.054 17.8334C27.8069 17.8617 27.5735 17.9648 27.3836 18.1295C27.1551 18.3179 26.9041 18.4794 26.6345 18.6563H26.5595C25.1138 18.514 23.6792 18.3756 22.2522 18.2256C22.2893 18.1758 22.3294 18.1283 22.3721 18.0834L24.5707 15.8263C24.6306 15.7955 24.6681 15.734 24.7205 15.6802Z" fill="#E76472"/>
    <path d="M17.7313 16.6799L17.8137 16.6068L21.3907 12.9463C21.5555 12.9847 21.6978 13.0309 21.8439 13.077C21.8692 13.1068 21.8997 13.1316 21.9338 13.1501L22.1435 13.3577C21.9787 13.5577 21.8064 13.7422 21.6304 13.9306C21.3682 14.1959 21.3495 14.3151 21.5068 14.6497L19.1021 17.1374C19.0535 17.1874 19.016 17.249 18.9636 17.3066L17.5103 18.7755C17.4893 18.7871 17.4665 18.7949 17.4429 18.7985L16.8548 18.6716C16.6413 18.5448 16.4279 18.4217 16.2144 18.2871C16.3417 18.1372 16.4728 18.0026 16.5889 17.868L17.7313 16.6799Z" fill="#C6C1C8"/>
    <path d="M17.7201 16.6725C17.3456 17.057 16.971 17.4646 16.5965 17.8568L16.2219 18.2682C15.6863 17.9683 15.162 17.6607 14.6338 17.3531L13.896 16.9186C13.8088 16.0388 13.9797 15.1524 14.3866 14.3731C14.4099 14.3158 14.4226 14.2545 14.4241 14.1924C14.4702 14.2092 14.5133 14.2339 14.5514 14.2654C15.4953 15.213 16.5615 16.0229 17.7201 16.6725Z" fill="#F2F1F4"/>
    <path d="M24.7205 15.6686C24.6867 15.7327 24.6452 15.7921 24.5969 15.8455L22.3982 18.1026C22.3533 18.1503 22.3108 18.2003 22.2709 18.2525C22.0799 18.4486 21.8963 18.637 21.7128 18.8101C21.6905 18.8226 21.6665 18.8317 21.6416 18.837C20.8513 18.837 20.0723 18.837 19.3044 18.837C19.6378 18.4832 19.9674 18.1372 20.3082 17.7873C20.3625 17.7463 20.4138 17.7013 20.4618 17.6527L22.3346 15.7301C22.4469 15.6148 22.5593 15.5071 22.6717 15.411C22.6326 15.511 22.6288 15.6218 22.6609 15.7243C22.6931 15.8269 22.7591 15.9146 22.8477 15.9724C22.9372 16.0179 23.0395 16.0298 23.1367 16.0059C23.2339 15.982 23.3198 15.9239 23.3796 15.8417C23.432 15.784 23.4844 15.7301 23.5406 15.6763L24.0201 15.2188C24.2523 15.3802 24.477 15.511 24.7205 15.6686Z" fill="#C6C1C8"/>
    <path d="M22.6416 15.4113C22.5292 15.5189 22.4168 15.6266 22.3045 15.742L20.4317 17.6645C20.383 17.7157 20.3275 17.7597 20.2669 17.7952C19.8212 17.6376 19.3979 17.4799 18.9709 17.3223C19.0159 17.2685 19.0533 17.2069 19.102 17.1569C19.8961 16.3341 20.6939 15.5151 21.5067 14.6884C21.5542 14.7325 21.6104 14.7658 21.6714 14.786C21.7324 14.8062 21.7969 14.8129 21.8606 14.8057C21.9243 14.7984 21.9858 14.7773 22.041 14.7438C22.0962 14.7104 22.1439 14.6653 22.1809 14.6115L22.7989 14.0078C22.9899 14.2039 23.1734 14.3923 23.3757 14.6153C23.3453 14.6695 23.3088 14.7198 23.2671 14.7653L22.6416 15.4113Z" fill="#E76572"/>
    <path d="M21.8402 13.0734C21.6979 13.0388 21.5556 12.9927 21.3983 12.9427C21.0107 12.8769 20.6129 12.9531 20.2746 13.158C19.945 13.3349 19.5854 13.4541 19.2296 13.6002C19.2296 13.3579 19.2296 13.1234 19.2296 12.885C19.2268 12.6051 19.2806 12.3276 19.3876 12.0701C19.4946 11.8127 19.6525 11.5808 19.8514 11.3893C19.8724 11.3583 19.9004 11.3331 19.933 11.3156C19.9656 11.2982 20.0019 11.2891 20.0386 11.2891C20.0754 11.2891 20.1116 11.2982 20.1442 11.3156C20.1768 11.3331 20.2048 11.3583 20.2259 11.3893C20.7653 11.9468 21.3009 12.5005 21.8402 13.0734Z" fill="#4873BA"/>
    <path d="M26.6567 18.6679C26.8965 18.491 27.1474 18.3295 27.3759 18.1411C27.5658 17.9764 27.7992 17.8733 28.0463 17.845C28.3048 17.8181 28.3759 17.6604 28.2411 17.4336C28.1849 17.3451 28.1325 17.2567 28.0763 17.1567C28.3048 17.2336 28.5332 17.3221 28.7617 17.4105C28.9844 17.4954 29.1868 17.6282 29.3554 17.8C29.524 17.9717 29.6549 18.1785 29.7393 18.4064C29.7508 18.436 29.7584 18.467 29.7618 18.4987C29.68 18.5217 29.5956 18.5334 29.5108 18.5333C29.3558 18.5257 29.2009 18.5504 29.0554 18.6059C28.9099 18.6614 28.7769 18.7466 28.6643 18.8563L26.6567 18.6679Z" fill="#C74049"/>
    <path d="M13.645 17.8066C14.2406 18.1373 14.8211 18.4795 15.4017 18.8217C15.4465 18.8443 15.4814 18.8833 15.4994 18.931C15.5175 18.9788 15.5173 19.0317 15.4991 19.0794C15.4616 19.1986 15.3642 19.2216 15.2556 19.2178C14.6787 19.2081 14.1138 19.0466 13.6151 18.7487L13.4465 18.6564C13.5027 18.3719 13.5701 18.0912 13.645 17.8066Z" fill="#D8EEF3"/>
    <path d="M22.6415 15.4228C22.8513 15.1882 23.0573 14.969 23.267 14.7499L23.3832 14.6076C23.4569 14.5372 23.5524 14.4955 23.653 14.4899C23.7536 14.4843 23.853 14.515 23.9337 14.5768C24.1173 14.6999 24.1585 14.9267 24.0349 15.2074L23.548 15.6765C23.4918 15.7304 23.4393 15.7842 23.3869 15.8419C23.3272 15.9241 23.2412 15.9822 23.144 16.0061C23.0468 16.03 22.9446 16.0181 22.855 15.9726C22.7623 15.9212 22.6901 15.838 22.6511 15.7375C22.6121 15.6369 22.6087 15.5256 22.6415 15.4228Z" fill="#F2F1F4"/>
    <path d="M22.8027 13.9806C22.5929 14.1921 22.3869 14.392 22.1809 14.5958C22.1439 14.647 22.0967 14.6895 22.0425 14.7207C21.9884 14.7519 21.9284 14.771 21.8666 14.7768C21.8047 14.7826 21.7424 14.775 21.6836 14.7544C21.6249 14.7338 21.571 14.7008 21.5255 14.6574C21.3532 14.3228 21.3719 14.2113 21.6341 13.946C21.8101 13.7614 21.9824 13.5615 22.1585 13.3769C22.2355 13.3084 22.3318 13.2667 22.4333 13.2577C22.5349 13.2487 22.6367 13.273 22.724 13.327C22.7728 13.3632 22.8138 13.4094 22.8444 13.4626C22.875 13.5158 22.8946 13.5749 22.902 13.6362C22.9094 13.6975 22.9044 13.7598 22.8873 13.819C22.8702 13.8783 22.8414 13.9333 22.8027 13.9806Z" fill="#F2F1F4"/>
    <path d="M21.9338 13.1577C21.901 13.144 21.8716 13.123 21.8477 13.0962C21.8811 13.1086 21.9109 13.1298 21.9338 13.1577Z" fill="#4873BA"/>
    <path d="M28.091 17.1372C28.091 17.1372 28.091 17.1372 28.0651 17.1372C28.0393 17.1372 28.0614 17.1262 28.091 17.1372Z" fill="#C74049"/>
    <path d="M26.6456 18.668C27.3198 18.7295 27.979 18.791 28.6532 18.8641C28.4722 19.0792 28.247 19.2505 27.9937 19.3655C27.7405 19.4805 27.4655 19.5364 27.1887 19.5293C25.1437 19.5293 23.1023 19.5293 21.0498 19.5293C21.072 19.473 21.1051 19.422 21.1472 19.3793L21.6416 18.841C21.6629 18.8308 21.6857 18.8243 21.709 18.8218C21.7727 18.8218 21.8139 18.841 21.8551 18.841C23.2222 18.841 24.5856 18.841 25.9489 18.841C26.1662 18.8167 26.3799 18.7664 26.5857 18.691L26.6456 18.668Z" fill="#E0DDE1"/>
    <path d="M21.6265 18.8408C21.4767 19.0177 21.3119 19.1946 21.1471 19.3714C21.1059 19.417 21.0683 19.4658 21.0347 19.5176C20.2519 19.5176 19.4691 19.5176 18.675 19.5176C18.8623 19.2869 19.0496 19.0715 19.2631 18.8562L21.6265 18.8408Z" fill="#B2ACB5"/>
    <path d="M19.2558 18.8408C19.0611 19.0561 18.8813 19.2715 18.664 19.4983C18.5629 19.4983 18.4655 19.5214 18.3532 19.5291C18.0123 19.3445 17.6902 19.1446 17.3606 18.96C17.391 18.9035 17.4274 18.8506 17.4692 18.8024C17.4891 18.7883 17.5125 18.7803 17.5366 18.7793C17.6467 18.8033 17.758 18.8212 17.87 18.8331C18.3307 18.8408 18.7951 18.8408 19.2558 18.8408Z" fill="#DFDCE1"/>
    <path d="M17.4579 18.7989C17.4272 18.8552 17.3908 18.908 17.3493 18.9565C17.1882 18.8758 17.0272 18.7835 16.8586 18.6797C17.0497 18.7143 17.2482 18.7527 17.4579 18.7989Z" fill="#B1A7B3"/>
    <path d="M26.5707 18.6755C26.3712 18.7555 26.162 18.8073 25.9489 18.8293C24.5855 18.8293 23.2222 18.8293 21.8551 18.8293C21.8095 18.8263 21.7643 18.8186 21.7202 18.8062C21.885 18.6216 22.0648 18.4217 22.2483 18.2563C23.6904 18.3948 25.1249 18.5332 26.5707 18.6755Z" fill="#F1F0F3"/>
    <path d="M19.2631 18.8409C18.7949 18.8409 18.3305 18.8409 17.8698 18.8409C17.7599 18.8301 17.651 18.8108 17.5439 18.7832C18.0121 18.2872 18.4916 17.8027 18.9785 17.3105C19.413 17.4644 19.8362 17.622 20.2707 17.7835C19.9523 18.1334 19.6227 18.4795 19.2894 18.8332L19.2631 18.8409Z" fill="#F1F0F3"/>
    <path d="M45.8564 16.6798H34.7397V15.6071H45.8564V16.6798ZM42.5641 9.95862C43.128 10.1194 43.6433 10.4235 44.0623 10.843C44.4055 11.2024 44.5977 11.6855 44.5977 12.1888C44.5977 12.692 44.4055 13.1752 44.0623 13.5346C43.6434 13.9516 43.1277 14.252 42.5641 14.4074C41.0748 14.8175 39.5064 14.8175 38.0171 14.4074C37.4535 14.252 36.9378 13.9516 36.5189 13.5346C36.3477 13.3592 36.212 13.1509 36.1194 12.9217C36.0267 12.6924 35.9791 12.4466 35.9791 12.1984C35.9791 11.9502 36.0267 11.7044 36.1194 11.4751C36.212 11.2458 36.3477 11.0376 36.5189 10.8622C36.9379 10.4428 37.4532 10.1386 38.0171 9.97784C39.5051 9.55752 41.0761 9.55752 42.5641 9.97784V9.95862ZM37.429 20.7826H36.1368V17.8949H37.429V20.7826ZM44.6204 21.5785H36.1368V20.4711H44.6204V21.5785ZM38.74 10.8853C38.3613 10.9687 38.0072 11.1426 37.7062 11.3928C37.5902 11.4879 37.4964 11.6084 37.4316 11.7454C37.3668 11.8824 37.3327 12.0326 37.3316 12.1849C37.3333 12.3338 37.3679 12.4804 37.4328 12.6136C37.4977 12.7468 37.5912 12.8632 37.7062 12.9539C38.0088 13.2 38.3625 13.371 38.74 13.4538C39.761 13.6896 40.8202 13.6896 41.8412 13.4538C42.217 13.3694 42.5692 13.1985 42.8713 12.9539C42.9859 12.8628 43.0791 12.7464 43.1439 12.6133C43.2088 12.4801 43.2436 12.3337 43.2458 12.1849C43.2443 12.0327 43.2099 11.8827 43.1451 11.7457C43.0803 11.6088 42.9868 11.4883 42.8713 11.3928C42.5708 11.1441 42.2182 10.9704 41.8412 10.8853C40.8202 10.6495 39.761 10.6495 38.74 10.8853ZM41.0435 19.0984H39.74V16.2953H41.0435V19.0984Z" fill="#1A202A"/>
    <path d="M57.8383 16.4841H46.7478V15.4267H57.8383V16.4841ZM54.5347 17.5569C55.0721 17.6809 55.569 17.9458 55.9768 18.3259C56.1346 18.4864 56.2599 18.6775 56.3455 18.888C56.431 19.0986 56.475 19.3244 56.475 19.5525C56.475 19.7806 56.431 20.0064 56.3455 20.217C56.2599 20.4275 56.1346 20.6186 55.9768 20.7791C55.569 21.157 55.0739 21.4217 54.5385 21.5481C53.0524 21.9122 51.5037 21.9122 50.0176 21.5481C49.4775 21.4224 48.9775 21.1578 48.5644 20.7791C48.4056 20.6191 48.2795 20.4282 48.1934 20.2176C48.1073 20.007 48.063 19.7809 48.063 19.5525C48.063 19.3241 48.1073 19.098 48.1934 18.8874C48.2795 18.6768 48.4056 18.4859 48.5644 18.3259C48.9765 17.9458 49.477 17.681 50.0176 17.5569C51.5036 17.2031 53.0488 17.2031 54.5347 17.5569ZM56.4749 10.9741H49.4071V13.708H48.1374V9.92822H56.4749V10.9741ZM56.5498 14.104H48.1374V13.0466H56.5573L56.5498 14.104ZM50.6993 18.4566C50.3435 18.5194 50.0058 18.6625 49.7105 18.8758C49.6068 18.9538 49.5223 19.0556 49.4637 19.1731C49.4052 19.2906 49.3743 19.4205 49.3734 19.5525C49.374 19.684 49.4048 19.8135 49.4634 19.9304C49.522 20.0474 49.6066 20.1484 49.7105 20.2254C50.0041 20.4418 50.3426 20.5853 50.6993 20.6445C51.7441 20.829 52.812 20.829 53.8568 20.6445C54.2122 20.5843 54.5492 20.4409 54.8419 20.2254C54.9463 20.1485 55.0313 20.0472 55.09 19.9298C55.1487 19.8125 55.1793 19.6825 55.1793 19.5506C55.1793 19.4187 55.1487 19.2887 55.09 19.1713C55.0313 19.054 54.9463 18.9527 54.8419 18.8758C54.5459 18.6612 54.2067 18.5179 53.8493 18.4566C52.8074 18.267 51.7412 18.267 50.6993 18.4566ZM52.9167 15.8574H51.6619V13.458H52.9167V15.8574Z" fill="#1A202A"/>
  </g>
  <defs>
    <clipPath id="clip0_1685_306">
      <rect width="70" height="42" fill="white"/>
    </clipPath>
  </defs>
</svg>