<svg xmlns="http://www.w3.org/2000/svg" width="15" height="15" viewBox="0 0 15 15" fill="none">
  <path d="M1.38752 1.38751C1.30813 1.46688 1.25986 1.5721 1.25149 1.68405C1.24312 1.79599 1.27519 1.90722 1.34189 1.99751L1.38752 2.05001L3.90877 4.57189C2.67998 5.43409 1.80255 6.70975 1.43689 8.16564C1.40875 8.28552 1.42891 8.41165 1.49302 8.51679C1.55712 8.62192 1.66002 8.69761 1.77948 8.72749C1.89893 8.75737 2.02535 8.73906 2.1314 8.67649C2.23746 8.61393 2.31464 8.51215 2.34627 8.39314C2.67115 7.1009 3.46976 5.97793 4.58377 5.24689L5.71502 6.37814C5.26314 6.85032 5.01413 7.48069 5.02134 8.13422C5.02855 8.78775 5.2914 9.41247 5.75358 9.87457C6.21576 10.3367 6.84053 10.5994 7.49406 10.6065C8.14759 10.6136 8.77791 10.3645 9.25002 9.91251L12.9494 13.6125C13.033 13.6964 13.1453 13.7455 13.2637 13.7499C13.3821 13.7544 13.4977 13.7139 13.5874 13.6365C13.6771 13.5592 13.7342 13.4507 13.7472 13.333C13.7602 13.2152 13.7282 13.097 13.6575 13.0019L13.6119 12.9494L9.79127 9.12814L9.79189 9.12689L5.44814 4.78564L5.44939 4.78439L4.74127 4.07814L2.05002 1.38751C1.96212 1.29973 1.84299 1.25043 1.71877 1.25043C1.59455 1.25043 1.47541 1.29973 1.38752 1.38751ZM7.50002 3.43751C6.87502 3.43751 6.26877 3.53001 5.69439 3.70314L6.46752 4.47564C7.80473 4.21086 9.19257 4.47007 10.3441 5.19966C11.4956 5.92925 12.3227 7.07343 12.6544 8.39564C12.6868 8.51372 12.7641 8.61445 12.8698 8.67627C12.9754 8.7381 13.1011 8.75612 13.2199 8.72648C13.3387 8.69684 13.4412 8.6219 13.5055 8.51767C13.5697 8.41345 13.5906 8.28822 13.5638 8.16876C13.2251 6.81702 12.4445 5.61721 11.3458 4.75998C10.2472 3.90275 8.89353 3.43727 7.50002 3.43751ZM7.62189 5.63126L9.99752 8.00627C9.96679 7.3862 9.70661 6.79971 9.26757 6.36078C8.82852 5.92185 8.24196 5.66183 7.62189 5.63126Z" fill="#8B8D94"/>
</svg>