<svg width="47" height="14" viewBox="0 0 47 14" fill="none" xmlns="http://www.w3.org/2000/svg">
<path d="M10.5273 9.85352H9.46094V0.966797H10.5273V9.85352ZM10.9102 12.8477H2.67969V8.95117H3.74609V11.9453H10.9102V12.8477ZM3.96484 1.81445C4.56641 1.81445 5.10872 1.94206 5.5918 2.19727C6.07943 2.44792 6.45996 2.80111 6.7334 3.25684C7.01139 3.70801 7.15039 4.2207 7.15039 4.79492C7.15039 5.37826 7.01139 5.89779 6.7334 6.35352C6.45996 6.80469 6.07943 7.15788 5.5918 7.41309C5.10872 7.66374 4.56641 7.78906 3.96484 7.78906C3.36328 7.78906 2.81868 7.66374 2.33105 7.41309C1.84798 7.15788 1.46745 6.80469 1.18945 6.35352C0.916016 5.89779 0.779297 5.37826 0.779297 4.79492C0.779297 4.2207 0.916016 3.70801 1.18945 3.25684C1.46745 2.80111 1.84798 2.44792 2.33105 2.19727C2.81868 1.94206 3.36328 1.81445 3.96484 1.81445ZM3.96484 2.75781C3.55924 2.75781 3.19238 2.8444 2.86426 3.01758C2.54069 3.19076 2.28548 3.43229 2.09863 3.74219C1.91634 4.05208 1.82747 4.40299 1.83203 4.79492C1.82747 5.19141 1.91634 5.54688 2.09863 5.86133C2.28548 6.17122 2.54069 6.41276 2.86426 6.58594C3.19238 6.75911 3.55924 6.8457 3.96484 6.8457C4.36133 6.8457 4.72135 6.75911 5.04492 6.58594C5.37305 6.41276 5.63053 6.17122 5.81738 5.86133C6.00423 5.54688 6.09766 5.19141 6.09766 4.79492C6.09766 4.40755 6.00423 4.05892 5.81738 3.74902C5.63053 3.43913 5.37305 3.19759 5.04492 3.02441C4.72135 2.84668 4.36133 2.75781 3.96484 2.75781ZM23.666 7.625H12.5918V6.73633H23.666V7.625ZM18.1289 8.69141C18.9948 8.69141 19.7399 8.77799 20.3643 8.95117C20.9932 9.12435 21.474 9.37728 21.8066 9.70996C22.1393 10.0381 22.3079 10.4323 22.3125 10.8926C22.3079 11.3574 22.1393 11.7539 21.8066 12.082C21.474 12.4102 20.9954 12.6585 20.3711 12.8271C19.7467 12.9958 18.9993 13.0801 18.1289 13.0801C17.2539 13.0801 16.502 12.9958 15.873 12.8271C15.2441 12.6585 14.7633 12.4102 14.4307 12.082C14.098 11.7539 13.9316 11.3574 13.9316 10.8926C13.9316 10.4323 14.098 10.0381 14.4307 9.70996C14.7679 9.37728 15.251 9.12435 15.8799 8.95117C16.5088 8.77799 17.2585 8.69141 18.1289 8.69141ZM18.1289 9.53906C17.1445 9.54818 16.3789 9.66895 15.832 9.90137C15.2897 10.1338 15.0208 10.4642 15.0254 10.8926C15.0208 11.3164 15.2897 11.6445 15.832 11.877C16.3789 12.1048 17.1445 12.2188 18.1289 12.2188C18.7715 12.2188 19.3252 12.1663 19.79 12.0615C20.2549 11.9613 20.6104 11.8109 20.8564 11.6104C21.1071 11.4098 21.2324 11.1706 21.2324 10.8926C21.2324 10.4642 20.959 10.1338 20.4121 9.90137C19.8652 9.66895 19.1042 9.54818 18.1289 9.53906ZM22.6816 2.4707H18.8262C18.8398 2.91276 19.0426 3.32292 19.4346 3.70117C19.8311 4.07943 20.3506 4.39616 20.9932 4.65137C21.6357 4.90202 22.3216 5.06836 23.0508 5.15039L22.6543 6.01172C21.9798 5.92513 21.3395 5.77018 20.7334 5.54688C20.1273 5.32357 19.5964 5.03874 19.1406 4.69238C18.6849 4.34603 18.3477 3.9541 18.1289 3.5166C17.9147 3.9541 17.5798 4.34603 17.124 4.69238C16.6729 5.03874 16.1419 5.32357 15.5312 5.54688C14.9251 5.77018 14.2826 5.92513 13.6035 6.01172L13.2207 5.15039C13.9408 5.06836 14.6198 4.90202 15.2578 4.65137C15.8958 4.39616 16.4131 4.07943 16.8096 3.70117C17.2061 3.32292 17.4134 2.91276 17.4316 2.4707H13.6035V1.58203H22.6816V2.4707ZM34.0977 5.9707H36.1348V6.85938H34.0977V13.1074H33.0312V0.953125H34.0977V5.9707ZM31.8555 3.79688H24.623V2.9082H27.7539V1.10352H28.8203V2.9082H31.8555V3.79688ZM28.3008 4.80859C28.8704 4.80859 29.3809 4.92708 29.832 5.16406C30.2832 5.40104 30.6364 5.73145 30.8916 6.15527C31.1468 6.5791 31.2767 7.0599 31.2812 7.59766C31.2767 8.13542 31.1468 8.61621 30.8916 9.04004C30.6364 9.46387 30.2832 9.79427 29.832 10.0312C29.3809 10.2682 28.8704 10.3867 28.3008 10.3867C27.7266 10.3867 27.2116 10.2682 26.7559 10.0312C26.3047 9.79427 25.9515 9.46387 25.6963 9.04004C25.4411 8.61621 25.3158 8.13542 25.3203 7.59766C25.3158 7.0599 25.4411 6.5791 25.6963 6.15527C25.9515 5.73145 26.3047 5.40104 26.7559 5.16406C27.2116 4.92708 27.7266 4.80859 28.3008 4.80859ZM28.3008 5.71094C27.9271 5.71094 27.5898 5.79297 27.2891 5.95703C26.9928 6.11654 26.7604 6.33984 26.5918 6.62695C26.4232 6.91406 26.3411 7.23763 26.3457 7.59766C26.3411 7.96224 26.4232 8.28809 26.5918 8.5752C26.7604 8.85775 26.9928 9.07878 27.2891 9.23828C27.5898 9.39779 27.9271 9.47526 28.3008 9.4707C28.6699 9.47526 29.0026 9.39779 29.2988 9.23828C29.5951 9.07878 29.8275 8.85775 29.9961 8.5752C30.1647 8.28809 30.2513 7.96224 30.2559 7.59766C30.2513 7.23763 30.1647 6.91406 29.9961 6.62695C29.8275 6.33984 29.5951 6.11654 29.2988 5.95703C29.0026 5.79297 28.6699 5.71094 28.3008 5.71094ZM46.8398 13.1074H45.7598V0.953125H46.8398V13.1074ZM43.2441 2.2793C43.235 4.11589 42.7702 5.76562 41.8496 7.22852C40.929 8.68685 39.4889 9.88542 37.5293 10.8242L36.9414 9.94922C38.5638 9.17904 39.8057 8.22201 40.667 7.07812C41.5329 5.93424 42.0273 4.6263 42.1504 3.1543H37.502V2.2793H43.2441Z" fill="#181F29"/>
</svg>
