<svg xmlns="http://www.w3.org/2000/svg" width="14" height="12" viewBox="0 0 14 12" fill="none">
  <path d="M14 3.87591C14 8.25195 7.51312 11.794 7.23687 11.9403C7.16406 11.9795 7.08268 12 7 12C6.91732 12 6.83594 11.9795 6.76312 11.9403C6.48688 11.794 0 8.25195 0 3.87591C0.00115796 2.84831 0.409788 1.86313 1.13624 1.13651C1.86269 0.409884 2.84764 0.00115823 3.875 0C5.16563 0 6.29562 0.555131 7 1.49348C7.70438 0.555131 8.83438 0 10.125 0C11.1524 0.00115823 12.1373 0.409884 12.8638 1.13651C13.5902 1.86313 13.9988 2.84831 14 3.87591Z" fill="#F54949"/>
</svg>