<svg width="20" height="20" viewBox="0 0 20 20" fill="none" xmlns="http://www.w3.org/2000/svg">
<g id="&#235;&#160;&#136;&#236;&#157;&#180;&#236;&#150;&#180; 2">
<g id="&#235;&#147;&#177;&#235;&#161;&#157;">
<path id="Vector" d="M10 19C14.9706 19 19 14.9706 19 10C19 5.02944 14.9706 1 10 1C5.02944 1 1 5.02944 1 10C1 14.9706 5.02944 19 10 19Z" stroke="#8B8D94" stroke-width="1.7" stroke-miterlimit="10"/>
<path id="Vector_2" d="M7.23145 5.63884H10.6645C11.2747 5.62075 11.88 5.75304 12.427 6.02407C12.8924 6.26367 13.2752 6.63729 13.526 7.09667C13.783 7.58265 13.9129 8.1257 13.9037 8.67535C13.9153 9.22125 13.7852 9.76083 13.526 10.2414C13.2687 10.6988 12.8825 11.0705 12.4157 11.3103C11.8671 11.5837 11.2595 11.7173 10.6469 11.6993H8.36447V10.3396H10.4178C10.7657 10.3512 11.1113 10.2782 11.4249 10.1269C11.6796 9.99904 11.8875 9.79421 12.0191 9.54149C12.1468 9.26881 12.2129 8.9714 12.2129 8.67032C12.2129 8.36923 12.1468 8.07182 12.0191 7.79914C11.8868 7.54805 11.6771 7.34629 11.4211 7.22382C11.1062 7.07708 10.7612 7.00636 10.414 7.01736H8.88063V14.7987H7.23145V5.63884Z" fill="#8B8D94"/>
</g>
</g>
</svg>
