<svg width="20" height="20" viewBox="0 0 20 17" fill="none" xmlns="http://www.w3.org/2000/svg">
<path id="Vector" d="M20 5.49088C20 11.6903 10.733 16.7082 10.3384 16.9154C10.2344 16.9709 10.1181 17 10 17C9.88189 17 9.76562 16.9709 9.66161 16.9154C9.26696 16.7082 0 11.6903 0 5.49088C0.00165423 4.03511 0.585411 2.63944 1.6232 1.61005C2.66099 0.580669 4.06806 0.00164083 5.53571 0C7.37946 0 8.99375 0.786435 10 2.11576C11.0063 0.786435 12.6205 0 14.4643 0C15.9319 0.00164083 17.339 0.580669 18.3768 1.61005C19.4146 2.63944 19.9983 4.03511 20 5.49088Z" fill="#ff4500"/>
</svg>
