<svg width="16" height="10" viewBox="0 0 16 10" fill="none" xmlns="http://www.w3.org/2000/svg">
<path d="M15.9999 7.89624C15.9791 7.93182 15.948 7.9491 15.9391 7.97423C15.7152 8.60651 15.2812 8.99145 14.6139 9.09802C14.4819 9.11909 14.3466 9.12821 14.2129 9.12833C12.1623 9.13018 10.1117 9.13604 8.06111 9.1257C7.44868 9.12262 6.87378 8.94754 6.34942 8.62191C6.28396 8.58126 6.214 8.54784 6.13091 8.49661C6.05967 8.44501 6.00515 8.4053 5.94736 8.37115C5.59904 8.1653 5.24998 7.96073 4.91553 7.75329C5.02375 7.74429 5.11761 7.73773 5.22562 7.7367C5.99481 7.74324 6.74985 7.74425 7.51916 7.74648C9.50726 7.748 11.4811 7.74964 13.4549 7.74773C14.0187 7.74718 14.5025 7.55187 14.8927 7.12169C15.1245 6.90095 15.3889 6.7963 15.7016 6.81171C15.7824 6.81569 15.8642 6.79781 15.9456 6.78998C15.9588 6.80329 15.9721 6.81659 15.9926 6.82352C15.9999 7.17196 15.9999 7.52678 15.9999 7.89624Z" fill="#665E66"/>
<path d="M4.9013 7.7557C5.25012 7.9607 5.59918 8.16527 5.9475 8.37112C6.00529 8.40527 6.05981 8.44498 6.1216 8.49096C5.70211 8.7808 5.24531 8.98177 4.73918 9.06838C4.09044 9.17939 3.43722 9.1137 2.78615 9.12777C2.34451 9.13732 1.90244 9.125 1.46066 9.13071C0.844071 9.13867 0.245698 8.80229 0.0585797 8.15755C0.0534831 8.13999 0.0332032 8.12684 0.0100018 8.12062C9.31323e-08 7.85812 9.375e-08 7.58664 0 7.3005C0.0260178 7.2549 0.0630849 7.22788 0.0758154 7.19218C0.104714 7.11115 0.121638 7.02584 0.164098 6.93735C0.234987 6.95937 0.285955 6.98501 0.335315 7.01344C0.826307 7.29626 1.35425 7.4459 1.92135 7.45698C2.02812 7.45907 2.12073 7.4378 2.15782 7.32384C2.19112 7.22154 2.15727 7.13754 2.06479 7.08439C1.50291 6.76146 0.940071 6.44021 0.37755 6.1184C0.431569 5.8973 0.485086 5.67607 0.539999 5.45519C0.551991 5.40695 0.568968 5.35996 0.600814 5.30733C0.847598 5.43433 1.07687 5.56701 1.30691 5.69836C1.81603 5.98907 2.32553 6.27911 2.84161 6.57803C3.05432 6.70489 3.2603 6.82314 3.47342 6.94957C3.63506 7.04514 3.78956 7.13252 3.95303 7.22542C4.2751 7.40586 4.5882 7.58078 4.9013 7.7557Z" fill="#4073C8"/>
<path d="M1.11364 2.72106C0.819408 2.41267 0.699296 2.04383 0.717034 1.62074C0.727497 1.37118 0.714003 1.12066 0.722529 0.870962C0.724591 0.810589 0.761574 0.710249 0.799418 0.701504C0.862744 0.68687 0.961424 0.70901 1.0074 0.754175C1.33046 1.07153 1.65306 1.38552 2.04157 1.62752C2.53977 1.93784 3.07455 2.1488 3.6499 2.25191C3.91602 2.2996 4.18825 2.3475 4.45648 2.34136C4.88375 2.33157 5.31247 2.29344 5.74931 2.16077C6.10788 2.02345 6.45354 1.90857 6.77301 1.74313C7.11772 1.56463 7.46207 1.46392 7.84111 1.55032C6.68866 2.70457 5.54283 3.85103 4.39667 4.99716C4.37116 5.02266 4.34179 5.04429 4.30603 5.06069C3.17828 4.43959 2.15451 3.69573 1.24144 2.80128C1.20633 2.76689 1.15657 2.74746 1.11364 2.72106Z" fill="#F5626F"/>
<path d="M11.0623 4.12422C11.4981 4.31288 11.9321 4.50597 12.3703 4.68912C12.9573 4.93449 13.5476 5.17207 14.1363 5.41335C14.1779 5.43039 14.2183 5.45036 14.2742 5.47962C14.2957 5.49793 14.3038 5.50263 14.3137 5.50436C14.3137 5.50436 14.3125 5.50464 14.3136 5.51513C14.3676 5.60878 14.4213 5.69137 14.4731 5.7752C14.6058 5.99037 14.5345 6.13896 14.2852 6.16202C14.0381 6.18489 13.8321 6.28948 13.6382 6.44271C13.4153 6.61877 13.1751 6.77281 12.9308 6.93866C12.9038 6.94319 12.8883 6.94547 12.8594 6.94562C11.4612 6.81205 10.0763 6.68062 8.6958 6.54079C8.73751 6.48975 8.7725 6.44482 8.81244 6.40483C9.52021 5.69612 10.2289 4.98829 10.9362 4.27912C10.983 4.23223 11.0205 4.17607 11.0623 4.12422Z" fill="#F5626F"/>
<path d="M4.314 5.06765C4.34157 5.04422 4.37094 5.02258 4.39644 4.99708C5.54261 3.85096 6.68844 2.70449 7.85215 1.54976C8.01005 1.58597 8.15012 1.63048 8.29018 1.675C8.29018 1.675 8.29717 1.67487 8.29398 1.6884C8.32058 1.72084 8.35038 1.73976 8.38018 1.75868C8.44523 1.81948 8.51029 1.88029 8.58317 1.95474C8.42274 2.14267 8.25609 2.31855 8.08585 2.49087C7.8358 2.74398 7.81715 2.84544 7.96817 3.1682C7.19367 3.95106 6.42274 4.7236 5.65312 5.49744C5.60666 5.54415 5.57061 5.60121 5.52007 5.65775C5.0483 6.11977 4.58619 6.57749 4.11629 7.039C4.0932 7.05088 4.0779 7.05898 4.05125 7.06247C3.84868 7.01902 3.65747 6.98018 3.46625 6.94133C3.26027 6.82308 3.0543 6.70482 2.84863 6.5695C2.97292 6.42685 3.09692 6.30128 3.22087 6.17565C3.58526 5.80633 3.94962 5.43699 4.314 5.06765Z" fill="#C6C1C8"/>
<path d="M4.30576 5.06069C3.94958 5.43706 3.58521 5.80641 3.22082 6.17573C3.09688 6.30135 2.97288 6.42692 2.84185 6.56097C2.32545 6.27912 1.81595 5.98908 1.30683 5.69837C1.0768 5.56702 0.847526 5.43434 0.608764 5.29858C0.544124 4.45383 0.670308 3.64971 1.08156 2.90223C1.1071 2.8558 1.11086 2.79739 1.11906 2.7328C1.1563 2.74746 1.20606 2.76689 1.24117 2.80128C2.15424 3.69573 3.17801 4.43958 4.30576 5.06069Z" fill="#F1F1F4"/>
<path d="M11.0562 4.11521C11.02 4.17615 10.9826 4.2323 10.9358 4.2792C10.2285 4.98837 9.5198 5.6962 8.81202 6.40491C8.77209 6.4449 8.7371 6.48983 8.68701 6.54849C8.50227 6.73255 8.33033 6.90059 8.15049 7.07214C8.12709 7.08327 8.11158 7.09089 8.08119 7.09851C7.31551 7.09875 6.56471 7.09899 5.81934 7.09045C6.14384 6.75643 6.46293 6.43121 6.79222 6.10241C6.84884 6.05776 6.89754 6.01898 6.94132 5.97528C7.5399 5.3777 8.13745 4.7791 8.73618 4.18169C8.84243 4.07567 8.95291 3.97388 9.06111 3.88316C9.01923 4.13969 9.08609 4.30377 9.26628 4.40055C9.43402 4.49065 9.60699 4.4488 9.78192 4.27554C9.83352 4.22444 9.88338 4.17152 9.93631 4.12185C10.0903 3.97736 10.2454 3.8341 10.4 3.69035C10.6168 3.82895 10.8337 3.96754 11.0562 4.11521Z" fill="#C6C1C8"/>
<path d="M9.06164 3.87013C8.95311 3.97387 8.84263 4.07566 8.73638 4.18168C8.13764 4.77909 7.5401 5.37769 6.94152 5.97526C6.89774 6.01897 6.84904 6.05775 6.78107 6.098C6.3496 5.94929 5.93969 5.8014 5.52979 5.6535C5.57067 5.60126 5.60672 5.54421 5.65318 5.4975C6.4228 4.72366 7.19373 3.95111 7.97864 3.17163C8.24831 3.33052 8.40107 3.31468 8.61745 3.10514C8.81487 2.91396 9.01479 2.72536 9.2136 2.53563C9.39644 2.72195 9.57927 2.90827 9.76964 3.1092C9.73979 3.16593 9.70392 3.2095 9.66479 3.24991C9.4642 3.4571 9.26277 3.66347 9.06164 3.87013Z" fill="#F56470"/>
<path d="M8.2883 1.66529C8.15034 1.63058 8.01027 1.58606 7.85895 1.54202C7.46207 1.46393 7.11772 1.56464 6.77301 1.74315C6.45354 1.90859 6.10788 2.02347 5.76166 2.15859C5.74977 1.93319 5.7509 1.7098 5.75002 1.48642C5.74779 0.926072 5.98071 0.469913 6.37304 0.0860499C6.49108 -0.0294403 6.60546 -0.0289186 6.72379 0.0890671C7.246 0.609785 7.76562 1.1331 8.2883 1.66529Z" fill="#4173C8"/>
<path d="M12.9424 6.93646C13.1751 6.77285 13.4153 6.61882 13.6382 6.44276C13.8321 6.28953 14.0381 6.18494 14.2852 6.16207C14.5345 6.139 14.6058 5.99041 14.473 5.77525C14.4213 5.69141 14.3676 5.60883 14.3139 5.51465C14.5346 5.58734 14.7568 5.66956 14.9777 5.75509C15.4285 5.92966 15.7401 6.24618 15.9237 6.69108C15.9332 6.71411 15.935 6.74034 15.9431 6.77751C15.8646 6.79776 15.7827 6.81563 15.702 6.81165C15.3893 6.79625 15.1249 6.90089 14.8813 7.11525C14.2219 7.05536 13.5821 6.99591 12.9424 6.93646Z" fill="#C73E48"/>
<path d="M0.366511 6.1257C0.940086 6.4403 1.50293 6.76155 2.06481 7.08448C2.15728 7.13763 2.19114 7.22163 2.15784 7.32393C2.12075 7.43789 2.02814 7.45916 1.92137 7.45707C1.35426 7.44599 0.826322 7.29635 0.33533 7.01353C0.28597 6.9851 0.235002 6.95946 0.173828 6.92851C0.227069 6.66064 0.291263 6.39678 0.366511 6.1257Z" fill="#D8F0F4"/>
<path d="M9.06138 3.88319C9.26285 3.66351 9.46427 3.45714 9.66486 3.24996C9.70399 3.20954 9.73986 3.16597 9.77941 3.11372C9.9542 2.97442 10.1359 2.96926 10.3122 3.08519C10.4874 3.20045 10.5277 3.41476 10.4064 3.67959C10.2456 3.83413 10.0905 3.97739 9.93658 4.12188C9.88365 4.17155 9.83379 4.22447 9.78219 4.27557C9.60726 4.44882 9.43429 4.49067 9.26656 4.40058C9.08636 4.30379 9.0195 4.13972 9.06138 3.88319Z" fill="#F1F1F4"/>
<path d="M9.21858 2.52485C9.01472 2.72534 8.8148 2.91394 8.61738 3.10512C8.401 3.31466 8.24824 3.3305 7.98243 3.16158C7.81714 2.84548 7.83579 2.74402 8.08584 2.49091C8.25608 2.31859 8.42273 2.14271 8.59324 1.95825C8.74836 1.82309 9.01427 1.80519 9.14055 1.91139C9.34032 2.07939 9.36495 2.25806 9.21858 2.52485Z" fill="#F1F1F4"/>
<path d="M8.37684 1.74927C8.35051 1.73984 8.32071 1.72092 8.29443 1.69196C8.32309 1.7012 8.34823 1.7205 8.37684 1.74927Z" fill="#4173C8"/>
<path d="M14.3116 5.49597C14.3034 5.50274 14.2953 5.49803 14.2842 5.48484C14.2896 5.48205 14.2997 5.48476 14.3116 5.49597Z" fill="#C73E48"/>
<path d="M12.9304 6.93869C13.5817 6.99589 14.2214 7.05535 14.8729 7.12118C14.5024 7.5518 14.0187 7.74711 13.4548 7.74766C11.481 7.74958 9.50721 7.74793 7.52148 7.73673C7.54453 7.68246 7.57661 7.63636 7.61493 7.59623C7.77428 7.42933 7.93551 7.26422 8.09604 7.09846C8.11155 7.09085 8.12706 7.08323 8.16123 7.07876C8.22068 7.08742 8.26147 7.09772 8.30226 7.09774C9.6209 7.09853 10.9396 7.10476 12.2581 7.09154C12.4633 7.08948 12.6676 6.99794 12.8723 6.94778C12.8878 6.9455 12.9033 6.94322 12.9304 6.93869Z" fill="#DFDDE2"/>
<path d="M8.08126 7.0985C7.9356 7.26426 7.77438 7.42936 7.61503 7.59626C7.57671 7.6364 7.54463 7.6825 7.50731 7.73554C6.74989 7.74421 5.99486 7.7432 5.229 7.72772C5.40855 7.51067 5.59891 7.3081 5.79547 7.10404C5.80167 7.10255 5.81398 7.09923 5.81398 7.09923C6.56478 7.09898 7.31558 7.09874 8.08126 7.0985Z" fill="#B1ABB4"/>
<path d="M5.78935 7.10556C5.59899 7.30813 5.40863 7.5107 5.21493 7.72221C5.11773 7.73772 5.02387 7.74429 4.91565 7.75329C4.58818 7.5808 4.27508 7.40588 3.95654 7.21651C3.98828 7.15709 4.02544 7.11213 4.06261 7.06717C4.07791 7.05907 4.09321 7.05097 4.12612 7.04605C4.24541 7.06565 4.34688 7.09464 4.4488 7.09633C4.89558 7.10372 5.34249 7.10321 5.78935 7.10556Z" fill="#DEDCE1"/>
<path d="M4.0515 7.06258C4.02568 7.11215 3.98851 7.15711 3.94781 7.21101C3.78977 7.13256 3.63527 7.04518 3.47363 6.94962C3.65771 6.98028 3.84893 7.01913 4.0515 7.06258Z" fill="#B0A7B3"/>
<path d="M12.8593 6.94569C12.6679 6.99798 12.4636 7.08952 12.2584 7.09158C10.9399 7.1048 9.62121 7.09857 8.30258 7.09778C8.26178 7.09776 8.22099 7.08746 8.16943 7.07528C8.33061 6.90058 8.50256 6.73254 8.68288 6.55688C10.0762 6.68069 11.4611 6.81212 12.8593 6.94569Z" fill="#F1EFF3"/>
<path d="M5.79543 7.10408C5.34237 7.10322 4.89546 7.10373 4.44868 7.09634C4.34676 7.09466 4.24529 7.06567 4.13379 7.04228C4.58608 6.57759 5.04819 6.11987 5.51995 5.65785C5.93952 5.80144 6.34943 5.94934 6.77069 6.10162C6.46295 6.43124 6.14387 6.75646 5.81936 7.09048C5.81394 7.09927 5.80163 7.1026 5.79543 7.10408Z" fill="#F1F0F3"/>
</svg>
