<svg width="16" height="16" viewBox="0 0 16 16" fill="none" xmlns="http://www.w3.org/2000/svg">
<g clip-path="url(#clip0_894_796)">
<path d="M14.0016 11.9928C14.5424 11.9952 15.0832 12.0032 15.6239 11.9967C15.7911 11.9947 15.9263 12.0233 16.0225 12.1661C16.0312 12.2098 16.0312 12.2634 16.0225 12.3205C15.9265 12.476 15.793 12.5145 15.6252 12.5027C15.4601 12.4911 15.2934 12.5016 15.117 12.4947C14.6952 12.4882 14.2838 12.4895 13.8586 12.4867C13.8188 12.4809 13.7928 12.4776 13.7669 12.4776C10.2581 12.4773 6.74922 12.4766 3.24038 12.4784C2.90834 12.4785 2.59407 12.5503 2.30748 12.7331C1.73188 13.1001 1.38107 13.9561 1.74626 14.6586C2.04868 15.2404 2.51258 15.5614 3.1763 15.5617C6.70596 15.5633 10.2356 15.5625 13.7653 15.5623C13.8016 15.5623 13.838 15.5591 13.889 15.5592C14.3108 15.5601 14.7181 15.5592 15.1399 15.5602C15.2534 15.5622 15.3523 15.5607 15.4512 15.5629C15.6559 15.5674 15.8812 15.5042 16.0209 15.7305C16.0243 15.7266 16.0278 15.7227 16.0312 15.7188C16.0312 15.7622 16.0312 15.8056 16.0224 15.8521C15.9778 15.9139 15.942 15.9726 15.9062 16.0313C11.4889 16.0313 7.07159 16.0313 2.64971 16.0218C2.6201 15.9976 2.59676 15.9771 2.56971 15.969C2.11785 15.8344 1.75187 15.5714 1.4887 15.1869C0.909542 14.3406 1.0144 13.2619 1.75519 12.5442C2.01686 12.2908 2.34027 12.1388 2.70209 12.0345C3.04966 12.0301 3.3827 12.0256 3.71574 12.0255C6.98406 12.025 10.2524 12.0256 13.5207 12.0238C13.681 12.0237 13.8413 12.0036 14.0016 11.9928Z" fill="#6E9EFF"/>
<path d="M14.0067 11.9832C13.8413 12.0036 13.681 12.0237 13.5207 12.0238C10.2524 12.0256 6.98409 12.025 3.71577 12.0255C3.38273 12.0256 3.04969 12.0301 2.68757 12.0323C2.26357 12.0318 1.86847 12.0242 1.47374 12.0329C0.799476 12.0478 0.18007 11.5202 0.0910013 10.8968C0.0881259 10.8767 0.051919 10.8613 0.0312501 10.8438C0.03125 10.718 0.03125 10.5922 0.03125 10.452C0.051918 10.42 0.0871466 10.4054 0.0911378 10.3847C0.209167 9.77286 0.584726 9.39847 1.17864 9.26313C1.40101 9.21246 1.64376 9.25118 1.90624 9.24899C5.13247 9.24918 8.32968 9.24954 11.5269 9.24971C11.5529 9.24971 11.5788 9.24708 11.6185 9.24686C12.4091 9.2498 13.186 9.25157 13.9678 9.26023C13.9821 9.27348 13.9914 9.27982 14.0007 9.28616C14.0815 9.38203 14.1175 9.48735 14.0563 9.60609C14.0006 9.71418 13.9025 9.7237 13.7924 9.72058C13.5798 9.71456 13.367 9.71925 13.1251 9.71956C12.6889 9.72112 12.2817 9.7226 11.8601 9.72203C8.39429 9.7196 4.94299 9.71899 1.4917 9.7202C1.40478 9.72023 1.31592 9.73208 1.23127 9.75229C0.705696 9.87776 0.366378 10.4966 0.623841 11.001C0.819486 11.3842 1.12577 11.5463 1.5533 11.5456C4.93693 11.5406 8.32056 11.5429 11.7042 11.5425C11.7613 11.5425 11.8183 11.5375 11.8898 11.5377C12.3119 11.5367 12.7197 11.5329 13.1274 11.5291C13.3336 11.5298 13.5397 11.5309 13.7459 11.5312C14.074 11.5316 14.1599 11.6742 14.0067 11.9832Z" fill="#74D84B"/>
<path d="M4.18753 0.505089C3.94961 0.503392 3.71165 0.503312 3.47377 0.499271C3.36533 0.497429 3.24399 0.528914 3.18273 0.390059C3.12626 0.262056 3.15398 0.152445 3.22888 0.0406772C6.80279 0.0312502 10.3868 0.0312502 13.9854 0.03125C14.0202 0.0521773 14.0364 0.0828788 14.061 0.092596C14.6078 0.309011 14.9582 0.707357 15.0518 1.28107C15.1253 1.73182 15.0352 2.16482 14.7104 2.5284C14.3794 2.89889 13.9757 3.07367 13.4829 3.06355C13.2071 3.05789 12.9311 3.06289 12.6261 3.06209C12.1617 3.062 11.7263 3.06292 11.2755 3.06202C10.7875 3.05987 10.3148 3.05868 9.84209 3.05943C9.05259 3.06068 8.2631 3.06317 7.45874 3.0634C6.13803 3.06119 4.83218 3.06139 3.52634 3.05877C3.43413 3.05858 3.34196 3.0376 3.24977 3.02628C3.14477 2.9405 3.12227 2.8167 3.16638 2.70842C3.21297 2.59404 3.3288 2.5557 3.46021 2.56022C3.69191 2.5682 3.92409 2.56226 4.18109 2.56892C4.25269 2.57853 4.29927 2.58384 4.34586 2.58385C7.21482 2.58422 10.0838 2.58424 12.9527 2.58365C13.0096 2.58363 13.0664 2.57607 13.1374 2.57653C13.2763 2.58205 13.4014 2.58863 13.5259 2.58296C13.8069 2.57018 14.0563 2.48634 14.2673 2.28443C14.5039 2.05803 14.5779 1.78788 14.5653 1.47116C14.5501 1.08948 14.3717 0.812989 14.0481 0.634312C13.7409 0.464738 13.3988 0.494483 13.0486 0.503086C10.1111 0.500684 7.18819 0.500362 4.26524 0.500275C4.23933 0.500274 4.21343 0.503415 4.18753 0.505089Z" fill="#FC435F"/>
<path d="M11.291 3.06384C11.7265 3.06292 12.1619 3.062 12.6118 3.06375C12.626 4.16979 12.6257 5.27316 12.6115 6.39217C12.2857 6.40911 11.9739 6.41039 11.652 6.40969C11.6284 6.40834 11.6149 6.40897 11.5871 6.40821C11.4795 6.4049 11.3861 6.40299 11.2925 6.38678C11.2919 5.26959 11.2915 4.16671 11.291 3.06384Z" fill="#FAC800"/>
<path d="M14.5571 6.41164C14.9676 6.41164 15.378 6.41164 15.7978 6.41164C15.8028 6.44837 15.8117 6.48267 15.8117 6.51697C15.8124 7.412 15.8123 8.30703 15.8119 9.20206C15.8119 9.22263 15.8073 9.24321 15.7826 9.26258C15.3609 9.25625 14.9615 9.25111 14.5621 9.23173C14.5596 8.82643 14.557 8.43538 14.5624 8.03762C14.7097 7.89606 14.7071 7.75743 14.5626 7.60407C14.5616 7.20394 14.5606 6.81804 14.559 6.42701C14.5584 6.42188 14.5571 6.41164 14.5571 6.41164Z" fill="#AD5F2C"/>
<path d="M13.1202 10.4372C13.1218 10.5841 13.1233 10.731 13.108 10.8923C12.6853 10.9078 12.2794 10.9088 11.859 10.9091C11.7248 10.9079 11.605 10.9074 11.4853 10.9074C10.9385 10.9072 10.3918 10.9085 9.84506 10.9065C9.66622 10.9058 9.58773 10.826 9.59356 10.6634C9.59872 10.5198 9.70245 10.4394 9.89101 10.439C10.5523 10.4376 11.2136 10.4377 11.8895 10.4375C12.3095 10.4376 12.7149 10.4374 13.1202 10.4372Z" fill="#C5D7E6"/>
<path d="M13.1224 10.4227C12.7148 10.4374 12.3095 10.4376 11.8895 10.4229C11.8747 10.18 11.8746 9.95206 11.8745 9.72409C12.2817 9.7226 12.6888 9.72112 13.1105 9.72141C13.1249 9.95153 13.1247 10.1799 13.1224 10.4227Z" fill="#E4ECF2"/>
<path d="M11.8735 10.9099C12.2794 10.9088 12.6854 10.9078 13.1056 10.9067C13.1217 11.1046 13.1235 11.3024 13.1264 11.5147C12.7197 11.5329 12.312 11.5367 11.8897 11.5227C11.8746 11.3066 11.8741 11.1083 11.8735 10.9099Z" fill="#E3ECF2"/>
<path d="M14.6056 6.40979C14.6196 6.41164 14.6208 6.42189 14.6071 6.42798C13.6665 6.4344 12.7396 6.4351 11.8126 6.43407C11.7623 6.43401 11.712 6.41948 11.6616 6.41169C11.9734 6.4104 12.2853 6.40911 12.6118 6.40677C13.2815 6.40646 13.9365 6.4072 14.6056 6.40979Z" fill="#AA7766"/>
<path d="M14.6247 9.24597C15.0242 9.25111 15.4236 9.25624 15.8338 9.26877C15.2396 9.27842 14.6348 9.28067 14.0154 9.28454C13.9914 9.27981 13.9821 9.27347 13.983 9.25875C14.2037 9.2489 14.4142 9.24744 14.6247 9.24597Z" fill="#808064"/>
<path d="M11.2926 6.40109C11.386 6.403 11.4794 6.4049 11.5883 6.42248C11.6042 7.37399 11.6046 8.30983 11.605 9.24568C11.579 9.24708 11.553 9.24971 11.5271 9.24971C8.32985 9.24954 5.13264 9.24917 1.92091 9.24685C1.90619 8.31877 1.906 7.39265 1.9116 6.44085C1.97429 6.41221 2.03118 6.4067 2.08808 6.40668C3.36277 6.40619 4.63747 6.40677 5.91217 6.40607C6.43235 6.40579 6.95254 6.40297 7.48691 6.40318C8.76494 6.40374 10.0288 6.40242 11.2926 6.40109ZM4.20329 8.30503C4.7597 8.30504 5.31612 8.30507 5.87253 8.30503C6.14293 8.305 6.4135 8.31077 6.6837 8.30322C7.02716 8.29363 7.22214 8.04568 7.15964 7.71135C7.12019 7.50028 6.93564 7.3667 6.67198 7.36638C5.63716 7.36513 4.60234 7.36573 3.56752 7.36613C3.52083 7.36615 3.47345 7.36671 3.42756 7.37417C3.12043 7.42406 2.95174 7.7876 3.10888 8.05266C3.21223 8.22698 3.36931 8.30052 3.56364 8.30392C3.76639 8.30748 3.96924 8.30491 4.20329 8.30503Z" fill="#6E9EFF"/>
<path d="M7.47262 6.40129C6.95243 6.40296 6.43225 6.40578 5.91206 6.40607C4.63736 6.40677 3.36267 6.40618 2.08797 6.40667C2.03107 6.40669 1.97418 6.4122 1.90924 6.42636C1.44971 6.43755 0.998222 6.43755 0.539062 6.43755C0.539062 5.30004 0.539062 4.17386 0.539062 3.0307C1.43462 3.0307 2.32764 3.0307 3.23522 3.02849C3.34197 3.03759 3.43414 3.05858 3.52635 3.05876C4.83219 3.06138 6.13804 3.06118 7.4584 3.07787C7.47281 4.19647 7.47272 5.29888 7.47262 6.40129Z" fill="#FFDA45"/>
<path d="M13.1232 2.57203C13.0664 2.57607 13.0096 2.58363 12.9527 2.58365C10.0837 2.58424 7.21478 2.58422 4.34582 2.58385C4.29924 2.58384 4.25266 2.57853 4.19551 2.56795C4.18593 2.3104 4.1869 2.0606 4.20449 1.79598C5.95379 1.781 7.68648 1.78086 9.41917 1.78053C9.47116 1.78052 9.53609 1.7977 9.57243 1.77329C9.64851 1.72219 9.74717 1.65773 9.7655 1.58163C9.78187 1.5137 9.71774 1.40864 9.66012 1.34715C9.62448 1.30912 9.53462 1.3132 9.46908 1.31314C7.71038 1.31143 5.95167 1.31164 4.19296 1.31152C4.19114 1.05221 4.18932 0.792903 4.1875 0.519342C4.2134 0.503415 4.2393 0.500274 4.2652 0.500275C7.18815 0.500362 10.1111 0.500684 13.054 0.511607C13.1098 0.559636 13.1427 0.600439 13.1819 0.633952C13.6863 1.06564 13.7047 1.95545 13.2 2.44321C13.1653 2.47673 13.1484 2.52866 13.1232 2.57203Z" fill="#F0F5FA"/>
<path d="M4.19067 1.32598C5.95183 1.31164 7.71054 1.31143 9.46925 1.31314C9.53478 1.3132 9.62464 1.30912 9.66028 1.34715C9.7179 1.40864 9.78203 1.51371 9.76567 1.58163C9.74733 1.65773 9.64867 1.72219 9.5726 1.77329C9.53625 1.7977 9.47132 1.78052 9.41933 1.78053C7.68664 1.78086 5.95395 1.781 4.20693 1.78153C4.19114 1.63474 4.18968 1.48759 4.19067 1.32598Z" fill="#C6D7E6"/>
<path d="M13.8744 15.5574C13.8381 15.5591 13.8017 15.5622 13.7653 15.5622C10.2357 15.5625 6.70602 15.5632 3.17635 15.5617C2.51264 15.5614 2.04873 15.2404 1.74632 14.6586C1.38112 13.9561 1.73194 13.1001 2.30753 12.733C2.59412 12.5503 2.9084 12.4785 3.24044 12.4783C6.74928 12.4766 10.2581 12.4773 13.767 12.4776C13.7929 12.4776 13.8188 12.4809 13.8595 12.4994C13.8744 12.7398 13.8746 12.9635 13.8602 13.1875C11.1065 13.1881 8.36743 13.1882 5.62835 13.1884C5.57628 13.1884 5.52407 13.1862 5.47215 13.1892C5.32028 13.1977 5.21523 13.2998 5.22031 13.4314C5.22539 13.5633 5.33166 13.6566 5.48447 13.6568C6.3541 13.6577 7.22373 13.6571 8.09337 13.6574C10.0201 13.658 11.9468 13.6589 13.874 13.674C13.8744 13.9167 13.8744 14.1452 13.8598 14.3741C11.9618 14.3747 10.0784 14.375 8.19505 14.3753C8.14303 14.3753 8.09066 14.3723 8.03905 14.3771C7.87552 14.3923 7.77459 14.4962 7.78486 14.6349C7.79374 14.7547 7.90091 14.8389 8.05239 14.8436C8.10437 14.8452 8.15644 14.844 8.20847 14.844C10.097 14.8446 11.9856 14.8451 13.8744 14.8602C13.8745 15.1023 13.8745 15.3298 13.8744 15.5574Z" fill="#F0F5FA"/>
<path d="M13.8888 15.5592C13.8743 15.3298 13.8743 15.1023 13.8889 14.8596C14.3088 14.8444 14.7142 14.8444 15.1196 14.8443C15.1214 15.0728 15.1231 15.3013 15.1251 15.544C14.718 15.5592 14.3107 15.5601 13.8888 15.5592Z" fill="#E4ECF2"/>
<path d="M13.875 13.1871C13.8748 12.9635 13.8746 12.7398 13.8735 12.5035C14.2841 12.4895 14.6954 12.4882 15.1172 12.4947C15.1268 12.721 15.1258 12.9396 15.1082 13.1729C14.6861 13.1874 14.2806 13.1873 13.875 13.1871Z" fill="#E4ECF2"/>
<path d="M11.8588 10.9091C11.8738 11.1083 11.8743 11.3066 11.875 11.5199C11.8181 11.5375 11.761 11.5425 11.704 11.5425C8.32033 11.5429 4.9367 11.5406 1.55307 11.5456C1.12555 11.5463 0.819257 11.3842 0.623612 11.001C0.366149 10.4966 0.705467 9.87776 1.23104 9.75229C1.31569 9.73208 1.40455 9.72022 1.49147 9.72019C4.94277 9.71898 8.39406 9.71959 11.8599 9.72203C11.8745 9.95205 11.8746 10.18 11.8746 10.4226C11.2133 10.4377 10.5521 10.4376 9.89078 10.439C9.70222 10.4394 9.59849 10.5198 9.59334 10.6634C9.5875 10.826 9.66599 10.9058 9.84484 10.9065C10.3916 10.9085 10.9383 10.9072 11.485 10.9074C11.6048 10.9074 11.7245 10.9079 11.8588 10.9091Z" fill="#F0F5FA"/>
<path d="M11.5874 9.24686C11.5733 8.30984 11.5729 7.374 11.5713 6.42389C11.5835 6.40898 11.597 6.40835 11.6206 6.4097C11.6811 6.41948 11.7314 6.43401 11.7817 6.43407C12.7087 6.4351 13.6356 6.4344 14.5769 6.4331C14.5922 6.81804 14.5932 7.20394 14.5815 7.60167C14.554 7.60873 14.5392 7.59985 14.5244 7.5998C13.9999 7.59787 13.4754 7.59362 12.9509 7.59754C12.8029 7.59865 12.7134 7.70758 12.7198 7.8481C12.7254 7.97313 12.8244 8.06206 12.9676 8.06283C13.3155 8.0647 13.6636 8.06574 14.0115 8.06278C14.2031 8.06115 14.3945 8.05077 14.586 8.04433C14.5886 8.43538 14.5911 8.82643 14.5937 9.23173C14.3831 9.24745 14.1725 9.24891 13.9469 9.25186C13.1549 9.25157 12.378 9.2498 11.5874 9.24686Z" fill="#BF6930"/>
<path d="M7.48682 6.40318C7.47273 5.29889 7.47283 4.19648 7.47327 3.0796C8.26312 3.06316 9.05262 3.06068 9.84212 3.05943C10.3148 3.05868 10.7876 3.05987 11.2756 3.06201C11.2913 4.16671 11.2917 5.26959 11.2924 6.38678C10.0287 6.40241 8.76485 6.40374 7.48682 6.40318ZM8.28123 4.85557C8.28132 4.91276 8.27735 4.9703 8.28229 5.02707C8.29402 5.16182 8.41528 5.26219 8.54903 5.25209C8.67692 5.24243 8.75038 5.15358 8.75056 5.00699C8.75079 4.82501 8.75149 4.64303 8.74981 4.46107C8.74829 4.29662 8.68322 4.22433 8.53638 4.21873C8.39462 4.21332 8.28919 4.30573 8.28256 4.45112C8.27689 4.57564 8.28129 4.70063 8.28123 4.85557ZM10.4689 4.76489C10.4689 4.66084 10.4707 4.55675 10.4686 4.45274C10.4653 4.29708 10.3908 4.22147 10.242 4.21869C10.1031 4.21609 10.0058 4.3014 10.0016 4.44499C9.99583 4.64252 9.98748 4.84157 10.0067 5.03739C10.0138 5.10971 10.0827 5.20842 10.1474 5.23356C10.2123 5.2588 10.3207 5.2282 10.3859 5.18536C10.5312 5.08989 10.4491 4.92826 10.4689 4.76489ZM9.22171 5.20455C9.48041 5.3115 9.59379 5.23736 9.5939 4.96115C9.59397 4.79472 9.58663 4.62784 9.59651 4.462C9.60359 4.34304 9.57914 4.24945 9.45536 4.22263C9.33121 4.19574 9.20322 4.21258 9.16801 4.35877C9.10127 4.63589 9.07349 4.91598 9.22171 5.20455Z" fill="#FFF5F5"/>
<path d="M13.1371 2.57653C13.1482 2.52866 13.1651 2.47673 13.1998 2.44321C13.7045 1.95545 13.6861 1.06564 13.1817 0.633952C13.1425 0.600439 13.1096 0.559636 13.0684 0.513701C13.3985 0.494484 13.7407 0.464738 14.0478 0.634312C14.3715 0.81299 14.5499 1.08948 14.5651 1.47116C14.5777 1.78788 14.5037 2.05803 14.2671 2.28443C14.056 2.48634 13.8067 2.57018 13.5257 2.58296C13.4012 2.58863 13.2761 2.58205 13.1371 2.57653Z" fill="#E4ECF2"/>
<path d="M13.8603 13.1875C14.2805 13.1873 14.686 13.1874 15.1059 13.1873C15.1217 13.3341 15.1231 13.4811 15.1078 13.6425C14.6853 13.6578 14.2794 13.6588 13.8736 13.6597C11.9469 13.6589 10.0202 13.658 8.09345 13.6574C7.22382 13.6571 6.35418 13.6577 5.48455 13.6568C5.33174 13.6566 5.22548 13.5633 5.22039 13.4314C5.21532 13.2998 5.32036 13.1977 5.47224 13.1892C5.52415 13.1863 5.57636 13.1884 5.62843 13.1884C8.36752 13.1882 11.1066 13.1881 13.8603 13.1875Z" fill="#C5D7E6"/>
<path d="M15.1222 14.8299C14.7145 14.8444 14.3091 14.8444 13.8889 14.8451C11.9856 14.8452 10.0971 14.8446 8.2085 14.844C8.15647 14.844 8.10441 14.8452 8.05243 14.8436C7.90095 14.8389 7.79377 14.7547 7.7849 14.6349C7.77463 14.4962 7.87556 14.3923 8.03909 14.3771C8.0907 14.3723 8.14306 14.3753 8.19509 14.3753C10.0785 14.375 11.9618 14.3748 13.8745 14.3746C14.3092 14.3746 14.7146 14.3746 15.12 14.3745C15.1215 14.5215 15.123 14.6685 15.1222 14.8299Z" fill="#C5D7E6"/>
<path d="M15.1223 14.3601C14.7146 14.3746 14.3092 14.3746 13.8891 14.3741C13.8744 14.1452 13.8745 13.9167 13.874 13.674C14.2794 13.6588 14.6852 13.6578 15.1053 13.6569C15.1213 13.8865 15.123 14.1161 15.1223 14.3601Z" fill="#E3ECF2"/>
<path d="M14.625 8.03762C14.4255 8.05076 14.2341 8.06115 14.0426 8.06277C13.6946 8.06573 13.3466 8.06469 12.9986 8.06283C12.8554 8.06206 12.7564 7.97313 12.7508 7.8481C12.7445 7.70758 12.8339 7.59865 12.982 7.59754C13.5064 7.59362 14.031 7.59786 14.5555 7.5998C14.5703 7.59985 14.585 7.60873 14.6125 7.61589C14.7697 7.75744 14.7723 7.89606 14.625 8.03762Z" fill="#FFF4F4"/>
<path d="M4.1874 8.30503C3.96897 8.30491 3.76612 8.30748 3.56338 8.30392C3.36905 8.30052 3.21197 8.22698 3.10861 8.05265C2.95147 7.7876 3.12016 7.42406 3.42729 7.37417C3.47319 7.36671 3.52056 7.36615 3.56725 7.36613C4.60207 7.36573 5.6369 7.36513 6.67172 7.36638C6.93537 7.3667 7.11992 7.50028 7.15938 7.71134C7.22187 8.04568 7.02689 8.29363 6.68343 8.30322C6.41324 8.31077 6.14267 8.305 5.87226 8.30503C5.31585 8.30507 4.75944 8.30504 4.1874 8.30503Z" fill="#FFF5F5"/>
<path d="M8.28136 4.84049C8.28142 4.70063 8.27701 4.57564 8.28269 4.45112C8.28932 4.30573 8.39474 4.21332 8.53651 4.21873C8.68335 4.22433 8.74842 4.29663 8.74994 4.46107C8.75162 4.64303 8.75092 4.82502 8.75069 5.00699C8.75051 5.15358 8.67705 5.24243 8.54916 5.25209C8.4154 5.26219 8.29414 5.16182 8.28242 5.02707C8.27748 4.9703 8.28144 4.91276 8.28136 4.84049Z" fill="#687B90"/>
<path d="M10.4688 4.78019C10.449 4.92827 10.5311 5.0899 10.3858 5.18537C10.3205 5.22821 10.2122 5.25881 10.1473 5.23357C10.0826 5.20843 10.0136 5.10972 10.0066 5.0374C9.98737 4.84158 9.99572 4.64253 10.0015 4.445C10.0057 4.30141 10.103 4.2161 10.2419 4.2187C10.3906 4.22148 10.4652 4.29709 10.4684 4.45275C10.4706 4.55676 10.4688 4.66085 10.4688 4.78019Z" fill="#687B90"/>
<path d="M9.2127 5.1956C9.07326 4.91599 9.10105 4.63589 9.16779 4.35878C9.203 4.21259 9.33099 4.19574 9.45513 4.22264C9.57892 4.24946 9.60337 4.34304 9.59629 4.462C9.58641 4.62785 9.59375 4.79472 9.59368 4.96116C9.59357 5.23736 9.48019 5.3115 9.2127 5.1956Z" fill="#687B90"/>
</g>
<defs>
<clipPath id="clip0_894_796">
<rect width="16" height="16" fill="white"/>
</clipPath>
</defs>
</svg>
