<svg width="18" height="18" viewBox="0 0 18 18" fill="none" xmlns="http://www.w3.org/2000/svg">
<g clip-path="url(#clip0_894_1037)">
<path d="M12.1268 17.1873C11.4533 17.1887 10.7798 17.1911 10.1063 17.1912C7.66373 17.1917 5.2212 17.1914 2.77868 17.1914C2.71491 17.1914 2.65114 17.1914 2.56615 17.1914C2.56615 16.6366 2.56615 16.0885 2.56579 15.5076C2.56543 11.1768 2.56543 6.87888 2.56543 2.5664C2.66129 2.5664 2.73058 2.5664 2.79987 2.5664C4.95013 2.5664 7.10039 2.56676 9.25066 2.56625C10.399 2.56598 11.5473 2.56419 12.6957 2.56308C13.2507 2.56308 13.8057 2.56308 14.3791 2.56308C14.3791 3.95552 14.3791 5.33489 14.375 6.74126C14.1852 6.96681 13.9997 7.16536 13.8029 7.3698C13.4885 7.67683 13.186 7.97874 12.8817 8.27886C12.5986 8.55807 12.3136 8.83539 12.0203 9.10251C11.9277 9.0727 11.8443 9.03762 11.7608 9.03752C9.29063 9.0346 6.82044 9.03513 4.35026 9.03529C4.30348 9.03529 4.25532 9.03057 4.21017 9.03972C4.0671 9.06872 3.98386 9.15765 3.97412 9.30494C3.96482 9.44555 4.06342 9.56857 4.20489 9.59226C4.26199 9.60182 4.32161 9.59747 4.38008 9.59749C6.76831 9.59831 9.15653 9.59892 11.54 9.61085C11.4527 9.7082 11.3703 9.79425 11.2765 9.88401C10.9566 10.1891 10.6479 10.4905 10.3293 10.7824C10.2468 10.7562 10.1743 10.7254 10.1015 10.7249C9.5804 10.7207 9.05924 10.7219 8.53809 10.7229C8.31541 10.7233 8.19073 10.8269 8.19203 11.0058C8.19333 11.1843 8.31722 11.2839 8.54212 11.285C8.97536 11.2871 9.40861 11.2883 9.83684 11.3001C9.68074 11.4627 9.52733 11.6129 9.37932 11.7681C9.26082 11.8925 9.14887 12.0231 9.02864 12.1633C8.99367 12.2564 8.96407 12.3371 8.91789 12.4151C7.36761 12.4116 5.83389 12.4109 4.30018 12.4102C4.27677 12.4102 4.25313 12.409 4.22999 12.4118C4.07629 12.4301 3.97145 12.5462 3.97333 12.6949C3.97521 12.8433 4.08136 12.9561 4.23714 12.9709C4.28938 12.9758 4.34243 12.9726 4.39511 12.9726C5.85856 12.9738 7.32201 12.9749 8.78542 12.9892C8.68375 13.3584 8.58212 13.7143 8.47138 14.1022C9.1403 13.908 9.7804 13.7222 10.4319 13.5353C11.1904 12.7892 11.9376 12.0443 12.6845 11.2991C12.6882 11.2954 12.6883 11.2882 12.6994 11.2758C12.9563 11.0219 13.203 10.7739 13.4519 10.5282C13.7584 10.2257 14.0668 9.92508 14.3765 9.64087C14.3802 9.84772 14.3819 10.0374 14.3812 10.2415C14.3804 10.3893 14.382 10.5226 14.3836 10.6559C14.3819 12.0728 14.3803 13.4898 14.3605 14.9244C13.6094 14.9419 12.8764 14.9419 12.1268 14.9419C12.1268 15.7069 12.1268 16.4471 12.1268 17.1873ZM5.182 6.78527C5.27522 6.78059 5.373 6.79214 5.46062 6.76752C5.60047 6.72823 5.66884 6.61976 5.65658 6.47274C5.64451 6.32792 5.52915 6.22692 5.36575 6.22415C5.09268 6.21953 4.81948 6.22289 4.54818 6.22289C4.54818 6.02281 4.54818 5.845 4.54818 5.65987C4.83015 5.65987 5.09934 5.66397 5.36833 5.65842C5.54504 5.65476 5.66273 5.53184 5.6589 5.37217C5.65523 5.2195 5.54078 5.10194 5.37273 5.09959C5.00367 5.09442 4.63446 5.09474 4.26539 5.09933C4.0942 5.10145 3.97717 5.20366 3.97603 5.36652C3.97072 6.12231 3.97133 6.87816 3.97527 7.63397C3.97608 7.78909 4.07164 7.89948 4.22339 7.90394C4.62139 7.91562 5.02032 7.91643 5.41818 7.902C5.569 7.89653 5.65904 7.78049 5.65669 7.62481C5.65434 7.46939 5.56208 7.37601 5.41018 7.35159C5.34154 7.34055 5.26988 7.34773 5.19958 7.34764C4.97979 7.34735 4.76 7.34753 4.54478 7.34753C4.54478 7.14641 4.54478 6.97279 4.54478 6.78527C4.75195 6.78527 4.9499 6.78527 5.182 6.78527ZM12.3566 5.66009C11.297 5.66009 10.2373 5.66009 9.17763 5.6601C9.13665 5.6601 9.09561 5.65879 9.05469 5.66049C8.87308 5.66799 8.7573 5.77486 8.75453 5.93645C8.75165 6.10424 8.87168 6.22094 9.06252 6.22168C9.70651 6.22418 10.3505 6.22269 10.9945 6.22271C11.5273 6.22272 12.06 6.22292 12.5928 6.22261C12.8454 6.22247 12.9746 6.1247 12.9719 5.93723C12.9692 5.75106 12.8427 5.66054 12.5846 5.66011C12.5202 5.66 12.4558 5.66009 12.3566 5.66009ZM9.99401 7.88358C10.1337 7.81242 10.1895 7.69669 10.1464 7.54882C10.1027 7.39921 9.98656 7.34643 9.83459 7.34668C8.73915 7.34847 7.64369 7.34698 6.54824 7.34822C6.3428 7.34846 6.21977 7.4606 6.22328 7.63457C6.22666 7.802 6.34593 7.90923 6.54217 7.90947C7.64934 7.91085 8.75651 7.9102 9.86368 7.90944C9.89829 7.90941 9.93289 7.90062 9.99401 7.88358ZM9.22851 3.97259C8.62555 3.9726 8.02259 3.97212 7.41963 3.97285C7.19406 3.97312 7.06996 4.07172 7.06703 4.24914C7.06407 4.4282 7.18944 4.5347 7.41029 4.53485C8.49327 4.53561 9.57625 4.5356 10.6592 4.53486C10.8805 4.53471 11.0058 4.42876 11.0032 4.24974C11.0006 4.07234 10.8762 3.97325 10.651 3.97285C10.1886 3.97203 9.72612 3.9726 9.22851 3.97259ZM5.95897 11.2852C6.40385 11.2852 6.84888 11.2916 7.29345 11.28C7.38764 11.2776 7.51294 11.2338 7.56406 11.1647C7.61419 11.097 7.62892 10.9449 7.58498 10.8805C7.53053 10.8006 7.40018 10.7303 7.30181 10.7292C6.31267 10.7184 5.32337 10.7224 4.33412 10.7228C4.09712 10.7229 3.97028 10.8244 3.97328 11.0084C3.97625 11.1902 4.10195 11.2849 4.34335 11.2851C4.87018 11.2855 5.397 11.2852 5.95897 11.2852ZM6.70065 5.66004C6.65384 5.66005 6.60703 5.65952 6.56023 5.66015C6.34951 5.66299 6.22738 5.76251 6.22322 5.93438C6.2189 6.11307 6.34526 6.22175 6.56392 6.22238C6.99689 6.22362 7.42987 6.22398 7.86284 6.22219C8.06932 6.22133 8.19213 6.11244 8.19071 5.93904C8.18929 5.76596 8.06722 5.66143 7.85826 5.66053C7.48381 5.6589 7.10933 5.66005 6.70065 5.66004ZM11.829 7.9103C11.9225 7.91025 12.0162 7.91283 12.1097 7.90959C12.2909 7.9033 12.4067 7.79512 12.4095 7.63371C12.4124 7.46603 12.2925 7.3502 12.1019 7.34851C11.7451 7.34534 11.3883 7.34537 11.0315 7.34848C10.8405 7.35015 10.7208 7.46506 10.7232 7.63285C10.7256 7.8002 10.8449 7.90746 11.0396 7.90958C11.2911 7.91233 11.5426 7.91028 11.829 7.9103Z" fill="#F7FBFE"/>
<path d="M12.694 2.54691C11.5475 2.56419 10.3992 2.56598 9.25086 2.56625C7.1006 2.56677 4.95034 2.5664 2.80007 2.5664C2.73079 2.5664 2.6615 2.5664 2.56564 2.5664C2.56564 6.87888 2.56564 11.1768 2.56446 15.4915C2.00824 15.5082 1.45318 15.5082 0.888672 15.5082C0.888672 10.6277 0.888672 5.76419 0.888672 0.889816C4.81553 0.889816 8.74186 0.889816 12.6922 0.889816C12.6922 1.435 12.6922 1.98287 12.694 2.54691Z" fill="#A7A7A7"/>
<path d="M14.8301 6.32702C15.068 6.08535 15.2919 5.82723 15.548 5.60671C15.7958 5.39342 16.116 5.36555 16.3985 5.50148C16.7172 5.65483 16.9896 5.89768 17.0964 6.2551C17.1896 6.56694 17.1394 6.86277 16.8918 7.10386C16.6862 7.30397 16.4855 7.50893 16.2658 7.72076C15.7761 7.26219 15.3031 6.79461 14.8301 6.32702Z" fill="#3397E7"/>
<path d="M14.8196 6.33163C15.303 6.7946 15.776 7.26219 16.2605 7.73146C16.3538 7.82382 16.4462 7.90711 16.5153 8.00661C16.6991 8.27132 16.6625 8.83747 16.3977 9.08394C15.8635 9.58131 15.3597 10.1114 14.8429 10.6275C14.7228 10.7474 14.5545 10.7614 14.3958 10.6611C14.382 10.5226 14.3804 10.3893 14.3919 10.2377C14.9106 9.71465 15.417 9.21067 15.9212 8.70468C16.0749 8.55048 16.074 8.40969 15.9286 8.24676C15.9019 8.21685 15.8795 8.18313 15.848 8.14225C15.5699 7.86062 15.2977 7.58915 15.0284 7.31479C14.8335 7.11618 14.6425 6.91374 14.4498 6.71301C14.5695 6.58742 14.6893 6.46184 14.8196 6.33163Z" fill="#656565"/>
<path d="M12.139 17.1877C12.127 16.4471 12.127 15.7069 12.127 14.9419C12.8766 14.9419 13.6096 14.9419 14.3587 14.9406C14.3564 14.9667 14.3418 14.998 14.3189 15.0209C13.5967 15.7438 12.8738 16.4659 12.139 17.1877Z" fill="#A8A8A8"/>
<path d="M14.4401 6.71628C14.6424 6.91374 14.8334 7.11619 15.0283 7.31479C15.2976 7.58915 15.5698 7.86062 15.8363 8.14575C15.6304 8.35682 15.4289 8.55547 15.2169 8.7486C14.7422 8.28336 14.2781 7.82363 13.814 7.3639C13.9996 7.16536 14.1851 6.96682 14.3759 6.7575C14.3976 6.73767 14.4141 6.72861 14.4401 6.71628Z" fill="#A1D2F6"/>
<path d="M13.8027 7.36981C14.278 7.82364 14.7421 8.28337 15.2119 8.75961C14.9363 9.05863 14.6553 9.34115 14.3742 9.62367C14.0666 9.92509 13.7582 10.2257 13.4517 10.5282C13.2028 10.7739 12.9561 11.0219 12.6892 11.2702C12.2092 10.8078 11.7484 10.344 11.2876 9.8803C11.3701 9.79426 11.4525 9.70821 11.5493 9.60547C11.7188 9.43037 11.8741 9.27196 12.0293 9.11356C12.3134 8.8354 12.5984 8.55809 12.8815 8.27888C13.1858 7.97875 13.4883 7.67685 13.8027 7.36981Z" fill="#3598E8"/>
<path d="M11.2767 9.884C11.7488 10.344 12.2096 10.8078 12.6804 11.2771C12.6885 11.2882 12.6884 11.2954 12.6847 11.2991C11.9378 12.0443 11.1906 12.7892 10.4283 13.5232C10.0442 13.1393 9.6762 12.7652 9.30546 12.3938C9.21983 12.308 9.12485 12.2316 9.03418 12.1509C9.14904 12.0231 9.26099 11.8925 9.3795 11.7681C9.52751 11.6128 9.68091 11.4627 9.84775 11.2946C10.0222 11.1165 10.1808 10.9541 10.3395 10.7918C10.6481 10.4905 10.9568 10.1891 11.2767 9.884Z" fill="#A3D4F7"/>
<path d="M12.0204 9.10253C11.8744 9.27196 11.7191 9.43037 11.5544 9.59417C9.15665 9.59893 6.76842 9.59833 4.3802 9.5975C4.32173 9.59748 4.2621 9.60183 4.20501 9.59227C4.06354 9.56859 3.96494 9.44556 3.97424 9.30495C3.98398 9.15767 4.06721 9.06874 4.21029 9.03974C4.25544 9.03058 4.30359 9.03531 4.35038 9.0353C6.82056 9.03515 9.29075 9.03461 11.7609 9.03754C11.8444 9.03764 11.9278 9.07272 12.0204 9.10253Z" fill="#A7A7A7"/>
<path d="M5.16491 6.78528C4.94988 6.78528 4.75193 6.78528 4.54477 6.78528C4.54477 6.9728 4.54477 7.14642 4.54477 7.34754C4.75999 7.34754 4.97978 7.34736 5.19957 7.34765C5.26986 7.34774 5.34152 7.34056 5.41016 7.3516C5.56207 7.37602 5.65433 7.4694 5.65668 7.62482C5.65903 7.7805 5.56899 7.89654 5.41816 7.90201C5.02031 7.91643 4.62138 7.91563 4.22338 7.90395C4.07162 7.89949 3.97607 7.7891 3.97526 7.63398C3.97132 6.87817 3.97071 6.12232 3.97602 5.36653C3.97716 5.20367 4.09419 5.10146 4.26537 5.09934C4.63444 5.09475 5.00366 5.09443 5.37271 5.0996C5.54077 5.10195 5.65522 5.21951 5.65888 5.37218C5.66272 5.53185 5.54502 5.65478 5.36832 5.65843C5.09933 5.66398 4.83014 5.65988 4.54817 5.65988C4.54817 5.84501 4.54817 6.02282 4.54817 6.2229C4.81947 6.2229 5.09267 6.21954 5.36573 6.22416C5.52914 6.22693 5.6445 6.32793 5.65657 6.47275C5.66882 6.61977 5.60045 6.72824 5.46061 6.76753C5.37299 6.79215 5.27521 6.7806 5.16491 6.78528Z" fill="#666666"/>
<path d="M8.7853 12.9761C7.32185 12.9749 5.8584 12.9738 4.39495 12.9726C4.34227 12.9726 4.28922 12.9759 4.23698 12.9709C4.0812 12.9562 3.97505 12.8433 3.97317 12.6949C3.97129 12.5462 4.07613 12.4301 4.22983 12.4118C4.25296 12.4091 4.27661 12.4102 4.30002 12.4102C5.83373 12.4109 7.36745 12.4116 8.91723 12.4288C8.88396 12.6222 8.83463 12.7992 8.7853 12.9761Z" fill="#A7A7A7"/>
<path d="M12.3739 5.6601C12.4557 5.6601 12.5201 5.66001 12.5845 5.66012C12.8426 5.66055 12.9691 5.75107 12.9718 5.93724C12.9745 6.12471 12.8453 6.22247 12.5927 6.22262C12.06 6.22292 11.5272 6.22273 10.9944 6.22271C10.3504 6.2227 9.70643 6.22418 9.06244 6.22168C8.8716 6.22095 8.75157 6.10425 8.75445 5.93646C8.75722 5.77486 8.87299 5.668 9.05461 5.66049C9.09552 5.6588 9.13656 5.6601 9.17754 5.6601C10.2372 5.66009 11.2969 5.6601 12.3739 5.6601Z" fill="#A7A7A7"/>
<path d="M9.98069 7.88975C9.93282 7.90063 9.89822 7.90942 9.86361 7.90944C8.75644 7.9102 7.64927 7.91086 6.54211 7.90948C6.34586 7.90923 6.2266 7.802 6.22322 7.63457C6.21971 7.46061 6.34273 7.34846 6.54817 7.34823C7.64363 7.34698 8.73908 7.34847 9.83453 7.34668C9.98649 7.34643 10.1026 7.39921 10.1463 7.54883C10.1895 7.69669 10.1337 7.81243 9.98069 7.88975Z" fill="#A7A7A7"/>
<path d="M9.246 3.9726C9.72604 3.9726 10.1885 3.97204 10.651 3.97286C10.8761 3.97326 11.0005 4.07234 11.0031 4.24975C11.0057 4.42877 10.8804 4.53472 10.6591 4.53487C9.57616 4.5356 8.49318 4.53561 7.4102 4.53486C7.18935 4.5347 7.06399 4.42821 7.06695 4.24915C7.06988 4.07173 7.19397 3.97313 7.41955 3.97286C8.0225 3.97213 8.62546 3.9726 9.246 3.9726Z" fill="#A7A7A7"/>
<path d="M5.94131 11.2852C5.39691 11.2852 4.87009 11.2855 4.34327 11.2851C4.10186 11.2849 3.97616 11.1902 3.9732 11.0084C3.9702 10.8244 4.09703 10.7229 4.33403 10.7228C5.32329 10.7224 6.31259 10.7184 7.30172 10.7292C7.40009 10.7303 7.53045 10.8006 7.5849 10.8805C7.62884 10.9449 7.6141 11.097 7.56397 11.1647C7.51286 11.2338 7.38756 11.2776 7.29337 11.28C6.8488 11.2916 6.40376 11.2852 5.94131 11.2852Z" fill="#A7A7A7"/>
<path d="M8.78524 12.9892C8.8346 12.7991 8.88394 12.6222 8.93377 12.4316C8.96388 12.3371 8.99348 12.2564 9.02845 12.1633C9.12449 12.2316 9.21947 12.308 9.30509 12.3938C9.67584 12.7652 10.0439 13.1393 10.4166 13.5244C9.78021 13.7222 9.14011 13.908 8.47119 14.1022C8.58193 13.7143 8.68357 13.3584 8.78524 12.9892Z" fill="#676868"/>
<path d="M10.3292 10.7824C10.1805 10.9541 10.0219 11.1165 9.85247 11.2843C9.40848 11.2883 8.97524 11.2871 8.54199 11.285C8.31709 11.2839 8.1932 11.1843 8.1919 11.0058C8.1906 10.8269 8.31528 10.7233 8.53796 10.7229C9.05911 10.7219 9.58028 10.7207 10.1014 10.7248C10.1741 10.7254 10.2466 10.7562 10.3292 10.7824Z" fill="#A7A7A7"/>
<path d="M6.71779 5.66004C7.10936 5.66005 7.48383 5.6589 7.85829 5.66053C8.06725 5.66144 8.18932 5.76596 8.19074 5.93904C8.19216 6.11244 8.06934 6.22133 7.86287 6.22219C7.4299 6.22398 6.99692 6.22362 6.56394 6.22238C6.34529 6.22176 6.21893 6.11307 6.22325 5.93438C6.22741 5.76251 6.34954 5.66299 6.56026 5.66015C6.60706 5.65952 6.65387 5.66005 6.71779 5.66004Z" fill="#A8A8A8"/>
<path d="M11.8115 7.91031C11.5426 7.91029 11.2911 7.91233 11.0396 7.90959C10.8448 7.90747 10.7256 7.80021 10.7232 7.63286C10.7208 7.46506 10.8405 7.35015 11.0315 7.34849C11.3883 7.34538 11.7451 7.34534 12.1019 7.34851C12.2925 7.3502 12.4124 7.46604 12.4095 7.63372C12.4067 7.79512 12.2909 7.90331 12.1097 7.90959C12.0162 7.91284 11.9225 7.91026 11.8115 7.91031Z" fill="#A8A8A8"/>
</g>
<defs>
<clipPath id="clip0_894_1037">
<rect width="18" height="18" fill="white"/>
</clipPath>
</defs>
</svg>
