<svg xmlns="http://www.w3.org/2000/svg" width="24" height="24" viewBox="0 0 24 24" fill="none">
  <g clip-path="url(#clip0_264_416)">
    <path d="M7.333 18.5H7.16632L7.03298 18.6L3.7 21.1C3.69999 21.1 3.69999 21.1 3.69998 21.1C3.2056 21.4708 2.5 21.118 2.5 20.5V6C2.5 5.33696 2.76339 4.70107 3.23223 4.23223C3.70107 3.76339 4.33696 3.5 5 3.5H19C19.663 3.5 20.2989 3.76339 20.7678 4.23223C21.2366 4.70107 21.5 5.33696 21.5 6V16C21.5 16.663 21.2366 17.2989 20.7678 17.7678C20.2989 18.2366 19.663 18.5 19 18.5H7.333ZM3.5 19V20.0001L4.30003 19.4L6.433 17.8C6.43301 17.8 6.43302 17.8 6.43303 17.8C6.69267 17.6053 7.00846 17.5 7.333 17.5H19C19.3978 17.5 19.7794 17.342 20.0607 17.0607C20.342 16.7794 20.5 16.3978 20.5 16V6C20.5 5.60218 20.342 5.22065 20.0607 4.93934C19.7794 4.65804 19.3978 4.5 19 4.5H5C4.60217 4.5 4.22064 4.65804 3.93934 4.93934C3.65804 5.22064 3.5 5.60217 3.5 6V19ZM10.9994 12.5C11.1269 12.5001 11.2495 12.5489 11.3421 12.6364C11.4348 12.7239 11.4906 12.8435 11.498 12.9707C11.5055 13.0979 11.4641 13.2232 11.3823 13.3209C11.3031 13.4155 11.1918 13.4774 11.07 13.4949L10.9851 13.5H8.00055C7.87311 13.4999 7.75054 13.4511 7.65787 13.3636C7.5652 13.2761 7.50944 13.1565 7.50197 13.0293C7.4945 12.9021 7.53589 12.7768 7.61769 12.6791C7.69688 12.5845 7.80816 12.5226 7.93001 12.5051L8.01494 12.5H10.9994ZM16 8.5C16.1326 8.5 16.2598 8.55268 16.3536 8.64645C16.4473 8.74021 16.5 8.86739 16.5 9C16.5 9.13261 16.4473 9.25979 16.3536 9.35355C16.2598 9.44732 16.1326 9.5 16 9.5H8C7.86739 9.5 7.74022 9.44732 7.64645 9.35355C7.55268 9.25978 7.5 9.13261 7.5 9C7.5 8.86739 7.55268 8.74022 7.64645 8.64645C7.74022 8.55268 7.86739 8.5 8 8.5H16Z" stroke="#181F29"/>
  </g>
  <defs>
    <clipPath id="clip0_264_416">
      <rect width="24" height="24" fill="white"/>
    </clipPath>
  </defs>
</svg>