<svg xmlns="http://www.w3.org/2000/svg" width="22" height="22" viewBox="0 0 22 22" fill="none">
  <g clip-path="url(#clip0_264_421)">
    <path fill-rule="evenodd" clip-rule="evenodd" d="M3.66666 4.58325C3.66666 3.85391 3.95639 3.15443 4.47211 2.63871C4.98784 2.12298 5.68731 1.83325 6.41666 1.83325H15.5833C16.3127 1.83325 17.0121 2.12298 17.5279 2.63871C18.0436 3.15443 18.3333 3.85391 18.3333 4.58325V19.2756C18.3333 20.3939 17.0683 21.0448 16.159 20.3948L11 16.7098L5.84099 20.3948C4.93074 21.0457 3.66666 20.3948 3.66666 19.2765V4.58325ZM6.41666 3.66659C6.17354 3.66659 5.94038 3.76316 5.76848 3.93507C5.59657 4.10698 5.49999 4.34014 5.49999 4.58325V18.3855L10.2007 15.0278C10.4339 14.8611 10.7134 14.7715 11 14.7715C11.2866 14.7715 11.5661 14.8611 11.7993 15.0278L16.5 18.3855V4.58325C16.5 4.34014 16.4034 4.10698 16.2315 3.93507C16.0596 3.76316 15.8264 3.66659 15.5833 3.66659H6.41666Z" fill="#181F29"/>
  </g>
  <defs>
    <clipPath id="clip0_264_421">
      <rect width="22" height="22" fill="white"/>
    </clipPath>
  </defs>
</svg>